<?xml version="1.0" encoding="UTF-8" standalone="no"?>
<!-- Created with Inkscape (http://www.inkscape.org/) -->

<svg
   width="210mm"
   height="297mm"
   viewBox="0 0 210 297"
   version="1.1"
   id="svg1604"
   xml:space="preserve"
   sodipodi:docname="R-101.svg"
   inkscape:version="1.2.1 (9c6d41e4, 2022-07-14)"
   xmlns:inkscape="http://www.inkscape.org/namespaces/inkscape"
   xmlns:sodipodi="http://sodipodi.sourceforge.net/DTD/sodipodi-0.dtd"
   xmlns="http://www.w3.org/2000/svg"
   xmlns:svg="http://www.w3.org/2000/svg"><sodipodi:namedview
     id="namedview1606"
     pagecolor="#ffffff"
     bordercolor="#666666"
     borderopacity="1.0"
     inkscape:showpageshadow="2"
     inkscape:pageopacity="0.0"
     inkscape:pagecheckerboard="0"
     inkscape:deskcolor="#d1d1d1"
     inkscape:document-units="mm"
     showgrid="false"
     inkscape:zoom="0.5946522"
     inkscape:cx="244.68084"
     inkscape:cy="174.89215"
     inkscape:window-width="1920"
     inkscape:window-height="960"
     inkscape:window-x="0"
     inkscape:window-y="25"
     inkscape:window-maximized="0"
     inkscape:current-layer="g1735"><inkscape:page
       x="0"
       y="0"
       width="210"
       height="297"
       id="page1907" /><inkscape:page
       x="220"
       y="0"
       width="197.55556"
       height="148.16667"
       id="page1909" /></sodipodi:namedview><defs
     id="defs1601"><marker
   style="overflow:visible"
   id="marker3112"
   refX="0"
   refY="0"
   orient="auto-start-reverse"
   inkscape:stockid="TriangleStart"
   markerWidth="5.3244081"
   markerHeight="6.155385"
   viewBox="0 0 5.3244081 6.1553851"
   inkscape:isstock="true"
   inkscape:collect="always"
   preserveAspectRatio="xMidYMid"><path
     transform="scale(0.5)"
     style="fill:context-stroke;fill-rule:evenodd;stroke:context-stroke;stroke-width:1pt"
     d="M 5.77,0 -2.88,5 V -5 Z"
     id="path3110" /></marker><marker
   style="overflow:visible"
   id="marker2936"
   refX="0"
   refY="0"
   orient="auto-start-reverse"
   inkscape:stockid="TriangleStart"
   markerWidth="5.3244081"
   markerHeight="6.155385"
   viewBox="0 0 5.3244081 6.1553851"
   inkscape:isstock="true"
   inkscape:collect="always"
   preserveAspectRatio="xMidYMid"><path
     transform="scale(0.5)"
     style="fill:context-stroke;fill-rule:evenodd;stroke:context-stroke;stroke-width:1pt"
     d="M 5.77,0 -2.88,5 V -5 Z"
     id="path2934" /></marker><clipPath
   id="clipPath8957">
      <path
   clip-rule="nonzero"
   d="m 6,5 h 8 V 8.300781 H 6 Z m 0,0"
   id="path130" />
    </clipPath>
  <clipPath
   id="clipPath3175">
      <path
   clip-rule="nonzero"
   d="M 0,2 H 6 V 6.859375 H 0 Z m 0,0"
   id="path4841" />
    </clipPath>
    <clipPath
   id="clipPath2847">
      <path
   clip-rule="nonzero"
   d="M 20,0 H 30 V 6.859375 H 20 Z m 0,0"
   id="path4479" />
    </clipPath>
  </defs><g
     inkscape:label="Calque 1"
     inkscape:groupmode="layer"
     id="layer1" /><g
     id="g1735"
     transform="matrix(0.0352778 0 0 -0.0352778 5.53991 157.065)"><path
       d="M 0,0 H 5600 V 4200 H 0 Z"
       style="fill:#ffffff;fill-opacity:1;fill-rule:nonzero;stroke:none"
       id="path1737" /><path
       d="M 0,0 H 5600 V 4200 H 0 Z"
       style="fill:#ffffff;fill-opacity:1;fill-rule:nonzero;stroke:none"
       id="path1739" /><path
       d="M 650,220 H 5600 V 4200 H 650 Z"
       style="fill:#ffffff;fill-opacity:1;fill-rule:nonzero;stroke:none"
       id="path1741" /><path
       d="M 5600,587.148 H 650"
       style="fill:none;stroke:#dfdfdf;stroke-width:15;stroke-linecap:butt;stroke-linejoin:round;stroke-miterlimit:10;stroke-dasharray:none;stroke-opacity:1"
       id="path1743" /><path
       d="M 5600,1109.11 H 650"
       style="fill:none;stroke:#dfdfdf;stroke-width:15;stroke-linecap:butt;stroke-linejoin:round;stroke-miterlimit:10;stroke-dasharray:none;stroke-opacity:1"
       id="path1745" /><path
       d="M 5600,1631.06 H 650"
       style="fill:none;stroke:#dfdfdf;stroke-width:15;stroke-linecap:butt;stroke-linejoin:round;stroke-miterlimit:10;stroke-dasharray:none;stroke-opacity:1"
       id="path1747" /><path
       d="M 5600,2153.02 H 650"
       style="fill:none;stroke:#dfdfdf;stroke-width:15;stroke-linecap:butt;stroke-linejoin:round;stroke-miterlimit:10;stroke-dasharray:none;stroke-opacity:1"
       id="path1749" /><path
       d="M 5600,2674.97 H 650"
       style="fill:none;stroke:#dfdfdf;stroke-width:15;stroke-linecap:butt;stroke-linejoin:round;stroke-miterlimit:10;stroke-dasharray:none;stroke-opacity:1"
       id="path1751" /><path
       d="M 5600,3196.93 H 650"
       style="fill:none;stroke:#dfdfdf;stroke-width:15;stroke-linecap:butt;stroke-linejoin:round;stroke-miterlimit:10;stroke-dasharray:none;stroke-opacity:1"
       id="path1753" /><path
       d="M 5600,3718.88 H 650"
       style="fill:none;stroke:#dfdfdf;stroke-width:15;stroke-linecap:butt;stroke-linejoin:round;stroke-miterlimit:10;stroke-dasharray:none;stroke-opacity:1"
       id="path1755" /><path
       d="M 650,220 H 5600"
       style="fill:none;stroke:#262626;stroke-width:15;stroke-linecap:square;stroke-linejoin:round;stroke-miterlimit:10;stroke-dasharray:none;stroke-opacity:1"
       id="path1757" /><path
       d="m 5604.2,4207.1596 0,-3977.9028"
       style="fill:none;stroke:#262626;stroke-width:15;stroke-linecap:square;stroke-linejoin:round;stroke-miterlimit:10;stroke-dasharray:none;stroke-opacity:1"
       id="path1757-5"
       sodipodi:nodetypes="cc" /><g
       id="g1759"
       transform="scale(10)"><text
         xml:space="preserve"
         transform="matrix(1,0,0,-1,302.5,3.2)"
         style="font-variant:normal;font-weight:normal;font-size:14px;font-family:Helvetica;-inkscape-font-specification:Helvetica;writing-mode:lr-tb;fill:#262626;fill-opacity:1;fill-rule:nonzero;stroke:none"
         id="text1763"><tspan
           x="0 7 10.892"
           y="0"
           sodipodi:role="line"
           id="tspan1761">s/L</tspan></text></g><path
       d="M 650,220 V 4200"
       style="fill:none;stroke:#262626;stroke-width:15;stroke-linecap:square;stroke-linejoin:round;stroke-miterlimit:10;stroke-dasharray:none;stroke-opacity:1"
       id="path1765" /><path
       d="m 650,587.148 h 49.5"
       style="fill:none;stroke:#262626;stroke-width:15;stroke-linecap:square;stroke-linejoin:round;stroke-miterlimit:10;stroke-dasharray:none;stroke-opacity:1"
       id="path1767" /><path
       d="m 650,1109.11 h 49.5"
       style="fill:none;stroke:#262626;stroke-width:15;stroke-linecap:square;stroke-linejoin:round;stroke-miterlimit:10;stroke-dasharray:none;stroke-opacity:1"
       id="path1769" /><path
       d="m 650,1631.06 h 49.5"
       style="fill:none;stroke:#262626;stroke-width:15;stroke-linecap:square;stroke-linejoin:round;stroke-miterlimit:10;stroke-dasharray:none;stroke-opacity:1"
       id="path1771" /><path
       d="m 650,2153.02 h 49.5"
       style="fill:none;stroke:#262626;stroke-width:15;stroke-linecap:square;stroke-linejoin:round;stroke-miterlimit:10;stroke-dasharray:none;stroke-opacity:1"
       id="path1773" /><path
       d="m 650,2674.97 h 49.5"
       style="fill:none;stroke:#262626;stroke-width:15;stroke-linecap:square;stroke-linejoin:round;stroke-miterlimit:10;stroke-dasharray:none;stroke-opacity:1"
       id="path1775" /><path
       d="m 650,3196.93 h 49.5"
       style="fill:none;stroke:#262626;stroke-width:15;stroke-linecap:square;stroke-linejoin:round;stroke-miterlimit:10;stroke-dasharray:none;stroke-opacity:1"
       id="path1777" /><path
       d="m 650,3718.88 h 49.5"
       style="fill:none;stroke:#262626;stroke-width:15;stroke-linecap:square;stroke-linejoin:round;stroke-miterlimit:10;stroke-dasharray:none;stroke-opacity:1"
       id="path1779" /><path
       d="m 5600,587.148 h -49.5"
       style="fill:none;stroke:#262626;stroke-width:15;stroke-linecap:square;stroke-linejoin:round;stroke-miterlimit:10;stroke-dasharray:none;stroke-opacity:1"
       id="path1781" /><path
       d="m 5600,1109.11 h -49.5"
       style="fill:none;stroke:#262626;stroke-width:15;stroke-linecap:square;stroke-linejoin:round;stroke-miterlimit:10;stroke-dasharray:none;stroke-opacity:1"
       id="path1783" /><path
       d="m 5600,1631.06 h -49.5"
       style="fill:none;stroke:#262626;stroke-width:15;stroke-linecap:square;stroke-linejoin:round;stroke-miterlimit:10;stroke-dasharray:none;stroke-opacity:1"
       id="path1785" /><path
       d="m 5600,2153.02 h -49.5"
       style="fill:none;stroke:#262626;stroke-width:15;stroke-linecap:square;stroke-linejoin:round;stroke-miterlimit:10;stroke-dasharray:none;stroke-opacity:1"
       id="path1787" /><path
       d="m 5600,2674.97 h -49.5"
       style="fill:none;stroke:#262626;stroke-width:15;stroke-linecap:square;stroke-linejoin:round;stroke-miterlimit:10;stroke-dasharray:none;stroke-opacity:1"
       id="path1789" /><path
       d="m 5600,3196.93 h -49.5"
       style="fill:none;stroke:#262626;stroke-width:15;stroke-linecap:square;stroke-linejoin:round;stroke-miterlimit:10;stroke-dasharray:none;stroke-opacity:1"
       id="path1791" /><path
       d="m 5600,3718.88 h -49.5"
       style="fill:none;stroke:#262626;stroke-width:15;stroke-linecap:square;stroke-linejoin:round;stroke-miterlimit:10;stroke-dasharray:none;stroke-opacity:1"
       id="path1793" /><g
       id="g1795"
       transform="scale(10)"><text
         xml:space="preserve"
         transform="matrix(1,0,0,-1,27.2,53.2152)"
         style="font-variant:normal;font-weight:normal;font-size:14px;font-family:Helvetica;-inkscape-font-specification:Helvetica;writing-mode:lr-tb;fill:#262626;fill-opacity:1;fill-rule:nonzero;stroke:none"
         id="text1811"><tspan
           x="0 4.6620002 12.446 16.337999 24.122"
           y="0"
           sodipodi:role="line"
           id="tspan1797">-0.04</tspan><tspan
           x="0 4.6620002 12.446 16.337999 24.122"
           y="-52.195702"
           sodipodi:role="line"
           id="tspan1799">-0.02</tspan><tspan
           x="25"
           y="-104.391"
           id="tspan1801">0</tspan><tspan
           x="5 12.784 16.676001 24.459999"
           y="-156.5863"
           sodipodi:role="line"
           id="tspan1803">0.02</tspan><tspan
           x="5 12.784 16.676001 24.459999"
           y="-208.782"
           sodipodi:role="line"
           id="tspan1805">0.04</tspan><tspan
           x="5 12.784 16.676001 24.459999"
           y="-260.97729"
           sodipodi:role="line"
           id="tspan1807">0.06</tspan><tspan
           x="5 12.784 16.676001 24.459999"
           y="-313.17261"
           sodipodi:role="line"
           id="tspan1809">0.08</tspan></text><text
         xml:space="preserve"
         transform="matrix(0,1,1,0,14,208)"
         style="font-variant:normal;font-weight:normal;font-size:14px;font-family:Helvetica;-inkscape-font-specification:Helvetica;writing-mode:lr-tb;fill:#262626;fill-opacity:1;fill-rule:nonzero;stroke:none"
         id="text1815"><tspan
           x="0"
           y="0"
           id="tspan1813">c</tspan></text><text
         xml:space="preserve"
         transform="matrix(0,1,1,0,21,216)"
         style="font-variant:normal;font-weight:normal;font-size:11.2px;font-family:Helvetica;-inkscape-font-specification:Helvetica;writing-mode:lr-tb;fill:#262626;fill-opacity:1;fill-rule:nonzero;stroke:none"
         id="text1819"><tspan
           x="0"
           y="0"
           id="tspan1817">l</tspan></text><text
         xml:space="preserve"
         transform="matrix(0,1,1,0,14,219)"
         style="font-variant:normal;font-weight:normal;font-size:14px;font-family:Helvetica;-inkscape-font-specification:Helvetica;writing-mode:lr-tb;fill:#262626;fill-opacity:1;fill-rule:nonzero;stroke:none"
         id="text1823"><tspan
           x="0 4.6620002 11.662"
           y="0"
           sodipodi:role="line"
           id="tspan1821">(s)</tspan></text></g><path
       d="m 1008,2340.2 h 40 v 40 h -40 z"
       style="fill:none;stroke:#000000;stroke-width:15;stroke-linecap:butt;stroke-linejoin:miter;stroke-miterlimit:10;stroke-dasharray:none;stroke-opacity:1"
       id="path1825" /><path
       d="m 1031.7,3359.29 h 40 v 40 h -40 z"
       style="fill:none;stroke:#000000;stroke-width:15;stroke-linecap:butt;stroke-linejoin:miter;stroke-miterlimit:10;stroke-dasharray:none;stroke-opacity:1"
       id="path1827" /><path
       d="m 1087.01,3773.63 h 40 v 40 h -40 z"
       style="fill:none;stroke:#000000;stroke-width:15;stroke-linecap:butt;stroke-linejoin:miter;stroke-miterlimit:10;stroke-dasharray:none;stroke-opacity:1"
       id="path1829" /><path
       d="m 1221.33,4113.53 h 40 v 40 h -40 z"
       style="fill:none;stroke:#000000;stroke-width:15;stroke-linecap:butt;stroke-linejoin:miter;stroke-miterlimit:10;stroke-dasharray:none;stroke-opacity:1"
       id="path1831" /><path
       d="m 1513.68,3782.6 h 40 v 40 h -40 z"
       style="fill:none;stroke:#000000;stroke-width:15;stroke-linecap:butt;stroke-linejoin:miter;stroke-miterlimit:10;stroke-dasharray:none;stroke-opacity:1"
       id="path1833" /><path
       d="m 1829.73,3219.73 h 40 v 40 h -40 z"
       style="fill:none;stroke:#000000;stroke-width:15;stroke-linecap:butt;stroke-linejoin:miter;stroke-miterlimit:10;stroke-dasharray:none;stroke-opacity:1"
       id="path1835" /><path
       d="m 2145.78,2640.29 h 40 v 40 h -40 z"
       style="fill:none;stroke:#000000;stroke-width:15;stroke-linecap:butt;stroke-linejoin:miter;stroke-miterlimit:10;stroke-dasharray:none;stroke-opacity:1"
       id="path1837" /><path
       d="m 2359.11,2292.67 h 40 v 40 h -40 z"
       style="fill:none;stroke:#000000;stroke-width:15;stroke-linecap:butt;stroke-linejoin:miter;stroke-miterlimit:10;stroke-dasharray:none;stroke-opacity:1"
       id="path1839" /><path
       d="m 2572.45,1903.62 h 40 v 40 h -40 z"
       style="fill:none;stroke:#000000;stroke-width:15;stroke-linecap:butt;stroke-linejoin:miter;stroke-miterlimit:10;stroke-dasharray:none;stroke-opacity:1"
       id="path1841" /><path
       d="m 2888.5,1622.44 h 40 v 40 h -40 z"
       style="fill:none;stroke:#000000;stroke-width:15;stroke-linecap:butt;stroke-linejoin:miter;stroke-miterlimit:10;stroke-dasharray:none;stroke-opacity:1"
       id="path1843" /><path
       d="m 3188.75,860.707 h 40 v 40 h -40 z"
       style="fill:none;stroke:#000000;stroke-width:15;stroke-linecap:butt;stroke-linejoin:miter;stroke-miterlimit:10;stroke-dasharray:none;stroke-opacity:1"
       id="path1845" /><path
       d="m 3599.61,521.688 h 40 v 40 h -40 z"
       style="fill:none;stroke:#000000;stroke-width:15;stroke-linecap:butt;stroke-linejoin:miter;stroke-miterlimit:10;stroke-dasharray:none;stroke-opacity:1"
       id="path1847" /><path
       d="m 4026.28,497.523 h 40 v 40 h -40 z"
       style="fill:none;stroke:#000000;stroke-width:15;stroke-linecap:butt;stroke-linejoin:miter;stroke-miterlimit:10;stroke-dasharray:none;stroke-opacity:1"
       id="path1849" /><path
       d="m 4437.14,920.723 h 40 v 40 h -40 z"
       style="fill:none;stroke:#000000;stroke-width:15;stroke-linecap:butt;stroke-linejoin:miter;stroke-miterlimit:10;stroke-dasharray:none;stroke-opacity:1"
       id="path1851" /><path
       d="m 4666.28,1202.79 h 40 v 40 h -40 z"
       style="fill:none;stroke:#000000;stroke-width:15;stroke-linecap:butt;stroke-linejoin:miter;stroke-miterlimit:10;stroke-dasharray:none;stroke-opacity:1"
       id="path1853" /><path
       d="m 4879.62,1509.68 h 40 v 40 h -40 z"
       style="fill:none;stroke:#000000;stroke-width:15;stroke-linecap:butt;stroke-linejoin:miter;stroke-miterlimit:10;stroke-dasharray:none;stroke-opacity:1"
       id="path1855" /><path
       d="m 995.699,2193.54 16.731,82.02 6.01,233.85 22.12,303.58 5.77,136.15 2.68,-270.49 3.09,400.59 18.03,242.06 0.4,92.02 1.66,-216.93 14.05,532.17 1.92,-202.26 7.22,87.49 32.46,202 2.87,110.43 15.8,132.59 78.7,59.03 79.35,-38.78 68.52,-84.12 57.71,-85 54.1,-86.35 46.88,-95.94 63.48,-51.69 41.11,-91.72 50.49,-82.58 50.5,-83.66 46.88,-79.16 65.52,-123.46 52.84,-76.37 51.15,-101.53 54.5,-76.87 46.48,-119.71 57.71,-103.61 136.45,-189.36 25.84,-114.01 46.89,-90.06 178.97,-397 48.96,-81.15 64.2,-122.67 75.74,-119.38 36.06,-98.94 54.1,-84.58 46.89,-82.36 95.99,-121.7 83.58,-154.35 195.51,-196.191 68.53,-65.457 68.52,-75.613 72.13,-69.86 99.96,-63.23 79.92,-55.859 94.22,-74.532 79.35,-46.617 79.34,-41.82 79.34,-34.942 82.35,-26.257 71.35,-14.852 84.34,-11.102 79.34,11.813 79.35,25.57 79.34,41.731 75.74,51.929 80.18,65.559 89.33,98.191 61.82,51.161 53.59,91.328 64.01,76.941 94.68,171.348 32.46,46.781 73.33,133.53 36.07,77.47 49.29,109.57 18.03,94.26 61.31,166.39"
       style="fill:none;stroke:#0000ff;stroke-width:15;stroke-linecap:butt;stroke-linejoin:round;stroke-miterlimit:10;stroke-dasharray:none;stroke-opacity:1"
       id="path1857" /><path
       d="M 988.488,2618.47 1005.6,4200"
       style="fill:none;stroke:#ff0000;stroke-width:15;stroke-linecap:butt;stroke-linejoin:bevel;stroke-miterlimit:10;stroke-dasharray:100, 60;stroke-dashoffset:0;stroke-opacity:1"
       id="path1859" /><path
       d="m 1852.79,4200 50.46,-162.07 79.03,162.07"
       style="fill:none;stroke:#ff0000;stroke-width:15;stroke-linecap:butt;stroke-linejoin:bevel;stroke-miterlimit:10;stroke-dasharray:100, 60;stroke-dashoffset:0;stroke-opacity:1"
       id="path1861" /><path
       d="m 1983.52,4200 78.42,-54.16 79.34,-1668.61 79.35,814.49 79.34,-563.48 79.34,-1643.29 79.35,825.12 79.34,1060.81 79.35,-1295.38 79.34,119.06 79.35,-238.17 79.34,-357.32 79.35,-711.031 79.34,480.652 72.8,-749.16"
       style="fill:none;stroke:#ff0000;stroke-width:15;stroke-linecap:butt;stroke-linejoin:bevel;stroke-miterlimit:10;stroke-dasharray:100, 60;stroke-dashoffset:0;stroke-opacity:1"
       id="path1863" /><path
       d="m 3102.39,219.531 70.37,528.399 61.31,-528.399"
       style="fill:none;stroke:#ff0000;stroke-width:15;stroke-linecap:butt;stroke-linejoin:bevel;stroke-miterlimit:10;stroke-dasharray:100, 60;stroke-dashoffset:0;stroke-opacity:1"
       id="path1865" /><path
       d="m 3553.85,219.531 15.63,156.078 19.78,-156.078"
       style="fill:none;stroke:#ff0000;stroke-width:15;stroke-linecap:butt;stroke-linejoin:bevel;stroke-miterlimit:10;stroke-dasharray:100, 60;stroke-dashoffset:0;stroke-opacity:1"
       id="path1867" /><path
       d="m 4267.68,219.531 15.9,723.867 14.21,-723.867"
       style="fill:none;stroke:#ff0000;stroke-width:15;stroke-linecap:butt;stroke-linejoin:bevel;stroke-miterlimit:10;stroke-dasharray:100, 60;stroke-dashoffset:0;stroke-opacity:1"
       id="path1869" /><path
       d="m 4947.52,219.531 50.16,565.008 79.06,-565.008"
       style="fill:none;stroke:#ff0000;stroke-width:15;stroke-linecap:butt;stroke-linejoin:bevel;stroke-miterlimit:10;stroke-dasharray:100, 60;stroke-dashoffset:0;stroke-opacity:1"
       id="path1871" /><path
       d="m 5077.24,219.531 79.13,777.879"
       style="fill:none;stroke:#ff0000;stroke-width:15;stroke-linecap:butt;stroke-linejoin:bevel;stroke-miterlimit:10;stroke-dasharray:100, 60;stroke-dashoffset:0;stroke-opacity:1"
       id="path1873" /><path
       id="path1877-0"
       style="fill:none;stroke:#000000;stroke-width:15;stroke-linecap:butt;stroke-linejoin:round;stroke-miterlimit:10;stroke-dasharray:none;stroke-opacity:1"
       d="m 959.01942,1627.8168 41.97198,-70.78 79.34,-69 79.35,-38.97 79.34,-29.35 79.35,-25.57 79.34,-22.82 79.34,-20.41 79.35,-15.95 79.34,-16.28 79.35,-12.16 79.34,-12.51 79.35,-8.72 79.34,-7.69 79.3499,-8.04 79.34,-7.69 79.35,-2.54 79.34,-4.94 79.34,-3.22 79.35,1.59 79.34,-0.82 79.35,-3.91 79.34,-0.12 79.35,-0.48 79.34,0.22 79.35,1.25 79.34,3.31 79.34,1.93 79.35,4.34 79.34,2.62 79.35,4.69 79.34,4.68 79.35,7.09 79.3401,6.41 79.3499,3.99 79.3401,6.06 79.34,11.22 79.35,16.03 79.34,12.59 79.35,10.88 79.34,13.62 79.35,10.36 79.34,21.1731 79.35,18.8555 79.34,18.3769 79.34,17.2245 79.35,22.56 79.34,19.82 79.35,20.49 79.34,20.16 79.35,18.09 79.34,21.53 79.35,13.74 79.34,28.64 59.3,19.88 m -4227.18198,15.1 41.97198,70.78 79.34,68.99 79.35,38.98 79.34,29.35 79.35,25.57 79.34,22.82 79.34,20.41 79.35,15.94 79.34,16.29 79.35,12.16 79.34,12.51 79.35,8.72 79.34,7.69 79.3499,8.04 79.34,7.69 79.35,2.53 79.34,4.94 79.34,3.23 79.35,-1.59 79.34,0.81 79.35,3.91 79.34,0.13 79.35,0.47 79.34,-0.21 79.35,-1.25 79.34,-3.31 79.34,-1.93 79.35,-4.34 79.34,-2.63 79.35,-4.68 79.34,-4.69 79.35,-7.09 79.3401,-6.4 79.3499,-4 79.3401,-6.06 79.34,-11.21 79.35,-16.03 79.34,-12.6 79.35,-10.87 79.34,-13.62 79.35,-10.36 79.34,-18.02 76.1969,-15.7124 79.34,-18.3769 82.4931,-23.5307 79.35,-22.56 79.34,-19.81 79.35,-20.5 79.34,-20.15 79.35,-18.1 79.34,-21.53 79.35,-13.74 79.34,-28.63 59.3,-19.88"
       sodipodi:nodetypes="cccccccccccccccccccccccccccccccccccccccccccccccccccccccccccccccccccccccccccccccccccccccccccccccccccccccccccccc" /><path
       d="m 3480,3560 h 2040 v 560 H 3480 Z"
       style="fill:#ffffff;fill-opacity:1;fill-rule:nonzero;stroke:none"
       id="path1879" /><g
       id="g1881"
       transform="scale(10)"><text
         xml:space="preserve"
         transform="matrix(1,0,0,-1,385,396)"
         style="font-variant:normal;font-weight:normal;font-size:14px;font-family:Helvetica;-inkscape-font-specification:Helvetica;writing-mode:lr-tb;fill:#000000;fill-opacity:1;fill-rule:nonzero;stroke:none"
         id="text1885"><tspan
           x="0 9.3380003 16.337999"
           y="0"
           sodipodi:role="line"
           id="tspan1883">Exp</tspan></text></g><path
       d="m 3650,3995 h 40 v 40 h -40 z"
       style="fill:none;stroke:#000000;stroke-width:15;stroke-linecap:butt;stroke-linejoin:miter;stroke-miterlimit:10;stroke-dasharray:none;stroke-opacity:1"
       id="path1887" /><g
       id="g1889"
       transform="scale(10)"><text
         xml:space="preserve"
         transform="matrix(1,0,0,-1,385,378.5)"
         style="font-variant:normal;font-weight:normal;font-size:14px;font-family:Helvetica;-inkscape-font-specification:Helvetica;writing-mode:lr-tb;fill:#000000;fill-opacity:1;fill-rule:nonzero;stroke:none"
         id="text1893"><tspan
           x="0 10.108 17.892 25.676001 29.568001 32.675999 40.459999 48.243999 56.028 63.812 70.811996 74.704002 84.042 93.379997 106.596 110.488 120.596 131.48801 135.38 143.164 147.056 154.84"
           y="0"
           sodipodi:role="line"
           id="tspan1891">Continuous ASWING 5.96</tspan></text></g><path
       d="m 3520,3840 h 300"
       style="fill:none;stroke:#0000ff;stroke-width:15;stroke-linecap:butt;stroke-linejoin:round;stroke-miterlimit:10;stroke-dasharray:none;stroke-opacity:1"
       id="path1895" /><g
       id="g1897"
       transform="scale(10)"><text
         xml:space="preserve"
         transform="matrix(1,0,0,-1,385,361)"
         style="font-variant:normal;font-weight:normal;font-size:14px;font-family:Helvetica;-inkscape-font-specification:Helvetica;writing-mode:lr-tb;fill:#000000;fill-opacity:1;fill-rule:nonzero;stroke:none"
         id="text1901"><tspan
           x="0 10.108 13.216 20.216 27.216 31.878 39.661999 43.554001 51.338001 55.23 64.568001 73.905998 87.122002 91.014 101.122 112.014 115.906 123.69 127.582 135.366"
           y="0"
           sodipodi:role="line"
           id="tspan1899">Discrete ASWING 5.96</tspan></text></g><path
       d="m 3520,3665 h 300"
       style="fill:none;stroke:#ff0000;stroke-width:15;stroke-linecap:butt;stroke-linejoin:bevel;stroke-miterlimit:10;stroke-dasharray:100, 60;stroke-dashoffset:0;stroke-opacity:1"
       id="path1903" /><path
       d="m 3480,3560 h 2040 v 560 H 3480 Z"
       style="fill:none;stroke:#262626;stroke-width:15;stroke-linecap:butt;stroke-linejoin:miter;stroke-miterlimit:10;stroke-dasharray:none;stroke-opacity:1"
       id="path1905" /><path
       d="M 658.82453,4211.4534 H 5608.8245"
       style="fill:none;stroke:#262626;stroke-width:15;stroke-linecap:square;stroke-linejoin:round;stroke-miterlimit:10;stroke-dasharray:none;stroke-opacity:1"
       id="path1757-4" /><path
       style="fill:#ff001b;fill-opacity:0.2;stroke-width:16.8535;stroke-opacity:0.2;paint-order:stroke markers fill"
       d="m 2214.4178,1267.2004 c -233.2773,12.3001 -595.0269,61.0761 -757.3677,102.1186 -282.947,71.5337 -408.4634,133.8109 -466.77766,231.5998 l -20.97172,35.168 20.97172,35.168 c 47.93006,80.3754 143.29266,137.3069 319.09306,190.4989 193.0233,58.4031 377.0072,92.923 659.7984,123.7944 167.4896,18.2843 225.8415,19.9743 695.6292,20.1477 324.1677,0.12 562.0129,-3.7899 646.5784,-10.6283 73.5762,-5.9496 193.3311,-15.0618 266.122,-20.2493 72.7909,-5.1874 165.0956,-15.2877 205.1215,-22.4451 40.0258,-7.1573 140.9994,-23.2759 224.3858,-35.8191 178.4946,-26.8495 308.652,-54.2356 486.0486,-102.2681 71.1236,-19.2578 221.6203,-57.3602 334.4371,-84.6721 204.4627,-49.4986 325.5188,-84.28 325.5188,-93.527 0,-9.5597 -124.4475,-44.6504 -396.8654,-111.9051 -488.0075,-120.4795 -595.5129,-144.6036 -749.6272,-168.2148 -83.1179,-12.7342 -183.9461,-29.0221 -224.0627,-36.1952 -40.1166,-7.1732 -134.4279,-17.4123 -209.5806,-22.7536 -75.1526,-5.3413 -184.8002,-13.7083 -243.6612,-18.5935 -105.1971,-8.7307 -992.6236,-17.6658 -1114.7904,-11.2242 z"
       id="path2283" /><path
       style="fill:none;stroke:#000000;stroke-width:14.1732;stroke-linecap:butt;stroke-linejoin:miter;stroke-dasharray:none;stroke-opacity:1;marker-start:url(#marker2936)"
       d="M 5058.0688,3097.5011 3880.8503,2731.8498"
       id="path2348" /><path
       style="fill:none;stroke:#000000;stroke-width:7.51181;stroke-linecap:butt;stroke-linejoin:miter;stroke-dasharray:22.5354, 22.5354;stroke-dashoffset:0;stroke-opacity:1"
       d="M 5191.8437,3115.3378 H 3845.177"
       id="path2350" /><path
       style="fill:none;stroke:#000000;stroke-width:7.5px;stroke-linecap:butt;stroke-linejoin:miter;stroke-opacity:1;marker-end:url(#marker3112)"
       d="m 4017.6721,3121.6385 c 0,-163.9614 75.6745,-296.3917 75.6745,-296.3917"
       id="path3064" /><g
       inkscape:label=""
       transform="matrix(42.51975,0,0,-42.51975,4474.8054,2871.2345)"
       id="g3778"><g
   fill="#000000"
   fill-opacity="1"
   id="g19"
   transform="matrix(0.352778,0,0,0.352778,-0.198437,0.00158747)">
    <g
   id="use17"
   transform="translate(0,6.8080001)">
      <path
   d="M 6.265625,-5.671875 C 6.75,-6.453125 7.171875,-6.484375 7.53125,-6.5 c 0.125,-0.015625 0.140625,-0.171875 0.140625,-0.1875 0,-0.078125 -0.0625,-0.125 -0.140625,-0.125 -0.25,0 -0.546875,0.03125 -0.8125,0.03125 -0.328125,0 -0.671875,-0.03125 -0.984375,-0.03125 -0.0625,0 -0.1875,0 -0.1875,0.1875 0,0.109375 0.078125,0.125 0.15625,0.125 0.265625,0.015625 0.453125,0.125 0.453125,0.328125 0,0.15625 -0.140625,0.375 -0.140625,0.375 l -3.0625,4.875 -0.6875,-5.28125 C 2.265625,-6.375 2.5,-6.5 2.953125,-6.5 c 0.140625,0 0.25,0 0.25,-0.203125 0,-0.078125 -0.078125,-0.109375 -0.125,-0.109375 -0.40625,0 -0.828125,0.03125 -1.25,0.03125 -0.171875,0 -0.359375,0 -0.546875,0 -0.171875,0 -0.359375,-0.03125 -0.53125,-0.03125 -0.078125,0 -0.1875,0 -0.1875,0.1875 0,0.125 0.078125,0.125 0.25,0.125 0.546875,0 0.5625,0.09375 0.59375,0.34375 L 2.1875,-0.015625 C 2.21875,0.1875 2.265625,0.21875 2.390625,0.21875 c 0.15625,0 0.203125,-0.046875 0.28125,-0.171875 z m 0,0"
   id="path31" />
    </g>
  </g>
  <g
   clip-path="url(#clipPath8957)"
   id="g25"
   transform="matrix(0.352778,0,0,0.352778,-0.198437,0.00158747)">
    <g
   fill="#000000"
   fill-opacity="1"
   id="g23">
      <g
   id="use21"
   transform="translate(5.8119998,8.302)">
        <path
   d="m 4.03125,-1.90625 c -0.375,-0.4375 -0.484375,-0.546875 -0.75,-0.734375 -0.421875,-0.3125 -0.875,-0.4375 -1.25,-0.4375 -0.875,0 -1.5,0.75 -1.5,1.578125 0,0.8125 0.609375,1.5625 1.46875,1.5625 0.96875,0 1.65625,-0.78125 1.90625,-1.15625 0.359375,0.4375 0.484375,0.546875 0.734375,0.734375 0.4375,0.3125 0.875,0.421875 1.265625,0.421875 0.859375,0 1.484375,-0.734375 1.484375,-1.5625 0,-0.828125 -0.59375,-1.578125 -1.46875,-1.578125 -0.96875,0 -1.640625,0.796875 -1.890625,1.171875 z m 0.21875,0.25 c 0.28125,-0.453125 0.890625,-1.15625 1.734375,-1.15625 0.71875,0 1.21875,0.640625 1.21875,1.3125 0,0.65625 -0.546875,1.1875 -1.1875,1.1875 -0.65625,0 -1.09375,-0.53125 -1.765625,-1.34375 z M 3.671875,-1.359375 C 3.40625,-0.90625 2.796875,-0.1875 1.9375,-0.1875 c -0.71875,0 -1.203125,-0.640625 -1.203125,-1.3125 0,-0.671875 0.546875,-1.1875 1.1875,-1.1875 0.640625,0 1.09375,0.53125 1.75,1.328125 z m 0,0"
   id="path35" />
      </g>
    </g>
  </g>
</g><g
       inkscape:label=""
       transform="matrix(42.5196,0,0,-42.5196,3459.6044,2987.401)"
       id="g4141"
       inkscape:export-filename="R-101.eps.png"
       inkscape:export-xdpi="96"
       inkscape:export-ydpi="96"><g
   clip-path="url(#clipPath3175)"
   id="g34"
   transform="matrix(0.352778,0,0,0.352778,-0.143316,-0.00374823)">
    <g
   fill="#000000"
   fill-opacity="1"
   id="g32">
      <g
   id="use30"
   transform="translate(0,6.8600001)">
        <path
   d="m 4.75,-2.359375 c 0,-1.5625 -0.921875,-2.046875 -1.65625,-2.046875 -1.375,0 -2.6875,1.421875 -2.6875,2.828125 0,0.9375 0.59375,1.6875 1.625,1.6875 0.625,0 1.34375,-0.234375 2.09375,-0.84375 0.125,0.53125 0.453125,0.84375 0.90625,0.84375 0.53125,0 0.84375,-0.546875 0.84375,-0.703125 0,-0.078125 -0.0625,-0.109375 -0.125,-0.109375 -0.0625,0 -0.09375,0.03125 -0.125,0.109375 -0.1875,0.484375 -0.546875,0.484375 -0.5625,0.484375 -0.3125,0 -0.3125,-0.78125 -0.3125,-1.015625 0,-0.203125 0,-0.234375 0.109375,-0.34375 C 5.796875,-2.65625 6,-3.8125 6,-3.8125 6,-3.84375 5.984375,-3.921875 5.875,-3.921875 c -0.09375,0 -0.09375,0.03125 -0.140625,0.21875 -0.1875,0.625 -0.515625,1.375 -0.984375,1.96875 z m -0.65625,1.375 c -0.890625,0.765625 -1.65625,0.875 -2.046875,0.875 -0.59375,0 -0.90625,-0.453125 -0.90625,-1.09375 0,-0.484375 0.265625,-1.5625 0.578125,-2.0625 C 2.1875,-4 2.734375,-4.1875 3.078125,-4.1875 c 0.984375,0 0.984375,1.3125 0.984375,2.078125 0,0.375 0,0.953125 0.03125,1.125 z m 0,0"
   id="path56" />
      </g>
    </g>
  </g>
  <g
   fill="#000000"
   fill-opacity="1"
   id="g38"
   transform="matrix(0.352778,0,0,0.352778,-0.143316,-0.00374823)">
    <g
   id="use36"
   transform="translate(9.177,6.8600001)">
      <path
   d="m 6.84375,-3.265625 c 0.15625,0 0.34375,0 0.34375,-0.1875 C 7.1875,-3.65625 7,-3.65625 6.859375,-3.65625 h -5.96875 c -0.140625,0 -0.328125,0 -0.328125,0.203125 0,0.1875 0.1875,0.1875 0.328125,0.1875 z m 0.015625,1.9375 c 0.140625,0 0.328125,0 0.328125,-0.203125 0,-0.1875 -0.1875,-0.1875 -0.34375,-0.1875 H 0.890625 c -0.140625,0 -0.328125,0 -0.328125,0.1875 0,0.203125 0.1875,0.203125 0.328125,0.203125 z m 0,0"
   id="path60" />
    </g>
  </g>
  <g
   clip-path="url(#clipPath2847)"
   id="g46"
   transform="matrix(0.352778,0,0,0.352778,-0.143316,-0.00374823)">
    <g
   fill="#000000"
   fill-opacity="1"
   id="g44">
      <g
   id="use40"
   transform="translate(19.695513,6.8600001)">
        <path
   d="m 2.9375,-6.375 c 0,-0.25 0,-0.265625 -0.234375,-0.265625 C 2.078125,-6 1.203125,-6 0.890625,-6 v 0.3125 c 0.203125,0 0.78125,0 1.296875,-0.265625 v 5.171875 c 0,0.359375 -0.03125,0.46875 -0.921875,0.46875 h -0.3125 V 0 c 0.34375,-0.03125 1.203125,-0.03125 1.609375,-0.03125 0.390625,0 1.265625,0 1.609375,0.03125 v -0.3125 h -0.3125 c -0.90625,0 -0.921875,-0.109375 -0.921875,-0.46875 z m 0,0"
   id="path64" />
      </g>
      <g
   id="use42"
   transform="translate(24.676813,6.8600001)">
        <path
   d="m 4.578125,-3.1875 c 0,-0.796875 -0.046875,-1.59375 -0.390625,-2.328125 -0.453125,-0.96875 -1.28125,-1.125 -1.6875,-1.125 -0.609375,0 -1.328125,0.265625 -1.75,1.1875 -0.3125,0.6875 -0.359375,1.46875 -0.359375,2.265625 0,0.75 0.03125,1.640625 0.453125,2.40625 0.421875,0.796875 1.15625,1 1.640625,1 0.53125,0 1.296875,-0.203125 1.734375,-1.15625 0.3125,-0.6875 0.359375,-1.46875 0.359375,-2.25 z M 2.484375,0 C 2.09375,0 1.5,-0.25 1.328125,-1.203125 1.21875,-1.796875 1.21875,-2.71875 1.21875,-3.3125 c 0,-0.640625 0,-1.296875 0.078125,-1.828125 0.1875,-1.1875 0.9375,-1.28125 1.1875,-1.28125 0.328125,0 0.984375,0.1875 1.171875,1.171875 0.109375,0.5625 0.109375,1.3125 0.109375,1.9375 0,0.75 0,1.421875 -0.109375,2.0625 C 3.5,-0.296875 2.9375,0 2.484375,0 Z m 0,0"
   id="path68" />
      </g>
    </g>
  </g>
  <g
   fill="#000000"
   fill-opacity="1"
   id="g50"
   transform="matrix(0.352778,0,0,0.352778,-0.143316,-0.00374823)">
    <g
   id="use48"
   transform="translate(29.656,3.2449999)">
      <path
   d="m 3.53125,-1.734375 c 0,-0.84375 -0.671875,-1.5 -1.5,-1.5 -0.828125,0 -1.5,0.671875 -1.5,1.484375 0,0.84375 0.6875,1.5 1.5,1.5 0.84375,0 1.5,-0.671875 1.5,-1.484375 z m -1.5,1.140625 C 1.375,-0.59375 0.875,-1.125 0.875,-1.734375 c 0,-0.65625 0.515625,-1.171875 1.15625,-1.171875 0.65625,0 1.15625,0.53125 1.15625,1.15625 0,0.65625 -0.515625,1.15625 -1.15625,1.15625 z m 0,0"
   id="path72" />
    </g>
  </g>
</g></g></svg>
