<?xml version="1.0" encoding="UTF-8" standalone="no"?>
<!-- Created with Inkscape (http://www.inkscape.org/) -->

<svg
   width="210mm"
   height="297mm"
   viewBox="0 0 210 297"
   version="1.1"
   id="svg5"
   xml:space="preserve"
   inkscape:version="1.2.1 (9c6d41e4, 2022-07-14)"
   sodipodi:docname="R33.svg"
   xmlns:inkscape="http://www.inkscape.org/namespaces/inkscape"
   xmlns:sodipodi="http://sodipodi.sourceforge.net/DTD/sodipodi-0.dtd"
   xmlns="http://www.w3.org/2000/svg"
   xmlns:svg="http://www.w3.org/2000/svg"><sodipodi:namedview
     id="namedview7"
     pagecolor="#ffffff"
     bordercolor="#666666"
     borderopacity="1.0"
     inkscape:showpageshadow="2"
     inkscape:pageopacity="0.0"
     inkscape:pagecheckerboard="0"
     inkscape:deskcolor="#d1d1d1"
     inkscape:document-units="mm"
     showgrid="false"
     inkscape:zoom="1.1893044"
     inkscape:cx="396.45023"
     inkscape:cy="369.96416"
     inkscape:window-width="1920"
     inkscape:window-height="968"
     inkscape:window-x="0"
     inkscape:window-y="25"
     inkscape:window-maximized="0"
     inkscape:current-layer="g5026"><inkscape:page
       x="0"
       y="0"
       width="210"
       height="297"
       id="page760" /><inkscape:page
       x="220"
       y="0"
       width="197.55556"
       height="148.16667"
       id="page762" /><inkscape:page
       x="427.55554"
       y="0"
       width="197.55556"
       height="148.16667"
       id="page1338" /><inkscape:page
       x="635.11108"
       y="0"
       width="197.55556"
       height="148.16667"
       id="page1628" /><inkscape:page
       x="842.66663"
       y="0"
       width="197.55556"
       height="148.16667"
       id="page5232" /></sodipodi:namedview><defs
     id="defs2"><marker
       style="overflow:visible"
       id="TriangleStart"
       refX="0"
       refY="0"
       orient="auto-start-reverse"
       inkscape:stockid="TriangleStart"
       markerWidth="5.3244081"
       markerHeight="6.155385"
       viewBox="0 0 5.3244081 6.1553851"
       inkscape:isstock="true"
       inkscape:collect="always"
       preserveAspectRatio="xMidYMid"><path
         transform="scale(0.5)"
         style="fill:context-stroke;fill-rule:evenodd;stroke:context-stroke;stroke-width:1pt"
         d="M 5.77,0 -2.88,5 V -5 Z"
         id="path135" /></marker><marker
       style="overflow:visible"
       id="marker6163"
       refX="0"
       refY="0"
       orient="auto-start-reverse"
       inkscape:stockid="TriangleStart"
       markerWidth="5.3244081"
       markerHeight="6.155385"
       viewBox="0 0 5.3244081 6.1553851"
       inkscape:isstock="true"
       inkscape:collect="always"
       preserveAspectRatio="xMidYMid"><path
         transform="scale(0.5)"
         style="fill:context-stroke;fill-rule:evenodd;stroke:context-stroke;stroke-width:1pt"
         d="M 5.77,0 -2.88,5 V -5 Z"
         id="path6161" /></marker></defs><g
     inkscape:label="Calque 1"
     inkscape:groupmode="layer"
     id="layer1" /><g
     id="g5026"
     transform="matrix(0.03527778,0,0,-0.03527778,3.6013412,154.64717)"><path
       d="M 0,0 H 5600 V 4200 H 0 Z"
       style="fill:#ffffff;fill-opacity:1;fill-rule:nonzero;stroke:none"
       id="path5028" /><path
       d="M 0,0 H 5600 V 4200 H 0 Z"
       style="fill:#ffffff;fill-opacity:1;fill-rule:nonzero;stroke:none"
       id="path5030" /><path
       d="M 570,220 H 5600 V 4200 H 570 Z"
       style="fill:#ffffff;fill-opacity:1;fill-rule:nonzero;stroke:none"
       id="path5032" /><path
       d="M 5600,672.32 H 570"
       style="fill:none;stroke:#dfdfdf;stroke-width:15;stroke-linecap:butt;stroke-linejoin:round;stroke-miterlimit:10;stroke-dasharray:none;stroke-opacity:1"
       id="path5034" /><path
       d="M 5600,1150.55 H 570"
       style="fill:none;stroke:#dfdfdf;stroke-width:15;stroke-linecap:butt;stroke-linejoin:round;stroke-miterlimit:10;stroke-dasharray:none;stroke-opacity:1"
       id="path5036" /><path
       d="M 5600,1628.77 H 570"
       style="fill:none;stroke:#dfdfdf;stroke-width:15;stroke-linecap:butt;stroke-linejoin:round;stroke-miterlimit:10;stroke-dasharray:none;stroke-opacity:1"
       id="path5038" /><path
       d="M 5600,2107 H 570"
       style="fill:none;stroke:#dfdfdf;stroke-width:15;stroke-linecap:butt;stroke-linejoin:round;stroke-miterlimit:10;stroke-dasharray:none;stroke-opacity:1"
       id="path5040" /><path
       d="M 5600,2585.23 H 570"
       style="fill:none;stroke:#dfdfdf;stroke-width:15;stroke-linecap:butt;stroke-linejoin:round;stroke-miterlimit:10;stroke-dasharray:none;stroke-opacity:1"
       id="path5042" /><path
       d="M 5600,3063.45 H 570"
       style="fill:none;stroke:#dfdfdf;stroke-width:15;stroke-linecap:butt;stroke-linejoin:round;stroke-miterlimit:10;stroke-dasharray:none;stroke-opacity:1"
       id="path5044" /><path
       d="M 5600,3541.68 H 570"
       style="fill:none;stroke:#dfdfdf;stroke-width:15;stroke-linecap:butt;stroke-linejoin:round;stroke-miterlimit:10;stroke-dasharray:none;stroke-opacity:1"
       id="path5046" /><path
       d="M 5600,4019.91 H 570"
       style="fill:none;stroke:#dfdfdf;stroke-width:15;stroke-linecap:butt;stroke-linejoin:round;stroke-miterlimit:10;stroke-dasharray:none;stroke-opacity:1"
       id="path5048" /><path
       d="M 570,220 H 5600"
       style="fill:none;stroke:#262626;stroke-width:15;stroke-linecap:square;stroke-linejoin:round;stroke-miterlimit:10;stroke-dasharray:none;stroke-opacity:1"
       id="path5050" /><g
       id="g5052"
       transform="scale(10)"><text
         xml:space="preserve"
         transform="matrix(1,0,0,-1,298.5,3.2)"
         style="font-variant:normal;font-weight:normal;font-size:14px;font-family:Helvetica;-inkscape-font-specification:Helvetica;writing-mode:lr-tb;fill:#262626;fill-opacity:1;fill-rule:nonzero;stroke:none"
         id="text5056"><tspan
           x="0 7 10.892"
           y="0"
           sodipodi:role="line"
           id="tspan5054">s/L</tspan></text></g><path
       d="M 570,220 V 4200"
       style="fill:none;stroke:#262626;stroke-width:15;stroke-linecap:square;stroke-linejoin:round;stroke-miterlimit:10;stroke-dasharray:none;stroke-opacity:1"
       id="path5058" /><path
       d="m 565.57509,4205.3325 5032.36211,0"
       style="fill:none;stroke:#262626;stroke-width:15;stroke-linecap:square;stroke-linejoin:round;stroke-miterlimit:10;stroke-dasharray:none;stroke-opacity:1"
       id="path5058-7"
       sodipodi:nodetypes="cc" /><path
       d="M 5600,220 V 4200"
       style="fill:none;stroke:#262626;stroke-width:15;stroke-linecap:square;stroke-linejoin:round;stroke-miterlimit:10;stroke-dasharray:none;stroke-opacity:1"
       id="path5060" /><path
       d="m 570,672.32 h 50.301"
       style="fill:none;stroke:#262626;stroke-width:15;stroke-linecap:square;stroke-linejoin:round;stroke-miterlimit:10;stroke-dasharray:none;stroke-opacity:1"
       id="path5062" /><path
       d="m 570,1150.55 h 50.301"
       style="fill:none;stroke:#262626;stroke-width:15;stroke-linecap:square;stroke-linejoin:round;stroke-miterlimit:10;stroke-dasharray:none;stroke-opacity:1"
       id="path5064" /><path
       d="m 570,1628.77 h 50.301"
       style="fill:none;stroke:#262626;stroke-width:15;stroke-linecap:square;stroke-linejoin:round;stroke-miterlimit:10;stroke-dasharray:none;stroke-opacity:1"
       id="path5066" /><path
       d="m 570,2107 h 50.301"
       style="fill:none;stroke:#262626;stroke-width:15;stroke-linecap:square;stroke-linejoin:round;stroke-miterlimit:10;stroke-dasharray:none;stroke-opacity:1"
       id="path5068" /><path
       d="m 570,2585.23 h 50.301"
       style="fill:none;stroke:#262626;stroke-width:15;stroke-linecap:square;stroke-linejoin:round;stroke-miterlimit:10;stroke-dasharray:none;stroke-opacity:1"
       id="path5070" /><path
       d="m 570,3063.45 h 50.301"
       style="fill:none;stroke:#262626;stroke-width:15;stroke-linecap:square;stroke-linejoin:round;stroke-miterlimit:10;stroke-dasharray:none;stroke-opacity:1"
       id="path5072" /><path
       d="m 570,3541.68 h 50.301"
       style="fill:none;stroke:#262626;stroke-width:15;stroke-linecap:square;stroke-linejoin:round;stroke-miterlimit:10;stroke-dasharray:none;stroke-opacity:1"
       id="path5074" /><path
       d="m 570,4019.91 h 50.301"
       style="fill:none;stroke:#262626;stroke-width:15;stroke-linecap:square;stroke-linejoin:round;stroke-miterlimit:10;stroke-dasharray:none;stroke-opacity:1"
       id="path5076" /><path
       d="m 5600,672.32 h -50.3"
       style="fill:none;stroke:#262626;stroke-width:15;stroke-linecap:square;stroke-linejoin:round;stroke-miterlimit:10;stroke-dasharray:none;stroke-opacity:1"
       id="path5078" /><path
       d="m 5600,1150.55 h -50.3"
       style="fill:none;stroke:#262626;stroke-width:15;stroke-linecap:square;stroke-linejoin:round;stroke-miterlimit:10;stroke-dasharray:none;stroke-opacity:1"
       id="path5080" /><path
       d="m 5600,1628.77 h -50.3"
       style="fill:none;stroke:#262626;stroke-width:15;stroke-linecap:square;stroke-linejoin:round;stroke-miterlimit:10;stroke-dasharray:none;stroke-opacity:1"
       id="path5082" /><path
       d="m 5600,2107 h -50.3"
       style="fill:none;stroke:#262626;stroke-width:15;stroke-linecap:square;stroke-linejoin:round;stroke-miterlimit:10;stroke-dasharray:none;stroke-opacity:1"
       id="path5084" /><path
       d="m 5600,2585.23 h -50.3"
       style="fill:none;stroke:#262626;stroke-width:15;stroke-linecap:square;stroke-linejoin:round;stroke-miterlimit:10;stroke-dasharray:none;stroke-opacity:1"
       id="path5086" /><path
       d="m 5600,3063.45 h -50.3"
       style="fill:none;stroke:#262626;stroke-width:15;stroke-linecap:square;stroke-linejoin:round;stroke-miterlimit:10;stroke-dasharray:none;stroke-opacity:1"
       id="path5088" /><path
       d="m 5600,3541.68 h -50.3"
       style="fill:none;stroke:#262626;stroke-width:15;stroke-linecap:square;stroke-linejoin:round;stroke-miterlimit:10;stroke-dasharray:none;stroke-opacity:1"
       id="path5090" /><path
       d="m 5600,4019.91 h -50.3"
       style="fill:none;stroke:#262626;stroke-width:15;stroke-linecap:square;stroke-linejoin:round;stroke-miterlimit:10;stroke-dasharray:none;stroke-opacity:1"
       id="path5092" /><g
       id="g5094"
       transform="scale(10)"><text
         xml:space="preserve"
         transform="matrix(1,0,0,-1,27.2,61.732)"
         style="font-variant:normal;font-weight:normal;font-size:14px;font-family:Helvetica;-inkscape-font-specification:Helvetica;writing-mode:lr-tb;fill:#262626;fill-opacity:1;fill-rule:nonzero;stroke:none"
         id="text5112"><tspan
           x="0 4.6620002 12.446 16.337999"
           y="0"
           sodipodi:role="line"
           id="tspan5096">-0.3</tspan><tspan
           x="0 4.6620002 12.446 16.337999"
           y="-47.822701"
           sodipodi:role="line"
           id="tspan5098">-0.2</tspan><tspan
           x="0 4.6620002 12.446 16.337999"
           y="-95.645401"
           sodipodi:role="line"
           id="tspan5100">-0.1</tspan><tspan
           x="17"
           y="-143.46809"
           id="tspan5102">0</tspan><tspan
           x="5 12.784 16.676001"
           y="-191.2908"
           sodipodi:role="line"
           id="tspan5104">0.1</tspan><tspan
           x="5 12.784 16.676001"
           y="-239.11349"
           sodipodi:role="line"
           id="tspan5106">0.2</tspan><tspan
           x="5 12.784 16.676001"
           y="-286.93619"
           sodipodi:role="line"
           id="tspan5108">0.3</tspan><tspan
           x="5 12.784 16.676001"
           y="-334.75891"
           sodipodi:role="line"
           id="tspan5110">0.4</tspan></text><text
         xml:space="preserve"
         transform="matrix(0,1,1,0,14,208)"
         style="font-variant:normal;font-weight:normal;font-size:14px;font-family:Helvetica;-inkscape-font-specification:Helvetica;writing-mode:lr-tb;fill:#262626;fill-opacity:1;fill-rule:nonzero;stroke:none"
         id="text5116"><tspan
           x="0"
           y="0"
           id="tspan5114">c</tspan></text><text
         xml:space="preserve"
         transform="matrix(0,1,1,0,21,216)"
         style="font-variant:normal;font-weight:normal;font-size:11.2px;font-family:Helvetica;-inkscape-font-specification:Helvetica;writing-mode:lr-tb;fill:#262626;fill-opacity:1;fill-rule:nonzero;stroke:none"
         id="text5120"><tspan
           x="0"
           y="0"
           id="tspan5118">l</tspan></text><text
         xml:space="preserve"
         transform="matrix(0,1,1,0,14,219)"
         style="font-variant:normal;font-weight:normal;font-size:14px;font-family:Helvetica;-inkscape-font-specification:Helvetica;writing-mode:lr-tb;fill:#262626;fill-opacity:1;fill-rule:nonzero;stroke:none"
         id="text5124"><tspan
           x="0 4.6620002 11.662"
           y="0"
           sodipodi:role="line"
           id="tspan5122">(s)</tspan></text></g><path
       d="m 565.418,2095.05 h 40 v 40 h -40 z"
       style="fill:none;stroke:#000000;stroke-width:15;stroke-linecap:butt;stroke-linejoin:miter;stroke-miterlimit:10;stroke-dasharray:none;stroke-opacity:1"
       id="path5126" /><path
       d="m 621.574,2569.91 h 40 v 40 h -40 z"
       style="fill:none;stroke:#000000;stroke-width:15;stroke-linecap:butt;stroke-linejoin:miter;stroke-miterlimit:10;stroke-dasharray:none;stroke-opacity:1"
       id="path5128" /><path
       d="m 653.227,2807.34 h 40 v 40 h -40 z"
       style="fill:none;stroke:#000000;stroke-width:15;stroke-linecap:butt;stroke-linejoin:miter;stroke-miterlimit:10;stroke-dasharray:none;stroke-opacity:1"
       id="path5130" /><path
       d="m 698.172,2965.56 h 40 v 40 h -40 z"
       style="fill:none;stroke:#000000;stroke-width:15;stroke-linecap:butt;stroke-linejoin:miter;stroke-miterlimit:10;stroke-dasharray:none;stroke-opacity:1"
       id="path5132" /><path
       d="m 862.023,2914.29 h 40 v 40 h -40 z"
       style="fill:none;stroke:#000000;stroke-width:15;stroke-linecap:butt;stroke-linejoin:miter;stroke-miterlimit:10;stroke-dasharray:none;stroke-opacity:1"
       id="path5134" /><path
       d="m 1167.11,2721.31 h 40 v 40 h -40 z"
       style="fill:none;stroke:#000000;stroke-width:15;stroke-linecap:butt;stroke-linejoin:miter;stroke-miterlimit:10;stroke-dasharray:none;stroke-opacity:1"
       id="path5136" /><path
       d="m 1294.48,2613.57 h 40 v 40 h -40 z"
       style="fill:none;stroke:#000000;stroke-width:15;stroke-linecap:butt;stroke-linejoin:miter;stroke-miterlimit:10;stroke-dasharray:none;stroke-opacity:1"
       id="path5138" /><path
       d="m 1464.39,2477.46 h 40 v 40 h -40 z"
       style="fill:none;stroke:#000000;stroke-width:15;stroke-linecap:butt;stroke-linejoin:miter;stroke-miterlimit:10;stroke-dasharray:none;stroke-opacity:1"
       id="path5140" /><path
       d="m 1606.43,2397.97 h 40 v 40 h -40 z"
       style="fill:none;stroke:#000000;stroke-width:15;stroke-linecap:butt;stroke-linejoin:miter;stroke-miterlimit:10;stroke-dasharray:none;stroke-opacity:1"
       id="path5142" /><path
       d="m 1762.62,2307.13 h 40 v 40 h -40 z"
       style="fill:none;stroke:#000000;stroke-width:15;stroke-linecap:butt;stroke-linejoin:miter;stroke-miterlimit:10;stroke-dasharray:none;stroke-opacity:1"
       id="path5144" /><path
       d="m 1926.39,2250.2 h 40 v 40 h -40 z"
       style="fill:none;stroke:#000000;stroke-width:15;stroke-linecap:butt;stroke-linejoin:miter;stroke-miterlimit:10;stroke-dasharray:none;stroke-opacity:1"
       id="path5146" /><path
       d="m 2068.93,2210.28 h 40 v 40 h -40 z"
       style="fill:none;stroke:#000000;stroke-width:15;stroke-linecap:butt;stroke-linejoin:miter;stroke-miterlimit:10;stroke-dasharray:none;stroke-opacity:1"
       id="path5148" /><path
       d="m 2218.84,2187.31 h 40 v 40 h -40 z"
       style="fill:none;stroke:#000000;stroke-width:15;stroke-linecap:butt;stroke-linejoin:miter;stroke-miterlimit:10;stroke-dasharray:none;stroke-opacity:1"
       id="path5150" /><path
       d="m 2354.38,2158.72 h 40 v 40 h -40 z"
       style="fill:none;stroke:#000000;stroke-width:15;stroke-linecap:butt;stroke-linejoin:miter;stroke-miterlimit:10;stroke-dasharray:none;stroke-opacity:1"
       id="path5152" /><path
       d="m 2511.59,2147.04 h 40 v 40 h -40 z"
       style="fill:none;stroke:#000000;stroke-width:15;stroke-linecap:butt;stroke-linejoin:miter;stroke-miterlimit:10;stroke-dasharray:none;stroke-opacity:1"
       id="path5154" /><path
       d="m 2668.64,2124.05 h 40 v 40 h -40 z"
       style="fill:none;stroke:#000000;stroke-width:15;stroke-linecap:butt;stroke-linejoin:miter;stroke-miterlimit:10;stroke-dasharray:none;stroke-opacity:1"
       id="path5156" /><path
       d="m 2818.7,2112.39 h 40 v 40 h -40 z"
       style="fill:none;stroke:#000000;stroke-width:15;stroke-linecap:butt;stroke-linejoin:miter;stroke-miterlimit:10;stroke-dasharray:none;stroke-opacity:1"
       id="path5158" /><path
       d="m 2989.92,2078.07 h 40 v 40 h -40 z"
       style="fill:none;stroke:#000000;stroke-width:15;stroke-linecap:butt;stroke-linejoin:miter;stroke-miterlimit:10;stroke-dasharray:none;stroke-opacity:1"
       id="path5160" /><path
       d="m 3125.38,2043.82 h 40 v 40 h -40 z"
       style="fill:none;stroke:#000000;stroke-width:15;stroke-linecap:butt;stroke-linejoin:miter;stroke-miterlimit:10;stroke-dasharray:none;stroke-opacity:1"
       id="path5162" /><path
       d="m 3275,1998.23 h 40 v 40 h -40 z"
       style="fill:none;stroke:#000000;stroke-width:15;stroke-linecap:butt;stroke-linejoin:miter;stroke-miterlimit:10;stroke-dasharray:none;stroke-opacity:1"
       id="path5164" /><path
       d="m 3424.84,1969.61 h 40 v 40 h -40 z"
       style="fill:none;stroke:#000000;stroke-width:15;stroke-linecap:butt;stroke-linejoin:miter;stroke-miterlimit:10;stroke-dasharray:none;stroke-opacity:1"
       id="path5166" /><path
       d="m 3574.46,1924.02 h 40 v 40 h -40 z"
       style="fill:none;stroke:#000000;stroke-width:15;stroke-linecap:butt;stroke-linejoin:miter;stroke-miterlimit:10;stroke-dasharray:none;stroke-opacity:1"
       id="path5168" /><path
       d="m 3731.3,1884.07 h 40 v 40 h -40 z"
       style="fill:none;stroke:#000000;stroke-width:15;stroke-linecap:butt;stroke-linejoin:miter;stroke-miterlimit:10;stroke-dasharray:none;stroke-opacity:1"
       id="path5170" /><path
       d="m 3880.99,1844.14 h 40 v 40 h -40 z"
       style="fill:none;stroke:#000000;stroke-width:15;stroke-linecap:butt;stroke-linejoin:miter;stroke-miterlimit:10;stroke-dasharray:none;stroke-opacity:1"
       id="path5172" /><path
       d="m 4045.06,1809.83 h 40 v 40 h -40 z"
       style="fill:none;stroke:#000000;stroke-width:15;stroke-linecap:butt;stroke-linejoin:miter;stroke-miterlimit:10;stroke-dasharray:none;stroke-opacity:1"
       id="path5174" /><path
       d="m 4195.05,1792.51 h 40 v 40 h -40 z"
       style="fill:none;stroke:#000000;stroke-width:15;stroke-linecap:butt;stroke-linejoin:miter;stroke-miterlimit:10;stroke-dasharray:none;stroke-opacity:1"
       id="path5176" /><path
       d="m 4331.01,1797.85 h 40 v 40 h -40 z"
       style="fill:none;stroke:#000000;stroke-width:15;stroke-linecap:butt;stroke-linejoin:miter;stroke-miterlimit:10;stroke-dasharray:none;stroke-opacity:1"
       id="path5178" /><path
       d="m 4488.51,1808.79 h 40 v 40 h -40 z"
       style="fill:none;stroke:#000000;stroke-width:15;stroke-linecap:butt;stroke-linejoin:miter;stroke-miterlimit:10;stroke-dasharray:none;stroke-opacity:1"
       id="path5180" /><path
       d="m 4631.92,1836.73 h 40 v 40 h -40 z"
       style="fill:none;stroke:#000000;stroke-width:15;stroke-linecap:butt;stroke-linejoin:miter;stroke-miterlimit:10;stroke-dasharray:none;stroke-opacity:1"
       id="path5182" /><path
       d="m 4789.78,1875.94 h 40 v 40 h -40 z"
       style="fill:none;stroke:#000000;stroke-width:15;stroke-linecap:butt;stroke-linejoin:miter;stroke-miterlimit:10;stroke-dasharray:none;stroke-opacity:1"
       id="path5184" /><path
       d="m 4947.71,1920.81 h 40 v 40 h -40 z"
       style="fill:none;stroke:#000000;stroke-width:15;stroke-linecap:butt;stroke-linejoin:miter;stroke-miterlimit:10;stroke-dasharray:none;stroke-opacity:1"
       id="path5186" /><path
       d="m 5091.34,1965.71 h 40 v 40 h -40 z"
       style="fill:none;stroke:#000000;stroke-width:15;stroke-linecap:butt;stroke-linejoin:miter;stroke-miterlimit:10;stroke-dasharray:none;stroke-opacity:1"
       id="path5188" /><path
       d="m 5227.74,2004.98 h 40 v 40 h -40 z"
       style="fill:none;stroke:#000000;stroke-width:15;stroke-linecap:butt;stroke-linejoin:miter;stroke-miterlimit:10;stroke-dasharray:none;stroke-opacity:1"
       id="path5190" /><path
       d="m 5385.53,2038.54 h 40 v 40 h -40 z"
       style="fill:none;stroke:#000000;stroke-width:15;stroke-linecap:butt;stroke-linejoin:miter;stroke-miterlimit:10;stroke-dasharray:none;stroke-opacity:1"
       id="path5192" /><path
       d="m 5521.93,2077.8 h 40 v 40 h -40 z"
       style="fill:none;stroke:#000000;stroke-width:15;stroke-linecap:butt;stroke-linejoin:miter;stroke-miterlimit:10;stroke-dasharray:none;stroke-opacity:1"
       id="path5194" /><path
       d="m 585.422,2115.05 96.558,836.67 22.25,62.15 28.61,-0.07 142.101,-73.84 156.269,-85.19 155.83,-119.11 141.6,-113.43 162.83,-130.44 120.21,-107.72 177.36,-113.51 134.96,-73.82 170.93,-56.95 164.14,-28.66 121.52,-5.94 157.42,5.29 157.28,-6.02 114.51,5.38 178.81,-0.41 163.92,-45.62 149.62,-45.59 156.56,-62.57 149.47,-56.9 149.62,-45.58 149.62,-45.59 164.14,-28.66 135.46,-34.24 157.06,-22.99 142.76,-22.95 157.21,-11.68 128.74,-0.3 171.66,-0.4 150.49,22.26 143.7,50.56 159.38,157.96 123.91,180.66"
       style="fill:none;stroke:#0000ff;stroke-width:15;stroke-linecap:butt;stroke-linejoin:round;stroke-miterlimit:10;stroke-dasharray:none;stroke-opacity:1"
       id="path5196" /><path
       d="m 611.941,2760.31 45.668,313.94 50.121,83.67 50.04,-35.16 49.992,-93.96 49.937,3.78 49.93,-5.22 49.91,-96.07 49.901,45.22 49.89,-84.54 49.87,-34.38 49.87,-130 49.85,17.78 49.85,-56.5 49.84,-62.12 49.83,-183.61 49.81,181.32 49.83,-110.4 49.82,-177.25 49.79,186.4 49.82,-327 49.78,167.25 49.81,-229.41 49.77,211.73 40.75,-245.29 1841.64,-240.26 49.75,106.47 49.76,-165.82 49.74,37.44 49.75,-413 49.7,109.14 49.72,11.81 49.71,183.99 49.74,-126.36 49.72,65.62 49.72,62.43 49.73,-136.5 49.72,46.66 49.72,-40.9 49.71,-37.2 49.71,79.92 49.71,-66.87 49.71,62.05 49.71,-30.93 49.7,-170.13 49.68,167.99 49.7,19.31 49.69,-18.52 49.7,-1.49 49.68,-204.21 49.65,244.92 49.68,-42.18 49.67,-36.86 49.66,74.57 49.65,52.08 49.66,29.36 49.66,40.15 49.66,52.92 49.65,37.47 49.65,45.96 49.65,38.01 49.64,73.64 49.66,29.42 49.62,66.41"
       style="fill:none;stroke:#ff0000;stroke-width:15;stroke-linecap:butt;stroke-linejoin:bevel;stroke-miterlimit:10;stroke-dasharray:100, 60;stroke-dashoffset:0;stroke-opacity:1"
       id="path5198" /><path
       id="path5202-5"
       style="fill:none;stroke:#000000;stroke-width:15;stroke-linecap:butt;stroke-linejoin:round;stroke-miterlimit:10;stroke-dasharray:none;stroke-opacity:1"
       d="m 606.9391,1145.6716 48.8211,-61.2179 50.121,-27.03 50.04,-20.86 49.992,-16.47 49.937,-13.06 49.93,-11.91003 49.91,-10.94 49.901,-9.16 49.89,-9.15 49.87,-7.85 49.87,-7.2 49.85,-5.74 49.85,-5.73 49.84,-5.09 49.83,-4.44 49.81,-2.81 49.83,-4.27 49.82,-3.3 49.79,-1.83 49.82,-3.3 49.78,-0.7 49.81,-2 49.77,-0.21 40.75,-1.5 1841.64,1.84 49.75,1.91 49.76,1.09 49.74,2.39 49.75,2.12 49.7,5.43 49.72,4.67 49.71,4.67 49.74,3.21 49.72,4.34 49.72,3.86 49.73,3.37 49.72,4.67 49.72,4.34 49.71,4.83 49.71,5.32 49.71,4.67 49.71,5.48 49.71,5 49.7,5.48 49.68,7.6 49.7,5.97003 49.69,5.97 49.7,6.45 49.68,6.79 49.65,10.03 49.68,7.11 49.67,8.25 49.66,9.54 49.65,9.06 49.66,8.9 49.66,9.22 49.66,9.39 49.65,9.22 49.65,9.55 49.65,9.71 49.64,10.52 49.66,9.22 49.62,12.31 m -4916.8121,-3.3042 48.8211,67.5142 50.121,27.03 50.04,20.86 49.992,16.47 49.937,13.06 49.93,11.91 49.91,10.94 49.901,9.16 49.89,9.15 49.87,7.85 49.87,7.2 49.85,5.74 49.85,5.73 49.84,5.09 49.83,4.44 49.81,2.81 49.83,4.27 49.82,3.3 49.79,1.84 49.82,3.29 49.78,0.7 49.81,2 49.77,0.21 40.75,1.5 1841.64,-1.84 49.75,-1.91 49.76,-1.09 49.74,-2.39 49.75,-2.12 49.7,-5.43 49.72,-4.67 49.71,-4.67 49.74,-3.21 49.72,-4.34 49.72,-3.86 49.73,-3.36 49.72,-4.67 49.72,-4.35 49.71,-4.83 49.71,-5.32 49.71,-4.67 49.71,-5.48 49.71,-5 49.7,-5.48 49.68,-7.59 49.7,-5.97 49.69,-5.97 49.7,-6.46 49.68,-6.79 49.65,-10.03 49.68,-7.11 49.67,-8.25 49.66,-9.54 49.65,-9.06 49.66,-8.9 49.66,-9.22 49.66,-9.39 49.65,-9.22 49.65,-9.55 49.65,-9.71 49.64,-10.52 49.66,-9.22 49.62,-12.31"
       sodipodi:nodetypes="cccccccccccccccccccccccccccccccccccccccccccccccccccccccccccccccccccccccccccccccccccccccccccccccccccccccccccccccccccccccccccccccc" /><path
       d="m 3430,3460 h 2040 v 560 H 3430 Z"
       style="fill:#ffffff;fill-opacity:1;fill-rule:nonzero;stroke:none"
       id="path5204" /><g
       id="g5206"
       transform="scale(10)"><text
         xml:space="preserve"
         transform="matrix(1,0,0,-1,380,386)"
         style="font-variant:normal;font-weight:normal;font-size:14px;font-family:Helvetica;-inkscape-font-specification:Helvetica;writing-mode:lr-tb;fill:#000000;fill-opacity:1;fill-rule:nonzero;stroke:none"
         id="text5210"><tspan
           x="0 9.3380003 16.337999"
           y="0"
           sodipodi:role="line"
           id="tspan5208">Exp</tspan></text></g><path
       d="m 3600,3895 h 40 v 40 h -40 z"
       style="fill:none;stroke:#000000;stroke-width:15;stroke-linecap:butt;stroke-linejoin:miter;stroke-miterlimit:10;stroke-dasharray:none;stroke-opacity:1"
       id="path5212" /><g
       id="g5214"
       transform="scale(10)"><text
         xml:space="preserve"
         transform="matrix(1,0,0,-1,380,368.5)"
         style="font-variant:normal;font-weight:normal;font-size:14px;font-family:Helvetica;-inkscape-font-specification:Helvetica;writing-mode:lr-tb;fill:#000000;fill-opacity:1;fill-rule:nonzero;stroke:none"
         id="text5218"><tspan
           x="0 10.108 17.892 25.676001 29.568001 32.675999 40.459999 48.243999 56.028 63.812 70.811996 74.704002 84.042 93.379997 106.596 110.488 120.596 131.48801 135.38 143.164 147.056 154.84"
           y="0"
           sodipodi:role="line"
           id="tspan5216">Continuous ASWING 5.96</tspan></text></g><path
       d="m 3470,3740 h 300"
       style="fill:none;stroke:#0000ff;stroke-width:15;stroke-linecap:butt;stroke-linejoin:round;stroke-miterlimit:10;stroke-dasharray:none;stroke-opacity:1"
       id="path5220" /><g
       id="g5222"
       transform="scale(10)"><text
         xml:space="preserve"
         transform="matrix(1,0,0,-1,380,351)"
         style="font-variant:normal;font-weight:normal;font-size:14px;font-family:Helvetica;-inkscape-font-specification:Helvetica;writing-mode:lr-tb;fill:#000000;fill-opacity:1;fill-rule:nonzero;stroke:none"
         id="text5226"><tspan
           x="0 10.108 13.216 20.216 27.216 31.878 39.661999 43.554001 51.338001 55.23 64.568001 73.905998 87.122002 91.014 101.122 112.014 115.906 123.69 127.582 135.366"
           y="0"
           sodipodi:role="line"
           id="tspan5224">Discrete ASWING 5.96</tspan></text></g><path
       d="m 3470,3565 h 300"
       style="fill:none;stroke:#ff0000;stroke-width:15;stroke-linecap:butt;stroke-linejoin:bevel;stroke-miterlimit:10;stroke-dasharray:100, 60;stroke-dashoffset:0;stroke-opacity:1"
       id="path5228" /><path
       d="m 3430,3460 h 2040 v 560 H 3430 Z"
       style="fill:none;stroke:#262626;stroke-width:15;stroke-linecap:butt;stroke-linejoin:miter;stroke-miterlimit:10;stroke-dasharray:none;stroke-opacity:1"
       id="path5230" /><path
       style="fill:#ff001b;fill-opacity:0.2;stroke:none;stroke-width:11.9173;stroke-opacity:0.2;paint-order:stroke markers fill"
       d="m 1701.4899,922.15722 c -313.4459,10.49032 -537.572,32.44072 -734.67314,71.95207 -184.48206,36.98171 -286.69883,76.22681 -324.32449,124.52101 -25.65276,32.9264 -24.57221,37.7205 18.12569,80.4184 72.29939,72.2993 358.66844,135.4638 763.39884,168.3829 77.9167,6.3374 361.6089,8.2068 1245.4758,8.2068 1038.6202,0 1154.5008,-1.0081 1251.7821,-10.8896 58.963,-5.9892 163.9614,-15.3699 233.3296,-20.8458 417.0421,-32.9217 725.1532,-76.6982 1201.3115,-170.6827 103.7259,-20.4735 110.1684,-22.6847 82.0016,-28.1447 -627.8551,-121.7061 -850.7043,-153.30923 -1374.7531,-194.95936 -88.4445,-7.02937 -191.8364,-15.54952 -229.7596,-18.93374 -64.1608,-5.7255 -1987.2526,-13.86675 -2131.9148,-9.02528 z"
       id="path5938" /><path
       style="fill:none;stroke:#000000;stroke-width:14.1732;stroke-linecap:butt;stroke-linejoin:miter;stroke-dasharray:none;stroke-opacity:1;marker-end:url(#marker6163)"
       d="m 2262.7423,467.54458 990.0745,252.24831"
       id="path5940" /><path
       style="fill:none;stroke:#000000;stroke-width:7.51181;stroke-linecap:butt;stroke-linejoin:miter;stroke-dasharray:30.0472, 7.51181;stroke-dashoffset:0;stroke-opacity:1"
       d="M 3523.9837,732.40528 H 2250.1299"
       id="path5942" /><path
       style="fill:none;stroke:#000000;stroke-width:7.5px;stroke-linecap:butt;stroke-linejoin:miter;stroke-opacity:1;marker-end:url(#TriangleStart)"
       d="m 2313.1919,738.71147 c 0,-145.04279 50.4497,-227.02341 50.4497,-227.02341"
       id="path6213" /></g></svg>
