<?xml version="1.0" encoding="UTF-8" standalone="no"?>
<!-- Created with Inkscape (http://www.inkscape.org/) -->

<svg
   width="210mm"
   height="297mm"
   viewBox="0 0 210 297"
   version="1.1"
   id="svg4904"
   xml:space="preserve"
   inkscape:version="1.2.1 (9c6d41e4, 2022-07-14)"
   sodipodi:docname="RS-1.svg"
   xmlns:inkscape="http://www.inkscape.org/namespaces/inkscape"
   xmlns:sodipodi="http://sodipodi.sourceforge.net/DTD/sodipodi-0.dtd"
   xmlns="http://www.w3.org/2000/svg"
   xmlns:svg="http://www.w3.org/2000/svg"><sodipodi:namedview
     id="namedview4906"
     pagecolor="#ffffff"
     bordercolor="#666666"
     borderopacity="1.0"
     inkscape:showpageshadow="2"
     inkscape:pageopacity="0.0"
     inkscape:pagecheckerboard="0"
     inkscape:deskcolor="#d1d1d1"
     inkscape:document-units="mm"
     showgrid="false"
     inkscape:zoom="0.84096521"
     inkscape:cx="390.62258"
     inkscape:cy="373.38049"
     inkscape:window-width="1920"
     inkscape:window-height="948"
     inkscape:window-x="0"
     inkscape:window-y="25"
     inkscape:window-maximized="0"
     inkscape:current-layer="g5035"><inkscape:page
       x="0"
       y="0"
       width="210"
       height="297"
       id="page5227" /><inkscape:page
       x="220"
       y="0"
       width="197.55556"
       height="148.16667"
       id="page5229" /></sodipodi:namedview><defs
     id="defs4901"><marker
   style="overflow:visible"
   id="TriangleStart"
   refX="0"
   refY="0"
   orient="auto-start-reverse"
   inkscape:stockid="TriangleStart"
   markerWidth="5.3244081"
   markerHeight="6.155385"
   viewBox="0 0 5.3244081 6.1553851"
   inkscape:isstock="true"
   inkscape:collect="always"
   preserveAspectRatio="xMidYMid"><path
     transform="scale(0.5)"
     style="fill:context-stroke;fill-rule:evenodd;stroke:context-stroke;stroke-width:1pt"
     d="M 5.77,0 -2.88,5 V -5 Z"
     id="path135" /></marker><clipPath
   id="clipPath5433">
      <path
   clip-rule="nonzero"
   d="M 0,2 H 6 V 6.617188 H 0 Z m 0,0"
   id="path7216" />
    </clipPath>
    <clipPath
   id="clipPath5335">
      <path
   clip-rule="nonzero"
   d="m 20,0 h 5 v 6.617188 h -5 z m 0,0"
   id="path7132" />
    </clipPath>
    <clipPath
   id="clipPath5249">
      <path
   clip-rule="nonzero"
   d="m 29,0 h 8 v 6.617188 h -8 z m 0,0"
   id="path826" />
    </clipPath>
    <clipPath
   id="clipPath2161">
      <path
   clip-rule="nonzero"
   d="m 37,2 h 4.246094 V 6.617188 H 37 Z m 0,0"
   id="path8074" />
    </clipPath>
  <clipPath
   id="clipPath8722">
      <path
   clip-rule="nonzero"
   d="m 6,5 h 8 V 8.300781 H 6 Z m 0,0"
   id="path9398" />
    </clipPath>
  <clipPath
   id="clipPath4024">
      <path
   clip-rule="nonzero"
   d="M 0,2 H 6 V 6.859375 H 0 Z m 0,0"
   id="path1122" />
    </clipPath>
    <clipPath
   id="clipPath8148">
      <path
   clip-rule="nonzero"
   d="m 20,0 h 5 v 6.859375 h -5 z m 0,0"
   id="path9790" />
    </clipPath>
  </defs><g
     inkscape:label="Calque 1"
     inkscape:groupmode="layer"
     id="layer1" /><g
     id="g5035"
     transform="matrix(0.0352778 0 0 -0.0352778 5.08001 161.565)"><path
       d="M 0,0 H 5600 V 4200 H 0 Z"
       style="fill:#ffffff;fill-opacity:1;fill-rule:nonzero;stroke:none"
       id="path5037" /><path
       d="M 0,0 H 5600 V 4200 H 0 Z"
       style="fill:#ffffff;fill-opacity:1;fill-rule:nonzero;stroke:none"
       id="path5039" /><path
       d="M 650,220 H 5600 V 4200 H 650 Z"
       style="fill:#ffffff;fill-opacity:1;fill-rule:nonzero;stroke:none"
       id="path5041" /><path
       d="M 5600,389.672 H 650"
       style="fill:none;stroke:#dfdfdf;stroke-width:15;stroke-linecap:butt;stroke-linejoin:round;stroke-miterlimit:10;stroke-dasharray:none;stroke-opacity:1"
       id="path5043" /><path
       d="M 5600,887.699 H 650"
       style="fill:none;stroke:#dfdfdf;stroke-width:15;stroke-linecap:butt;stroke-linejoin:round;stroke-miterlimit:10;stroke-dasharray:none;stroke-opacity:1"
       id="path5045" /><path
       d="M 5600,1385.72 H 650"
       style="fill:none;stroke:#dfdfdf;stroke-width:15;stroke-linecap:butt;stroke-linejoin:round;stroke-miterlimit:10;stroke-dasharray:none;stroke-opacity:1"
       id="path5047" /><path
       d="M 5600,1883.74 H 650"
       style="fill:none;stroke:#dfdfdf;stroke-width:15;stroke-linecap:butt;stroke-linejoin:round;stroke-miterlimit:10;stroke-dasharray:none;stroke-opacity:1"
       id="path5049" /><path
       d="M 5600,2381.76 H 650"
       style="fill:none;stroke:#dfdfdf;stroke-width:15;stroke-linecap:butt;stroke-linejoin:round;stroke-miterlimit:10;stroke-dasharray:none;stroke-opacity:1"
       id="path5051" /><path
       d="M 5600,2879.78 H 650"
       style="fill:none;stroke:#dfdfdf;stroke-width:15;stroke-linecap:butt;stroke-linejoin:round;stroke-miterlimit:10;stroke-dasharray:none;stroke-opacity:1"
       id="path5053" /><path
       d="M 5600,3377.8 H 650"
       style="fill:none;stroke:#dfdfdf;stroke-width:15;stroke-linecap:butt;stroke-linejoin:round;stroke-miterlimit:10;stroke-dasharray:none;stroke-opacity:1"
       id="path5055" /><path
       d="M 5600,3875.83 H 650"
       style="fill:none;stroke:#dfdfdf;stroke-width:15;stroke-linecap:butt;stroke-linejoin:round;stroke-miterlimit:10;stroke-dasharray:none;stroke-opacity:1"
       id="path5057" /><path
       d="M 650,220 H 5600"
       style="fill:none;stroke:#262626;stroke-width:15;stroke-linecap:square;stroke-linejoin:round;stroke-miterlimit:10;stroke-dasharray:none;stroke-opacity:1"
       id="path5059" /><path
       d="M 635.00247,4201.4212 H 5585.0025"
       style="fill:none;stroke:#262626;stroke-width:15;stroke-linecap:square;stroke-linejoin:round;stroke-miterlimit:10;stroke-dasharray:none;stroke-opacity:1"
       id="path5059-0" /><g
       id="g5061"
       transform="scale(10)"><text
         xml:space="preserve"
         transform="matrix(1,0,0,-1,302.5,3.2)"
         style="font-variant:normal;font-weight:normal;font-size:14px;font-family:Helvetica;-inkscape-font-specification:Helvetica;writing-mode:lr-tb;fill:#262626;fill-opacity:1;fill-rule:nonzero;stroke:none"
         id="text5065"><tspan
           x="0 7 10.892"
           y="0"
           sodipodi:role="line"
           id="tspan5063">s/L</tspan></text></g><path
       d="M 650,220 V 4200"
       style="fill:none;stroke:#262626;stroke-width:15;stroke-linecap:square;stroke-linejoin:round;stroke-miterlimit:10;stroke-dasharray:none;stroke-opacity:1"
       id="path5067" /><path
       d="M 5600,220 V 4200"
       style="fill:none;stroke:#262626;stroke-width:15;stroke-linecap:square;stroke-linejoin:round;stroke-miterlimit:10;stroke-dasharray:none;stroke-opacity:1"
       id="path5069" /><path
       d="m 650,389.672 h 49.5"
       style="fill:none;stroke:#262626;stroke-width:15;stroke-linecap:square;stroke-linejoin:round;stroke-miterlimit:10;stroke-dasharray:none;stroke-opacity:1"
       id="path5071" /><path
       d="m 650,887.699 h 49.5"
       style="fill:none;stroke:#262626;stroke-width:15;stroke-linecap:square;stroke-linejoin:round;stroke-miterlimit:10;stroke-dasharray:none;stroke-opacity:1"
       id="path5073" /><path
       d="m 650,1385.72 h 49.5"
       style="fill:none;stroke:#262626;stroke-width:15;stroke-linecap:square;stroke-linejoin:round;stroke-miterlimit:10;stroke-dasharray:none;stroke-opacity:1"
       id="path5075" /><path
       d="m 650,1883.74 h 49.5"
       style="fill:none;stroke:#262626;stroke-width:15;stroke-linecap:square;stroke-linejoin:round;stroke-miterlimit:10;stroke-dasharray:none;stroke-opacity:1"
       id="path5077" /><path
       d="m 650,2381.76 h 49.5"
       style="fill:none;stroke:#262626;stroke-width:15;stroke-linecap:square;stroke-linejoin:round;stroke-miterlimit:10;stroke-dasharray:none;stroke-opacity:1"
       id="path5079" /><path
       d="m 650,2879.78 h 49.5"
       style="fill:none;stroke:#262626;stroke-width:15;stroke-linecap:square;stroke-linejoin:round;stroke-miterlimit:10;stroke-dasharray:none;stroke-opacity:1"
       id="path5081" /><path
       d="m 650,3377.8 h 49.5"
       style="fill:none;stroke:#262626;stroke-width:15;stroke-linecap:square;stroke-linejoin:round;stroke-miterlimit:10;stroke-dasharray:none;stroke-opacity:1"
       id="path5083" /><path
       d="m 650,3875.83 h 49.5"
       style="fill:none;stroke:#262626;stroke-width:15;stroke-linecap:square;stroke-linejoin:round;stroke-miterlimit:10;stroke-dasharray:none;stroke-opacity:1"
       id="path5085" /><path
       d="m 5600,389.672 h -49.5"
       style="fill:none;stroke:#262626;stroke-width:15;stroke-linecap:square;stroke-linejoin:round;stroke-miterlimit:10;stroke-dasharray:none;stroke-opacity:1"
       id="path5087" /><path
       d="m 5600,887.699 h -49.5"
       style="fill:none;stroke:#262626;stroke-width:15;stroke-linecap:square;stroke-linejoin:round;stroke-miterlimit:10;stroke-dasharray:none;stroke-opacity:1"
       id="path5089" /><path
       d="m 5600,1385.72 h -49.5"
       style="fill:none;stroke:#262626;stroke-width:15;stroke-linecap:square;stroke-linejoin:round;stroke-miterlimit:10;stroke-dasharray:none;stroke-opacity:1"
       id="path5091" /><path
       d="m 5600,1883.74 h -49.5"
       style="fill:none;stroke:#262626;stroke-width:15;stroke-linecap:square;stroke-linejoin:round;stroke-miterlimit:10;stroke-dasharray:none;stroke-opacity:1"
       id="path5093" /><path
       d="m 5600,2381.76 h -49.5"
       style="fill:none;stroke:#262626;stroke-width:15;stroke-linecap:square;stroke-linejoin:round;stroke-miterlimit:10;stroke-dasharray:none;stroke-opacity:1"
       id="path5095" /><path
       d="m 5600,2879.78 h -49.5"
       style="fill:none;stroke:#262626;stroke-width:15;stroke-linecap:square;stroke-linejoin:round;stroke-miterlimit:10;stroke-dasharray:none;stroke-opacity:1"
       id="path5097" /><path
       d="m 5600,3377.8 h -49.5"
       style="fill:none;stroke:#262626;stroke-width:15;stroke-linecap:square;stroke-linejoin:round;stroke-miterlimit:10;stroke-dasharray:none;stroke-opacity:1"
       id="path5099" /><path
       d="m 5600,3875.83 h -49.5"
       style="fill:none;stroke:#262626;stroke-width:15;stroke-linecap:square;stroke-linejoin:round;stroke-miterlimit:10;stroke-dasharray:none;stroke-opacity:1"
       id="path5101" /><g
       id="g5103"
       transform="scale(10)"><text
         xml:space="preserve"
         transform="matrix(1,0,0,-1,27.2,33.4672)"
         style="font-variant:normal;font-weight:normal;font-size:14px;font-family:Helvetica;-inkscape-font-specification:Helvetica;writing-mode:lr-tb;fill:#262626;fill-opacity:1;fill-rule:nonzero;stroke:none"
         id="text5121"><tspan
           x="0 4.6620002 12.446 16.337999 24.122"
           y="0"
           sodipodi:role="line"
           id="tspan5105">-0.15</tspan><tspan
           x="8 12.662 20.445999 24.337999"
           y="-49.802299"
           sodipodi:role="line"
           id="tspan5107">-0.1</tspan><tspan
           x="0 4.6620002 12.446 16.337999 24.122"
           y="-99.604599"
           sodipodi:role="line"
           id="tspan5109">-0.05</tspan><tspan
           x="25"
           y="-149.4066"
           id="tspan5111">0</tspan><tspan
           x="5 12.784 16.676001 24.459999"
           y="-199.20889"
           sodipodi:role="line"
           id="tspan5113">0.05</tspan><tspan
           x="13 20.784 24.676001"
           y="-249.01089"
           sodipodi:role="line"
           id="tspan5115">0.1</tspan><tspan
           x="5 12.784 16.676001 24.459999"
           y="-298.8132"
           sodipodi:role="line"
           id="tspan5117">0.15</tspan><tspan
           x="13 20.784 24.676001"
           y="-348.6152"
           sodipodi:role="line"
           id="tspan5119">0.2</tspan></text><text
         xml:space="preserve"
         transform="matrix(0,1,1,0,14,208)"
         style="font-variant:normal;font-weight:normal;font-size:14px;font-family:Helvetica;-inkscape-font-specification:Helvetica;writing-mode:lr-tb;fill:#262626;fill-opacity:1;fill-rule:nonzero;stroke:none"
         id="text5125"><tspan
           x="0"
           y="0"
           id="tspan5123">c</tspan></text><text
         xml:space="preserve"
         transform="matrix(0,1,1,0,21,216)"
         style="font-variant:normal;font-weight:normal;font-size:11.2px;font-family:Helvetica;-inkscape-font-specification:Helvetica;writing-mode:lr-tb;fill:#262626;fill-opacity:1;fill-rule:nonzero;stroke:none"
         id="text5129"><tspan
           x="0"
           y="0"
           id="tspan5127">l</tspan></text><text
         xml:space="preserve"
         transform="matrix(0,1,1,0,14,219)"
         style="font-variant:normal;font-weight:normal;font-size:14px;font-family:Helvetica;-inkscape-font-specification:Helvetica;writing-mode:lr-tb;fill:#262626;fill-opacity:1;fill-rule:nonzero;stroke:none"
         id="text5133"><tspan
           x="0 4.6620002 11.662"
           y="0"
           sodipodi:role="line"
           id="tspan5131">(s)</tspan></text></g><path
       d="m 684.648,1860.81 h 40 v 40 h -40 z"
       style="fill:none;stroke:#000000;stroke-width:15;stroke-linecap:butt;stroke-linejoin:miter;stroke-miterlimit:10;stroke-dasharray:none;stroke-opacity:1"
       id="path5135" /><path
       d="m 735.695,2357.76 h 40 v 40 h -40 z"
       style="fill:none;stroke:#000000;stroke-width:15;stroke-linecap:butt;stroke-linejoin:miter;stroke-miterlimit:10;stroke-dasharray:none;stroke-opacity:1"
       id="path5137" /><path
       d="m 868.23,3127.14 h 40 v 40 h -40 z"
       style="fill:none;stroke:#000000;stroke-width:15;stroke-linecap:butt;stroke-linejoin:miter;stroke-miterlimit:10;stroke-dasharray:none;stroke-opacity:1"
       id="path5139" /><path
       d="m 986.34,3690.3 h 40 v 40 h -40 z"
       style="fill:none;stroke:#000000;stroke-width:15;stroke-linecap:butt;stroke-linejoin:miter;stroke-miterlimit:10;stroke-dasharray:none;stroke-opacity:1"
       id="path5141" /><path
       d="m 1113.32,3691.52 h 40 v 40 h -40 z"
       style="fill:none;stroke:#000000;stroke-width:15;stroke-linecap:butt;stroke-linejoin:miter;stroke-miterlimit:10;stroke-dasharray:none;stroke-opacity:1"
       id="path5143" /><path
       d="m 1293.16,3468.43 h 40 v 40 h -40 z"
       style="fill:none;stroke:#000000;stroke-width:15;stroke-linecap:butt;stroke-linejoin:miter;stroke-miterlimit:10;stroke-dasharray:none;stroke-opacity:1"
       id="path5145" /><path
       d="m 1465.78,3142.23 h 40 v 40 h -40 z"
       style="fill:none;stroke:#000000;stroke-width:15;stroke-linecap:butt;stroke-linejoin:miter;stroke-miterlimit:10;stroke-dasharray:none;stroke-opacity:1"
       id="path5147" /><path
       d="m 1668.44,2750.75 h 40 v 40 h -40 z"
       style="fill:none;stroke:#000000;stroke-width:15;stroke-linecap:butt;stroke-linejoin:miter;stroke-miterlimit:10;stroke-dasharray:none;stroke-opacity:1"
       id="path5149" /><path
       d="m 1885.74,2481.19 h 40 v 40 h -40 z"
       style="fill:none;stroke:#000000;stroke-width:15;stroke-linecap:butt;stroke-linejoin:miter;stroke-miterlimit:10;stroke-dasharray:none;stroke-opacity:1"
       id="path5151" /><path
       d="m 2132.85,2240.01 h 40 v 40 h -40 z"
       style="fill:none;stroke:#000000;stroke-width:15;stroke-linecap:butt;stroke-linejoin:miter;stroke-miterlimit:10;stroke-dasharray:none;stroke-opacity:1"
       id="path5153" /><path
       d="m 2372.3,2073.7 h 40 v 40 h -40 z"
       style="fill:none;stroke:#000000;stroke-width:15;stroke-linecap:butt;stroke-linejoin:miter;stroke-miterlimit:10;stroke-dasharray:none;stroke-opacity:1"
       id="path5155" /><path
       d="m 2619.21,1907.46 h 40 v 40 h -40 z"
       style="fill:none;stroke:#000000;stroke-width:15;stroke-linecap:butt;stroke-linejoin:miter;stroke-miterlimit:10;stroke-dasharray:none;stroke-opacity:1"
       id="path5157" /><path
       d="m 2880.96,1788.19 h 40 v 40 h -40 z"
       style="fill:none;stroke:#000000;stroke-width:15;stroke-linecap:butt;stroke-linejoin:miter;stroke-miterlimit:10;stroke-dasharray:none;stroke-opacity:1"
       id="path5159" /><path
       d="m 3112.82,1668.64 h 40 v 40 h -40 z"
       style="fill:none;stroke:#000000;stroke-width:15;stroke-linecap:butt;stroke-linejoin:miter;stroke-miterlimit:10;stroke-dasharray:none;stroke-opacity:1"
       id="path5161" /><path
       d="m 3352.04,1596 h 40 v 40 h -40 z"
       style="fill:none;stroke:#000000;stroke-width:15;stroke-linecap:butt;stroke-linejoin:miter;stroke-miterlimit:10;stroke-dasharray:none;stroke-opacity:1"
       id="path5163" /><path
       d="m 3606.05,1579.7 h 40 v 40 h -40 z"
       style="fill:none;stroke:#000000;stroke-width:15;stroke-linecap:butt;stroke-linejoin:miter;stroke-miterlimit:10;stroke-dasharray:none;stroke-opacity:1"
       id="path5165" /><path
       d="m 3845.2,1535.16 h 40 v 40 h -40 z"
       style="fill:none;stroke:#000000;stroke-width:15;stroke-linecap:butt;stroke-linejoin:miter;stroke-miterlimit:10;stroke-dasharray:none;stroke-opacity:1"
       id="path5167" /><path
       d="m 4084.43,1453.14 h 40 v 40 h -40 z"
       style="fill:none;stroke:#000000;stroke-width:15;stroke-linecap:butt;stroke-linejoin:miter;stroke-miterlimit:10;stroke-dasharray:none;stroke-opacity:1"
       id="path5169" /><path
       d="m 4330.93,1455.51 h 40 v 40 h -40 z"
       style="fill:none;stroke:#000000;stroke-width:15;stroke-linecap:butt;stroke-linejoin:miter;stroke-miterlimit:10;stroke-dasharray:none;stroke-opacity:1"
       id="path5171" /><path
       d="m 4562.52,1448.36 h 40 v 40 h -40 z"
       style="fill:none;stroke:#000000;stroke-width:15;stroke-linecap:butt;stroke-linejoin:miter;stroke-miterlimit:10;stroke-dasharray:none;stroke-opacity:1"
       id="path5173" /><path
       d="m 4801.59,1431.92 h 40 v 40 h -40 z"
       style="fill:none;stroke:#000000;stroke-width:15;stroke-linecap:butt;stroke-linejoin:miter;stroke-miterlimit:10;stroke-dasharray:none;stroke-opacity:1"
       id="path5175" /><path
       d="m 5055.44,1481.19 h 40 v 40 h -40 z"
       style="fill:none;stroke:#000000;stroke-width:15;stroke-linecap:butt;stroke-linejoin:miter;stroke-miterlimit:10;stroke-dasharray:none;stroke-opacity:1"
       id="path5177" /><path
       d="m 5286.48,1689.48 h 40 v 40 h -40 z"
       style="fill:none;stroke:#000000;stroke-width:15;stroke-linecap:butt;stroke-linejoin:miter;stroke-miterlimit:10;stroke-dasharray:none;stroke-opacity:1"
       id="path5179" /><path
       d="m 5547.5,1860.59 h 40 v 40 h -40 z"
       style="fill:none;stroke:#000000;stroke-width:15;stroke-linecap:butt;stroke-linejoin:miter;stroke-miterlimit:10;stroke-dasharray:none;stroke-opacity:1"
       id="path5181" /><path
       d="m 682.219,1889.96 132.019,975.45 117.992,610 66.801,169.25 172.179,-148.23 232.82,-503.59 270.03,-447.04 232.26,-278.78 246.99,-194.35 246.78,-110.04 246.83,-128.77 231.91,-138.29 246.73,-91.3 254.18,-81.87 239.17,-53.91 231.67,-44.62 261.53,-34.96 254.14,-63.13 231.63,-25.88 216.73,-44.76 276.45,-25.45 261.48,-16.23 141.46,188.7 66.03,478.36"
       style="fill:none;stroke:#0000ff;stroke-width:15;stroke-linecap:butt;stroke-linejoin:round;stroke-miterlimit:10;stroke-dasharray:none;stroke-opacity:1"
       id="path5183" /><path
       d="M 709.422,3547.56 726.41,4200"
       style="fill:none;stroke:#ff0000;stroke-width:15;stroke-linecap:butt;stroke-linejoin:bevel;stroke-miterlimit:10;stroke-dasharray:100, 60;stroke-dashoffset:0;stroke-opacity:1"
       id="path5185" /><path
       d="m 1380.7,4200 49.61,-222.21 76.36,-28.26 76.36,-760.01 76.38,-163.09 76.38,-7.79 76.38,203.84 76.38,-627.04 76.4,-429.18 76.4,-338.22 76.41,919.98 76.38,-480.72 76.4,-194.69 76.41,-540.25 76.41,637.88 76.4,-784.97 76.42,-192.8 76.42,878.04 76.4,-582.84 76.42,-385.4 76.42,-281.27 76.43,486.48 76.42,-90.52 76.42,-275.511 76.43,195.191 76.42,-176.82 76.43,-171.129 76.43,327.739 76.42,-435.571 76.44,149.34 76.43,-243.367 76.44,22.828 76.43,147.281 76.44,-103.902 76.43,-57.269 76.44,339.89 76.43,-487.578 76.45,110.039 76.44,-153.039 76.45,255.297 63.6,-440.848"
       style="fill:none;stroke:#ff0000;stroke-width:15;stroke-linecap:butt;stroke-linejoin:bevel;stroke-miterlimit:10;stroke-dasharray:100, 60;stroke-dashoffset:0;stroke-opacity:1"
       id="path5187" /><path
       d="m 4439.87,219.531 47.08,142.578 76.46,246.493 76.44,333.179 76.44,-224.301 29.11,-497.949"
       style="fill:none;stroke:#ff0000;stroke-width:15;stroke-linecap:butt;stroke-linejoin:bevel;stroke-miterlimit:10;stroke-dasharray:100, 60;stroke-dashoffset:0;stroke-opacity:1"
       id="path5189" /><path
       d="m 4854.91,219.531 14.31,186.348 76.46,-61.34 76.47,9.902 76.46,0.039 76.47,-111.628 3.92,-23.321"
       style="fill:none;stroke:#ff0000;stroke-width:15;stroke-linecap:butt;stroke-linejoin:bevel;stroke-miterlimit:10;stroke-dasharray:100, 60;stroke-dashoffset:0;stroke-opacity:1"
       id="path5191" /><path
       d="m 5505.32,219.531 42.14,1664.209"
       style="fill:none;stroke:#ff0000;stroke-width:15;stroke-linecap:butt;stroke-linejoin:bevel;stroke-miterlimit:10;stroke-dasharray:100, 60;stroke-dashoffset:0;stroke-opacity:1"
       id="path5193" /><path
       d="m 3480,3560 h 2040 v 560 H 3480 Z"
       style="fill:#ffffff;fill-opacity:1;fill-rule:nonzero;stroke:none"
       id="path5199" /><g
       id="g5201"
       transform="scale(10)"><text
         xml:space="preserve"
         transform="matrix(1,0,0,-1,385,396)"
         style="font-variant:normal;font-weight:normal;font-size:14px;font-family:Helvetica;-inkscape-font-specification:Helvetica;writing-mode:lr-tb;fill:#000000;fill-opacity:1;fill-rule:nonzero;stroke:none"
         id="text5205"><tspan
           x="0 9.3380003 16.337999"
           y="0"
           sodipodi:role="line"
           id="tspan5203">Exp</tspan></text></g><path
       d="m 3650,3995 h 40 v 40 h -40 z"
       style="fill:none;stroke:#000000;stroke-width:15;stroke-linecap:butt;stroke-linejoin:miter;stroke-miterlimit:10;stroke-dasharray:none;stroke-opacity:1"
       id="path5207" /><g
       id="g5209"
       transform="scale(10)"><text
         xml:space="preserve"
         transform="matrix(1,0,0,-1,385,378.5)"
         style="font-variant:normal;font-weight:normal;font-size:14px;font-family:Helvetica;-inkscape-font-specification:Helvetica;writing-mode:lr-tb;fill:#000000;fill-opacity:1;fill-rule:nonzero;stroke:none"
         id="text5213"><tspan
           x="0 10.108 17.892 25.676001 29.568001 32.675999 40.459999 48.243999 56.028 63.812 70.811996 74.704002 84.042 93.379997 106.596 110.488 120.596 131.48801 135.38 143.164 147.056 154.84"
           y="0"
           sodipodi:role="line"
           id="tspan5211">Continuous ASWING 5.96</tspan></text></g><path
       d="m 3520,3840 h 300"
       style="fill:none;stroke:#0000ff;stroke-width:15;stroke-linecap:butt;stroke-linejoin:round;stroke-miterlimit:10;stroke-dasharray:none;stroke-opacity:1"
       id="path5215" /><g
       id="g5217"
       transform="scale(10)"><text
         xml:space="preserve"
         transform="matrix(1,0,0,-1,385,361)"
         style="font-variant:normal;font-weight:normal;font-size:14px;font-family:Helvetica;-inkscape-font-specification:Helvetica;writing-mode:lr-tb;fill:#000000;fill-opacity:1;fill-rule:nonzero;stroke:none"
         id="text5221"><tspan
           x="0 10.108 13.216 20.216 27.216 31.878 39.661999 43.554001 51.338001 55.23 64.568001 73.905998 87.122002 91.014 101.122 112.014 115.906 123.69 127.582 135.366"
           y="0"
           sodipodi:role="line"
           id="tspan5219">Discrete ASWING 5.96</tspan></text></g><path
       d="m 3520,3665 h 300"
       style="fill:none;stroke:#ff0000;stroke-width:15;stroke-linecap:butt;stroke-linejoin:bevel;stroke-miterlimit:10;stroke-dasharray:100, 60;stroke-dashoffset:0;stroke-opacity:1"
       id="path5223" /><path
       d="m 3480,3560 h 2040 v 560 H 3480 Z"
       style="fill:none;stroke:#262626;stroke-width:15;stroke-linecap:butt;stroke-linejoin:miter;stroke-miterlimit:10;stroke-dasharray:none;stroke-opacity:1"
       id="path5225" /><path
       id="path5197"
       style="fill:none;stroke:#000000;stroke-width:15;stroke-linecap:butt;stroke-linejoin:round;stroke-miterlimit:10;stroke-dasharray:none;stroke-opacity:1"
       d="m 701.28165,1872.9409 58.769,-142.731 58.778,-102.85 69.23,-92.43 76.223,-74.77 76.27795,-51.41 76.29,-46.25 76.31,-41.92 76.32,-32.01 76.34,-27.26 76.35,-23.3 76.36,-19.34 76.36,-18.55 76.38,-11.42 76.38,-9.84 76.38,-9.64 76.38,-11.23 76.4,-5.88 76.4,-2.31 76.41,0.45 76.38,-7.07 76.4,-3.1 76.41,-1.53 76.41,2.83 76.4,-2.31 76.42,4.02 76.42,5.6 76.4,-1.53 76.42,3.23 76.42,6.39 76.43,8.77 76.42,4.81 76.42,5.61 76.43,7.97 76.42,6.4 76.43,7.98 76.43,9.56 76.42,6.79 76.44,10.75 76.43,9.56 76.44,11.93 76.43,11.94 76.44,10.75 76.43,11.94 76.44,12.73 76.43,9.56 76.45,14.71 76.44,13.91 76.45,15.9 76.44,13.52 76.45,19.85 76.46,17.88 76.44,15.5 76.44,11.81 73.2869,21.2762 79.6431,26.4838 76.46,21.04 76.47,23.02 76.46,24.21 76.47,25.8 76.49,29.75 76.51,41.63 76.54,54.3 76.6,76.47 66.24,99.43 m -4838.03795,2.9141 58.769,142.731 58.778,102.85 69.23,92.43 76.223,74.77 76.27795,51.41 76.29,46.25 76.31,41.92 76.32,32.01 76.34,27.26 76.35,23.3 76.36,19.34 76.36,18.55 76.38,11.42 76.38,9.84 76.38,9.64 76.38,11.22 76.4,5.88 76.4,2.32 76.41,-0.46 76.38,7.07 76.4,3.11 76.41,1.52 76.41,-2.83 76.4,2.32 76.42,-4.02 76.42,-5.6 76.4,1.52 76.42,-3.22 76.42,-6.4 76.43,-8.77 76.42,-4.81 76.42,-5.6 76.43,-7.98 76.42,-6.39 76.43,-7.98 76.43,-9.56 76.42,-6.79 76.44,-10.75 76.43,-9.56 76.44,-11.94 76.43,-11.93 76.44,-10.75 76.43,-11.94 76.44,-12.73 76.43,-9.56 76.45,-14.71 76.44,-13.92 76.45,-15.89 76.44,-13.52 76.45,-19.86 76.46,-17.87 76.44,-15.5 76.44,-11.81 73.2869,-24.4293 79.6431,-23.3307 76.46,-21.04 76.47,-23.03 76.46,-24.21 76.47,-25.79 76.49,-29.75 76.51,-41.63 76.54,-54.3 76.6,-76.48 66.24,-99.43"
       sodipodi:nodetypes="cccccccccccccccccccccccccccccccccccccccccccccccccccccccccccccccccccccccccccccccccccccccccccccccccccccccccccccccccccccccccccccccccc" /><path
       style="fill:#ff001b;fill-opacity:0.2;stroke-width:11.9173;stroke-dasharray:18.9484, 18.9484;stroke-opacity:0.2;paint-order:stroke markers fill"
       d="m 2236.2099,1150.8903 c -1.9273,2.031 -79.9666,6.4724 -173.4207,9.8698 -328.0955,11.9277 -603.8416,62.5761 -816.3027,149.9367 -58.5455,24.073 -160.7888,81.0792 -230.1765,128.336 -75.6789,51.5414 -160.46973,146.9954 -216.85099,244.1218 -26.76902,46.1143 -82.6001,174.112 -82.66108,189.5079 -0.018,4.5553 11.74175,37.1899 26.13287,72.5214 88.509,217.2972 214.91526,348.8361 443.5987,461.6108 298.9693,147.4359 753.2469,204.7206 1453.6287,183.3034 74.5709,-2.2804 183.8259,-8.2629 242.789,-13.2946 58.963,-5.0316 159.7047,-13.5364 223.8703,-18.8994 244.4244,-20.4295 448.8582,-44.9309 709.4483,-85.0275 69.3682,-10.6736 171.5288,-26.2746 227.0234,-34.6688 129.5561,-19.5969 342.0325,-60.8019 436.8049,-84.7085 40.6989,-10.2664 108.0514,-24.6272 149.6723,-31.9129 41.621,-7.2857 101.2146,-21.456 132.4304,-31.4898 31.2157,-10.0337 102.623,-31.2208 158.683,-47.0826 222.9082,-63.0702 345.9494,-112.2417 427.7942,-170.9613 50.8175,-36.4589 115.1259,-103.4902 150.1829,-156.5417 l 28.7202,-43.4621 -30.3029,-44.8247 c -40.4601,-59.8497 -124.2541,-139.068 -189.7079,-179.3486 -63.878,-39.3108 -142.9139,-70.8715 -286.8151,-114.531 -58.963,-17.8894 -152.6102,-46.4674 -208.1048,-63.5066 -55.4946,-17.0394 -134.166,-36.6277 -174.8253,-43.5297 -40.6594,-6.9019 -107.9579,-21.1407 -149.5525,-31.6417 -86.4172,-21.817 -338.6615,-71.4962 -432.3669,-85.154 -34.6842,-5.0554 -138.2637,-20.7227 -230.1766,-34.8162 -268.0185,-41.0969 -462.822,-64.6745 -699.989,-84.7218 -64.1656,-5.4238 -164.9073,-14.3062 -223.8703,-19.7387 -58.9631,-5.4324 -145.5158,-10.799 -192.3393,-11.9256 -390.8614,-9.4038 -470.253,-10.6484 -473.3166,-7.42 z"
       id="path5495" /><path
       style="fill:none;stroke:#000000;stroke-width:14.17322746;stroke-linecap:butt;stroke-linejoin:miter;stroke-opacity:1;stroke-dasharray:none;marker-end:url(#TriangleStart)"
       d="M 1621.8278,379.26341 2888.2296,718.15966"
       id="path5497" /><path
       style="fill:none;stroke:#000000;stroke-width:7.5px;stroke-linecap:butt;stroke-linejoin:miter;stroke-opacity:1;stroke-dasharray:22.50000001,22.50000001;stroke-dashoffset:0"
       d="M 2932.8212,735.99631 H 1603.9911"
       id="path5888" /><path
       style="fill:none;stroke:#000000;stroke-width:7.5px;stroke-linecap:butt;stroke-linejoin:miter;stroke-opacity:1;marker-end:url(#TriangleStart)"
       d="m 1631.197,736.16056 c 0,-173.42069 75.6744,-305.85101 75.6744,-305.85101"
       id="path5890"
       sodipodi:nodetypes="cc" /><g
       inkscape:label=""
       transform="matrix(42.5196,0,0,-42.5196,2397.327,542.72031)"
       id="g7697"><g
   fill="#000000"
   fill-opacity="1"
   id="g19"
   transform="matrix(0.352778,0,0,0.352778,-0.198437,0.00158747)">
    <g
   id="use17"
   transform="translate(0,6.8080001)">
      <path
   d="M 6.265625,-5.671875 C 6.75,-6.453125 7.171875,-6.484375 7.53125,-6.5 c 0.125,-0.015625 0.140625,-0.171875 0.140625,-0.1875 0,-0.078125 -0.0625,-0.125 -0.140625,-0.125 -0.25,0 -0.546875,0.03125 -0.8125,0.03125 -0.328125,0 -0.671875,-0.03125 -0.984375,-0.03125 -0.0625,0 -0.1875,0 -0.1875,0.1875 0,0.109375 0.078125,0.125 0.15625,0.125 0.265625,0.015625 0.453125,0.125 0.453125,0.328125 0,0.15625 -0.140625,0.375 -0.140625,0.375 l -3.0625,4.875 -0.6875,-5.28125 C 2.265625,-6.375 2.5,-6.5 2.953125,-6.5 c 0.140625,0 0.25,0 0.25,-0.203125 0,-0.078125 -0.078125,-0.109375 -0.125,-0.109375 -0.40625,0 -0.828125,0.03125 -1.25,0.03125 -0.171875,0 -0.359375,0 -0.546875,0 -0.171875,0 -0.359375,-0.03125 -0.53125,-0.03125 -0.078125,0 -0.1875,0 -0.1875,0.1875 0,0.125 0.078125,0.125 0.25,0.125 0.546875,0 0.5625,0.09375 0.59375,0.34375 L 2.1875,-0.015625 C 2.21875,0.1875 2.265625,0.21875 2.390625,0.21875 c 0.15625,0 0.203125,-0.046875 0.28125,-0.171875 z m 0,0"
   id="path31" />
    </g>
  </g>
  <g
   clip-path="url(#clipPath8722)"
   id="g25"
   transform="matrix(0.352778,0,0,0.352778,-0.198437,0.00158747)">
    <g
   fill="#000000"
   fill-opacity="1"
   id="g23">
      <g
   id="use21"
   transform="translate(5.8119998,8.302)">
        <path
   d="m 4.03125,-1.90625 c -0.375,-0.4375 -0.484375,-0.546875 -0.75,-0.734375 -0.421875,-0.3125 -0.875,-0.4375 -1.25,-0.4375 -0.875,0 -1.5,0.75 -1.5,1.578125 0,0.8125 0.609375,1.5625 1.46875,1.5625 0.96875,0 1.65625,-0.78125 1.90625,-1.15625 0.359375,0.4375 0.484375,0.546875 0.734375,0.734375 0.4375,0.3125 0.875,0.421875 1.265625,0.421875 0.859375,0 1.484375,-0.734375 1.484375,-1.5625 0,-0.828125 -0.59375,-1.578125 -1.46875,-1.578125 -0.96875,0 -1.640625,0.796875 -1.890625,1.171875 z m 0.21875,0.25 c 0.28125,-0.453125 0.890625,-1.15625 1.734375,-1.15625 0.71875,0 1.21875,0.640625 1.21875,1.3125 0,0.65625 -0.546875,1.1875 -1.1875,1.1875 -0.65625,0 -1.09375,-0.53125 -1.765625,-1.34375 z M 3.671875,-1.359375 C 3.40625,-0.90625 2.796875,-0.1875 1.9375,-0.1875 c -0.71875,0 -1.203125,-0.640625 -1.203125,-1.3125 0,-0.671875 0.546875,-1.1875 1.1875,-1.1875 0.640625,0 1.09375,0.53125 1.75,1.328125 z m 0,0"
   id="path35" />
      </g>
    </g>
  </g>
</g><g
       inkscape:label=""
       transform="matrix(42.5196,0,0,-42.5196,1182.2094,619.34385)"
       id="g8356"
       inkscape:export-filename="RS-1.eps.png"
       inkscape:export-xdpi="96"
       inkscape:export-ydpi="96"><g
   clip-path="url(#clipPath4024)"
   id="g31"
   transform="matrix(0.352778,0,0,0.352778,-0.143316,-0.00374823)">
    <g
   fill="#000000"
   fill-opacity="1"
   id="g29">
      <g
   id="use27"
   transform="translate(0,6.8600001)">
        <path
   d="m 4.75,-2.359375 c 0,-1.5625 -0.921875,-2.046875 -1.65625,-2.046875 -1.375,0 -2.6875,1.421875 -2.6875,2.828125 0,0.9375 0.59375,1.6875 1.625,1.6875 0.625,0 1.34375,-0.234375 2.09375,-0.84375 0.125,0.53125 0.453125,0.84375 0.90625,0.84375 0.53125,0 0.84375,-0.546875 0.84375,-0.703125 0,-0.078125 -0.0625,-0.109375 -0.125,-0.109375 -0.0625,0 -0.09375,0.03125 -0.125,0.109375 -0.1875,0.484375 -0.546875,0.484375 -0.5625,0.484375 -0.3125,0 -0.3125,-0.78125 -0.3125,-1.015625 0,-0.203125 0,-0.234375 0.109375,-0.34375 C 5.796875,-2.65625 6,-3.8125 6,-3.8125 6,-3.84375 5.984375,-3.921875 5.875,-3.921875 c -0.09375,0 -0.09375,0.03125 -0.140625,0.21875 -0.1875,0.625 -0.515625,1.375 -0.984375,1.96875 z m -0.65625,1.375 c -0.890625,0.765625 -1.65625,0.875 -2.046875,0.875 -0.59375,0 -0.90625,-0.453125 -0.90625,-1.09375 0,-0.484375 0.265625,-1.5625 0.578125,-2.0625 C 2.1875,-4 2.734375,-4.1875 3.078125,-4.1875 c 0.984375,0 0.984375,1.3125 0.984375,2.078125 0,0.375 0,0.953125 0.03125,1.125 z m 0,0"
   id="path51" />
      </g>
    </g>
  </g>
  <g
   fill="#000000"
   fill-opacity="1"
   id="g35"
   transform="matrix(0.352778,0,0,0.352778,-0.143316,-0.00374823)">
    <g
   id="use33"
   transform="translate(9.177,6.8600001)">
      <path
   d="m 6.84375,-3.265625 c 0.15625,0 0.34375,0 0.34375,-0.1875 C 7.1875,-3.65625 7,-3.65625 6.859375,-3.65625 h -5.96875 c -0.140625,0 -0.328125,0 -0.328125,0.203125 0,0.1875 0.1875,0.1875 0.328125,0.1875 z m 0.015625,1.9375 c 0.140625,0 0.328125,0 0.328125,-0.203125 0,-0.1875 -0.1875,-0.1875 -0.34375,-0.1875 H 0.890625 c -0.140625,0 -0.328125,0 -0.328125,0.1875 0,0.203125 0.1875,0.203125 0.328125,0.203125 z m 0,0"
   id="path55" />
    </g>
  </g>
  <g
   clip-path="url(#clipPath8148)"
   id="g41"
   transform="matrix(0.352778,0,0,0.352778,-0.143316,-0.00374823)">
    <g
   fill="#000000"
   fill-opacity="1"
   id="g39">
      <g
   id="use37"
   transform="translate(19.695513,6.8600001)">
        <path
   d="m 1.625,-4.5625 c -0.453125,-0.296875 -0.5,-0.625 -0.5,-0.796875 0,-0.609375 0.65625,-1.03125 1.359375,-1.03125 0.71875,0 1.359375,0.515625 1.359375,1.234375 0,0.578125 -0.390625,1.046875 -0.984375,1.390625 z m 1.453125,0.953125 C 3.796875,-3.984375 4.28125,-4.5 4.28125,-5.15625 c 0,-0.921875 -0.875,-1.484375 -1.78125,-1.484375 -1,0 -1.8125,0.734375 -1.8125,1.671875 0,0.171875 0.015625,0.625 0.4375,1.09375 0.109375,0.109375 0.484375,0.359375 0.734375,0.53125 C 1.28125,-3.046875 0.421875,-2.5 0.421875,-1.5 c 0,1.046875 1.015625,1.71875 2.0625,1.71875 1.125,0 2.078125,-0.828125 2.078125,-1.890625 0,-0.359375 -0.109375,-0.8125 -0.5,-1.234375 C 3.875,-3.109375 3.71875,-3.203125 3.078125,-3.609375 Z m -1,0.421875 1.234375,0.78125 c 0.28125,0.1875 0.75,0.484375 0.75,1.09375 0,0.734375 -0.75,1.25 -1.5625,1.25 -0.859375,0 -1.578125,-0.609375 -1.578125,-1.4375 0,-0.578125 0.3125,-1.21875 1.15625,-1.6875 z m 0,0"
   id="path59" />
      </g>
    </g>
  </g>
  <g
   fill="#000000"
   fill-opacity="1"
   id="g45"
   transform="matrix(0.352778,0,0,0.352778,-0.143316,-0.00374823)">
    <g
   id="use43"
   transform="translate(24.674999,3.2449999)">
      <path
   d="m 3.53125,-1.734375 c 0,-0.84375 -0.671875,-1.5 -1.5,-1.5 -0.828125,0 -1.5,0.671875 -1.5,1.484375 0,0.84375 0.6875,1.5 1.5,1.5 0.84375,0 1.5,-0.671875 1.5,-1.484375 z m -1.5,1.140625 C 1.375,-0.59375 0.875,-1.125 0.875,-1.734375 c 0,-0.65625 0.515625,-1.171875 1.15625,-1.171875 0.65625,0 1.15625,0.53125 1.15625,1.15625 0,0.65625 -0.515625,1.15625 -1.15625,1.15625 z m 0,0"
   id="path63" />
    </g>
  </g>
</g></g></svg>
