<?xml version="1.0" encoding="UTF-8" standalone="no"?>
<!-- Created with Inkscape (http://www.inkscape.org/) -->

<svg
   version="1.1"
   id="svg1"
   width="750.66669"
   height="560"
   viewBox="0 0 750.66669 560"
   sodipodi:docname="JW1_30lb_90_10.svg"
   inkscape:version="1.3.2 (091e20e, 2023-11-25)"
   xmlns:inkscape="http://www.inkscape.org/namespaces/inkscape"
   xmlns:sodipodi="http://sodipodi.sourceforge.net/DTD/sodipodi-0.dtd"
   xmlns="http://www.w3.org/2000/svg"
   xmlns:svg="http://www.w3.org/2000/svg">
  <defs
     id="defs1" />
  <sodipodi:namedview
     id="namedview1"
     pagecolor="#ffffff"
     bordercolor="#000000"
     borderopacity="0.25"
     inkscape:showpageshadow="2"
     inkscape:pageopacity="0.0"
     inkscape:pagecheckerboard="0"
     inkscape:deskcolor="#d1d1d1"
     inkscape:zoom="1.1865233"
     inkscape:cx="444.15478"
     inkscape:cy="253.26093"
     inkscape:window-width="1472"
     inkscape:window-height="806"
     inkscape:window-x="0"
     inkscape:window-y="25"
     inkscape:window-maximized="0"
     inkscape:current-layer="g1">
    <inkscape:page
       x="0"
       y="0"
       inkscape:label="1"
       id="page1"
       width="750.66669"
       height="560"
       margin="0"
       bleed="0"
       inkscape:export-filename="JW1_30lb_90_10.pdf"
       inkscape:export-xdpi="96"
       inkscape:export-ydpi="96" />
  </sodipodi:namedview>
  <g
     id="g1"
     inkscape:groupmode="layer"
     inkscape:label="1">
    <path
       id="path3"
       d="M 730,460 H 5100 V 3890 H 730 Z"
       style="fill:#ffffff;fill-opacity:1;fill-rule:nonzero;stroke:none"
       transform="matrix(0.13333333,0,0,-0.13333333,0,560)" />
    <path
       id="path4"
       d="M 730,460 V 3890"
       style="fill:none;stroke:#dfdfdf;stroke-width:5;stroke-linecap:butt;stroke-linejoin:round;stroke-miterlimit:10;stroke-dasharray:none;stroke-opacity:1"
       transform="matrix(0.13333333,0,0,-0.13333333,0,560)" />
    <path
       id="path5"
       d="M 1604,460 V 3890"
       style="fill:none;stroke:#dfdfdf;stroke-width:5;stroke-linecap:butt;stroke-linejoin:round;stroke-miterlimit:10;stroke-dasharray:none;stroke-opacity:1"
       transform="matrix(0.13333333,0,0,-0.13333333,0,560)" />
    <path
       id="path6"
       d="M 2478,460 V 3890"
       style="fill:none;stroke:#dfdfdf;stroke-width:5;stroke-linecap:butt;stroke-linejoin:round;stroke-miterlimit:10;stroke-dasharray:none;stroke-opacity:1"
       transform="matrix(0.13333333,0,0,-0.13333333,0,560)" />
    <path
       id="path7"
       d="M 3352,460 V 3890"
       style="fill:none;stroke:#dfdfdf;stroke-width:5;stroke-linecap:butt;stroke-linejoin:round;stroke-miterlimit:10;stroke-dasharray:none;stroke-opacity:1"
       transform="matrix(0.13333333,0,0,-0.13333333,0,560)" />
    <path
       id="path8"
       d="M 4226,460 V 3890"
       style="fill:none;stroke:#dfdfdf;stroke-width:5;stroke-linecap:butt;stroke-linejoin:round;stroke-miterlimit:10;stroke-dasharray:none;stroke-opacity:1"
       transform="matrix(0.13333333,0,0,-0.13333333,0,560)" />
    <path
       id="path9"
       d="M 5100,460 V 3890"
       style="fill:none;stroke:#dfdfdf;stroke-width:5;stroke-linecap:butt;stroke-linejoin:round;stroke-miterlimit:10;stroke-dasharray:none;stroke-opacity:1"
       transform="matrix(0.13333333,0,0,-0.13333333,0,560)" />
    <path
       id="path10"
       d="M 5100,460 H 730"
       style="fill:none;stroke:#dfdfdf;stroke-width:5;stroke-linecap:butt;stroke-linejoin:round;stroke-miterlimit:10;stroke-dasharray:none;stroke-opacity:1"
       transform="matrix(0.13333333,0,0,-0.13333333,0,560)" />
    <path
       id="path11"
       d="M 5100,803 H 730"
       style="fill:none;stroke:#dfdfdf;stroke-width:5;stroke-linecap:butt;stroke-linejoin:round;stroke-miterlimit:10;stroke-dasharray:none;stroke-opacity:1"
       transform="matrix(0.13333333,0,0,-0.13333333,0,560)" />
    <path
       id="path12"
       d="M 5100,1146 H 730"
       style="fill:none;stroke:#dfdfdf;stroke-width:5;stroke-linecap:butt;stroke-linejoin:round;stroke-miterlimit:10;stroke-dasharray:none;stroke-opacity:1"
       transform="matrix(0.13333333,0,0,-0.13333333,0,560)" />
    <path
       id="path13"
       d="M 5100,1489 H 730"
       style="fill:none;stroke:#dfdfdf;stroke-width:5;stroke-linecap:butt;stroke-linejoin:round;stroke-miterlimit:10;stroke-dasharray:none;stroke-opacity:1"
       transform="matrix(0.13333333,0,0,-0.13333333,0,560)" />
    <path
       id="path14"
       d="M 5100,1832 H 730"
       style="fill:none;stroke:#dfdfdf;stroke-width:5;stroke-linecap:butt;stroke-linejoin:round;stroke-miterlimit:10;stroke-dasharray:none;stroke-opacity:1"
       transform="matrix(0.13333333,0,0,-0.13333333,0,560)" />
    <path
       id="path15"
       d="M 5100,2175 H 730"
       style="fill:none;stroke:#dfdfdf;stroke-width:5;stroke-linecap:butt;stroke-linejoin:round;stroke-miterlimit:10;stroke-dasharray:none;stroke-opacity:1"
       transform="matrix(0.13333333,0,0,-0.13333333,0,560)" />
    <path
       id="path16"
       d="M 5100,2518 H 730"
       style="fill:none;stroke:#dfdfdf;stroke-width:5;stroke-linecap:butt;stroke-linejoin:round;stroke-miterlimit:10;stroke-dasharray:none;stroke-opacity:1"
       transform="matrix(0.13333333,0,0,-0.13333333,0,560)" />
    <path
       id="path17"
       d="M 5100,2861 H 730"
       style="fill:none;stroke:#dfdfdf;stroke-width:5;stroke-linecap:butt;stroke-linejoin:round;stroke-miterlimit:10;stroke-dasharray:none;stroke-opacity:1"
       transform="matrix(0.13333333,0,0,-0.13333333,0,560)" />
    <path
       id="path18"
       d="M 5100,3204 H 730"
       style="fill:none;stroke:#dfdfdf;stroke-width:5;stroke-linecap:butt;stroke-linejoin:round;stroke-miterlimit:10;stroke-dasharray:none;stroke-opacity:1"
       transform="matrix(0.13333333,0,0,-0.13333333,0,560)" />
    <path
       id="path19"
       d="M 5100,3547 H 730"
       style="fill:none;stroke:#dfdfdf;stroke-width:5;stroke-linecap:butt;stroke-linejoin:round;stroke-miterlimit:10;stroke-dasharray:none;stroke-opacity:1"
       transform="matrix(0.13333333,0,0,-0.13333333,0,560)" />
    <path
       id="path20"
       d="M 5100,3890 H 730"
       style="fill:none;stroke:#dfdfdf;stroke-width:5;stroke-linecap:butt;stroke-linejoin:round;stroke-miterlimit:10;stroke-dasharray:none;stroke-opacity:1"
       transform="matrix(0.13333333,0,0,-0.13333333,0,560)" />
    <path
       id="path21"
       d="M 730,460 H 5100"
       style="fill:none;stroke:#262626;stroke-width:5;stroke-linecap:square;stroke-linejoin:round;stroke-miterlimit:10;stroke-dasharray:none;stroke-opacity:1"
       transform="matrix(0.13333333,0,0,-0.13333333,0,560)" />
    <path
       id="path22"
       d="M 730,3890 H 5100"
       style="fill:none;stroke:#262626;stroke-width:5;stroke-linecap:square;stroke-linejoin:round;stroke-miterlimit:10;stroke-dasharray:none;stroke-opacity:1"
       transform="matrix(0.13333333,0,0,-0.13333333,0,560)" />
    <path
       id="path23"
       d="m 730,460 v 43.699"
       style="fill:none;stroke:#262626;stroke-width:5;stroke-linecap:square;stroke-linejoin:round;stroke-miterlimit:10;stroke-dasharray:none;stroke-opacity:1"
       transform="matrix(0.13333333,0,0,-0.13333333,0,560)" />
    <path
       id="path24"
       d="m 1604,460 v 43.699"
       style="fill:none;stroke:#262626;stroke-width:5;stroke-linecap:square;stroke-linejoin:round;stroke-miterlimit:10;stroke-dasharray:none;stroke-opacity:1"
       transform="matrix(0.13333333,0,0,-0.13333333,0,560)" />
    <path
       id="path25"
       d="m 2478,460 v 43.699"
       style="fill:none;stroke:#262626;stroke-width:5;stroke-linecap:square;stroke-linejoin:round;stroke-miterlimit:10;stroke-dasharray:none;stroke-opacity:1"
       transform="matrix(0.13333333,0,0,-0.13333333,0,560)" />
    <path
       id="path26"
       d="m 3352,460 v 43.699"
       style="fill:none;stroke:#262626;stroke-width:5;stroke-linecap:square;stroke-linejoin:round;stroke-miterlimit:10;stroke-dasharray:none;stroke-opacity:1"
       transform="matrix(0.13333333,0,0,-0.13333333,0,560)" />
    <path
       id="path27"
       d="m 4226,460 v 43.699"
       style="fill:none;stroke:#262626;stroke-width:5;stroke-linecap:square;stroke-linejoin:round;stroke-miterlimit:10;stroke-dasharray:none;stroke-opacity:1"
       transform="matrix(0.13333333,0,0,-0.13333333,0,560)" />
    <path
       id="path28"
       d="m 5100,460 v 43.699"
       style="fill:none;stroke:#262626;stroke-width:5;stroke-linecap:square;stroke-linejoin:round;stroke-miterlimit:10;stroke-dasharray:none;stroke-opacity:1"
       transform="matrix(0.13333333,0,0,-0.13333333,0,560)" />
    <path
       id="path29"
       d="m 730,3890 v -43.7"
       style="fill:none;stroke:#262626;stroke-width:5;stroke-linecap:square;stroke-linejoin:round;stroke-miterlimit:10;stroke-dasharray:none;stroke-opacity:1"
       transform="matrix(0.13333333,0,0,-0.13333333,0,560)" />
    <path
       id="path30"
       d="m 1604,3890 v -43.7"
       style="fill:none;stroke:#262626;stroke-width:5;stroke-linecap:square;stroke-linejoin:round;stroke-miterlimit:10;stroke-dasharray:none;stroke-opacity:1"
       transform="matrix(0.13333333,0,0,-0.13333333,0,560)" />
    <path
       id="path31"
       d="m 2478,3890 v -43.7"
       style="fill:none;stroke:#262626;stroke-width:5;stroke-linecap:square;stroke-linejoin:round;stroke-miterlimit:10;stroke-dasharray:none;stroke-opacity:1"
       transform="matrix(0.13333333,0,0,-0.13333333,0,560)" />
    <path
       id="path32"
       d="m 3352,3890 v -43.7"
       style="fill:none;stroke:#262626;stroke-width:5;stroke-linecap:square;stroke-linejoin:round;stroke-miterlimit:10;stroke-dasharray:none;stroke-opacity:1"
       transform="matrix(0.13333333,0,0,-0.13333333,0,560)" />
    <path
       id="path33"
       d="m 4226,3890 v -43.7"
       style="fill:none;stroke:#262626;stroke-width:5;stroke-linecap:square;stroke-linejoin:round;stroke-miterlimit:10;stroke-dasharray:none;stroke-opacity:1"
       transform="matrix(0.13333333,0,0,-0.13333333,0,560)" />
    <path
       id="path34"
       d="m 5100,3890 v -43.7"
       style="fill:none;stroke:#262626;stroke-width:5;stroke-linecap:square;stroke-linejoin:round;stroke-miterlimit:10;stroke-dasharray:none;stroke-opacity:1"
       transform="matrix(0.13333333,0,0,-0.13333333,0,560)" />
    <text
       id="text34"
       xml:space="preserve"
       transform="matrix(1.3333333,0,0,1.3333333,91.333333,526.93333)"><tspan
         style="font-variant:normal;font-weight:normal;font-size:16px;font-family:Helvetica;writing-mode:lr-tb;fill:#262626;fill-opacity:1;fill-rule:nonzero;stroke:none"
         x="0 80.400002 89.295998 93.744003 167.8 176.696 181.144 255.2 264.09601 268.54401 342.60001 351.496 355.944 437"
         y="0"
         sodipodi:role="line"
         id="tspan34">00.20.40.60.81</tspan><tspan
         style="font-variant:normal;font-weight:normal;font-size:16px;font-family:Helvetica;writing-mode:lr-tb;fill:#262626;fill-opacity:1;fill-rule:nonzero;stroke:none"
         x="211.5 219.5 223.948"
         y="21"
         sodipodi:role="line"
         id="tspan35">y/b</tspan></text>
    <path
       id="path35"
       d="M 730,460 V 3890"
       style="fill:none;stroke:#262626;stroke-width:5;stroke-linecap:square;stroke-linejoin:round;stroke-miterlimit:10;stroke-dasharray:none;stroke-opacity:1"
       transform="matrix(0.13333333,0,0,-0.13333333,0,560)" />
    <path
       id="path36"
       d="M 5100,460 V 3890"
       style="fill:none;stroke:#262626;stroke-width:5;stroke-linecap:square;stroke-linejoin:round;stroke-miterlimit:10;stroke-dasharray:none;stroke-opacity:1"
       transform="matrix(0.13333333,0,0,-0.13333333,0,560)" />
    <path
       id="path37"
       d="m 730,460 h 43.699"
       style="fill:none;stroke:#262626;stroke-width:5;stroke-linecap:square;stroke-linejoin:round;stroke-miterlimit:10;stroke-dasharray:none;stroke-opacity:1"
       transform="matrix(0.13333333,0,0,-0.13333333,0,560)" />
    <path
       id="path38"
       d="m 730,803 h 43.699"
       style="fill:none;stroke:#262626;stroke-width:5;stroke-linecap:square;stroke-linejoin:round;stroke-miterlimit:10;stroke-dasharray:none;stroke-opacity:1"
       transform="matrix(0.13333333,0,0,-0.13333333,0,560)" />
    <path
       id="path39"
       d="m 730,1146 h 43.699"
       style="fill:none;stroke:#262626;stroke-width:5;stroke-linecap:square;stroke-linejoin:round;stroke-miterlimit:10;stroke-dasharray:none;stroke-opacity:1"
       transform="matrix(0.13333333,0,0,-0.13333333,0,560)" />
    <path
       id="path40"
       d="m 730,1489 h 43.699"
       style="fill:none;stroke:#262626;stroke-width:5;stroke-linecap:square;stroke-linejoin:round;stroke-miterlimit:10;stroke-dasharray:none;stroke-opacity:1"
       transform="matrix(0.13333333,0,0,-0.13333333,0,560)" />
    <path
       id="path41"
       d="m 730,1832 h 43.699"
       style="fill:none;stroke:#262626;stroke-width:5;stroke-linecap:square;stroke-linejoin:round;stroke-miterlimit:10;stroke-dasharray:none;stroke-opacity:1"
       transform="matrix(0.13333333,0,0,-0.13333333,0,560)" />
    <path
       id="path42"
       d="m 730,2175 h 43.699"
       style="fill:none;stroke:#262626;stroke-width:5;stroke-linecap:square;stroke-linejoin:round;stroke-miterlimit:10;stroke-dasharray:none;stroke-opacity:1"
       transform="matrix(0.13333333,0,0,-0.13333333,0,560)" />
    <path
       id="path43"
       d="m 730,2518 h 43.699"
       style="fill:none;stroke:#262626;stroke-width:5;stroke-linecap:square;stroke-linejoin:round;stroke-miterlimit:10;stroke-dasharray:none;stroke-opacity:1"
       transform="matrix(0.13333333,0,0,-0.13333333,0,560)" />
    <path
       id="path44"
       d="m 730,2861 h 43.699"
       style="fill:none;stroke:#262626;stroke-width:5;stroke-linecap:square;stroke-linejoin:round;stroke-miterlimit:10;stroke-dasharray:none;stroke-opacity:1"
       transform="matrix(0.13333333,0,0,-0.13333333,0,560)" />
    <path
       id="path45"
       d="m 730,3204 h 43.699"
       style="fill:none;stroke:#262626;stroke-width:5;stroke-linecap:square;stroke-linejoin:round;stroke-miterlimit:10;stroke-dasharray:none;stroke-opacity:1"
       transform="matrix(0.13333333,0,0,-0.13333333,0,560)" />
    <path
       id="path46"
       d="m 730,3547 h 43.699"
       style="fill:none;stroke:#262626;stroke-width:5;stroke-linecap:square;stroke-linejoin:round;stroke-miterlimit:10;stroke-dasharray:none;stroke-opacity:1"
       transform="matrix(0.13333333,0,0,-0.13333333,0,560)" />
    <path
       id="path47"
       d="m 730,3890 h 43.699"
       style="fill:none;stroke:#262626;stroke-width:5;stroke-linecap:square;stroke-linejoin:round;stroke-miterlimit:10;stroke-dasharray:none;stroke-opacity:1"
       transform="matrix(0.13333333,0,0,-0.13333333,0,560)" />
    <path
       id="path48"
       d="m 5100,460 h -43.7"
       style="fill:none;stroke:#262626;stroke-width:5;stroke-linecap:square;stroke-linejoin:round;stroke-miterlimit:10;stroke-dasharray:none;stroke-opacity:1"
       transform="matrix(0.13333333,0,0,-0.13333333,0,560)" />
    <path
       id="path49"
       d="m 5100,803 h -43.7"
       style="fill:none;stroke:#262626;stroke-width:5;stroke-linecap:square;stroke-linejoin:round;stroke-miterlimit:10;stroke-dasharray:none;stroke-opacity:1"
       transform="matrix(0.13333333,0,0,-0.13333333,0,560)" />
    <path
       id="path50"
       d="m 5100,1146 h -43.7"
       style="fill:none;stroke:#262626;stroke-width:5;stroke-linecap:square;stroke-linejoin:round;stroke-miterlimit:10;stroke-dasharray:none;stroke-opacity:1"
       transform="matrix(0.13333333,0,0,-0.13333333,0,560)" />
    <path
       id="path51"
       d="m 5100,1489 h -43.7"
       style="fill:none;stroke:#262626;stroke-width:5;stroke-linecap:square;stroke-linejoin:round;stroke-miterlimit:10;stroke-dasharray:none;stroke-opacity:1"
       transform="matrix(0.13333333,0,0,-0.13333333,0,560)" />
    <path
       id="path52"
       d="m 5100,1832 h -43.7"
       style="fill:none;stroke:#262626;stroke-width:5;stroke-linecap:square;stroke-linejoin:round;stroke-miterlimit:10;stroke-dasharray:none;stroke-opacity:1"
       transform="matrix(0.13333333,0,0,-0.13333333,0,560)" />
    <path
       id="path53"
       d="m 5100,2175 h -43.7"
       style="fill:none;stroke:#262626;stroke-width:5;stroke-linecap:square;stroke-linejoin:round;stroke-miterlimit:10;stroke-dasharray:none;stroke-opacity:1"
       transform="matrix(0.13333333,0,0,-0.13333333,0,560)" />
    <path
       id="path54"
       d="m 5100,2518 h -43.7"
       style="fill:none;stroke:#262626;stroke-width:5;stroke-linecap:square;stroke-linejoin:round;stroke-miterlimit:10;stroke-dasharray:none;stroke-opacity:1"
       transform="matrix(0.13333333,0,0,-0.13333333,0,560)" />
    <path
       id="path55"
       d="m 5100,2861 h -43.7"
       style="fill:none;stroke:#262626;stroke-width:5;stroke-linecap:square;stroke-linejoin:round;stroke-miterlimit:10;stroke-dasharray:none;stroke-opacity:1"
       transform="matrix(0.13333333,0,0,-0.13333333,0,560)" />
    <path
       id="path56"
       d="m 5100,3204 h -43.7"
       style="fill:none;stroke:#262626;stroke-width:5;stroke-linecap:square;stroke-linejoin:round;stroke-miterlimit:10;stroke-dasharray:none;stroke-opacity:1"
       transform="matrix(0.13333333,0,0,-0.13333333,0,560)" />
    <path
       id="path57"
       d="m 5100,3547 h -43.7"
       style="fill:none;stroke:#262626;stroke-width:5;stroke-linecap:square;stroke-linejoin:round;stroke-miterlimit:10;stroke-dasharray:none;stroke-opacity:1"
       transform="matrix(0.13333333,0,0,-0.13333333,0,560)" />
    <path
       id="path58"
       d="m 5100,3890 h -43.7"
       style="fill:none;stroke:#262626;stroke-width:5;stroke-linecap:square;stroke-linejoin:round;stroke-miterlimit:10;stroke-dasharray:none;stroke-opacity:1"
       transform="matrix(0.13333333,0,0,-0.13333333,0,560)" />
    <text
       id="text58"
       xml:space="preserve"
       transform="matrix(1.3333333,0,0,1.3333333,69.066667,506.66667)"><tspan
         style="font-variant:normal;font-weight:normal;font-size:16px;font-family:Helvetica;writing-mode:lr-tb;fill:#262626;fill-opacity:1;fill-rule:nonzero;stroke:none"
         x="0 5.3280001"
         y="0"
         sodipodi:role="line"
         id="tspan58">-5</tspan><tspan
         style="font-variant:normal;font-weight:normal;font-size:16px;font-family:Helvetica;writing-mode:lr-tb;fill:#262626;fill-opacity:1;fill-rule:nonzero;stroke:none"
         x="7"
         y="-34.299999"
         id="tspan59">0</tspan><tspan
         style="font-variant:normal;font-weight:normal;font-size:16px;font-family:Helvetica;writing-mode:lr-tb;fill:#262626;fill-opacity:1;fill-rule:nonzero;stroke:none"
         x="7"
         y="-68.599998"
         id="tspan60">5</tspan><tspan
         style="font-variant:normal;font-weight:normal;font-size:16px;font-family:Helvetica;writing-mode:lr-tb;fill:#262626;fill-opacity:1;fill-rule:nonzero;stroke:none"
         x="-2 6.8959999"
         y="-102.9"
         sodipodi:role="line"
         id="tspan61">10</tspan><tspan
         style="font-variant:normal;font-weight:normal;font-size:16px;font-family:Helvetica;writing-mode:lr-tb;fill:#262626;fill-opacity:1;fill-rule:nonzero;stroke:none"
         x="-2 6.8959999"
         y="-137.2"
         sodipodi:role="line"
         id="tspan62">15</tspan><tspan
         style="font-variant:normal;font-weight:normal;font-size:16px;font-family:Helvetica;writing-mode:lr-tb;fill:#262626;fill-opacity:1;fill-rule:nonzero;stroke:none"
         x="-2 6.8959999"
         y="-171.5"
         sodipodi:role="line"
         id="tspan63">20</tspan><tspan
         style="font-variant:normal;font-weight:normal;font-size:16px;font-family:Helvetica;writing-mode:lr-tb;fill:#262626;fill-opacity:1;fill-rule:nonzero;stroke:none"
         x="-2 6.8959999"
         y="-205.8"
         sodipodi:role="line"
         id="tspan64">25</tspan><tspan
         style="font-variant:normal;font-weight:normal;font-size:16px;font-family:Helvetica;writing-mode:lr-tb;fill:#262626;fill-opacity:1;fill-rule:nonzero;stroke:none"
         x="-2 6.8959999"
         y="-240.10001"
         sodipodi:role="line"
         id="tspan65">30</tspan><tspan
         style="font-variant:normal;font-weight:normal;font-size:16px;font-family:Helvetica;writing-mode:lr-tb;fill:#262626;fill-opacity:1;fill-rule:nonzero;stroke:none"
         x="-2 6.8959999"
         y="-274.39999"
         sodipodi:role="line"
         id="tspan66">35</tspan><tspan
         style="font-variant:normal;font-weight:normal;font-size:16px;font-family:Helvetica;writing-mode:lr-tb;fill:#262626;fill-opacity:1;fill-rule:nonzero;stroke:none"
         x="-2 6.8959999"
         y="-308.70001"
         sodipodi:role="line"
         id="tspan67">40</tspan><tspan
         style="font-variant:normal;font-weight:normal;font-size:16px;font-family:Helvetica;writing-mode:lr-tb;fill:#262626;fill-opacity:1;fill-rule:nonzero;stroke:none"
         x="-2 6.8959999"
         y="-343"
         sodipodi:role="line"
         id="tspan68">45</tspan></text>
    <text
       id="text68"
       xml:space="preserve"
       transform="matrix(0,-1.3333333,1.3333333,0,48,314.66667)"><tspan
         style="font-variant:normal;font-weight:normal;font-size:16px;font-family:Helvetica;writing-mode:lr-tb;fill:#262626;fill-opacity:1;fill-rule:nonzero;stroke:none"
         x="0"
         y="0"
         id="tspan69">M</tspan><tspan
         style="font-variant:normal;font-weight:normal;font-size:12.8px;font-family:Helvetica;writing-mode:lr-tb;fill:#262626;fill-opacity:1;fill-rule:nonzero;stroke:none"
         x="14"
         y="8"
         id="tspan70">x</tspan><tspan
         style="font-variant:normal;font-weight:normal;font-size:16px;font-family:Helvetica;writing-mode:lr-tb;fill:#262626;fill-opacity:1;fill-rule:nonzero;stroke:none"
         x="21 25.448 29 37.896 42.344002 53.896"
         y="0"
         sodipodi:role="line"
         id="tspan71"> in Nm</tspan></text>
    <text
       id="text71"
       xml:space="preserve"
       transform="matrix(1.3333333,0,0,1.3333333,202.66667,30.666667)"><tspan
         style="font-variant:normal;font-weight:700;font-size:16px;font-family:Helvetica;writing-mode:lr-tb;fill:#000000;fill-opacity:1;fill-rule:nonzero;stroke:none"
         x="0 8.8959999 17.792 22.24 32.015999 40.911999 45.360001 50.688 59.584 68.480003 72.928001 81.823997 90.720001 100.496 105.824 110.272 114.72 123.616 132.51199 146.73599 151.18401 160.96001 176.064 180.51199 189.408 199.18401 208.96001 213.408 222.304 231.2 245.424 249.87199 261.42401"
         y="0"
         sodipodi:role="line"
         id="tspan72">30lbs (13,6kg), 90% FW and 10% RW</tspan></text>
    <path
       id="path72"
       d="m 729.48,1894.31 0.52,0.43 v 0.02 l 266.629,-223.19 269.481,-195.49 274.98,-168.65 282.45,-141.41 290.9,-112.95 v 0 l 257.94,-73.461 263.17,-50.429 266.72,-27.371 267.86,-5.231 265.9,14.871 v 9.012 l 295.45,-52.191 282.08,-32.879 262.21,-18.532 235.79,-9.019 203.04,-3.59 164.56,-1.059 121.29,-0.191 h 74.37 25.18"
       style="fill:none;stroke:#ff0000;stroke-width:15;stroke-linecap:butt;stroke-linejoin:round;stroke-miterlimit:10;stroke-dasharray:none;stroke-opacity:1"
       transform="matrix(0.13333333,0,0,-0.13333333,0,560)" />
    <path
       id="path73"
       d="m 729.48,939.512 0.52,0.058 v 0 l 179.559,-21.011 182.011,-19.028 186.55,-17.172 192.51,-15.308 198.97,-13.332 204.83,-11.258 208.9,-9.109 v 0 l 224.06,-7.403 220.34,-5.23 210.61,-3.457 194.17,-2.172 170.84,-1.36 140.91,-0.878 105.24,-0.614 65.1,-0.367 22.13,-0.129"
       style="fill:none;stroke:#0000ff;stroke-width:15;stroke-linecap:butt;stroke-linejoin:bevel;stroke-miterlimit:10;stroke-dasharray:100, 60;stroke-dashoffset:0;stroke-opacity:1"
       transform="matrix(0.13333333,0,0,-0.13333333,0,560)" />
    <path
       id="path74"
       d="m 988.668,1633.77 h 60 v 60 h -60 z"
       style="fill:#ff0000;fill-opacity:1;fill-rule:nonzero;stroke:#ff0000;stroke-width:5;stroke-linecap:butt;stroke-linejoin:miter;stroke-miterlimit:10;stroke-dasharray:none;stroke-opacity:1"
       transform="matrix(0.13333333,0,0,-0.13333333,0,560)" />
    <path
       id="path75"
       d="m 1789.64,1200.74 h 60 v 60 h -60 z"
       style="fill:#ff0000;fill-opacity:1;fill-rule:nonzero;stroke:#ff0000;stroke-width:5;stroke-linecap:butt;stroke-linejoin:miter;stroke-miterlimit:10;stroke-dasharray:none;stroke-opacity:1"
       transform="matrix(0.13333333,0,0,-0.13333333,0,560)" />
    <path
       id="path76"
       d="m 2407.7,1002.29 h 60 v 60 h -60 z"
       style="fill:#ff0000;fill-opacity:1;fill-rule:nonzero;stroke:#ff0000;stroke-width:5;stroke-linecap:butt;stroke-linejoin:miter;stroke-miterlimit:10;stroke-dasharray:none;stroke-opacity:1"
       transform="matrix(0.13333333,0,0,-0.13333333,0,560)" />
    <path
       id="path77"
       d="m 2925.05,923.547 h 60 v 60 h -60 z"
       style="fill:#ff0000;fill-opacity:1;fill-rule:nonzero;stroke:#ff0000;stroke-width:5;stroke-linecap:butt;stroke-linejoin:miter;stroke-miterlimit:10;stroke-dasharray:none;stroke-opacity:1"
       transform="matrix(0.13333333,0,0,-0.13333333,0,560)" />
    <path
       id="path78"
       d="m 3091.48,913.23 h 60 v 60 h -60 z"
       style="fill:#ff0000;fill-opacity:1;fill-rule:nonzero;stroke:#ff0000;stroke-width:5;stroke-linecap:butt;stroke-linejoin:miter;stroke-miterlimit:10;stroke-dasharray:none;stroke-opacity:1"
       transform="matrix(0.13333333,0,0,-0.13333333,0,560)" />
    <path
       id="path79"
       d="m 3396.72,907.027 h 60 v 60 h -60 z"
       style="fill:#ff0000;fill-opacity:1;fill-rule:nonzero;stroke:#ff0000;stroke-width:5;stroke-linecap:butt;stroke-linejoin:miter;stroke-miterlimit:10;stroke-dasharray:none;stroke-opacity:1"
       transform="matrix(0.13333333,0,0,-0.13333333,0,560)" />
    <path
       id="path80"
       d="m 5070,775.172 h 60 v 60 h -60 z"
       style="fill:#ff0000;fill-opacity:1;fill-rule:nonzero;stroke:#ff0000;stroke-width:5;stroke-linecap:butt;stroke-linejoin:miter;stroke-miterlimit:10;stroke-dasharray:none;stroke-opacity:1"
       transform="matrix(0.13333333,0,0,-0.13333333,0,560)" />
    <path
       id="path81"
       d="m 1003.18,914.148 -46.176,79.977 h 92.356"
       style="fill:#0000ff;fill-opacity:1;fill-rule:nonzero;stroke:none"
       transform="matrix(0.13333333,0,0,-0.13333333,0,560)" />
    <path
       id="path82"
       d="m 1003.18,914.148 -46.176,79.977 h 92.356 z"
       style="fill:none;stroke:#0000ff;stroke-width:5;stroke-linecap:butt;stroke-linejoin:miter;stroke-miterlimit:10;stroke-dasharray:none;stroke-opacity:1"
       transform="matrix(0.13333333,0,0,-0.13333333,0,560)" />
    <path
       id="path83"
       d="m 1391.2,855.09 -46.18,79.98 h 92.36"
       style="fill:#0000ff;fill-opacity:1;fill-rule:nonzero;stroke:none"
       transform="matrix(0.13333333,0,0,-0.13333333,0,560)" />
    <path
       id="path84"
       d="m 1391.2,855.09 -46.18,79.98 h 92.36 z"
       style="fill:none;stroke:#0000ff;stroke-width:5;stroke-linecap:butt;stroke-linejoin:miter;stroke-miterlimit:10;stroke-dasharray:none;stroke-opacity:1"
       transform="matrix(0.13333333,0,0,-0.13333333,0,560)" />
    <path
       id="path85"
       d="m 2047.58,804.316 -46.18,79.981 h 92.36"
       style="fill:#0000ff;fill-opacity:1;fill-rule:nonzero;stroke:none"
       transform="matrix(0.13333333,0,0,-0.13333333,0,560)" />
    <path
       id="path86"
       d="m 2047.58,804.316 -46.18,79.981 h 92.36 z"
       style="fill:none;stroke:#0000ff;stroke-width:5;stroke-linecap:butt;stroke-linejoin:miter;stroke-miterlimit:10;stroke-dasharray:none;stroke-opacity:1"
       transform="matrix(0.13333333,0,0,-0.13333333,0,560)" />
    <path
       id="path87"
       d="m 2713.3,763.039 -46.18,79.981 h 92.36"
       style="fill:#0000ff;fill-opacity:1;fill-rule:nonzero;stroke:none"
       transform="matrix(0.13333333,0,0,-0.13333333,0,560)" />
    <path
       id="path88"
       d="m 2713.3,763.039 -46.18,79.981 h 92.36 z"
       style="fill:none;stroke:#0000ff;stroke-width:5;stroke-linecap:butt;stroke-linejoin:miter;stroke-miterlimit:10;stroke-dasharray:none;stroke-opacity:1"
       transform="matrix(0.13333333,0,0,-0.13333333,0,560)" />
    <path
       id="path89"
       d="m 3064.79,756.621 -46.18,79.981 h 92.35"
       style="fill:#0000ff;fill-opacity:1;fill-rule:nonzero;stroke:none"
       transform="matrix(0.13333333,0,0,-0.13333333,0,560)" />
    <path
       id="path90"
       d="m 3064.79,756.621 -46.18,79.981 h 92.35 z"
       style="fill:none;stroke:#0000ff;stroke-width:5;stroke-linecap:butt;stroke-linejoin:miter;stroke-miterlimit:10;stroke-dasharray:none;stroke-opacity:1"
       transform="matrix(0.13333333,0,0,-0.13333333,0,560)" />
    <path
       id="path91"
       d="m 3240.55,755.801 -46.18,79.976 h 92.36"
       style="fill:#0000ff;fill-opacity:1;fill-rule:nonzero;stroke:none"
       transform="matrix(0.13333333,0,0,-0.13333333,0,560)" />
    <path
       id="path92"
       d="m 3240.55,755.801 -46.18,79.976 h 92.36 z"
       style="fill:none;stroke:#0000ff;stroke-width:5;stroke-linecap:butt;stroke-linejoin:miter;stroke-miterlimit:10;stroke-dasharray:none;stroke-opacity:1"
       transform="matrix(0.13333333,0,0,-0.13333333,0,560)" />
    <path
       id="path93"
       d="m 802.469,3890.41 222.241,-454.19 v 0 l 289.41,-517.9 300.01,-463.21 v 0 l 210.2,-281.9 216.67,-255.76 v 0 l 162.55,-169.75 v 0 l 290.64,-259.5 298.78,-212.42 v 0 L 3072.04,1121.92 3352,1005.49 v 0 l 30.39,-10.529 v 0 l 300.21,-85.352 289.21,-53.57 v 0 l 312.83,-33.48 276.59,-14.11 v 0 l 226.97,-4.461 170.22,-0.906 L 5064.04,803 H 5100"
       style="fill:none;stroke:#000000;stroke-width:15;stroke-linecap:butt;stroke-linejoin:bevel;stroke-miterlimit:10;stroke-dasharray:80, 30, 20, 30;stroke-dashoffset:0;stroke-opacity:1"
       transform="matrix(0.13333333,0,0,-0.13333333,0,560)" />
    <path
       id="path94"
       d="m 988.551,3656.76 39.999,-53.2 40,53.2 -40,53.2 z"
       style="fill:#000000;fill-opacity:1;fill-rule:nonzero;stroke:#000000;stroke-width:5;stroke-linecap:butt;stroke-linejoin:miter;stroke-miterlimit:10;stroke-dasharray:none;stroke-opacity:1"
       transform="matrix(0.13333333,0,0,-0.13333333,0,560)" />
    <path
       id="path95"
       d="m 1846.96,2414.19 40,-53.2 40,53.2 -40,53.2 z"
       style="fill:#000000;fill-opacity:1;fill-rule:nonzero;stroke:#000000;stroke-width:5;stroke-linecap:butt;stroke-linejoin:miter;stroke-miterlimit:10;stroke-dasharray:none;stroke-opacity:1"
       transform="matrix(0.13333333,0,0,-0.13333333,0,560)" />
    <path
       id="path96"
       d="m 2508.48,1625.25 40,-53.2 40,53.2 -40,53.2 z"
       style="fill:#000000;fill-opacity:1;fill-rule:nonzero;stroke:#000000;stroke-width:5;stroke-linecap:butt;stroke-linejoin:miter;stroke-miterlimit:10;stroke-dasharray:none;stroke-opacity:1"
       transform="matrix(0.13333333,0,0,-0.13333333,0,560)" />
    <path
       id="path97"
       d="m 3083.98,1245.45 40,-53.2 40,53.2 -40,53.2 z"
       style="fill:#000000;fill-opacity:1;fill-rule:nonzero;stroke:#000000;stroke-width:5;stroke-linecap:butt;stroke-linejoin:miter;stroke-miterlimit:10;stroke-dasharray:none;stroke-opacity:1"
       transform="matrix(0.13333333,0,0,-0.13333333,0,560)" />
    <path
       id="path98"
       d="m 3582.99,1054.63 40,-53.2 40,53.2 -40,53.21 z"
       style="fill:#000000;fill-opacity:1;fill-rule:nonzero;stroke:#000000;stroke-width:5;stroke-linecap:butt;stroke-linejoin:miter;stroke-miterlimit:10;stroke-dasharray:none;stroke-opacity:1"
       transform="matrix(0.13333333,0,0,-0.13333333,0,560)" />
    <path
       id="path99"
       d="m 5060,803 40,-53.199 40,53.199 -40,53.199 z"
       style="fill:#000000;fill-opacity:1;fill-rule:nonzero;stroke:#000000;stroke-width:5;stroke-linecap:butt;stroke-linejoin:miter;stroke-miterlimit:10;stroke-dasharray:none;stroke-opacity:1"
       transform="matrix(0.13333333,0,0,-0.13333333,0,560)" />
    <path
       id="path100"
       d="M 2440,2560 H 5010 V 3820 H 2440 Z"
       style="fill:#ffffff;fill-opacity:1;fill-rule:nonzero;stroke:none"
       transform="matrix(0.13333333,0,0,-0.13333333,0,560)" />
    <text
       id="text100"
       xml:space="preserve"
       transform="matrix(1.3333333,0,0,1.3333333,374.66667,74.604)"><tspan
         style="font-variant:normal;font-weight:normal;font-size:16px;font-family:Helvetica;writing-mode:lr-tb;fill:#000000;fill-opacity:1;fill-rule:nonzero;stroke:none"
         x="0 8 16.896 20.448 29.344 38.240002 47.136002 51.584 63.136002 66.688004 75.584 84.480003 88.928001 93.375999 103.152 112.048 117.376 128.92799 137.82401 143.15199 152.048 156.496 160.944 171.616 179.616 191.168 194.72 203.616"
         y="0"
         sodipodi:role="line"
         id="tspan100">Joined wing: Forward: Aswing</tspan></text>
    <path
       id="path101"
       d="m 2480,3700.47 h 300"
       style="fill:none;stroke:#ff0000;stroke-width:15;stroke-linecap:butt;stroke-linejoin:round;stroke-miterlimit:10;stroke-dasharray:none;stroke-opacity:1"
       transform="matrix(0.13333333,0,0,-0.13333333,0,560)" />
    <text
       id="text101"
       xml:space="preserve"
       transform="matrix(1.3333333,0,0,1.3333333,374.66667,101.828)"><tspan
         style="font-variant:normal;font-weight:normal;font-size:16px;font-family:Helvetica;writing-mode:lr-tb;fill:#000000;fill-opacity:1;fill-rule:nonzero;stroke:none"
         x="0 8 16.896 20.448 29.344 38.240002 47.136002 51.584 63.136002 66.688004 75.584 84.480003 88.928001 93.375999 104.928 113.824 122.72 128.048 132.496 136.944 147.616 155.616 167.168 170.72 179.616"
         y="0"
         sodipodi:role="line"
         id="tspan101">Joined wing: Rear: Aswing</tspan></text>
    <path
       id="path102"
       d="m 2480,3496.28 h 300"
       style="fill:none;stroke:#0000ff;stroke-width:15;stroke-linecap:butt;stroke-linejoin:bevel;stroke-miterlimit:10;stroke-dasharray:100, 60;stroke-dashoffset:0;stroke-opacity:1"
       transform="matrix(0.13333333,0,0,-0.13333333,0,560)" />
    <text
       id="text102"
       xml:space="preserve"
       transform="matrix(1.3333333,0,0,1.3333333,374.66667,129.05467)"><tspan
         style="font-variant:normal;font-weight:normal;font-size:16px;font-family:Helvetica;writing-mode:lr-tb;fill:#000000;fill-opacity:1;fill-rule:nonzero;stroke:none"
         x="0 8 16.896 20.448 29.344 38.240002 47.136002 51.584 63.136002 66.688004 75.584 84.480003 88.928001 93.375999 103.152 112.048 117.376 128.92799 137.82401 143.15199 152.048 156.496 160.944 171.616 179.616"
         y="0"
         sodipodi:role="line"
         id="tspan102">Joined wing: Forward: Exp</tspan></text>
    <path
       id="path103"
       d="m 2600,3262.09 h 60 v 60 h -60 z"
       style="fill:#ff0000;fill-opacity:1;fill-rule:nonzero;stroke:#ff0000;stroke-width:5;stroke-linecap:butt;stroke-linejoin:miter;stroke-miterlimit:10;stroke-dasharray:none;stroke-opacity:1"
       transform="matrix(0.13333333,0,0,-0.13333333,0,560)" />
    <text
       id="text103"
       xml:space="preserve"
       transform="matrix(1.3333333,0,0,1.3333333,374.66667,156.27867)"><tspan
         style="font-variant:normal;font-weight:normal;font-size:16px;font-family:Helvetica;writing-mode:lr-tb;fill:#000000;fill-opacity:1;fill-rule:nonzero;stroke:none"
         x="0 8 16.896 20.448 29.344 38.240002 47.136002 51.584 63.136002 66.688004 75.584 84.480003 88.928001 93.375999 104.928 113.824 122.72 128.048 132.496 136.944 147.616 155.616"
         y="0"
         sodipodi:role="line"
         id="tspan103">Joined wing: Rear: Exp</tspan></text>
    <path
       id="path104"
       d="m 2630,3034.59 -46.18,79.98 h 92.36"
       style="fill:#0000ff;fill-opacity:1;fill-rule:nonzero;stroke:none"
       transform="matrix(0.13333333,0,0,-0.13333333,0,560)" />
    <path
       id="path105"
       d="m 2630,3034.59 -46.18,79.98 h 92.36 z"
       style="fill:none;stroke:#0000ff;stroke-width:5;stroke-linecap:butt;stroke-linejoin:miter;stroke-miterlimit:10;stroke-dasharray:none;stroke-opacity:1"
       transform="matrix(0.13333333,0,0,-0.13333333,0,560)" />
    <text
       id="text105"
       xml:space="preserve"
       transform="matrix(1.3333333,0,0,1.3333333,374.66667,183.50533)"><tspan
         style="font-variant:normal;font-weight:normal;font-size:16px;font-family:Helvetica;writing-mode:lr-tb;fill:#000000;fill-opacity:1;fill-rule:nonzero;stroke:none"
         x="0 11.552 20.448 29.344 33.792 37.344002 40.896 49.792 57.792 66.688004 72.015999 76.463997 88.015999 91.568001 100.464 109.36 113.808 118.256 122.704 133.37601 141.37601 152.92799 156.48 165.37601"
         y="0"
         sodipodi:role="line"
         id="tspan105">Cantilever wing : Aswing</tspan></text>
    <path
       id="path106"
       d="m 2480,2883.72 h 300"
       style="fill:none;stroke:#000000;stroke-width:15;stroke-linecap:butt;stroke-linejoin:bevel;stroke-miterlimit:10;stroke-dasharray:80, 30, 20, 30;stroke-dashoffset:0;stroke-opacity:1"
       transform="matrix(0.13333333,0,0,-0.13333333,0,560)" />
    <text
       id="text106"
       xml:space="preserve"
       transform="matrix(1.3333333,0,0,1.3333333,374.66667,210.72933)"><tspan
         style="font-variant:normal;font-weight:normal;font-size:16px;font-family:Helvetica;writing-mode:lr-tb;fill:#000000;fill-opacity:1;fill-rule:nonzero;stroke:none"
         x="0 11.552 20.448 29.344 33.792 37.344002 40.896 49.792 57.792 66.688004 72.015999 76.463997 88.015999 91.568001 100.464 109.36 113.808 118.256 128.92799 136.92799"
         y="0"
         sodipodi:role="line"
         id="tspan106">Cantilever wing: Exp</tspan></text>
    <path
       id="path107"
       d="m 2590,2679.53 40,-53.21 40,53.21 -40,53.2 z"
       style="fill:#000000;fill-opacity:1;fill-rule:nonzero;stroke:#000000;stroke-width:5;stroke-linecap:butt;stroke-linejoin:miter;stroke-miterlimit:10;stroke-dasharray:none;stroke-opacity:1"
       transform="matrix(0.13333333,0,0,-0.13333333,0,560)" />
    <path
       id="path108"
       d="M 2440,2560 H 5010 V 3820 H 2440 Z"
       style="fill:none;stroke:#262626;stroke-width:5;stroke-linecap:butt;stroke-linejoin:miter;stroke-miterlimit:10;stroke-dasharray:none;stroke-opacity:1"
       transform="matrix(0.13333333,0,0,-0.13333333,0,560)"
       inkscape:export-filename="JW1_30lb_90_10.pdf"
       inkscape:export-xdpi="96"
       inkscape:export-ydpi="96" />
  </g>
</svg>
