<?xml version="1.0" encoding="UTF-8" standalone="no"?>
<!-- Created with Inkscape (http://www.inkscape.org/) -->

<svg
   version="1.1"
   id="svg1"
   width="746.66669"
   height="560"
   viewBox="0 0 746.66669 560"
   sodipodi:docname="FFWT_Theta_VS_alpha.svg"
   xml:space="preserve"
   inkscape:version="1.3.2 (091e20e, 2023-11-25)"
   xmlns:inkscape="http://www.inkscape.org/namespaces/inkscape"
   xmlns:sodipodi="http://sodipodi.sourceforge.net/DTD/sodipodi-0.dtd"
   xmlns="http://www.w3.org/2000/svg"
   xmlns:svg="http://www.w3.org/2000/svg"><sodipodi:namedview
     id="namedview1"
     pagecolor="#ffffff"
     bordercolor="#000000"
     borderopacity="0.25"
     inkscape:showpageshadow="2"
     inkscape:pageopacity="0.0"
     inkscape:pagecheckerboard="0"
     inkscape:deskcolor="#d1d1d1"
     inkscape:zoom="0.7962467"
     inkscape:cx="573.94273"
     inkscape:cy="366.72052"
     inkscape:window-width="1472"
     inkscape:window-height="819"
     inkscape:window-x="0"
     inkscape:window-y="37"
     inkscape:window-maximized="0"
     inkscape:current-layer="g1"><inkscape:page
       x="0"
       y="0"
       inkscape:label="1"
       id="page1"
       width="746.66669"
       height="560"
       margin="0"
       bleed="0" /></sodipodi:namedview><defs
     id="defs1"><marker
       style="overflow:visible"
       id="Triangle"
       refX="0"
       refY="0"
       orient="auto-start-reverse"
       inkscape:stockid="Triangle arrow"
       markerWidth="1"
       markerHeight="1"
       viewBox="0 0 1 1"
       inkscape:isstock="true"
       inkscape:collect="always"
       preserveAspectRatio="xMidYMid"><path
         transform="scale(0.5)"
         style="fill:context-stroke;fill-rule:evenodd;stroke:context-stroke;stroke-width:1pt"
         d="M 5.77,0 -2.88,5 V -5 Z"
         id="path154" /></marker><marker
       style="overflow:visible"
       id="Triangle-3"
       refX="0"
       refY="0"
       orient="auto-start-reverse"
       inkscape:stockid="Triangle arrow"
       markerWidth="1"
       markerHeight="1"
       viewBox="0 0 1 1"
       inkscape:isstock="true"
       inkscape:collect="always"
       preserveAspectRatio="xMidYMid"><path
         transform="scale(0.5)"
         style="fill:context-stroke;fill-rule:evenodd;stroke:context-stroke;stroke-width:1pt"
         d="M 5.77,0 -2.88,5 V -5 Z"
         id="path154-7" /></marker></defs><g
     id="g1"
     inkscape:groupmode="layer"
     inkscape:label="1"><path
       id="path3"
       d="M 730,520 H 5070 V 3885 H 730 Z"
       style="fill:#ffffff;fill-opacity:1;fill-rule:nonzero;stroke:none"
       transform="matrix(0.13333333,0,0,-0.13333333,0,560)" /><path
       id="path4"
       d="M 730,520 V 3885"
       style="fill:none;stroke:#dfdfdf;stroke-width:5;stroke-linecap:butt;stroke-linejoin:round;stroke-miterlimit:10;stroke-dasharray:none;stroke-opacity:1"
       transform="matrix(0.13333333,0,0,-0.13333333,0,560)" /><path
       id="path5"
       d="M 1598,520 V 3885"
       style="fill:none;stroke:#dfdfdf;stroke-width:5;stroke-linecap:butt;stroke-linejoin:round;stroke-miterlimit:10;stroke-dasharray:none;stroke-opacity:1"
       transform="matrix(0.13333333,0,0,-0.13333333,0,560)" /><path
       id="path6"
       d="M 2466,520 V 3885"
       style="fill:none;stroke:#dfdfdf;stroke-width:5;stroke-linecap:butt;stroke-linejoin:round;stroke-miterlimit:10;stroke-dasharray:none;stroke-opacity:1"
       transform="matrix(0.13333333,0,0,-0.13333333,0,560)" /><path
       id="path7"
       d="M 3334,520 V 3885"
       style="fill:none;stroke:#dfdfdf;stroke-width:5;stroke-linecap:butt;stroke-linejoin:round;stroke-miterlimit:10;stroke-dasharray:none;stroke-opacity:1"
       transform="matrix(0.13333333,0,0,-0.13333333,0,560)" /><path
       id="path8"
       d="M 4202,520 V 3885"
       style="fill:none;stroke:#dfdfdf;stroke-width:5;stroke-linecap:butt;stroke-linejoin:round;stroke-miterlimit:10;stroke-dasharray:none;stroke-opacity:1"
       transform="matrix(0.13333333,0,0,-0.13333333,0,560)" /><path
       id="path9"
       d="M 5070,520 V 3885"
       style="fill:none;stroke:#dfdfdf;stroke-width:5;stroke-linecap:butt;stroke-linejoin:round;stroke-miterlimit:10;stroke-dasharray:none;stroke-opacity:1"
       transform="matrix(0.13333333,0,0,-0.13333333,0,560)" /><path
       id="path10"
       d="M 5070,723.941 H 730"
       style="fill:none;stroke:#dfdfdf;stroke-width:5;stroke-linecap:butt;stroke-linejoin:round;stroke-miterlimit:10;stroke-dasharray:none;stroke-opacity:1"
       transform="matrix(0.13333333,0,0,-0.13333333,0,560)" /><path
       id="path11"
       d="M 5070,1131.82 H 730"
       style="fill:none;stroke:#dfdfdf;stroke-width:5;stroke-linecap:butt;stroke-linejoin:round;stroke-miterlimit:10;stroke-dasharray:none;stroke-opacity:1"
       transform="matrix(0.13333333,0,0,-0.13333333,0,560)" /><path
       id="path12"
       d="M 5070,1539.7 H 730"
       style="fill:none;stroke:#dfdfdf;stroke-width:5;stroke-linecap:butt;stroke-linejoin:round;stroke-miterlimit:10;stroke-dasharray:none;stroke-opacity:1"
       transform="matrix(0.13333333,0,0,-0.13333333,0,560)" /><path
       id="path13"
       d="M 5070,1947.58 H 730"
       style="fill:none;stroke:#dfdfdf;stroke-width:5;stroke-linecap:butt;stroke-linejoin:round;stroke-miterlimit:10;stroke-dasharray:none;stroke-opacity:1"
       transform="matrix(0.13333333,0,0,-0.13333333,0,560)" /><path
       id="path14"
       d="M 5070,2355.45 H 730"
       style="fill:none;stroke:#dfdfdf;stroke-width:5;stroke-linecap:butt;stroke-linejoin:round;stroke-miterlimit:10;stroke-dasharray:none;stroke-opacity:1"
       transform="matrix(0.13333333,0,0,-0.13333333,0,560)" /><path
       id="path15"
       d="M 5070,2763.33 H 730"
       style="fill:none;stroke:#dfdfdf;stroke-width:5;stroke-linecap:butt;stroke-linejoin:round;stroke-miterlimit:10;stroke-dasharray:none;stroke-opacity:1"
       transform="matrix(0.13333333,0,0,-0.13333333,0,560)" /><path
       id="path16"
       d="M 5070,3171.21 H 730"
       style="fill:none;stroke:#dfdfdf;stroke-width:5;stroke-linecap:butt;stroke-linejoin:round;stroke-miterlimit:10;stroke-dasharray:none;stroke-opacity:1"
       transform="matrix(0.13333333,0,0,-0.13333333,0,560)" /><path
       id="path17"
       d="M 5070,3579.09 H 730"
       style="fill:none;stroke:#dfdfdf;stroke-width:5;stroke-linecap:butt;stroke-linejoin:round;stroke-miterlimit:10;stroke-dasharray:none;stroke-opacity:1"
       transform="matrix(0.13333333,0,0,-0.13333333,0,560)" /><path
       id="path18"
       d="M 730,520 H 5070"
       style="fill:none;stroke:#262626;stroke-width:5;stroke-linecap:square;stroke-linejoin:round;stroke-miterlimit:10;stroke-dasharray:none;stroke-opacity:1"
       transform="matrix(0.13333333,0,0,-0.13333333,0,560)" /><path
       id="path19"
       d="M 730,3885 H 5070"
       style="fill:none;stroke:#262626;stroke-width:5;stroke-linecap:square;stroke-linejoin:round;stroke-miterlimit:10;stroke-dasharray:none;stroke-opacity:1"
       transform="matrix(0.13333333,0,0,-0.13333333,0,560)" /><path
       id="path20"
       d="m 730,520 v 43.398"
       style="fill:none;stroke:#262626;stroke-width:5;stroke-linecap:square;stroke-linejoin:round;stroke-miterlimit:10;stroke-dasharray:none;stroke-opacity:1"
       transform="matrix(0.13333333,0,0,-0.13333333,0,560)" /><path
       id="path21"
       d="m 1598,520 v 43.398"
       style="fill:none;stroke:#262626;stroke-width:5;stroke-linecap:square;stroke-linejoin:round;stroke-miterlimit:10;stroke-dasharray:none;stroke-opacity:1"
       transform="matrix(0.13333333,0,0,-0.13333333,0,560)" /><path
       id="path22"
       d="m 2466,520 v 43.398"
       style="fill:none;stroke:#262626;stroke-width:5;stroke-linecap:square;stroke-linejoin:round;stroke-miterlimit:10;stroke-dasharray:none;stroke-opacity:1"
       transform="matrix(0.13333333,0,0,-0.13333333,0,560)" /><path
       id="path23"
       d="m 3334,520 v 43.398"
       style="fill:none;stroke:#262626;stroke-width:5;stroke-linecap:square;stroke-linejoin:round;stroke-miterlimit:10;stroke-dasharray:none;stroke-opacity:1"
       transform="matrix(0.13333333,0,0,-0.13333333,0,560)" /><path
       id="path24"
       d="m 4202,520 v 43.398"
       style="fill:none;stroke:#262626;stroke-width:5;stroke-linecap:square;stroke-linejoin:round;stroke-miterlimit:10;stroke-dasharray:none;stroke-opacity:1"
       transform="matrix(0.13333333,0,0,-0.13333333,0,560)" /><path
       id="path25"
       d="m 5070,520 v 43.398"
       style="fill:none;stroke:#262626;stroke-width:5;stroke-linecap:square;stroke-linejoin:round;stroke-miterlimit:10;stroke-dasharray:none;stroke-opacity:1"
       transform="matrix(0.13333333,0,0,-0.13333333,0,560)" /><path
       id="path26"
       d="m 730,3885 v -43.4"
       style="fill:none;stroke:#262626;stroke-width:5;stroke-linecap:square;stroke-linejoin:round;stroke-miterlimit:10;stroke-dasharray:none;stroke-opacity:1"
       transform="matrix(0.13333333,0,0,-0.13333333,0,560)" /><path
       id="path27"
       d="m 1598,3885 v -43.4"
       style="fill:none;stroke:#262626;stroke-width:5;stroke-linecap:square;stroke-linejoin:round;stroke-miterlimit:10;stroke-dasharray:none;stroke-opacity:1"
       transform="matrix(0.13333333,0,0,-0.13333333,0,560)" /><path
       id="path28"
       d="m 2466,3885 v -43.4"
       style="fill:none;stroke:#262626;stroke-width:5;stroke-linecap:square;stroke-linejoin:round;stroke-miterlimit:10;stroke-dasharray:none;stroke-opacity:1"
       transform="matrix(0.13333333,0,0,-0.13333333,0,560)" /><path
       id="path29"
       d="m 3334,3885 v -43.4"
       style="fill:none;stroke:#262626;stroke-width:5;stroke-linecap:square;stroke-linejoin:round;stroke-miterlimit:10;stroke-dasharray:none;stroke-opacity:1"
       transform="matrix(0.13333333,0,0,-0.13333333,0,560)" /><path
       id="path30"
       d="m 4202,3885 v -43.4"
       style="fill:none;stroke:#262626;stroke-width:5;stroke-linecap:square;stroke-linejoin:round;stroke-miterlimit:10;stroke-dasharray:none;stroke-opacity:1"
       transform="matrix(0.13333333,0,0,-0.13333333,0,560)" /><path
       id="path31"
       d="m 5070,3885 v -43.4"
       style="fill:none;stroke:#262626;stroke-width:5;stroke-linecap:square;stroke-linejoin:round;stroke-miterlimit:10;stroke-dasharray:none;stroke-opacity:1"
       transform="matrix(0.13333333,0,0,-0.13333333,0,560)" /><text
       id="text31"
       xml:space="preserve"
       transform="matrix(1.3333333,0,0,1.3333333,80.666667,518.93333)"><tspan
         style="font-variant:normal;font-weight:normal;font-size:16px;font-family:Helvetica;writing-mode:lr-tb;fill:#262626;fill-opacity:1;fill-rule:nonzero;stroke:none"
         x="0 5.3280001 14.224 86.800003 92.127998 101.024 181.60001 263.89999 272.79599 350.70001 359.59601 437.5 446.396"
         y="0"
         sodipodi:role="line"
         id="tspan31">-20-100102030</tspan></text><path
       id="path32"
       d="m 2715.47,37.9688 c -5.63,0 -10.63,1.3046 -15,3.9101 -4.27,2.707 -7.61,6.3008 -10,10.7813 -2.29,4.4804 -3.44,9.5312 -3.44,15.1484 0,8.0195 2.18,15.8867 6.56,23.6016 4.48,7.8125 10.42,14.1678 17.82,19.0588 7.39,4.894 15.1,7.34 23.12,7.34 5.94,0 11.15,-1.559 15.63,-4.68 4.58,-3.125 8.02,-7.293 10.31,-12.5 2.39,-5.211 3.59,-10.7345 3.59,-16.5704 l 0.16,-11.8672 c 4.06,5.625 7.45,11.4063 10.16,17.3399 2.81,5.9375 4.94,12.1407 6.4,18.5977 0.31,0.726 0.78,1.09 1.41,1.09 h 2.03 c 1.15,0 1.72,-0.571 1.72,-1.719 0,-0.105 -0.05,-0.262 -0.16,-0.469 -1.35,-5.414 -3.07,-10.6208 -5.15,-15.6208 -2.09,-4.8985 -4.54,-9.6954 -7.35,-14.3789 -2.71,-4.5821 -5.73,-8.7461 -9.06,-12.5 0,-14.5821 1.72,-21.8711 5.16,-21.8711 2.19,0 3.96,0.625 5.31,1.8711 1.46,1.3515 2.71,2.9687 3.75,4.8476 1.04,1.875 1.72,2.8594 2.03,2.9609 h 2.03 c 0.94,0 1.41,-0.5703 1.41,-1.7109 0,-2.918 -1.67,-5.7851 -5,-8.5976 -3.33,-2.7071 -6.62,-4.0625 -9.85,-4.0625 -4.27,0 -7.81,1.3554 -10.62,4.0625 -2.81,2.8125 -4.74,6.4062 -5.78,10.7773 -5.52,-4.6836 -11.51,-8.3281 -17.97,-10.9297 -6.35,-2.6055 -12.76,-3.9101 -19.22,-3.9101 z m 0.31,4.6914 c 12.5,0 24.53,5.1562 36.1,15.4687 -0.11,0.7266 -0.21,1.5625 -0.32,2.5 -0.1,1.043 -0.15,1.6094 -0.15,1.7109 V 81.25 c 0,21.254 -5.73,31.879 -17.19,31.879 -6.87,0 -12.92,-2.914 -18.13,-8.75 -5.1,-5.8321 -8.95,-12.8673 -11.56,-21.0977 -2.6,-8.129 -3.9,-15.5743 -3.9,-22.3399 0,-5.1094 1.3,-9.4297 3.9,-12.9726 2.61,-3.5391 6.36,-5.3086 11.25,-5.3086"
       style="fill:#262626;fill-opacity:1;fill-rule:nonzero;stroke:none"
       transform="matrix(0.13333333,0,0,-0.13333333,0,560)" /><text
       id="text32"
       xml:space="preserve"
       transform="matrix(1.3333333,0,0,1.3333333,379.85707,554.66667)"><tspan
         style="font-variant:normal;font-weight:normal;font-size:17.6px;font-family:Helvetica;writing-mode:lr-tb;fill:#262626;fill-opacity:1;fill-rule:nonzero;stroke:none"
         x="0 3.9072001 13.6928"
         y="0"
         sodipodi:role="line"
         id="tspan32">in </tspan><tspan
         style="font-variant:normal;font-weight:normal;font-size:14.08px;font-family:Courier;writing-mode:lr-tb;fill:#262626;fill-opacity:1;fill-rule:nonzero;stroke:none"
         x="19.107201"
         y="-8"
         id="tspan33">°</tspan></text><path
       id="path33"
       d="M 730,520 V 3885"
       style="fill:none;stroke:#262626;stroke-width:5;stroke-linecap:square;stroke-linejoin:round;stroke-miterlimit:10;stroke-dasharray:none;stroke-opacity:1"
       transform="matrix(0.13333333,0,0,-0.13333333,0,560)" /><path
       id="path34"
       d="M 5070,520 V 3885"
       style="fill:none;stroke:#262626;stroke-width:5;stroke-linecap:square;stroke-linejoin:round;stroke-miterlimit:10;stroke-dasharray:none;stroke-opacity:1"
       transform="matrix(0.13333333,0,0,-0.13333333,0,560)" /><path
       id="path35"
       d="m 730,723.941 h 43.398"
       style="fill:none;stroke:#262626;stroke-width:5;stroke-linecap:square;stroke-linejoin:round;stroke-miterlimit:10;stroke-dasharray:none;stroke-opacity:1"
       transform="matrix(0.13333333,0,0,-0.13333333,0,560)" /><path
       id="path36"
       d="m 730,1131.82 h 43.398"
       style="fill:none;stroke:#262626;stroke-width:5;stroke-linecap:square;stroke-linejoin:round;stroke-miterlimit:10;stroke-dasharray:none;stroke-opacity:1"
       transform="matrix(0.13333333,0,0,-0.13333333,0,560)" /><path
       id="path37"
       d="m 730,1539.7 h 43.398"
       style="fill:none;stroke:#262626;stroke-width:5;stroke-linecap:square;stroke-linejoin:round;stroke-miterlimit:10;stroke-dasharray:none;stroke-opacity:1"
       transform="matrix(0.13333333,0,0,-0.13333333,0,560)" /><path
       id="path38"
       d="m 730,1947.58 h 43.398"
       style="fill:none;stroke:#262626;stroke-width:5;stroke-linecap:square;stroke-linejoin:round;stroke-miterlimit:10;stroke-dasharray:none;stroke-opacity:1"
       transform="matrix(0.13333333,0,0,-0.13333333,0,560)" /><path
       id="path39"
       d="m 730,2355.45 h 43.398"
       style="fill:none;stroke:#262626;stroke-width:5;stroke-linecap:square;stroke-linejoin:round;stroke-miterlimit:10;stroke-dasharray:none;stroke-opacity:1"
       transform="matrix(0.13333333,0,0,-0.13333333,0,560)" /><path
       id="path40"
       d="m 730,2763.33 h 43.398"
       style="fill:none;stroke:#262626;stroke-width:5;stroke-linecap:square;stroke-linejoin:round;stroke-miterlimit:10;stroke-dasharray:none;stroke-opacity:1"
       transform="matrix(0.13333333,0,0,-0.13333333,0,560)" /><path
       id="path41"
       d="m 730,3171.21 h 43.398"
       style="fill:none;stroke:#262626;stroke-width:5;stroke-linecap:square;stroke-linejoin:round;stroke-miterlimit:10;stroke-dasharray:none;stroke-opacity:1"
       transform="matrix(0.13333333,0,0,-0.13333333,0,560)" /><path
       id="path42"
       d="m 730,3579.09 h 43.398"
       style="fill:none;stroke:#262626;stroke-width:5;stroke-linecap:square;stroke-linejoin:round;stroke-miterlimit:10;stroke-dasharray:none;stroke-opacity:1"
       transform="matrix(0.13333333,0,0,-0.13333333,0,560)" /><path
       id="path43"
       d="m 5070,723.941 h -43.4"
       style="fill:none;stroke:#262626;stroke-width:5;stroke-linecap:square;stroke-linejoin:round;stroke-miterlimit:10;stroke-dasharray:none;stroke-opacity:1"
       transform="matrix(0.13333333,0,0,-0.13333333,0,560)" /><path
       id="path44"
       d="m 5070,1131.82 h -43.4"
       style="fill:none;stroke:#262626;stroke-width:5;stroke-linecap:square;stroke-linejoin:round;stroke-miterlimit:10;stroke-dasharray:none;stroke-opacity:1"
       transform="matrix(0.13333333,0,0,-0.13333333,0,560)" /><path
       id="path45"
       d="m 5070,1539.7 h -43.4"
       style="fill:none;stroke:#262626;stroke-width:5;stroke-linecap:square;stroke-linejoin:round;stroke-miterlimit:10;stroke-dasharray:none;stroke-opacity:1"
       transform="matrix(0.13333333,0,0,-0.13333333,0,560)" /><path
       id="path46"
       d="m 5070,1947.58 h -43.4"
       style="fill:none;stroke:#262626;stroke-width:5;stroke-linecap:square;stroke-linejoin:round;stroke-miterlimit:10;stroke-dasharray:none;stroke-opacity:1"
       transform="matrix(0.13333333,0,0,-0.13333333,0,560)" /><path
       id="path47"
       d="m 5070,2355.45 h -43.4"
       style="fill:none;stroke:#262626;stroke-width:5;stroke-linecap:square;stroke-linejoin:round;stroke-miterlimit:10;stroke-dasharray:none;stroke-opacity:1"
       transform="matrix(0.13333333,0,0,-0.13333333,0,560)" /><path
       id="path48"
       d="m 5070,2763.33 h -43.4"
       style="fill:none;stroke:#262626;stroke-width:5;stroke-linecap:square;stroke-linejoin:round;stroke-miterlimit:10;stroke-dasharray:none;stroke-opacity:1"
       transform="matrix(0.13333333,0,0,-0.13333333,0,560)" /><path
       id="path49"
       d="m 5070,3171.21 h -43.4"
       style="fill:none;stroke:#262626;stroke-width:5;stroke-linecap:square;stroke-linejoin:round;stroke-miterlimit:10;stroke-dasharray:none;stroke-opacity:1"
       transform="matrix(0.13333333,0,0,-0.13333333,0,560)" /><path
       id="path50"
       d="m 5070,3579.09 h -43.4"
       style="fill:none;stroke:#262626;stroke-width:5;stroke-linecap:square;stroke-linejoin:round;stroke-miterlimit:10;stroke-dasharray:none;stroke-opacity:1"
       transform="matrix(0.13333333,0,0,-0.13333333,0,560)" /><text
       id="text50"
       xml:space="preserve"
       transform="matrix(1.3333333,0,0,1.3333333,57.066667,471.47453)"><tspan
         style="font-variant:normal;font-weight:normal;font-size:16px;font-family:Helvetica;writing-mode:lr-tb;fill:#262626;fill-opacity:1;fill-rule:nonzero;stroke:none"
         x="0 5.3280001 14.224"
         y="0"
         sodipodi:role="line"
         id="tspan50">-80</tspan><tspan
         style="font-variant:normal;font-weight:normal;font-size:16px;font-family:Helvetica;writing-mode:lr-tb;fill:#262626;fill-opacity:1;fill-rule:nonzero;stroke:none"
         x="0 5.3280001 14.224"
         y="-40.787498"
         sodipodi:role="line"
         id="tspan51">-60</tspan><tspan
         style="font-variant:normal;font-weight:normal;font-size:16px;font-family:Helvetica;writing-mode:lr-tb;fill:#262626;fill-opacity:1;fill-rule:nonzero;stroke:none"
         x="0 5.3280001 14.224"
         y="-81.575401"
         sodipodi:role="line"
         id="tspan52">-40</tspan><tspan
         style="font-variant:normal;font-weight:normal;font-size:16px;font-family:Helvetica;writing-mode:lr-tb;fill:#262626;fill-opacity:1;fill-rule:nonzero;stroke:none"
         x="0 5.3280001 14.224"
         y="-122.3633"
         sodipodi:role="line"
         id="tspan53">-20</tspan><tspan
         style="font-variant:normal;font-weight:normal;font-size:16px;font-family:Helvetica;writing-mode:lr-tb;fill:#262626;fill-opacity:1;fill-rule:nonzero;stroke:none"
         x="16"
         y="-163.1512"
         id="tspan54">0</tspan><tspan
         style="font-variant:normal;font-weight:normal;font-size:16px;font-family:Helvetica;writing-mode:lr-tb;fill:#262626;fill-opacity:1;fill-rule:nonzero;stroke:none"
         x="7 15.896"
         y="-203.9391"
         sodipodi:role="line"
         id="tspan55">20</tspan><tspan
         style="font-variant:normal;font-weight:normal;font-size:16px;font-family:Helvetica;writing-mode:lr-tb;fill:#262626;fill-opacity:1;fill-rule:nonzero;stroke:none"
         x="7 15.896"
         y="-244.72701"
         sodipodi:role="line"
         id="tspan56">40</tspan><tspan
         style="font-variant:normal;font-weight:normal;font-size:16px;font-family:Helvetica;writing-mode:lr-tb;fill:#262626;fill-opacity:1;fill-rule:nonzero;stroke:none"
         x="7 15.896"
         y="-285.51489"
         sodipodi:role="line"
         id="tspan57">60</tspan></text><text
       id="text57"
       xml:space="preserve"
       transform="matrix(0,-1.3333333,1.3333333,0,48,360)"><tspan
         style="font-variant:normal;font-weight:normal;font-size:17.6px;font-family:Helvetica;writing-mode:lr-tb;fill:#262626;fill-opacity:1;fill-rule:nonzero;stroke:none"
         x="0 12.7072 22.4928 32.2784 41.0784 45.971199 50.863998 60.649601 70.435204 80.220802 84.127998 93.913597"
         y="0"
         sodipodi:role="line"
         id="tspan58">Coast angle </tspan></text><path
       id="path58"
       d="m 362.031,2528.28 c 0,-5.32 -1.929,-9.58 -5.781,-12.81 -3.961,-3.13 -8.699,-5.31 -14.219,-6.56 -5.519,-1.25 -10.937,-1.88 -16.25,-1.88 h -0.16 c -5.933,0 -12.027,0.57 -18.281,1.72 -6.352,1.15 -12.652,2.76 -18.899,4.84 -6.253,2.09 -11.828,4.38 -16.722,6.88 -3.438,1.67 -7.293,3.85 -11.559,6.56 -4.273,2.81 -8.234,5.89 -11.879,9.22 -3.648,3.33 -6.617,6.93 -8.91,10.78 -2.289,3.85 -3.43,7.76 -3.43,11.72 v 0.16 c 0,4.27 1.196,7.8 3.59,10.62 2.293,2.81 5.313,5 9.059,6.56 3.648,1.67 7.555,2.81 11.719,3.44 4.168,0.63 8.129,0.94 11.882,0.94 8.852,0 17.911,-1.25 27.18,-3.75 9.274,-2.39 18.231,-5.67 26.879,-9.84 3.227,-1.67 7.078,-3.91 11.559,-6.72 4.375,-2.81 8.336,-5.84 11.882,-9.07 3.434,-3.12 6.348,-6.66 8.75,-10.62 2.391,-3.96 3.59,-7.92 3.59,-11.88 z m -4.691,0.47 c 0,3.85 -2.082,7.55 -6.25,11.09 -4.168,3.65 -9.215,6.77 -15.149,9.38 -5.941,2.71 -11.984,5.05 -18.132,7.03 -6.246,2.09 -11.559,3.65 -15.938,4.69 V 2525 c 7.399,-1.87 13.805,-3.33 19.219,-4.37 5.312,-0.94 10.574,-1.41 15.781,-1.41 13.645,0 20.469,3.18 20.469,9.53 z m -61.559,-2.34 v 36.09 c -5.207,1.25 -9.531,2.24 -12.972,2.97 -3.434,0.73 -7.079,1.35 -10.938,1.87 -3.855,0.53 -7.449,0.79 -10.781,0.79 -13.746,0 -20.621,-3.13 -20.621,-9.38 0,-7.39 6.043,-13.8 18.121,-19.22 11.98,-5.41 24.375,-9.79 37.191,-13.12"
       style="fill:#262626;fill-opacity:1;fill-rule:nonzero;stroke:none"
       transform="matrix(0.13333333,0,0,-0.13333333,0,560)" /><text
       id="text58"
       xml:space="preserve"
       transform="matrix(0,-1.3333333,1.3333333,0,48,208.14293)"><tspan
         style="font-variant:normal;font-weight:normal;font-size:17.6px;font-family:Helvetica;writing-mode:lr-tb;fill:#262626;fill-opacity:1;fill-rule:nonzero;stroke:none"
         x="0 3.9072001 13.6928"
         y="0"
         sodipodi:role="line"
         id="tspan59">in </tspan><tspan
         style="font-variant:normal;font-weight:normal;font-size:14.08px;font-family:Courier;writing-mode:lr-tb;fill:#262626;fill-opacity:1;fill-rule:nonzero;stroke:none"
         x="19.107201"
         y="-8"
         id="tspan60">°</tspan></text><text
       id="text60"
       xml:space="preserve"
       transform="matrix(1.3333333,0,0,1.3333333,331.33333,33.737333)"><tspan
         style="font-variant:normal;font-weight:700;font-size:17.6px;font-family:Helvetica;writing-mode:lr-tb;fill:#000000;fill-opacity:1;fill-rule:nonzero;stroke:none"
         x="0 11.7392 16.632 26.9104 31.8032 41.588799 51.374401 67.020798 71.913597"
         y="0"
         sodipodi:role="line"
         id="tspan61">V = 22m/s</tspan></text><path
       id="path61"
       d="m 855.379,837.672 h 80 v 80 h -80 z"
       style="fill:#ff0000;fill-opacity:1;fill-rule:nonzero;stroke:#ff0000;stroke-width:20;stroke-linecap:butt;stroke-linejoin:miter;stroke-miterlimit:10;stroke-dasharray:none;stroke-opacity:1"
       transform="matrix(0.13333333,0,0,-0.13333333,0,560)" /><path
       id="path62"
       d="m 1122.83,879.078 h 80 v 80 h -80 z"
       style="fill:#ff0000;fill-opacity:1;fill-rule:nonzero;stroke:#ff0000;stroke-width:20;stroke-linecap:butt;stroke-linejoin:miter;stroke-miterlimit:10;stroke-dasharray:none;stroke-opacity:1"
       transform="matrix(0.13333333,0,0,-0.13333333,0,560)" /><path
       id="path63"
       d="m 1378.34,951.547 h 80 v 80 h -80 z"
       style="fill:#ff0000;fill-opacity:1;fill-rule:nonzero;stroke:#ff0000;stroke-width:20;stroke-linecap:butt;stroke-linejoin:miter;stroke-miterlimit:10;stroke-dasharray:none;stroke-opacity:1"
       transform="matrix(0.13333333,0,0,-0.13333333,0,560)" /><path
       id="path64"
       d="m 1633.79,1049.89 h 80 v 80 h -80 z"
       style="fill:#ff0000;fill-opacity:1;fill-rule:nonzero;stroke:#ff0000;stroke-width:20;stroke-linecap:butt;stroke-linejoin:miter;stroke-miterlimit:10;stroke-dasharray:none;stroke-opacity:1"
       transform="matrix(0.13333333,0,0,-0.13333333,0,560)" /><path
       id="path65"
       d="m 1906.95,1215.53 h 80 v 80 h -80 z"
       style="fill:#ff0000;fill-opacity:1;fill-rule:nonzero;stroke:#ff0000;stroke-width:20;stroke-linecap:butt;stroke-linejoin:miter;stroke-miterlimit:10;stroke-dasharray:none;stroke-opacity:1"
       transform="matrix(0.13333333,0,0,-0.13333333,0,560)" /><path
       id="path66"
       d="m 2162.16,1438.1 h 80 v 80 h -80 z"
       style="fill:#ff0000;fill-opacity:1;fill-rule:nonzero;stroke:#ff0000;stroke-width:20;stroke-linecap:butt;stroke-linejoin:miter;stroke-miterlimit:10;stroke-dasharray:none;stroke-opacity:1"
       transform="matrix(0.13333333,0,0,-0.13333333,0,560)" /><path
       id="path67"
       d="m 2411.3,1722.79 h 80 v 80 h -80 z"
       style="fill:#ff0000;fill-opacity:1;fill-rule:nonzero;stroke:#ff0000;stroke-width:20;stroke-linecap:butt;stroke-linejoin:miter;stroke-miterlimit:10;stroke-dasharray:none;stroke-opacity:1"
       transform="matrix(0.13333333,0,0,-0.13333333,0,560)" /><path
       id="path68"
       d="m 2678.15,2074.77 h 80 v 80 h -80 z"
       style="fill:#ff0000;fill-opacity:1;fill-rule:nonzero;stroke:#ff0000;stroke-width:20;stroke-linecap:butt;stroke-linejoin:miter;stroke-miterlimit:10;stroke-dasharray:none;stroke-opacity:1"
       transform="matrix(0.13333333,0,0,-0.13333333,0,560)" /><path
       id="path69"
       d="m 2938.97,2473.33 h 80 v 80 h -80 z"
       style="fill:#ff0000;fill-opacity:1;fill-rule:nonzero;stroke:#ff0000;stroke-width:20;stroke-linecap:butt;stroke-linejoin:miter;stroke-miterlimit:10;stroke-dasharray:none;stroke-opacity:1"
       transform="matrix(0.13333333,0,0,-0.13333333,0,560)" /><path
       id="path70"
       d="m 3188.03,2799.42 h 80 v 80 h -80 z"
       style="fill:#ff0000;fill-opacity:1;fill-rule:nonzero;stroke:#ff0000;stroke-width:20;stroke-linecap:butt;stroke-linejoin:miter;stroke-miterlimit:10;stroke-dasharray:none;stroke-opacity:1"
       transform="matrix(0.13333333,0,0,-0.13333333,0,560)" /><path
       id="path71"
       d="m 3460.97,3078.93 h 80 v 80 h -80 z"
       style="fill:#ff0000;fill-opacity:1;fill-rule:nonzero;stroke:#ff0000;stroke-width:20;stroke-linecap:butt;stroke-linejoin:miter;stroke-miterlimit:10;stroke-dasharray:none;stroke-opacity:1"
       transform="matrix(0.13333333,0,0,-0.13333333,0,560)" /><path
       id="path72"
       d="m 3716.16,3311.86 h 80 v 80 h -80 z"
       style="fill:#ff0000;fill-opacity:1;fill-rule:nonzero;stroke:#ff0000;stroke-width:20;stroke-linecap:butt;stroke-linejoin:miter;stroke-miterlimit:10;stroke-dasharray:none;stroke-opacity:1"
       transform="matrix(0.13333333,0,0,-0.13333333,0,560)" /><path
       id="path73"
       d="m 3971.59,3420.56 h 80 v 80 h -80 z"
       style="fill:#ff0000;fill-opacity:1;fill-rule:nonzero;stroke:#ff0000;stroke-width:20;stroke-linecap:butt;stroke-linejoin:miter;stroke-miterlimit:10;stroke-dasharray:none;stroke-opacity:1"
       transform="matrix(0.13333333,0,0,-0.13333333,0,560)" /><path
       id="path74"
       d="m 4238.89,3544.79 h 80 v 80 h -80 z"
       style="fill:#ff0000;fill-opacity:1;fill-rule:nonzero;stroke:#ff0000;stroke-width:20;stroke-linecap:butt;stroke-linejoin:miter;stroke-miterlimit:10;stroke-dasharray:none;stroke-opacity:1"
       transform="matrix(0.13333333,0,0,-0.13333333,0,560)" /><path
       id="path75"
       d="m 4500.27,3648.31 h 80 v 80 h -80 z"
       style="fill:#ff0000;fill-opacity:1;fill-rule:nonzero;stroke:#ff0000;stroke-width:20;stroke-linecap:butt;stroke-linejoin:miter;stroke-miterlimit:10;stroke-dasharray:none;stroke-opacity:1"
       transform="matrix(0.13333333,0,0,-0.13333333,0,560)" /><path
       id="path76"
       d="m 4755.82,3700.07 h 80 v 80 h -80 z"
       style="fill:#ff0000;fill-opacity:1;fill-rule:nonzero;stroke:#ff0000;stroke-width:20;stroke-linecap:butt;stroke-linejoin:miter;stroke-miterlimit:10;stroke-dasharray:none;stroke-opacity:1"
       transform="matrix(0.13333333,0,0,-0.13333333,0,560)" /><path
       id="path77"
       d="m 895.379,964.23 267.451,65.96 255.51,82.55 255.45,112.09 273.16,161.37 255.21,202.58 249.14,263.24 266.85,375.91 260.82,460.31 249.06,412.96 272.94,294.04 255.19,160.18 255.43,105.12 267.3,78.58 261.38,58.27 255.55,45.43 274.7,39.76"
       style="fill:none;stroke:#ff0000;stroke-width:20;stroke-linecap:butt;stroke-linejoin:bevel;stroke-miterlimit:10;stroke-dasharray:80, 80;stroke-dashoffset:0;stroke-opacity:1"
       transform="matrix(0.13333333,0,0,-0.13333333,0,560)" /><path
       id="path78"
       d="m 938.82,1193.41 c 0,27.61 -22.39,50 -50,50 -27.609,0 -50,-22.39 -50,-50 0,-27.61 22.391,-50 50,-50 27.61,0 50,22.39 50,50"
       style="fill:#0000ff;fill-opacity:1;fill-rule:nonzero;stroke:none"
       transform="matrix(0.13333333,0,0,-0.13333333,0,560)" /><path
       id="path79"
       d="m 888.82,1233.41 c 22.09,0 40,-17.91 40,-40 v 0 c 0,-22.09 -17.91,-40 -40,-40 -22.09,0 -40,17.91 -40,40 0,22.09 17.91,40 40,40 z m 0,20 c -33.14,0 -60,-26.86 -60,-60 0,-33.14 26.86,-60 60,-60 33.141,0 60,26.86 60,60 v 0 c 0,33.14 -26.859,60 -60,60"
       style="fill:#0000ff;fill-opacity:1;fill-rule:nonzero;stroke:none"
       transform="matrix(0.13333333,0,0,-0.13333333,0,560)" /><path
       id="path80"
       d="m 1212.12,1286.59 c 0,27.61 -22.39,50 -50,50 -27.61,0 -50,-22.39 -50,-50 0,-27.62 22.39,-50 50,-50 27.61,0 50,22.38 50,50"
       style="fill:#0000ff;fill-opacity:1;fill-rule:nonzero;stroke:none"
       transform="matrix(0.13333333,0,0,-0.13333333,0,560)" /><path
       id="path81"
       d="m 1162.12,1326.59 c 22.09,0 40,-17.91 40,-40 v 0 c 0,-22.09 -17.91,-40 -40,-40 -22.09,0 -40,17.91 -40,40 0,22.09 17.91,40 40,40 z m 0,20 c -33.14,0 -60,-26.87 -60,-60 0,-33.14 26.86,-60 60,-60 33.14,0 60,26.86 60,60 v 0 c 0,33.13 -26.86,60 -60,60"
       style="fill:#0000ff;fill-opacity:1;fill-rule:nonzero;stroke:none"
       transform="matrix(0.13333333,0,0,-0.13333333,0,560)" /><path
       id="path82"
       d="m 1443.83,1364.23 c 0,27.61 -22.39,50 -50,50 -27.61,0 -50,-22.39 -50,-50 0,-27.61 22.39,-50 50,-50 27.61,0 50,22.39 50,50"
       style="fill:#0000ff;fill-opacity:1;fill-rule:nonzero;stroke:none"
       transform="matrix(0.13333333,0,0,-0.13333333,0,560)" /><path
       id="path83"
       d="m 1393.83,1404.23 c 22.09,0 40,-17.91 40,-40 v 0 c 0,-22.09 -17.91,-40 -40,-40 -22.09,0 -40,17.91 -40,40 0,22.09 17.91,40 40,40 z m 0,20 c -33.14,0 -60,-26.86 -60,-60 0,-33.14 26.86,-60 60,-60 33.14,0 60,26.86 60,60 v 0 c 0,33.14 -26.86,60 -60,60"
       style="fill:#0000ff;fill-opacity:1;fill-rule:nonzero;stroke:none"
       transform="matrix(0.13333333,0,0,-0.13333333,0,560)" /><path
       id="path84"
       d="m 1723.04,1478.1 c 0,27.61 -22.4,50 -50,50 -27.61,0 -50,-22.39 -50,-50 0,-27.61 22.39,-50 50,-50 27.6,0 50,22.39 50,50"
       style="fill:#0000ff;fill-opacity:1;fill-rule:nonzero;stroke:none"
       transform="matrix(0.13333333,0,0,-0.13333333,0,560)" /><path
       id="path85"
       d="m 1673.04,1518.1 c 22.09,0 40,-17.91 40,-40 v 0 c 0,-22.09 -17.91,-40 -40,-40 -22.09,0 -40,17.91 -40,40 0,22.09 17.91,40 40,40 z m 0,20 c -33.15,0 -60,-26.86 -60,-60 0,-33.14 26.85,-60 60,-60 33.14,0 60,26.86 60,60 v 0 c 0,33.14 -26.86,60 -60,60"
       style="fill:#0000ff;fill-opacity:1;fill-rule:nonzero;stroke:none"
       transform="matrix(0.13333333,0,0,-0.13333333,0,560)" /><path
       id="path86"
       d="m 1978.39,1628.21 c 0,27.61 -22.39,50 -50,50 -27.61,0 -50,-22.39 -50,-50 0,-27.61 22.39,-50 50,-50 27.61,0 50,22.39 50,50"
       style="fill:#0000ff;fill-opacity:1;fill-rule:nonzero;stroke:none"
       transform="matrix(0.13333333,0,0,-0.13333333,0,560)" /><path
       id="path87"
       d="m 1928.39,1668.21 c 22.09,0 40,-17.91 40,-40 v 0 c 0,-22.09 -17.91,-40 -40,-40 -22.09,0 -40,17.91 -40,40 0,22.09 17.91,40 40,40 z m 0,20 c -33.14,0 -60,-26.86 -60,-60 0,-33.14 26.86,-60 60,-60 33.14,0 60,26.86 60,60 v 0 c 0,33.14 -26.86,60 -60,60"
       style="fill:#0000ff;fill-opacity:1;fill-rule:nonzero;stroke:none"
       transform="matrix(0.13333333,0,0,-0.13333333,0,560)" /><path
       id="path88"
       d="m 2251.49,1819.73 c 0,27.61 -22.38,50 -50,50 -27.61,0 -50,-22.39 -50,-50 0,-27.61 22.39,-50 50,-50 27.62,0 50,22.39 50,50"
       style="fill:#0000ff;fill-opacity:1;fill-rule:nonzero;stroke:none"
       transform="matrix(0.13333333,0,0,-0.13333333,0,560)" /><path
       id="path89"
       d="m 2201.49,1859.73 c 22.09,0 40,-17.91 40,-40 v 0 c 0,-22.09 -17.91,-40 -40,-40 -22.09,0 -40,17.91 -40,40 0,22.09 17.91,40 40,40 z m 0,20 c -33.13,0 -60,-26.86 -60,-60 0,-33.14 26.87,-60 60,-60 33.14,0 60,26.86 60,60 v 0 c 0,33.14 -26.86,60 -60,60"
       style="fill:#0000ff;fill-opacity:1;fill-rule:nonzero;stroke:none"
       transform="matrix(0.13333333,0,0,-0.13333333,0,560)" /><path
       id="path90"
       d="m 2494.91,1990.54 c 0,27.61 -22.39,50 -50,50 -27.61,0 -50,-22.39 -50,-50 0,-27.61 22.39,-50 50,-50 27.61,0 50,22.39 50,50"
       style="fill:#0000ff;fill-opacity:1;fill-rule:nonzero;stroke:none"
       transform="matrix(0.13333333,0,0,-0.13333333,0,560)" /><path
       id="path91"
       d="m 2444.91,2030.54 c 22.09,0 40,-17.91 40,-40 v 0 c 0,-22.09 -17.91,-40 -40,-40 -22.09,0 -40,17.91 -40,40 0,22.09 17.91,40 40,40 z m 0,20 c -33.14,0 -60,-26.86 -60,-60 0,-33.14 26.86,-60 60,-60 33.14,0 60,26.86 60,60 v 0 c 0,33.14 -26.86,60 -60,60"
       style="fill:#0000ff;fill-opacity:1;fill-rule:nonzero;stroke:none"
       transform="matrix(0.13333333,0,0,-0.13333333,0,560)" /><path
       id="path92"
       d="m 2773.93,2202.76 c 0,27.61 -22.39,50 -50,50 -27.61,0 -50,-22.39 -50,-50 0,-27.61 22.39,-50 50,-50 27.61,0 50,22.39 50,50"
       style="fill:#0000ff;fill-opacity:1;fill-rule:nonzero;stroke:none"
       transform="matrix(0.13333333,0,0,-0.13333333,0,560)" /><path
       id="path93"
       d="m 2723.93,2242.76 c 22.09,0 40,-17.91 40,-40 v 0 c 0,-22.09 -17.91,-40 -40,-40 -22.09,0 -40,17.91 -40,40 0,22.09 17.91,40 40,40 z m 0,20 c -33.14,0 -60,-26.86 -60,-60 0,-33.14 26.86,-60 60,-60 33.14,0 60,26.86 60,60 v 0 c 0,33.14 -26.86,60 -60,60"
       style="fill:#0000ff;fill-opacity:1;fill-rule:nonzero;stroke:none"
       transform="matrix(0.13333333,0,0,-0.13333333,0,560)" /><path
       id="path94"
       d="m 3023.15,2446.04 c 0,27.61 -22.39,50 -50,50 -27.61,0 -50,-22.39 -50,-50 0,-27.61 22.39,-50 50,-50 27.61,0 50,22.39 50,50"
       style="fill:#0000ff;fill-opacity:1;fill-rule:nonzero;stroke:none"
       transform="matrix(0.13333333,0,0,-0.13333333,0,560)" /><path
       id="path95"
       d="m 2973.15,2486.04 c 22.09,0 40,-17.91 40,-40 v 0 c 0,-22.09 -17.91,-40 -40,-40 -22.09,0 -40,17.91 -40,40 0,22.09 17.91,40 40,40 z m 0,20 c -33.14,0 -60,-26.86 -60,-60 0,-33.14 26.86,-60 60,-60 33.14,0 60,26.86 60,60 v 0 c 0,33.14 -26.86,60 -60,60"
       style="fill:#0000ff;fill-opacity:1;fill-rule:nonzero;stroke:none"
       transform="matrix(0.13333333,0,0,-0.13333333,0,560)" /><path
       id="path96"
       d="m 3272.46,2647.91 c 0,27.61 -22.39,50 -50,50 -27.61,0 -50,-22.39 -50,-50 0,-27.61 22.39,-50 50,-50 27.61,0 50,22.39 50,50"
       style="fill:#0000ff;fill-opacity:1;fill-rule:nonzero;stroke:none"
       transform="matrix(0.13333333,0,0,-0.13333333,0,560)" /><path
       id="path97"
       d="m 3222.46,2687.91 c 22.09,0 40,-17.91 40,-40 v 0 c 0,-22.09 -17.91,-40 -40,-40 -22.09,0 -40,17.91 -40,40 0,22.09 17.91,40 40,40 z m 0,20 c -33.14,0 -60,-26.86 -60,-60 0,-33.14 26.86,-60 60,-60 33.14,0 60,26.86 60,60 v 0 c 0,33.14 -26.86,60 -60,60"
       style="fill:#0000ff;fill-opacity:1;fill-rule:nonzero;stroke:none"
       transform="matrix(0.13333333,0,0,-0.13333333,0,560)" /><path
       id="path98"
       d="m 3551.54,2823.89 c 0,27.61 -22.39,50 -50,50 -27.61,0 -50,-22.39 -50,-50 0,-27.6 22.39,-50 50,-50 27.61,0 50,22.4 50,50"
       style="fill:#0000ff;fill-opacity:1;fill-rule:nonzero;stroke:none"
       transform="matrix(0.13333333,0,0,-0.13333333,0,560)" /><path
       id="path99"
       d="m 3501.54,2863.89 c 22.09,0 40,-17.91 40,-40 v 0 c 0,-22.09 -17.91,-40 -40,-40 -22.09,0 -40,17.91 -40,40 0,22.09 17.91,40 40,40 z m 0,20 c -33.14,0 -60,-26.85 -60,-60 0,-33.14 26.86,-60 60,-60 33.14,0 60,26.86 60,60 v 0 c 0,33.15 -26.86,60 -60,60"
       style="fill:#0000ff;fill-opacity:1;fill-rule:nonzero;stroke:none"
       transform="matrix(0.13333333,0,0,-0.13333333,0,560)" /><path
       id="path100"
       d="m 3794.96,2994.71 c 0,27.61 -22.39,50 -50,50 -27.6,0 -50,-22.39 -50,-50 0,-27.61 22.4,-50 50,-50 27.61,0 50,22.39 50,50"
       style="fill:#0000ff;fill-opacity:1;fill-rule:nonzero;stroke:none"
       transform="matrix(0.13333333,0,0,-0.13333333,0,560)" /><path
       id="path101"
       d="m 3744.96,3034.71 c 22.09,0 40,-17.91 40,-40 v 0 c 0,-22.09 -17.91,-40 -40,-40 -22.08,0 -40,17.91 -40,40 0,22.09 17.92,40 40,40 z m 0,20 c -33.14,0 -60,-26.86 -60,-60 0,-33.14 26.86,-60 60,-60 33.15,0 60,26.86 60,60 v 0 c 0,33.14 -26.85,60 -60,60"
       style="fill:#0000ff;fill-opacity:1;fill-rule:nonzero;stroke:none"
       transform="matrix(0.13333333,0,0,-0.13333333,0,560)" /><path
       id="path102"
       d="m 4068.2,3118.93 c 0,27.61 -22.39,50 -50,50 -27.61,0 -50,-22.39 -50,-50 0,-27.61 22.39,-50 50,-50 27.61,0 50,22.39 50,50"
       style="fill:#0000ff;fill-opacity:1;fill-rule:nonzero;stroke:none"
       transform="matrix(0.13333333,0,0,-0.13333333,0,560)" /><path
       id="path103"
       d="m 4018.2,3158.93 c 22.09,0 40,-17.91 40,-40 v 0 c 0,-22.09 -17.91,-40 -40,-40 -22.09,0 -40,17.91 -40,40 0,22.09 17.91,40 40,40 z m 0,20 c -33.14,0 -60,-26.86 -60,-60 0,-33.14 26.86,-60 60,-60 33.14,0 60,26.86 60,60 v 0 c 0,33.14 -26.86,60 -60,60"
       style="fill:#0000ff;fill-opacity:1;fill-rule:nonzero;stroke:none"
       transform="matrix(0.13333333,0,0,-0.13333333,0,560)" /><path
       id="path104"
       d="m 4335.48,3248.34 c 0,27.61 -22.39,50 -50,50 -27.6,0 -50,-22.39 -50,-50 0,-27.61 22.4,-50 50,-50 27.61,0 50,22.39 50,50"
       style="fill:#0000ff;fill-opacity:1;fill-rule:nonzero;stroke:none"
       transform="matrix(0.13333333,0,0,-0.13333333,0,560)" /><path
       id="path105"
       d="m 4285.48,3288.34 c 22.09,0 40,-17.91 40,-40 v 0 c 0,-22.09 -17.91,-40 -40,-40 -22.09,0 -40,17.91 -40,40 0,22.09 17.91,40 40,40 z m 0,20 c -33.14,0 -60,-26.86 -60,-60 0,-33.14 26.86,-60 60,-60 33.15,0 60,26.86 60,60 v 0 c 0,33.14 -26.85,60 -60,60"
       style="fill:#0000ff;fill-opacity:1;fill-rule:nonzero;stroke:none"
       transform="matrix(0.13333333,0,0,-0.13333333,0,560)" /><path
       id="path106"
       d="m 4579.1,3320.8 c 0,27.61 -22.39,50 -50,50 -27.61,0 -50,-22.39 -50,-50 0,-27.61 22.39,-50 50,-50 27.61,0 50,22.39 50,50"
       style="fill:#0000ff;fill-opacity:1;fill-rule:nonzero;stroke:none"
       transform="matrix(0.13333333,0,0,-0.13333333,0,560)" /><path
       id="path107"
       d="m 4529.1,3360.8 c 22.09,0 40,-17.91 40,-40 v 0 c 0,-22.09 -17.91,-40 -40,-40 -22.09,0 -40,17.91 -40,40 0,22.09 17.91,40 40,40 z m 0,20 c -33.14,0 -60,-26.86 -60,-60 0,-33.14 26.86,-60 60,-60 33.14,0 60,26.86 60,60 v 0 c 0,33.14 -26.86,60 -60,60"
       style="fill:#0000ff;fill-opacity:1;fill-rule:nonzero;stroke:none"
       transform="matrix(0.13333333,0,0,-0.13333333,0,560)" /><path
       id="path108"
       d="m 4840.48,3424.32 c 0,27.61 -22.39,50 -50,50 -27.6,0 -50,-22.39 -50,-50 0,-27.61 22.4,-50 50,-50 27.61,0 50,22.39 50,50"
       style="fill:#0000ff;fill-opacity:1;fill-rule:nonzero;stroke:none"
       transform="matrix(0.13333333,0,0,-0.13333333,0,560)" /><path
       id="path109"
       d="m 4790.48,3464.32 c 22.09,0 40,-17.91 40,-40 v 0 c 0,-22.09 -17.91,-40 -40,-40 -22.09,0 -40,17.91 -40,40 0,22.09 17.91,40 40,40 z m 0,20 c -33.14,0 -60,-26.86 -60,-60 0,-33.14 26.86,-60 60,-60 33.15,0 60,26.86 60,60 v 0 c 0,33.14 -26.85,60 -60,60"
       style="fill:#0000ff;fill-opacity:1;fill-rule:nonzero;stroke:none"
       transform="matrix(0.13333333,0,0,-0.13333333,0,560)" /><path
       id="path110"
       d="m 888.82,1299.34 273.3,84.11 231.71,95.69 279.2,115.73 255.36,144.83 273.1,155.74 243.43,172.22 279.01,205.78 249.22,217.15 249.31,210.8 279.08,213.93 243.42,164.5 273.24,134.24 267.28,115.61 243.62,94.17 261.38,78.14 280.04,76.06"
       style="fill:none;stroke:#0000ff;stroke-width:20;stroke-linecap:butt;stroke-linejoin:round;stroke-miterlimit:10;stroke-dasharray:none;stroke-opacity:1"
       transform="matrix(0.13333333,0,0,-0.13333333,0,560)" /><path
       id="path111"
       d="m 844.324,1421.16 50,-66.5 50,66.5 -50,66.5 z"
       style="fill:#008000;fill-opacity:1;fill-rule:nonzero;stroke:#008000;stroke-width:20;stroke-linecap:butt;stroke-linejoin:miter;stroke-miterlimit:10;stroke-dasharray:none;stroke-opacity:1"
       transform="matrix(0.13333333,0,0,-0.13333333,0,560)" /><path
       id="path112"
       d="m 1105.75,1503.98 50,-66.5 50,66.5 -50,66.5 z"
       style="fill:#008000;fill-opacity:1;fill-rule:nonzero;stroke:#008000;stroke-width:20;stroke-linecap:butt;stroke-linejoin:miter;stroke-miterlimit:10;stroke-dasharray:none;stroke-opacity:1"
       transform="matrix(0.13333333,0,0,-0.13333333,0,560)" /><path
       id="path113"
       d="m 1361.2,1607.5 50,-66.5 50,66.5 -50,66.5 z"
       style="fill:#008000;fill-opacity:1;fill-rule:nonzero;stroke:#008000;stroke-width:20;stroke-linecap:butt;stroke-linejoin:miter;stroke-miterlimit:10;stroke-dasharray:none;stroke-opacity:1"
       transform="matrix(0.13333333,0,0,-0.13333333,0,560)" /><path
       id="path114"
       d="m 1628.57,1690.32 50,-66.5 50,66.5 -50,66.5 z"
       style="fill:#008000;fill-opacity:1;fill-rule:nonzero;stroke:#008000;stroke-width:20;stroke-linecap:butt;stroke-linejoin:miter;stroke-miterlimit:10;stroke-dasharray:none;stroke-opacity:1"
       transform="matrix(0.13333333,0,0,-0.13333333,0,560)" /><path
       id="path115"
       d="m 1883.95,1824.9 50,-66.5 50,66.5 -50,66.5 z"
       style="fill:#008000;fill-opacity:1;fill-rule:nonzero;stroke:#008000;stroke-width:20;stroke-linecap:butt;stroke-linejoin:miter;stroke-miterlimit:10;stroke-dasharray:none;stroke-opacity:1"
       transform="matrix(0.13333333,0,0,-0.13333333,0,560)" /><path
       id="path116"
       d="m 2139.34,1954.3 50,-66.5 50,66.5 -50,66.5 z"
       style="fill:#008000;fill-opacity:1;fill-rule:nonzero;stroke:#008000;stroke-width:20;stroke-linecap:butt;stroke-linejoin:miter;stroke-miterlimit:10;stroke-dasharray:none;stroke-opacity:1"
       transform="matrix(0.13333333,0,0,-0.13333333,0,560)" /><path
       id="path117"
       d="m 2406.59,2099.24 50,-66.5 50,66.5 -50,66.5 z"
       style="fill:#008000;fill-opacity:1;fill-rule:nonzero;stroke:#008000;stroke-width:20;stroke-linecap:butt;stroke-linejoin:miter;stroke-miterlimit:10;stroke-dasharray:none;stroke-opacity:1"
       transform="matrix(0.13333333,0,0,-0.13333333,0,560)" /><path
       id="path118"
       d="m 2667.94,2223.46 50,-66.5 50,66.5 -50,66.5 z"
       style="fill:#008000;fill-opacity:1;fill-rule:nonzero;stroke:#008000;stroke-width:20;stroke-linecap:butt;stroke-linejoin:miter;stroke-miterlimit:10;stroke-dasharray:none;stroke-opacity:1"
       transform="matrix(0.13333333,0,0,-0.13333333,0,560)" /><path
       id="path119"
       d="m 2929.18,2404.63 50,-66.5 50,66.5 -50,66.5 z"
       style="fill:#008000;fill-opacity:1;fill-rule:nonzero;stroke:#008000;stroke-width:20;stroke-linecap:butt;stroke-linejoin:miter;stroke-miterlimit:10;stroke-dasharray:none;stroke-opacity:1"
       transform="matrix(0.13333333,0,0,-0.13333333,0,560)" /><path
       id="path120"
       d="m 3190.51,2539.21 50,-66.5 50,66.5 -50,66.5 z"
       style="fill:#008000;fill-opacity:1;fill-rule:nonzero;stroke:#008000;stroke-width:20;stroke-linecap:butt;stroke-linejoin:miter;stroke-miterlimit:10;stroke-dasharray:none;stroke-opacity:1"
       transform="matrix(0.13333333,0,0,-0.13333333,0,560)" /><path
       id="path121"
       d="m 3451.82,2678.96 50,-66.5 50,66.5 -50,66.5 z"
       style="fill:#008000;fill-opacity:1;fill-rule:nonzero;stroke:#008000;stroke-width:20;stroke-linecap:butt;stroke-linejoin:miter;stroke-miterlimit:10;stroke-dasharray:none;stroke-opacity:1"
       transform="matrix(0.13333333,0,0,-0.13333333,0,560)" /><path
       id="path122"
       d="m 3707.24,2798.01 50,-66.5 50,66.5 -50,66.5 z"
       style="fill:#008000;fill-opacity:1;fill-rule:nonzero;stroke:#008000;stroke-width:20;stroke-linecap:butt;stroke-linejoin:miter;stroke-miterlimit:10;stroke-dasharray:none;stroke-opacity:1"
       transform="matrix(0.13333333,0,0,-0.13333333,0,560)" /><path
       id="path123"
       d="m 3962.7,2891.18 50,-66.5 50,66.5 -50,66.5 z"
       style="fill:#008000;fill-opacity:1;fill-rule:nonzero;stroke:#008000;stroke-width:20;stroke-linecap:butt;stroke-linejoin:miter;stroke-miterlimit:10;stroke-dasharray:none;stroke-opacity:1"
       transform="matrix(0.13333333,0,0,-0.13333333,0,560)" /><path
       id="path124"
       d="m 4230.02,2999.88 50,-66.5 50,66.5 -50,66.5 z"
       style="fill:#008000;fill-opacity:1;fill-rule:nonzero;stroke:#008000;stroke-width:20;stroke-linecap:butt;stroke-linejoin:miter;stroke-miterlimit:10;stroke-dasharray:none;stroke-opacity:1"
       transform="matrix(0.13333333,0,0,-0.13333333,0,560)" /><path
       id="path125"
       d="m 4485.5,3087.88 50,-66.5 50,66.5 -50,66.5 z"
       style="fill:#008000;fill-opacity:1;fill-rule:nonzero;stroke:#008000;stroke-width:20;stroke-linecap:butt;stroke-linejoin:miter;stroke-miterlimit:10;stroke-dasharray:none;stroke-opacity:1"
       transform="matrix(0.13333333,0,0,-0.13333333,0,560)" /><path
       id="path126"
       d="m 4746.91,3175.87 50,-66.5 50,66.5 -50,66.5 z"
       style="fill:#008000;fill-opacity:1;fill-rule:nonzero;stroke:#008000;stroke-width:20;stroke-linecap:butt;stroke-linejoin:miter;stroke-miterlimit:10;stroke-dasharray:none;stroke-opacity:1"
       transform="matrix(0.13333333,0,0,-0.13333333,0,560)" /><path
       id="path127"
       d="m 5008.29,3284.57 50,-66.5 50,66.5 -50,66.5 z"
       style="fill:#008000;fill-opacity:1;fill-rule:nonzero;stroke:#008000;stroke-width:20;stroke-linecap:butt;stroke-linejoin:miter;stroke-miterlimit:10;stroke-dasharray:none;stroke-opacity:1"
       transform="matrix(0.13333333,0,0,-0.13333333,0,560)" /><path
       id="path128"
       d="m 894.32,1549.24 261.43,80.16 255.44,85.66 267.38,96.87 255.38,112.84 255.39,113.07 267.25,117.34 261.35,132.6 261.24,135.09 261.33,131.75 261.31,141.58 255.42,120.16 255.46,109.4 267.32,104.95 255.47,94.17 261.42,84.65 261.38,90.06"
       style="fill:none;stroke:#008000;stroke-width:20;stroke-linecap:butt;stroke-linejoin:bevel;stroke-miterlimit:10;stroke-dasharray:80, 20, 40, 20;stroke-dashoffset:0;stroke-opacity:1"
       transform="matrix(0.13333333,0,0,-0.13333333,0,560)" /><path
       id="path129"
       d="M 810,2420 H 2210 V 3805 H 810 Z"
       style="fill:#ffffff;fill-opacity:1;fill-rule:nonzero;stroke:none"
       transform="matrix(0.13333333,0,0,-0.13333333,0,560)" /><text
       id="text129"
       xml:space="preserve"
       transform="matrix(1.3333333,0,0,1.3333333,157.33333,81.333333)"><tspan
         style="font-variant:normal;font-weight:normal;font-size:14.4px;font-family:Helvetica;writing-mode:lr-tb;fill:#000000;fill-opacity:1;fill-rule:nonzero;stroke:none"
         x="0 9.6048002 16.8048 24.811199"
         y="0"
         sodipodi:role="line"
         id="tspan129">Exp </tspan></text><path
       id="path130"
       d="m 1474.69,3590 v 5 c 7.5,0 12.19,2.86 14.06,8.59 l 28.13,87.82 c 0.31,1.04 0.98,1.56 2.03,1.56 h 1.87 c 0.52,0 0.99,-0.16 1.41,-0.47 0.41,-0.21 0.67,-0.57 0.78,-1.09 l 29.37,-91.72 c 0.83,-2.09 2.29,-3.39 4.38,-3.91 2.19,-0.52 5,-0.78 8.44,-0.78 v -5 h -39.07 v 5 c 8.23,0 12.35,1.3 12.35,3.91 0,0.31 -0.05,0.57 -0.16,0.78 l -22.81,71.4 -21.41,-67.5 c -0.21,-0.73 -0.31,-1.25 -0.31,-1.56 0,-2.39 1.15,-4.16 3.44,-5.31 2.39,-1.15 4.94,-1.72 7.65,-1.72 v -5 h -30.15"
       style="fill:#000000;fill-opacity:1;fill-rule:nonzero;stroke:none"
       transform="matrix(0.13333333,0,0,-0.13333333,0,560)" /><text
       id="text130"
       xml:space="preserve"
       transform="matrix(1.3333333,0,0,1.3333333,214.67093,81.333333)"><tspan
         style="font-variant:normal;font-weight:normal;font-size:14.4px;font-family:Helvetica;writing-mode:lr-tb;fill:#000000;fill-opacity:1;fill-rule:nonzero;stroke:none"
         x="0 8.4096003 12.4128 20.419201"
         y="0"
         sodipodi:role="line"
         id="tspan130">= 10</tspan><tspan
         style="font-variant:normal;font-weight:normal;font-size:11.52px;font-family:Courier;writing-mode:lr-tb;fill:#000000;fill-opacity:1;fill-rule:nonzero;stroke:none"
         x="28.996799"
         y="-7"
         id="tspan131">°</tspan></text><path
       id="path131"
       d="m 960,3635 h 80 v 80 h -80 z"
       style="fill:#ff0000;fill-opacity:1;fill-rule:nonzero;stroke:#ff0000;stroke-width:20;stroke-linecap:butt;stroke-linejoin:miter;stroke-miterlimit:10;stroke-dasharray:none;stroke-opacity:1"
       transform="matrix(0.13333333,0,0,-0.13333333,0,560)" /><text
       id="text131"
       xml:space="preserve"
       transform="matrix(1.3333333,0,0,1.3333333,157.33333,110.66667)"><tspan
         style="font-variant:normal;font-weight:normal;font-size:14.4px;font-family:Helvetica;writing-mode:lr-tb;fill:#000000;fill-opacity:1;fill-rule:nonzero;stroke:none"
         x="0 9.6048002 16.8048 27.201599 30.398399 38.4048 46.411201"
         y="0"
         sodipodi:role="line"
         id="tspan132">Aswing </tspan></text><path
       id="path132"
       d="m 1694.69,3370 v 5 c 7.5,0 12.19,2.86 14.06,8.59 l 28.13,87.82 c 0.31,1.04 0.98,1.56 2.03,1.56 h 1.87 c 0.52,0 0.99,-0.16 1.41,-0.47 0.41,-0.21 0.67,-0.57 0.78,-1.09 l 29.37,-91.72 c 0.83,-2.09 2.29,-3.39 4.38,-3.91 2.19,-0.52 5,-0.78 8.44,-0.78 v -5 h -39.07 v 5 c 8.23,0 12.35,1.3 12.35,3.91 0,0.31 -0.05,0.57 -0.16,0.78 l -22.81,71.4 -21.41,-67.5 c -0.21,-0.73 -0.31,-1.25 -0.31,-1.56 0,-2.39 1.15,-4.16 3.44,-5.31 2.39,-1.15 4.94,-1.72 7.65,-1.72 v -5 h -30.15"
       style="fill:#000000;fill-opacity:1;fill-rule:nonzero;stroke:none"
       transform="matrix(0.13333333,0,0,-0.13333333,0,560)" /><text
       id="text132"
       xml:space="preserve"
       transform="matrix(1.3333333,0,0,1.3333333,244.00427,110.66667)"><tspan
         style="font-variant:normal;font-weight:normal;font-size:14.4px;font-family:Helvetica;writing-mode:lr-tb;fill:#000000;fill-opacity:1;fill-rule:nonzero;stroke:none"
         x="0 8.4096003 12.4128 20.419201"
         y="0"
         sodipodi:role="line"
         id="tspan133">= 10</tspan><tspan
         style="font-variant:normal;font-weight:normal;font-size:11.52px;font-family:Courier;writing-mode:lr-tb;fill:#000000;fill-opacity:1;fill-rule:nonzero;stroke:none"
         x="28.996799"
         y="-7"
         id="tspan134">°</tspan></text><path
       id="path134"
       d="m 850,3450 h 300"
       style="fill:none;stroke:#ff0000;stroke-width:20;stroke-linecap:butt;stroke-linejoin:bevel;stroke-miterlimit:10;stroke-dasharray:80, 80;stroke-dashoffset:0;stroke-opacity:1"
       transform="matrix(0.13333333,0,0,-0.13333333,0,560)" /><text
       id="text134"
       xml:space="preserve"
       transform="matrix(1.3333333,0,0,1.3333333,157.33333,141.33333)"><tspan
         style="font-variant:normal;font-weight:normal;font-size:14.4px;font-family:Helvetica;writing-mode:lr-tb;fill:#000000;fill-opacity:1;fill-rule:nonzero;stroke:none"
         x="0 9.6048002 16.8048 24.811199"
         y="0"
         sodipodi:role="line"
         id="tspan135">Exp </tspan></text><path
       id="path135"
       d="m 1474.69,3140 v 5 c 7.5,0 12.19,2.86 14.06,8.59 l 28.13,87.82 c 0.31,1.04 0.98,1.56 2.03,1.56 h 1.87 c 0.52,0 0.99,-0.16 1.41,-0.47 0.41,-0.21 0.67,-0.57 0.78,-1.09 l 29.37,-91.72 c 0.83,-2.09 2.29,-3.39 4.38,-3.91 2.19,-0.52 5,-0.78 8.44,-0.78 v -5 h -39.07 v 5 c 8.23,0 12.35,1.3 12.35,3.91 0,0.31 -0.05,0.57 -0.16,0.78 l -22.81,71.4 -21.41,-67.5 c -0.21,-0.73 -0.31,-1.25 -0.31,-1.56 0,-2.39 1.15,-4.16 3.44,-5.31 2.39,-1.15 4.94,-1.72 7.65,-1.72 v -5 h -30.15"
       style="fill:#000000;fill-opacity:1;fill-rule:nonzero;stroke:none"
       transform="matrix(0.13333333,0,0,-0.13333333,0,560)" /><text
       id="text135"
       xml:space="preserve"
       transform="matrix(1.3333333,0,0,1.3333333,214.67093,141.33333)"><tspan
         style="font-variant:normal;font-weight:normal;font-size:14.4px;font-family:Helvetica;writing-mode:lr-tb;fill:#000000;fill-opacity:1;fill-rule:nonzero;stroke:none"
         x="0 8.4096003 12.4128 20.419201"
         y="0"
         sodipodi:role="line"
         id="tspan136">= 20</tspan><tspan
         style="font-variant:normal;font-weight:normal;font-size:11.52px;font-family:Courier;writing-mode:lr-tb;fill:#000000;fill-opacity:1;fill-rule:nonzero;stroke:none"
         x="28.996799"
         y="-7"
         id="tspan137">°</tspan></text><path
       id="path137"
       d="m 1050,3225 c 0,27.61 -22.39,50 -50,50 -27.609,0 -50,-22.39 -50,-50 0,-27.61 22.391,-50 50,-50 27.61,0 50,22.39 50,50"
       style="fill:#0000ff;fill-opacity:1;fill-rule:nonzero;stroke:none"
       transform="matrix(0.13333333,0,0,-0.13333333,0,560)" /><path
       id="path138"
       d="m 1000,3265 c 22.09,0 40,-17.91 40,-40 v 0 c 0,-22.09 -17.91,-40 -40,-40 -22.09,0 -40,17.91 -40,40 0,22.09 17.91,40 40,40 z m 0,20 c -33.141,0 -60,-26.86 -60,-60 0,-33.14 26.859,-60 60,-60 33.14,0 60,26.86 60,60 v 0 c 0,33.14 -26.86,60 -60,60"
       style="fill:#0000ff;fill-opacity:1;fill-rule:nonzero;stroke:none"
       transform="matrix(0.13333333,0,0,-0.13333333,0,560)" /><text
       id="text138"
       xml:space="preserve"
       transform="matrix(1.3333333,0,0,1.3333333,157.33333,170.66667)"><tspan
         style="font-variant:normal;font-weight:normal;font-size:14.4px;font-family:Helvetica;writing-mode:lr-tb;fill:#000000;fill-opacity:1;fill-rule:nonzero;stroke:none"
         x="0 9.6048002 16.8048 27.201599 30.398399 38.4048 46.411201"
         y="0"
         sodipodi:role="line"
         id="tspan138">Aswing </tspan></text><path
       id="path139"
       d="m 1694.69,2920 v 5 c 7.5,0 12.19,2.86 14.06,8.59 l 28.13,87.82 c 0.31,1.04 0.98,1.56 2.03,1.56 h 1.87 c 0.52,0 0.99,-0.16 1.41,-0.47 0.41,-0.21 0.67,-0.57 0.78,-1.09 l 29.37,-91.72 c 0.83,-2.09 2.29,-3.39 4.38,-3.91 2.19,-0.52 5,-0.78 8.44,-0.78 v -5 h -39.07 v 5 c 8.23,0 12.35,1.3 12.35,3.91 0,0.31 -0.05,0.57 -0.16,0.78 l -22.81,71.4 -21.41,-67.5 c -0.21,-0.73 -0.31,-1.25 -0.31,-1.56 0,-2.39 1.15,-4.16 3.44,-5.31 2.39,-1.15 4.94,-1.72 7.65,-1.72 v -5 h -30.15"
       style="fill:#000000;fill-opacity:1;fill-rule:nonzero;stroke:none"
       transform="matrix(0.13333333,0,0,-0.13333333,0,560)" /><text
       id="text139"
       xml:space="preserve"
       transform="matrix(1.3333333,0,0,1.3333333,244.00427,170.66667)"><tspan
         style="font-variant:normal;font-weight:normal;font-size:14.4px;font-family:Helvetica;writing-mode:lr-tb;fill:#000000;fill-opacity:1;fill-rule:nonzero;stroke:none"
         x="0 8.4096003 12.4128 20.419201"
         y="0"
         sodipodi:role="line"
         id="tspan139">= 20</tspan><tspan
         style="font-variant:normal;font-weight:normal;font-size:11.52px;font-family:Courier;writing-mode:lr-tb;fill:#000000;fill-opacity:1;fill-rule:nonzero;stroke:none"
         x="28.996799"
         y="-7"
         id="tspan140">°</tspan></text><path
       id="path140"
       d="m 850,3000 h 300"
       style="fill:none;stroke:#0000ff;stroke-width:20;stroke-linecap:butt;stroke-linejoin:round;stroke-miterlimit:10;stroke-dasharray:none;stroke-opacity:1"
       transform="matrix(0.13333333,0,0,-0.13333333,0,560)" /><text
       id="text140"
       xml:space="preserve"
       transform="matrix(1.3333333,0,0,1.3333333,157.33333,201.33333)"><tspan
         style="font-variant:normal;font-weight:normal;font-size:14.4px;font-family:Helvetica;writing-mode:lr-tb;fill:#000000;fill-opacity:1;fill-rule:nonzero;stroke:none"
         x="0 9.6048002 16.8048 24.811199"
         y="0"
         sodipodi:role="line"
         id="tspan141">Exp </tspan></text><path
       id="path141"
       d="m 1474.69,2690 v 5 c 7.5,0 12.19,2.86 14.06,8.59 l 28.13,87.82 c 0.31,1.04 0.98,1.56 2.03,1.56 h 1.87 c 0.52,0 0.99,-0.16 1.41,-0.47 0.41,-0.21 0.67,-0.57 0.78,-1.09 l 29.37,-91.72 c 0.83,-2.09 2.29,-3.39 4.38,-3.91 2.19,-0.52 5,-0.78 8.44,-0.78 v -5 h -39.07 v 5 c 8.23,0 12.35,1.3 12.35,3.91 0,0.31 -0.05,0.57 -0.16,0.78 l -22.81,71.4 -21.41,-67.5 c -0.21,-0.73 -0.31,-1.25 -0.31,-1.56 0,-2.39 1.15,-4.16 3.44,-5.31 2.39,-1.15 4.94,-1.72 7.65,-1.72 v -5 h -30.15"
       style="fill:#000000;fill-opacity:1;fill-rule:nonzero;stroke:none"
       transform="matrix(0.13333333,0,0,-0.13333333,0,560)" /><text
       id="text141"
       xml:space="preserve"
       transform="matrix(1.3333333,0,0,1.3333333,214.67093,201.33333)"><tspan
         style="font-variant:normal;font-weight:normal;font-size:14.4px;font-family:Helvetica;writing-mode:lr-tb;fill:#000000;fill-opacity:1;fill-rule:nonzero;stroke:none"
         x="0 8.4096003 12.4128 20.419201"
         y="0"
         sodipodi:role="line"
         id="tspan142">= 30</tspan><tspan
         style="font-variant:normal;font-weight:normal;font-size:11.52px;font-family:Courier;writing-mode:lr-tb;fill:#000000;fill-opacity:1;fill-rule:nonzero;stroke:none"
         x="28.996799"
         y="-7"
         id="tspan143">°</tspan></text><path
       id="path143"
       d="m 950,2775 50,-66.5 50,66.5 -50,66.5 z"
       style="fill:#008000;fill-opacity:1;fill-rule:nonzero;stroke:#008000;stroke-width:20;stroke-linecap:butt;stroke-linejoin:miter;stroke-miterlimit:10;stroke-dasharray:none;stroke-opacity:1"
       transform="matrix(0.13333333,0,0,-0.13333333,0,560)" /><text
       id="text143"
       xml:space="preserve"
       transform="matrix(1.3333333,0,0,1.3333333,157.33333,230.66667)"><tspan
         style="font-variant:normal;font-weight:normal;font-size:14.4px;font-family:Helvetica;writing-mode:lr-tb;fill:#000000;fill-opacity:1;fill-rule:nonzero;stroke:none"
         x="0 9.6048002 16.8048 27.201599 30.398399 38.4048 46.411201"
         y="0"
         sodipodi:role="line"
         id="tspan144">Aswing </tspan></text><path
       id="path144"
       d="m 1694.69,2470 v 5 c 7.5,0 12.19,2.86 14.06,8.59 l 28.13,87.82 c 0.31,1.04 0.98,1.56 2.03,1.56 h 1.87 c 0.52,0 0.99,-0.16 1.41,-0.47 0.41,-0.21 0.67,-0.57 0.78,-1.09 l 29.37,-91.72 c 0.83,-2.09 2.29,-3.39 4.38,-3.91 2.19,-0.52 5,-0.78 8.44,-0.78 v -5 h -39.07 v 5 c 8.23,0 12.35,1.3 12.35,3.91 0,0.31 -0.05,0.57 -0.16,0.78 l -22.81,71.4 -21.41,-67.5 c -0.21,-0.73 -0.31,-1.25 -0.31,-1.56 0,-2.39 1.15,-4.16 3.44,-5.31 2.39,-1.15 4.94,-1.72 7.65,-1.72 v -5 h -30.15"
       style="fill:#000000;fill-opacity:1;fill-rule:nonzero;stroke:none"
       transform="matrix(0.13333333,0,0,-0.13333333,0,560)" /><text
       id="text144"
       xml:space="preserve"
       transform="matrix(1.3333333,0,0,1.3333333,244.00427,230.66667)"><tspan
         style="font-variant:normal;font-weight:normal;font-size:14.4px;font-family:Helvetica;writing-mode:lr-tb;fill:#000000;fill-opacity:1;fill-rule:nonzero;stroke:none"
         x="0 8.4096003 12.4128 20.419201"
         y="0"
         sodipodi:role="line"
         id="tspan145">= 30</tspan><tspan
         style="font-variant:normal;font-weight:normal;font-size:11.52px;font-family:Courier;writing-mode:lr-tb;fill:#000000;fill-opacity:1;fill-rule:nonzero;stroke:none"
         x="28.996799"
         y="-7"
         id="tspan146">°</tspan></text><path
       id="path146"
       d="m 850,2550 h 300"
       style="fill:none;stroke:#008000;stroke-width:20;stroke-linecap:butt;stroke-linejoin:bevel;stroke-miterlimit:10;stroke-dasharray:80, 20, 40, 20;stroke-dashoffset:0;stroke-opacity:1"
       transform="matrix(0.13333333,0,0,-0.13333333,0,560)" /><path
       id="path147"
       d="M 810,2420 H 2210 V 3805 H 810 Z"
       style="fill:none;stroke:#262626;stroke-width:5;stroke-linecap:butt;stroke-linejoin:miter;stroke-miterlimit:10;stroke-dasharray:none;stroke-opacity:1"
       transform="matrix(0.13333333,0,0,-0.13333333,0,560)" /><g
       id="g151"
       transform="matrix(1.1778042,0,0,1.1778042,-119.20114,-76.277069)"><path
         style="fill:#ff0000;fill-opacity:0.4;stroke:#000000;stroke-width:1.667;stroke-opacity:1"
         d="m 674.2508,475.47973 c -25.9792,0 -24.1667,-81.5626 -24.1667,-81.5626 0,0 -0.60416,-71.89591 -0.60416,-110.56263 0,-38.66671 16.34754,-89.47779 20.54169,-90.02094 2.43918,-0.31588 4.46735,0.23818 4.46735,0.23818"
         id="path148"
         sodipodi:nodetypes="ccssc" /><path
         style="fill:#ff0000;fill-opacity:0.4;stroke:#000000;stroke-width:1.667;stroke-opacity:1"
         d="M 652.69517,435.00052 H 453.72971 l 30.81253,-47.12506 h 164.9377"
         id="path149"
         sodipodi:nodetypes="cccc" /><path
         style="fill:#ff0000;fill-opacity:0.4;stroke:#000000;stroke-width:1.667;stroke-opacity:1"
         d="m 477.76191,388.15915 -29.75865,46.36152 -66.65392,-0.12649 v -46.23503 z"
         id="path150"
         sodipodi:nodetypes="ccccc" /></g><path
       style="fill:#ff0000;fill-opacity:0.4;stroke:#000000;stroke-width:1.667;stroke-opacity:1"
       d="M 411.45342,436.18095 510.84179,283.17073"
       id="path151"
       sodipodi:nodetypes="cc" /><path
       style="fill:#ff0000;fill-opacity:0.4;stroke:#000000;stroke-width:1.667;stroke-opacity:1"
       d="m 443.72576,262.3164 0,115.87795"
       id="path152"
       sodipodi:nodetypes="cc" /><path
       style="fill:none;fill-opacity:0.4;stroke:#000000;stroke-width:1.667;stroke-opacity:1;marker-start:url(#Triangle);marker-end:url(#Triangle)"
       d="m 449.21151,277.75006 c 27.55631,-0.4374 47.67678,18.37087 47.67678,18.37087"
       id="path153"
       sodipodi:nodetypes="cc" /><g
       inkscape:label=""
       transform="translate(468.04792,250.52191)"
       id="g157"><g
   fill="#000000"
   fill-opacity="1"
   id="g156"
   transform="matrix(1.33333,0,0,1.33333,-3.40733,-1.8805)">
    <g
   id="g155"
   transform="translate(1.993,18.926001)">
      <path
   d="m 8.328125,-17.09375 c -0.125,-0.40625 -0.15625,-0.421875 -0.390625,-0.421875 -0.25,0 -0.28125,0.01563 -0.40625,0.421875 l -4.875,14.8125 C 2.203125,-0.96875 1.390625,-0.671875 0.5625,-0.640625 V 0 c 0.421875,-0.03125 1.296875,-0.046875 1.734375,-0.046875 0.625,0 1.59375,0 2.1875,0.046875 v -0.640625 c -1.3125,-0.046875 -1.390625,-1 -1.390625,-1.171875 0,-0.171875 0.046875,-0.3125 0.125,-0.5625 l 4.109375,-12.515625 4.3125,13.078125 c 0.125,0.34375 0.125,0.40625 0.125,0.46875 0,0.703125 -1.03125,0.703125 -1.5625,0.703125 V 0 c 0.71875,-0.046875 1.984375,-0.046875 2.75,-0.046875 0.625,0 1.765625,0 2.34375,0.046875 v -0.640625 c -1.09375,0 -1.546875,0 -1.84375,-0.875 z m 0,0"
   id="path155" />
    </g>
  </g>
</g><g
       inkscape:label=""
       transform="translate(453.9946,450.3279)"
       id="g160"><g
   fill="#000000"
   fill-opacity="1"
   id="g5"
   transform="matrix(1.33333,0,0,1.33333,-3.90733,-2.12667)">
    <g
   id="use4"
   transform="translate(1.993,17.969999)">
      <path
   d="m 10.40625,-7.953125 c 0,-1.515625 -0.01563,-4.09375 -1.0625,-6.078125 -0.921875,-1.734375 -2.375,-2.34375 -3.671875,-2.34375 -1.1875,0 -2.703125,0.546875 -3.640625,2.328125 -0.984375,1.859375 -1.09375,4.15625 -1.09375,6.09375 0,1.40625 0.03125,3.5625 0.796875,5.453125 1.0625,2.546875 2.96875,2.890625 3.9375,2.890625 1.140625,0 2.875,-0.46875 3.890625,-2.8125 0.75,-1.71875 0.84375,-3.71875 0.84375,-5.53125 z M 5.671875,0 C 4.09375,0 3.140625,-1.359375 2.796875,-3.25 2.53125,-4.703125 2.53125,-6.84375 2.53125,-8.234375 c 0,-1.90625 0,-3.484375 0.3125,-5 0.484375,-2.109375 1.859375,-2.75 2.828125,-2.75 1.015625,0 2.328125,0.671875 2.796875,2.703125 0.328125,1.40625 0.359375,3.078125 0.359375,5.046875 0,1.625 0,3.59375 -0.296875,5.0625 C 8,-0.46875 6.546875,0 5.671875,0 Z m 0,0"
   id="path157" />
    </g>
  </g>
  <g
   fill="#000000"
   fill-opacity="1"
   id="g6"
   transform="matrix(1.33333,0,0,1.33333,-3.90733,-2.12667)">
    <g
   id="use5"
   transform="translate(13.36,17.969999)">
      <path
   d="m 4.5625,-1.1875 c 0,-0.71875 -0.59375,-1.21875 -1.1875,-1.21875 -0.71875,0 -1.21875,0.59375 -1.21875,1.1875 C 2.15625,-0.5 2.75,0 3.34375,0 4.0625,0 4.5625,-0.59375 4.5625,-1.1875 Z m 0,0"
   id="path158" />
    </g>
  </g>
  <g
   fill="#000000"
   fill-opacity="1"
   id="g7"
   transform="matrix(1.33333,0,0,1.33333,-3.90733,-2.12667)">
    <g
   id="use6"
   transform="translate(20.101999,17.969999)">
      <path
   d="m 2.828125,-14.5 c 0.25,0.109375 1.265625,0.421875 2.296875,0.421875 2.3125,0 3.578125,-1.234375 4.296875,-1.953125 0,-0.203125 0,-0.328125 -0.15625,-0.328125 -0.015625,0 -0.078125,0 -0.265625,0.109375 -0.875,0.359375 -1.890625,0.65625 -3.125,0.65625 -0.75,0 -1.859375,-0.09375 -3.078125,-0.640625 -0.265625,-0.125 -0.3125,-0.125 -0.34375,-0.125 -0.125,0 -0.15625,0.03125 -0.15625,0.53125 v 7.171875 c 0,0.453125 0,0.578125 0.25,0.578125 0.125,0 0.171875,-0.046875 0.296875,-0.21875 0.796875,-1.125 1.890625,-1.59375 3.125,-1.59375 0.875,0 2.734375,0.546875 2.734375,4.78125 0,0.796875 0,2.234375 -0.75,3.375 -0.625,1.015625 -1.578125,1.53125 -2.65625,1.53125 C 3.671875,-0.203125 2,-1.34375 1.5625,-3.25 c 0.09375,0.03125 0.296875,0.078125 0.390625,0.078125 0.328125,0 0.953125,-0.171875 0.953125,-0.9375 0,-0.671875 -0.484375,-0.953125 -0.953125,-0.953125 -0.5625,0 -0.9375,0.359375 -0.9375,1.046875 0,2.15625 1.703125,4.40625 4.34375,4.40625 2.546875,0 4.96875,-2.203125 4.96875,-5.390625 0,-2.984375 -1.921875,-5.28125 -4.328125,-5.28125 -1.265625,0 -2.328125,0.46875 -3.171875,1.359375 z m 0,0"
   id="path159" />
    </g>
  </g>
  <g
   fill="#000000"
   fill-opacity="1"
   id="g8"
   transform="matrix(1.33333,0,0,1.33333,-3.90733,-2.12667)">
    <g
   id="use7"
   transform="translate(31.469999,17.969999)">
      <path
   d="M 5.109375,-7.265625 C 5.15625,-7.40625 5.78125,-8.65625 6.6875,-9.4375 c 0.640625,-0.59375 1.484375,-1 2.453125,-1 1,0 1.34375,0.75 1.34375,1.734375 0,0.15625 0,0.65625 -0.296875,1.8125 l -0.625,2.546875 c -0.1875,0.75 -0.671875,2.578125 -0.71875,2.859375 -0.09375,0.375 -0.25,1.015625 -0.25,1.109375 0,0.34375 0.28125,0.625 0.65625,0.625 0.734375,0 0.859375,-0.578125 1.078125,-1.46875 l 1.5,-5.921875 c 0.04687,-0.1875 1.328125,-3.296875 4.0625,-3.296875 0.984375,0 1.328125,0.75 1.328125,1.734375 0,1.390625 -0.96875,4.09375 -1.5,5.578125 -0.234375,0.59375 -0.359375,0.921875 -0.359375,1.359375 0,1.125 0.765625,2.015625 1.96875,2.015625 C 19.625,0.25 20.5,-3.390625 20.5,-3.546875 c 0,-0.125 -0.109375,-0.21875 -0.25,-0.21875 -0.234375,0 -0.25,0.078125 -0.375,0.5 C 19.296875,-1.28125 18.390625,-0.25 17.390625,-0.25 17.15625,-0.25 16.75,-0.265625 16.75,-1.0625 c 0,-0.640625 0.296875,-1.4375 0.40625,-1.71875 0.4375,-1.1875 1.546875,-4.109375 1.546875,-5.546875 0,-1.484375 -0.859375,-2.59375 -2.75,-2.59375 -1.65625,0 -3,0.9375 -3.984375,2.390625 -0.07813,-1.328125 -0.890625,-2.390625 -2.75,-2.390625 -2.203125,0 -3.375,1.546875 -3.8125,2.171875 -0.078125,-1.40625 -1.09375,-2.171875 -2.1875,-2.171875 -0.71875,0 -1.28125,0.34375 -1.75,1.28125 -0.453125,0.890625 -0.796875,2.40625 -0.796875,2.5 0,0.109375 0.09375,0.234375 0.265625,0.234375 0.203125,0 0.234375,-0.03125 0.375,-0.609375 0.375,-1.453125 0.84375,-2.921875 1.828125,-2.921875 0.578125,0 0.78125,0.40625 0.78125,1.140625 0,0.546875 -0.25,1.515625 -0.421875,2.28125 L 2.796875,-4.34375 c -0.09375,0.484375 -0.375,1.59375 -0.5,2.046875 C 2.125,-1.65625 1.859375,-0.5 1.859375,-0.375 1.859375,-0.03125 2.125,0.25 2.5,0.25 c 0.296875,0 0.640625,-0.15625 0.84375,-0.515625 0.046875,-0.125 0.28125,-1 0.390625,-1.5 l 0.546875,-2.21875 z m 0,0"
   id="path160" />
    </g>
  </g>
</g><path
       style="fill:none;fill-opacity:0.4;stroke:#000000;stroke-width:1.667;stroke-opacity:1"
       d="M 675.1868,463.77085 H 530.37298"
       id="path161" /><path
       style="fill:none;fill-opacity:0.4;stroke:#000000;stroke-width:1.667;stroke-opacity:1"
       d="m 674.85414,409.61144 -64.76905,0"
       id="path161-3"
       sodipodi:nodetypes="cc" /><path
       style="fill:none;fill-opacity:0.4;stroke:#000000;stroke-width:1.667;stroke-opacity:1;marker-end:url(#Triangle)"
       d="M 442.99586,461.93776 H 336.06583"
       id="path162" /><path
       style="fill:none;fill-opacity:0.4;stroke:#000000;stroke-width:1.667;stroke-opacity:1;marker-end:url(#Triangle-3)"
       d="m 489.84671,408.63718 -57.4367,0"
       id="path162-1"
       sodipodi:nodetypes="cc" /><g
       inkscape:label=""
       transform="translate(502.87664,395.94631)"
       id="g169"
       inkscape:export-filename="FFWT_Theta_VS_alpha.pdf"
       inkscape:export-xdpi="96"
       inkscape:export-ydpi="96"><g
   fill="#000000"
   fill-opacity="1"
   id="g164"
   transform="matrix(1.33333,0,0,1.33333,-3.90733,-2.12667)">
    <g
   id="g163"
   transform="translate(1.993,17.969999)">
      <path
   d="m 10.40625,-7.953125 c 0,-1.515625 -0.01563,-4.09375 -1.0625,-6.078125 -0.921875,-1.734375 -2.375,-2.34375 -3.671875,-2.34375 -1.1875,0 -2.703125,0.546875 -3.640625,2.328125 -0.984375,1.859375 -1.09375,4.15625 -1.09375,6.09375 0,1.40625 0.03125,3.5625 0.796875,5.453125 1.0625,2.546875 2.96875,2.890625 3.9375,2.890625 1.140625,0 2.875,-0.46875 3.890625,-2.8125 0.75,-1.71875 0.84375,-3.71875 0.84375,-5.53125 z M 5.671875,0 C 4.09375,0 3.140625,-1.359375 2.796875,-3.25 2.53125,-4.703125 2.53125,-6.84375 2.53125,-8.234375 c 0,-1.90625 0,-3.484375 0.3125,-5 0.484375,-2.109375 1.859375,-2.75 2.828125,-2.75 1.015625,0 2.328125,0.671875 2.796875,2.703125 0.328125,1.40625 0.359375,3.078125 0.359375,5.046875 0,1.625 0,3.59375 -0.296875,5.0625 C 8,-0.46875 6.546875,0 5.671875,0 Z m 0,0"
   id="path163" />
    </g>
  </g>
  <g
   fill="#000000"
   fill-opacity="1"
   id="g166"
   transform="matrix(1.33333,0,0,1.33333,-3.90733,-2.12667)">
    <g
   id="g165"
   transform="translate(13.36,17.969999)">
      <path
   d="m 4.5625,-1.1875 c 0,-0.71875 -0.59375,-1.21875 -1.1875,-1.21875 -0.71875,0 -1.21875,0.59375 -1.21875,1.1875 C 2.15625,-0.5 2.75,0 3.34375,0 4.0625,0 4.5625,-0.59375 4.5625,-1.1875 Z m 0,0"
   id="path164" />
    </g>
  </g>
  <g
   fill="#000000"
   fill-opacity="1"
   id="g10"
   transform="matrix(1.33333,0,0,1.33333,-3.90733,-2.12667)">
    <g
   id="use8"
   transform="translate(20.101999,17.969999)">
      <path
   d="m 5.484375,-8.421875 c 2.203125,0 3.171875,1.90625 3.171875,4.109375 0,2.96875 -1.59375,4.109375 -3.03125,4.109375 -1.3125,0 -3.4375,-0.640625 -4.109375,-2.546875 0.125,0.046875 0.25,0.046875 0.375,0.046875 0.59375,0 1.03125,-0.390625 1.03125,-1.03125 0,-0.71875 -0.546875,-1.046875 -1.03125,-1.046875 -0.421875,0 -1.078125,0.203125 -1.078125,1.109375 0,2.28125 2.234375,4.0625 4.859375,4.0625 2.75,0 4.859375,-2.15625 4.859375,-4.671875 0,-2.40625 -1.984375,-4.140625 -4.34375,-4.421875 1.890625,-0.390625 3.703125,-2.078125 3.703125,-4.328125 0,-1.9375 -1.953125,-3.34375 -4.1875,-3.34375 -2.265625,0 -4.234375,1.375 -4.234375,3.359375 0,0.875 0.640625,1.015625 0.953125,1.015625 0.53125,0 0.96875,-0.3125 0.96875,-0.953125 0,-0.65625 -0.4375,-0.96875 -0.96875,-0.96875 -0.09375,0 -0.21875,0 -0.3125,0.04687 0.71875,-1.640625 2.671875,-1.9375 3.546875,-1.9375 0.859375,0 2.5,0.421875 2.5,2.796875 0,0.703125 -0.109375,1.9375 -0.9375,3.03125 -0.75,0.96875 -1.59375,1.015625 -2.40625,1.09375 -0.125,0 -0.703125,0.046875 -0.796875,0.046875 -0.171875,0.015625 -0.28125,0.046875 -0.28125,0.21875 0,0.171875 0.03125,0.203125 0.53125,0.203125 z m 0,0"
   id="path166" />
    </g>
    <g
   id="use9"
   transform="translate(31.469364,17.969999)">
      <path
   d="m 2.625,-8.546875 c 0,-5.921875 2.78125,-7.265625 4.390625,-7.265625 0.515625,0 1.78125,0.09375 2.28125,1.0625 -0.40625,0 -1.140625,0 -1.140625,0.875 0,0.671875 0.546875,0.890625 0.890625,0.890625 0.21875,0 0.890625,-0.09375 0.890625,-0.9375 0,-1.5625 -1.234375,-2.453125 -2.953125,-2.453125 -2.9375,0 -6.046875,3.0625 -6.046875,8.546875 0,6.734375 2.796875,8.21875 4.78125,8.21875 2.40625,0 4.6875,-2.15625 4.6875,-5.46875 0,-3.09375 -2,-5.359375 -4.53125,-5.359375 -1.515625,0 -2.625,1 -3.25,2.734375 z m 3.09375,8.34375 c -3.046875,0 -3.046875,-4.5625 -3.046875,-5.46875 0,-1.78125 0.84375,-4.359375 3.15625,-4.359375 0.421875,0 1.625,0 2.453125,1.703125 0.4375,0.96875 0.4375,1.984375 0.4375,3.21875 0,1.34375 0,2.328125 -0.515625,3.328125 -0.546875,1.015625 -1.34375,1.578125 -2.484375,1.578125 z m 0,0"
   id="path167" />
    </g>
    <g
   id="use10"
   transform="translate(42.836727,17.969999)">
      <path
   d="m 2.828125,-14.5 c 0.25,0.109375 1.265625,0.421875 2.296875,0.421875 2.3125,0 3.578125,-1.234375 4.296875,-1.953125 0,-0.203125 0,-0.328125 -0.15625,-0.328125 -0.015625,0 -0.078125,0 -0.265625,0.109375 -0.875,0.359375 -1.890625,0.65625 -3.125,0.65625 -0.75,0 -1.859375,-0.09375 -3.078125,-0.640625 -0.265625,-0.125 -0.3125,-0.125 -0.34375,-0.125 -0.125,0 -0.15625,0.03125 -0.15625,0.53125 v 7.171875 c 0,0.453125 0,0.578125 0.25,0.578125 0.125,0 0.171875,-0.046875 0.296875,-0.21875 0.796875,-1.125 1.890625,-1.59375 3.125,-1.59375 0.875,0 2.734375,0.546875 2.734375,4.78125 0,0.796875 0,2.234375 -0.75,3.375 -0.625,1.015625 -1.578125,1.53125 -2.65625,1.53125 C 3.671875,-0.203125 2,-1.34375 1.5625,-3.25 c 0.09375,0.03125 0.296875,0.078125 0.390625,0.078125 0.328125,0 0.953125,-0.171875 0.953125,-0.9375 0,-0.671875 -0.484375,-0.953125 -0.953125,-0.953125 -0.5625,0 -0.9375,0.359375 -0.9375,1.046875 0,2.15625 1.703125,4.40625 4.34375,4.40625 2.546875,0 4.96875,-2.203125 4.96875,-5.390625 0,-2.984375 -1.921875,-5.28125 -4.328125,-5.28125 -1.265625,0 -2.328125,0.46875 -3.171875,1.359375 z m 0,0"
   id="path168" />
    </g>
  </g>
  <g
   fill="#000000"
   fill-opacity="1"
   id="g11"
   transform="matrix(1.33333,0,0,1.33333,-3.90733,-2.12667)">
    <g
   id="use11"
   transform="translate(54.205002,17.969999)">
      <path
   d="M 5.109375,-7.265625 C 5.15625,-7.40625 5.78125,-8.65625 6.6875,-9.4375 c 0.640625,-0.59375 1.484375,-1 2.453125,-1 1,0 1.34375,0.75 1.34375,1.734375 0,0.15625 0,0.65625 -0.296875,1.8125 l -0.625,2.546875 c -0.1875,0.75 -0.671875,2.578125 -0.71875,2.859375 -0.09375,0.375 -0.25,1.015625 -0.25,1.109375 0,0.34375 0.28125,0.625 0.65625,0.625 0.734375,0 0.859375,-0.578125 1.078125,-1.46875 l 1.5,-5.921875 c 0.04687,-0.1875 1.328125,-3.296875 4.0625,-3.296875 0.984375,0 1.328125,0.75 1.328125,1.734375 0,1.390625 -0.96875,4.09375 -1.5,5.578125 -0.234375,0.59375 -0.359375,0.921875 -0.359375,1.359375 0,1.125 0.765625,2.015625 1.96875,2.015625 C 19.625,0.25 20.5,-3.390625 20.5,-3.546875 c 0,-0.125 -0.109375,-0.21875 -0.25,-0.21875 -0.234375,0 -0.25,0.078125 -0.375,0.5 C 19.296875,-1.28125 18.390625,-0.25 17.390625,-0.25 17.15625,-0.25 16.75,-0.265625 16.75,-1.0625 c 0,-0.640625 0.296875,-1.4375 0.40625,-1.71875 0.4375,-1.1875 1.546875,-4.109375 1.546875,-5.546875 0,-1.484375 -0.859375,-2.59375 -2.75,-2.59375 -1.65625,0 -3,0.9375 -3.984375,2.390625 -0.07813,-1.328125 -0.890625,-2.390625 -2.75,-2.390625 -2.203125,0 -3.375,1.546875 -3.8125,2.171875 -0.078125,-1.40625 -1.09375,-2.171875 -2.1875,-2.171875 -0.71875,0 -1.28125,0.34375 -1.75,1.28125 -0.453125,0.890625 -0.796875,2.40625 -0.796875,2.5 0,0.109375 0.09375,0.234375 0.265625,0.234375 0.203125,0 0.234375,-0.03125 0.375,-0.609375 0.375,-1.453125 0.84375,-2.921875 1.828125,-2.921875 0.578125,0 0.78125,0.40625 0.78125,1.140625 0,0.546875 -0.25,1.515625 -0.421875,2.28125 L 2.796875,-4.34375 c -0.09375,0.484375 -0.375,1.59375 -0.5,2.046875 C 2.125,-1.65625 1.859375,-0.5 1.859375,-0.375 1.859375,-0.03125 2.125,0.25 2.5,0.25 c 0.296875,0 0.640625,-0.15625 0.84375,-0.515625 0.046875,-0.125 0.28125,-1 0.390625,-1.5 l 0.546875,-2.21875 z m 0,0"
   id="path169" />
    </g>
  </g>
</g><path
       style="fill:none;fill-opacity:0.4;stroke:#000000;stroke-width:1.667;stroke-opacity:1"
       d="M 674.27069,405.9745 574.24799,262.4125"
       id="path170" /><path
       style="fill:none;fill-opacity:0.4;stroke:#000000;stroke-width:1.667;stroke-opacity:1;marker-start:url(#Triangle);marker-end:url(#Triangle)"
       d="m 592.58077,278.93715 c 42.41901,-28.27934 79.69633,-26.99392 79.69633,-26.99392"
       id="path171"
       sodipodi:nodetypes="cc" /><g
       inkscape:label=""
       transform="translate(609.29095,230.73336)"
       id="g171"
       inkscape:export-filename="FFWT_Theta_VS_alpha.pdf"
       inkscape:export-xdpi="96"
       inkscape:export-ydpi="96"><g
   fill="#000000"
   fill-opacity="1"
   id="g2"
   transform="matrix(1.33333,0,0,1.33333,-3.60336,-2.31633)">
    <g
   id="use1"
   transform="translate(1.993,19.205999)">
      <path
   d="m 14.03125,-14.421875 c 0,-1.484375 -1.265625,-3.046875 -3.53125,-3.046875 -3.1875,0 -5.21875,3.90625 -5.859375,6.484375 L 0.71875,4.5625 c -0.046875,0.203125 0.09375,0.25 0.21875,0.25 0.171875,0 0.296875,-0.03125 0.328125,-0.15625 L 3,-2.28125 C 3.25,-0.890625 4.609375,0.25 6.078125,0.25 c 3.53125,0 6.875,-2.78125 6.875,-6.46875 0,-0.9375 -0.21875,-1.890625 -0.734375,-2.671875 -0.296875,-0.484375 -0.671875,-0.828125 -1.0625,-1.125 1.78125,-0.9375 2.875,-2.453125 2.875,-4.40625 z m -4.3125,4.390625 c -0.40625,0.140625 -0.796875,0.1875 -1.265625,0.1875 -0.34375,0 -0.671875,0.03125 -1.125,-0.125 0.25,-0.171875 0.625,-0.21875 1.140625,-0.21875 0.453125,0 0.90625,0.04687 1.25,0.15625 z m 3.015625,-4.609375 c 0,1.359375 -0.671875,3.34375 -2.28125,4.25 C 9.984375,-10.5625 9.34375,-10.6875 8.796875,-10.6875 c -0.515625,0 -2,-0.04687 -2,0.75 0,0.671875 1.359375,0.59375 1.78125,0.59375 0.640625,0 1.203125,-0.140625 1.8125,-0.328125 0.78125,0.65625 1.125,1.5 1.125,2.734375 0,1.4375 -0.390625,2.59375 -0.859375,3.671875 C 9.84375,-1.4375 7.90625,-0.25 6.1875,-0.25 c -1.796875,0 -2.75,-1.4375 -2.75,-3.125 0,-0.21875 0,-0.546875 0.109375,-0.90625 l 1.609375,-6.515625 c 0.8125,-3.25 2.890625,-6.171875 5.296875,-6.171875 1.78125,0 2.28125,1.234375 2.28125,2.328125 z m 0,0"
   id="path2" />
    </g>
  </g>
</g></g></svg>
