<?xml version="1.0" encoding="UTF-8" standalone="no"?>
<!-- Created with Inkscape (http://www.inkscape.org/) -->

<svg
   version="1.1"
   id="svg1"
   width="746.66669"
   height="560"
   viewBox="0 0 746.66669 560"
   sodipodi:docname="FFWT_TIP_TWIST_M6.svg"
   inkscape:version="1.3.2 (091e20e, 2023-11-25)"
   xmlns:inkscape="http://www.inkscape.org/namespaces/inkscape"
   xmlns:sodipodi="http://sodipodi.sourceforge.net/DTD/sodipodi-0.dtd"
   xmlns="http://www.w3.org/2000/svg"
   xmlns:svg="http://www.w3.org/2000/svg">
  <defs
     id="defs1" />
  <sodipodi:namedview
     id="namedview1"
     pagecolor="#ffffff"
     bordercolor="#000000"
     borderopacity="0.25"
     inkscape:showpageshadow="2"
     inkscape:pageopacity="0.0"
     inkscape:pagecheckerboard="0"
     inkscape:deskcolor="#d1d1d1"
     showgrid="false"
     inkscape:zoom="0.93214284"
     inkscape:cx="365.82376"
     inkscape:cy="332.03066"
     inkscape:window-width="1472"
     inkscape:window-height="942"
     inkscape:window-x="0"
     inkscape:window-y="25"
     inkscape:window-maximized="0"
     inkscape:current-layer="g1">
    <inkscape:page
       x="0"
       y="0"
       inkscape:label="1"
       id="page1"
       width="746.66669"
       height="560"
       margin="0"
       bleed="0" />
  </sodipodi:namedview>
  <g
     id="g1"
     inkscape:groupmode="layer"
     inkscape:label="1">
    <path
       id="path3"
       d="M 730,520 H 5070 V 3890 H 730 Z"
       style="fill:#ffffff;fill-opacity:1;fill-rule:nonzero;stroke:none"
       transform="matrix(0.13333333,0,0,-0.13333333,0,560)" />
    <path
       id="path4"
       d="M 730,520 V 3890"
       style="fill:none;stroke:#dfdfdf;stroke-width:5;stroke-linecap:butt;stroke-linejoin:round;stroke-miterlimit:10;stroke-dasharray:none;stroke-opacity:1"
       transform="matrix(0.13333333,0,0,-0.13333333,0,560)" />
    <path
       id="path5"
       d="M 1453.33,520 V 3890"
       style="fill:none;stroke:#dfdfdf;stroke-width:5;stroke-linecap:butt;stroke-linejoin:round;stroke-miterlimit:10;stroke-dasharray:none;stroke-opacity:1"
       transform="matrix(0.13333333,0,0,-0.13333333,0,560)" />
    <path
       id="path6"
       d="M 2176.67,520 V 3890"
       style="fill:none;stroke:#dfdfdf;stroke-width:5;stroke-linecap:butt;stroke-linejoin:round;stroke-miterlimit:10;stroke-dasharray:none;stroke-opacity:1"
       transform="matrix(0.13333333,0,0,-0.13333333,0,560)" />
    <path
       id="path7"
       d="M 2900,520 V 3890"
       style="fill:none;stroke:#dfdfdf;stroke-width:5;stroke-linecap:butt;stroke-linejoin:round;stroke-miterlimit:10;stroke-dasharray:none;stroke-opacity:1"
       transform="matrix(0.13333333,0,0,-0.13333333,0,560)" />
    <path
       id="path8"
       d="M 3623.33,520 V 3890"
       style="fill:none;stroke:#dfdfdf;stroke-width:5;stroke-linecap:butt;stroke-linejoin:round;stroke-miterlimit:10;stroke-dasharray:none;stroke-opacity:1"
       transform="matrix(0.13333333,0,0,-0.13333333,0,560)" />
    <path
       id="path9"
       d="M 4346.67,520 V 3890"
       style="fill:none;stroke:#dfdfdf;stroke-width:5;stroke-linecap:butt;stroke-linejoin:round;stroke-miterlimit:10;stroke-dasharray:none;stroke-opacity:1"
       transform="matrix(0.13333333,0,0,-0.13333333,0,560)" />
    <path
       id="path10"
       d="M 5070,520 V 3890"
       style="fill:none;stroke:#dfdfdf;stroke-width:5;stroke-linecap:butt;stroke-linejoin:round;stroke-miterlimit:10;stroke-dasharray:none;stroke-opacity:1"
       transform="matrix(0.13333333,0,0,-0.13333333,0,560)" />
    <path
       id="path11"
       d="M 5070,520 H 730"
       style="fill:none;stroke:#dfdfdf;stroke-width:5;stroke-linecap:butt;stroke-linejoin:round;stroke-miterlimit:10;stroke-dasharray:none;stroke-opacity:1"
       transform="matrix(0.13333333,0,0,-0.13333333,0,560)" />
    <path
       id="path12"
       d="M 5070,1081.67 H 730"
       style="fill:none;stroke:#dfdfdf;stroke-width:5;stroke-linecap:butt;stroke-linejoin:round;stroke-miterlimit:10;stroke-dasharray:none;stroke-opacity:1"
       transform="matrix(0.13333333,0,0,-0.13333333,0,560)" />
    <path
       id="path13"
       d="M 5070,1643.33 H 730"
       style="fill:none;stroke:#dfdfdf;stroke-width:5;stroke-linecap:butt;stroke-linejoin:round;stroke-miterlimit:10;stroke-dasharray:none;stroke-opacity:1"
       transform="matrix(0.13333333,0,0,-0.13333333,0,560)" />
    <path
       id="path14"
       d="M 5070,2205 H 730"
       style="fill:none;stroke:#dfdfdf;stroke-width:5;stroke-linecap:butt;stroke-linejoin:round;stroke-miterlimit:10;stroke-dasharray:none;stroke-opacity:1"
       transform="matrix(0.13333333,0,0,-0.13333333,0,560)" />
    <path
       id="path15"
       d="M 5070,2766.67 H 730"
       style="fill:none;stroke:#dfdfdf;stroke-width:5;stroke-linecap:butt;stroke-linejoin:round;stroke-miterlimit:10;stroke-dasharray:none;stroke-opacity:1"
       transform="matrix(0.13333333,0,0,-0.13333333,0,560)" />
    <path
       id="path16"
       d="M 5070,3328.33 H 730"
       style="fill:none;stroke:#dfdfdf;stroke-width:5;stroke-linecap:butt;stroke-linejoin:round;stroke-miterlimit:10;stroke-dasharray:none;stroke-opacity:1"
       transform="matrix(0.13333333,0,0,-0.13333333,0,560)" />
    <path
       id="path17"
       d="M 5070,3890 H 730"
       style="fill:none;stroke:#dfdfdf;stroke-width:5;stroke-linecap:butt;stroke-linejoin:round;stroke-miterlimit:10;stroke-dasharray:none;stroke-opacity:1"
       transform="matrix(0.13333333,0,0,-0.13333333,0,560)" />
    <path
       id="path18"
       d="M 730,520 H 5070"
       style="fill:none;stroke:#262626;stroke-width:5;stroke-linecap:square;stroke-linejoin:round;stroke-miterlimit:10;stroke-dasharray:none;stroke-opacity:1"
       transform="matrix(0.13333333,0,0,-0.13333333,0,560)" />
    <path
       id="path19"
       d="M 730,3890 H 5070"
       style="fill:none;stroke:#262626;stroke-width:5;stroke-linecap:square;stroke-linejoin:round;stroke-miterlimit:10;stroke-dasharray:none;stroke-opacity:1"
       transform="matrix(0.13333333,0,0,-0.13333333,0,560)" />
    <path
       id="path20"
       d="m 730,520 v 43.398"
       style="fill:none;stroke:#262626;stroke-width:5;stroke-linecap:square;stroke-linejoin:round;stroke-miterlimit:10;stroke-dasharray:none;stroke-opacity:1"
       transform="matrix(0.13333333,0,0,-0.13333333,0,560)" />
    <path
       id="path21"
       d="m 1453.33,520 v 43.398"
       style="fill:none;stroke:#262626;stroke-width:5;stroke-linecap:square;stroke-linejoin:round;stroke-miterlimit:10;stroke-dasharray:none;stroke-opacity:1"
       transform="matrix(0.13333333,0,0,-0.13333333,0,560)" />
    <path
       id="path22"
       d="m 2176.67,520 v 43.398"
       style="fill:none;stroke:#262626;stroke-width:5;stroke-linecap:square;stroke-linejoin:round;stroke-miterlimit:10;stroke-dasharray:none;stroke-opacity:1"
       transform="matrix(0.13333333,0,0,-0.13333333,0,560)" />
    <path
       id="path23"
       d="m 2900,520 v 43.398"
       style="fill:none;stroke:#262626;stroke-width:5;stroke-linecap:square;stroke-linejoin:round;stroke-miterlimit:10;stroke-dasharray:none;stroke-opacity:1"
       transform="matrix(0.13333333,0,0,-0.13333333,0,560)" />
    <path
       id="path24"
       d="m 3623.33,520 v 43.398"
       style="fill:none;stroke:#262626;stroke-width:5;stroke-linecap:square;stroke-linejoin:round;stroke-miterlimit:10;stroke-dasharray:none;stroke-opacity:1"
       transform="matrix(0.13333333,0,0,-0.13333333,0,560)" />
    <path
       id="path25"
       d="m 4346.67,520 v 43.398"
       style="fill:none;stroke:#262626;stroke-width:5;stroke-linecap:square;stroke-linejoin:round;stroke-miterlimit:10;stroke-dasharray:none;stroke-opacity:1"
       transform="matrix(0.13333333,0,0,-0.13333333,0,560)" />
    <path
       id="path26"
       d="m 5070,520 v 43.398"
       style="fill:none;stroke:#262626;stroke-width:5;stroke-linecap:square;stroke-linejoin:round;stroke-miterlimit:10;stroke-dasharray:none;stroke-opacity:1"
       transform="matrix(0.13333333,0,0,-0.13333333,0,560)" />
    <path
       id="path27"
       d="m 730,3890 v -43.4"
       style="fill:none;stroke:#262626;stroke-width:5;stroke-linecap:square;stroke-linejoin:round;stroke-miterlimit:10;stroke-dasharray:none;stroke-opacity:1"
       transform="matrix(0.13333333,0,0,-0.13333333,0,560)" />
    <path
       id="path28"
       d="m 1453.33,3890 v -43.4"
       style="fill:none;stroke:#262626;stroke-width:5;stroke-linecap:square;stroke-linejoin:round;stroke-miterlimit:10;stroke-dasharray:none;stroke-opacity:1"
       transform="matrix(0.13333333,0,0,-0.13333333,0,560)" />
    <path
       id="path29"
       d="m 2176.67,3890 v -43.4"
       style="fill:none;stroke:#262626;stroke-width:5;stroke-linecap:square;stroke-linejoin:round;stroke-miterlimit:10;stroke-dasharray:none;stroke-opacity:1"
       transform="matrix(0.13333333,0,0,-0.13333333,0,560)" />
    <path
       id="path30"
       d="m 2900,3890 v -43.4"
       style="fill:none;stroke:#262626;stroke-width:5;stroke-linecap:square;stroke-linejoin:round;stroke-miterlimit:10;stroke-dasharray:none;stroke-opacity:1"
       transform="matrix(0.13333333,0,0,-0.13333333,0,560)" />
    <path
       id="path31"
       d="m 3623.33,3890 v -43.4"
       style="fill:none;stroke:#262626;stroke-width:5;stroke-linecap:square;stroke-linejoin:round;stroke-miterlimit:10;stroke-dasharray:none;stroke-opacity:1"
       transform="matrix(0.13333333,0,0,-0.13333333,0,560)" />
    <path
       id="path32"
       d="m 4346.67,3890 v -43.4"
       style="fill:none;stroke:#262626;stroke-width:5;stroke-linecap:square;stroke-linejoin:round;stroke-miterlimit:10;stroke-dasharray:none;stroke-opacity:1"
       transform="matrix(0.13333333,0,0,-0.13333333,0,560)" />
    <path
       id="path33"
       d="m 5070,3890 v -43.4"
       style="fill:none;stroke:#262626;stroke-width:5;stroke-linecap:square;stroke-linejoin:round;stroke-miterlimit:10;stroke-dasharray:none;stroke-opacity:1"
       transform="matrix(0.13333333,0,0,-0.13333333,0,560)" />
    <text
       id="text33"
       xml:space="preserve"
       transform="matrix(1.3333333,0,0,1.3333333,91.333333,518.93333)"><tspan
         style="font-variant:normal;font-weight:normal;font-size:16px;font-family:Helvetica;writing-mode:lr-tb;fill:#262626;fill-opacity:1;fill-rule:nonzero;stroke:none"
         x="0 72.333122 140.16672 149.06271 212.5 221.396 284.83328 293.72928 357.16687 366.06287 429.50015 438.39615"
         y="0"
         sodipodi:role="line"
         id="tspan33">051015202530</tspan></text>
    <path
       id="path34"
       d="m 2694.69,5.94141 c -0.31,0 -0.63,0.20703 -0.94,0.61718 -0.31,0.31641 -0.47,0.67969 -0.47,1.10157 L 2720.47,116.41 c 1.46,5.832 3.7,11.457 6.72,16.871 3.02,5.52 6.77,10.621 11.25,15.309 4.48,4.793 9.38,8.543 14.69,11.25 5.41,2.812 11.19,4.219 17.34,4.219 4.27,0 8.18,-0.989 11.72,-2.969 3.54,-1.875 6.3,-4.527 8.28,-7.961 2.08,-3.438 3.12,-7.344 3.12,-11.719 0,-4.168 -0.83,-8.176 -2.5,-12.031 -1.56,-3.754 -3.8,-7.297 -6.71,-10.629 -2.81,-3.332 -5.84,-6.039 -9.07,-8.121 1.88,-1.145 3.55,-2.66 5,-4.539 1.57,-1.875 2.77,-3.852 3.6,-5.93 0.93,-1.9803 1.66,-4.2186 2.18,-6.7186 0.53,-2.5 0.79,-4.8437 0.79,-7.0312 0,-5.9414 -1.3,-11.8282 -3.91,-17.6602 -2.5,-5.832 -5.99,-11.1484 -10.47,-15.9414 -4.48,-4.7852 -9.58,-8.5859 -15.31,-11.3984 -5.63,-2.7149 -11.46,-4.0704 -17.5,-4.0704 -6.56,0 -12.5,1.7735 -17.81,5.3204 -5.31,3.6484 -8.96,8.5937 -10.94,14.8398 L 2698.28,6.87109 c 0,-0.62109 -0.47,-0.92968 -1.4,-0.92968 z M 2740,42.1914 c 5.31,0 10.05,1.7149 14.22,5.1484 4.27,3.4415 7.82,7.7618 10.62,12.9688 2.81,5.3164 4.95,10.8867 6.41,16.7227 1.46,5.9375 2.19,11.3046 2.19,16.0976 0,5.9336 -1.72,10.6211 -5.16,14.0621 -4.06,-1.461 -7.97,-2.191 -11.72,-2.191 -9.37,0 -14.06,1.563 -14.06,4.691 0,4.059 5.31,6.09 15.94,6.09 3.75,0 7.24,-0.574 10.47,-1.722 2.5,1.98 4.74,4.847 6.72,8.601 2.08,3.746 3.64,7.653 4.68,11.719 1.15,4.168 1.72,8.07 1.72,11.711 0,3.859 -1.04,7.039 -3.12,9.539 -1.98,2.601 -4.95,3.902 -8.91,3.902 -7.08,0 -13.75,-2.242 -20,-6.722 -6.15,-4.371 -11.35,-9.946 -15.62,-16.719 -4.17,-6.668 -7.14,-13.594 -8.91,-20.781 l -9.84,-38.8988 c -0.63,-2.7149 -0.99,-5.7383 -1.1,-9.0704 0,-7.2851 2.4,-13.3281 7.19,-18.121 4.79,-4.6836 10.89,-7.0274 18.28,-7.0274 z m 7.97,67.9686 c 1.77,-0.422 4.69,-0.629 8.75,-0.629 1.98,0 3.96,0.313 5.94,0.938 -0.11,0.109 -0.32,0.16 -0.63,0.16 -1.24,0.414 -2.6,0.621 -4.06,0.621 -5.31,0 -8.65,-0.363 -10,-1.09"
       style="fill:#262626;fill-opacity:1;fill-rule:nonzero;stroke:none"
       transform="matrix(0.13333333,0,0,-0.13333333,0,560)" />
    <text
       id="text34"
       xml:space="preserve"
       transform="matrix(1.3333333,0,0,1.3333333,378.52373,554.66667)"><tspan
         style="font-variant:normal;font-weight:normal;font-size:17.6px;font-family:Helvetica;writing-mode:lr-tb;fill:#262626;fill-opacity:1;fill-rule:nonzero;stroke:none"
         x="0 3.9072001 13.6928"
         y="0"
         sodipodi:role="line"
         id="tspan34">in </tspan><tspan
         style="font-variant:normal;font-weight:normal;font-size:14.08px;font-family:Courier;writing-mode:lr-tb;fill:#262626;fill-opacity:1;fill-rule:nonzero;stroke:none"
         x="19.107201"
         y="-8"
         id="tspan35">°</tspan></text>
    <path
       id="path35"
       d="M 730,520 V 3890"
       style="fill:none;stroke:#262626;stroke-width:5;stroke-linecap:square;stroke-linejoin:round;stroke-miterlimit:10;stroke-dasharray:none;stroke-opacity:1"
       transform="matrix(0.13333333,0,0,-0.13333333,0,560)" />
    <path
       id="path36"
       d="M 5070,520 V 3890"
       style="fill:none;stroke:#262626;stroke-width:5;stroke-linecap:square;stroke-linejoin:round;stroke-miterlimit:10;stroke-dasharray:none;stroke-opacity:1"
       transform="matrix(0.13333333,0,0,-0.13333333,0,560)" />
    <path
       id="path37"
       d="m 730,520 h 43.398"
       style="fill:none;stroke:#262626;stroke-width:5;stroke-linecap:square;stroke-linejoin:round;stroke-miterlimit:10;stroke-dasharray:none;stroke-opacity:1"
       transform="matrix(0.13333333,0,0,-0.13333333,0,560)" />
    <path
       id="path38"
       d="m 730,1081.67 h 43.398"
       style="fill:none;stroke:#262626;stroke-width:5;stroke-linecap:square;stroke-linejoin:round;stroke-miterlimit:10;stroke-dasharray:none;stroke-opacity:1"
       transform="matrix(0.13333333,0,0,-0.13333333,0,560)" />
    <path
       id="path39"
       d="m 730,1643.33 h 43.398"
       style="fill:none;stroke:#262626;stroke-width:5;stroke-linecap:square;stroke-linejoin:round;stroke-miterlimit:10;stroke-dasharray:none;stroke-opacity:1"
       transform="matrix(0.13333333,0,0,-0.13333333,0,560)" />
    <path
       id="path40"
       d="m 730,2205 h 43.398"
       style="fill:none;stroke:#262626;stroke-width:5;stroke-linecap:square;stroke-linejoin:round;stroke-miterlimit:10;stroke-dasharray:none;stroke-opacity:1"
       transform="matrix(0.13333333,0,0,-0.13333333,0,560)" />
    <path
       id="path41"
       d="m 730,2766.67 h 43.398"
       style="fill:none;stroke:#262626;stroke-width:5;stroke-linecap:square;stroke-linejoin:round;stroke-miterlimit:10;stroke-dasharray:none;stroke-opacity:1"
       transform="matrix(0.13333333,0,0,-0.13333333,0,560)" />
    <path
       id="path42"
       d="m 730,3328.33 h 43.398"
       style="fill:none;stroke:#262626;stroke-width:5;stroke-linecap:square;stroke-linejoin:round;stroke-miterlimit:10;stroke-dasharray:none;stroke-opacity:1"
       transform="matrix(0.13333333,0,0,-0.13333333,0,560)" />
    <path
       id="path43"
       d="m 730,3890 h 43.398"
       style="fill:none;stroke:#262626;stroke-width:5;stroke-linecap:square;stroke-linejoin:round;stroke-miterlimit:10;stroke-dasharray:none;stroke-opacity:1"
       transform="matrix(0.13333333,0,0,-0.13333333,0,560)" />
    <path
       id="path44"
       d="m 5070,520 h -43.4"
       style="fill:none;stroke:#262626;stroke-width:5;stroke-linecap:square;stroke-linejoin:round;stroke-miterlimit:10;stroke-dasharray:none;stroke-opacity:1"
       transform="matrix(0.13333333,0,0,-0.13333333,0,560)" />
    <path
       id="path45"
       d="m 5070,1081.67 h -43.4"
       style="fill:none;stroke:#262626;stroke-width:5;stroke-linecap:square;stroke-linejoin:round;stroke-miterlimit:10;stroke-dasharray:none;stroke-opacity:1"
       transform="matrix(0.13333333,0,0,-0.13333333,0,560)" />
    <path
       id="path46"
       d="m 5070,1643.33 h -43.4"
       style="fill:none;stroke:#262626;stroke-width:5;stroke-linecap:square;stroke-linejoin:round;stroke-miterlimit:10;stroke-dasharray:none;stroke-opacity:1"
       transform="matrix(0.13333333,0,0,-0.13333333,0,560)" />
    <path
       id="path47"
       d="m 5070,2205 h -43.4"
       style="fill:none;stroke:#262626;stroke-width:5;stroke-linecap:square;stroke-linejoin:round;stroke-miterlimit:10;stroke-dasharray:none;stroke-opacity:1"
       transform="matrix(0.13333333,0,0,-0.13333333,0,560)" />
    <path
       id="path48"
       d="m 5070,2766.67 h -43.4"
       style="fill:none;stroke:#262626;stroke-width:5;stroke-linecap:square;stroke-linejoin:round;stroke-miterlimit:10;stroke-dasharray:none;stroke-opacity:1"
       transform="matrix(0.13333333,0,0,-0.13333333,0,560)" />
    <path
       id="path49"
       d="m 5070,3328.33 h -43.4"
       style="fill:none;stroke:#262626;stroke-width:5;stroke-linecap:square;stroke-linejoin:round;stroke-miterlimit:10;stroke-dasharray:none;stroke-opacity:1"
       transform="matrix(0.13333333,0,0,-0.13333333,0,560)" />
    <path
       id="path50"
       d="m 5070,3890 h -43.4"
       style="fill:none;stroke:#262626;stroke-width:5;stroke-linecap:square;stroke-linejoin:round;stroke-miterlimit:10;stroke-dasharray:none;stroke-opacity:1"
       transform="matrix(0.13333333,0,0,-0.13333333,0,560)" />
    <text
       id="text50"
       xml:space="preserve"
       transform="matrix(1.3333333,0,0,1.3333333,46.4,498.66667)"><tspan
         style="font-variant:normal;font-weight:normal;font-size:16px;font-family:Helvetica;writing-mode:lr-tb;fill:#262626;fill-opacity:1;fill-rule:nonzero;stroke:none"
         x="0 5.3280001 14.224 23.120001"
         y="0"
         sodipodi:role="line"
         id="tspan50">-150</tspan><tspan
         style="font-variant:normal;font-weight:normal;font-size:16px;font-family:Helvetica;writing-mode:lr-tb;fill:#262626;fill-opacity:1;fill-rule:nonzero;stroke:none"
         x="0 5.3280001 14.224 23.120001"
         y="-56.166801"
         sodipodi:role="line"
         id="tspan51">-100</tspan><tspan
         style="font-variant:normal;font-weight:normal;font-size:16px;font-family:Helvetica;writing-mode:lr-tb;fill:#262626;fill-opacity:1;fill-rule:nonzero;stroke:none"
         x="8 13.328 22.224001"
         y="-112.3332"
         sodipodi:role="line"
         id="tspan52">-50</tspan><tspan
         style="font-variant:normal;font-weight:normal;font-size:16px;font-family:Helvetica;writing-mode:lr-tb;fill:#262626;fill-opacity:1;fill-rule:nonzero;stroke:none"
         x="24"
         y="-168.5"
         id="tspan53">0</tspan><tspan
         style="font-variant:normal;font-weight:normal;font-size:16px;font-family:Helvetica;writing-mode:lr-tb;fill:#262626;fill-opacity:1;fill-rule:nonzero;stroke:none"
         x="15 23.896"
         y="-224.66679"
         sodipodi:role="line"
         id="tspan54">50</tspan><tspan
         style="font-variant:normal;font-weight:normal;font-size:16px;font-family:Helvetica;writing-mode:lr-tb;fill:#262626;fill-opacity:1;fill-rule:nonzero;stroke:none"
         x="6 14.896 23.792"
         y="-280.83319"
         sodipodi:role="line"
         id="tspan55">100</tspan><tspan
         style="font-variant:normal;font-weight:normal;font-size:16px;font-family:Helvetica;writing-mode:lr-tb;fill:#262626;fill-opacity:1;fill-rule:nonzero;stroke:none"
         x="6 14.896 23.792"
         y="-337"
         sodipodi:role="line"
         id="tspan56">150</tspan></text>
    <text
       id="text56"
       xml:space="preserve"
       transform="matrix(0,-1.3333333,1.3333333,0,37.333333,358.66667)"><tspan
         style="font-variant:normal;font-weight:normal;font-size:17.6px;font-family:Helvetica;writing-mode:lr-tb;fill:#262626;fill-opacity:1;fill-rule:nonzero;stroke:none"
         x="0 12.7072 22.4928 32.2784 41.0784 45.971199 50.863998 60.649601 70.435204 80.220802 84.127998 93.913597"
         y="0"
         sodipodi:role="line"
         id="tspan57">Coast angle </tspan></text>
    <path
       id="path57"
       d="m 282.031,2538.28 c 0,-5.32 -1.929,-9.58 -5.781,-12.81 -3.961,-3.13 -8.699,-5.31 -14.219,-6.56 -5.519,-1.25 -10.937,-1.88 -16.25,-1.88 h -0.16 c -5.933,0 -12.027,0.57 -18.281,1.72 -6.352,1.15 -12.652,2.76 -18.899,4.84 -6.253,2.09 -11.828,4.38 -16.722,6.88 -3.438,1.67 -7.293,3.85 -11.559,6.56 -4.273,2.81 -8.234,5.89 -11.879,9.22 -3.648,3.33 -6.617,6.93 -8.91,10.78 -2.289,3.85 -3.43,7.76 -3.43,11.72 v 0.16 c 0,4.27 1.196,7.8 3.59,10.62 2.293,2.81 5.313,5 9.059,6.56 3.648,1.67 7.555,2.81 11.719,3.44 4.168,0.63 8.129,0.94 11.882,0.94 8.852,0 17.911,-1.25 27.18,-3.75 9.274,-2.39 18.231,-5.67 26.879,-9.84 3.227,-1.67 7.078,-3.91 11.559,-6.72 4.375,-2.81 8.336,-5.84 11.882,-9.07 3.434,-3.12 6.348,-6.66 8.75,-10.62 2.391,-3.96 3.59,-7.92 3.59,-11.88 z m -4.691,0.47 c 0,3.85 -2.082,7.55 -6.25,11.09 -4.168,3.65 -9.215,6.77 -15.149,9.38 -5.941,2.71 -11.984,5.05 -18.132,7.03 -6.246,2.09 -11.559,3.65 -15.938,4.69 V 2535 c 7.399,-1.87 13.805,-3.33 19.219,-4.37 5.312,-0.94 10.574,-1.41 15.781,-1.41 13.645,0 20.469,3.18 20.469,9.53 z m -61.559,-2.34 v 36.09 c -5.207,1.25 -9.531,2.24 -12.972,2.97 -3.434,0.73 -7.079,1.35 -10.938,1.87 -3.855,0.53 -7.449,0.79 -10.781,0.79 -13.746,0 -20.621,-3.13 -20.621,-9.38 0,-7.39 6.043,-13.8 18.121,-19.22 11.98,-5.41 24.375,-9.79 37.191,-13.12"
       style="fill:#262626;fill-opacity:1;fill-rule:nonzero;stroke:none"
       transform="matrix(0.13333333,0,0,-0.13333333,0,560)" />
    <text
       id="text57"
       xml:space="preserve"
       transform="matrix(0,-1.3333333,1.3333333,0,37.333333,206.8096)"><tspan
         style="font-variant:normal;font-weight:normal;font-size:17.6px;font-family:Helvetica;writing-mode:lr-tb;fill:#262626;fill-opacity:1;fill-rule:nonzero;stroke:none"
         x="0 3.9072001 13.6928"
         y="0"
         sodipodi:role="line"
         id="tspan58">in </tspan><tspan
         style="font-variant:normal;font-weight:normal;font-size:14.08px;font-family:Courier;writing-mode:lr-tb;fill:#262626;fill-opacity:1;fill-rule:nonzero;stroke:none"
         x="19.107201"
         y="-8"
         id="tspan59">°</tspan></text>
    <text
       id="text59"
       xml:space="preserve"
       transform="matrix(1.3333333,0,0,1.3333333,286.66667,30.666667)"><tspan
         style="font-variant:normal;font-weight:700;font-size:17.6px;font-family:Helvetica;writing-mode:lr-tb;fill:#000000;fill-opacity:1;fill-rule:nonzero;stroke:none"
         x="0 11.7392 16.632 26.9104 31.8032 41.588799 51.374401 67.020798 71.913597 81.699203 86.592003"
         y="0"
         sodipodi:role="line"
         id="tspan60">V = 22m/s, </tspan></text>
    <path
       id="path60"
       d="m 3098.44,3991.72 c 0,4.17 0.68,8.59 2.03,13.28 l 6.56,26.56 c 0.73,2.92 1.1,5.48 1.1,7.66 0,2.61 -0.52,3.91 -1.57,3.91 -1.98,0 -3.7,-1.77 -5.15,-5.32 -1.46,-3.54 -2.97,-8.43 -4.53,-14.68 0,-1.25 -0.57,-2.3 -1.72,-3.13 -1.15,-0.73 -2.24,-1.09 -3.28,-1.09 h -2.04 c -1.67,0 -2.96,0.57 -3.9,1.72 -0.83,1.25 -1.25,2.6 -1.25,4.06 1.35,5.41 2.65,10 3.9,13.75 1.36,3.85 3.5,7.55 6.41,11.09 3.02,3.65 6.93,5.47 11.72,5.47 5.83,0 10.68,-1.87 14.53,-5.62 3.96,-3.75 5.94,-8.49 5.94,-14.22 0,-1.98 -0.26,-3.96 -0.78,-5.94 l -6.72,-26.56 c -1.25,-4.9 -1.93,-9.22 -2.03,-12.97 0,-6.56 3.13,-9.85 9.37,-9.85 3.96,0 7.97,3.29 12.03,9.85 4.07,6.56 7.51,14.01 10.32,22.34 2.81,8.44 4.94,15.58 6.4,21.41 -18.85,6.15 -28.28,16.77 -28.28,31.87 0,5.21 1.25,10.58 3.75,16.1 2.61,5.52 6.2,10.21 10.78,14.06 4.69,3.85 9.85,5.78 15.47,5.78 4.89,0 8.9,-1.41 12.03,-4.22 3.23,-2.82 5.63,-6.25 7.19,-10.31 1.67,-3.96 2.76,-7.97 3.28,-12.03 0.63,-4.06 0.94,-8.18 0.94,-12.35 0,-7.39 -1.67,-15.57 -5,-24.53 0.31,1.35 1.15,1.88 2.5,1.57 1.35,-0.31 2.97,-0.84 4.84,-1.57 1.87,-0.62 2.81,-2.23 2.81,-4.84 -0.73,-4.06 -2.81,-6.09 -6.25,-6.09 -1.04,0.31 -2.18,0.57 -3.43,0.78 -1.15,0.21 -1.67,0.63 -1.57,1.25 -1.14,-6.57 -4,-14.64 -8.59,-24.22 -4.48,-9.59 -10.16,-18.13 -17.03,-25.63 -6.77,-7.39 -14.22,-11.09 -22.34,-11.09 -8.13,0 -14.9,1.82 -20.32,5.47 -5.41,3.75 -8.12,9.84 -8.12,18.28 z m 60,53.12 c 2.71,10.63 4.06,19.9 4.06,27.82 0,11.25 -1.77,16.87 -5.31,16.87 -3.02,0 -5.89,-1.25 -8.6,-3.75 -2.6,-2.5 -4.73,-5.68 -6.4,-9.53 -1.67,-3.85 -2.5,-7.39 -2.5,-10.62 0,-9.27 6.25,-16.2 18.75,-20.79"
       style="fill:#000000;fill-opacity:1;fill-rule:nonzero;stroke:none"
       transform="matrix(0.13333333,0,0,-0.13333333,0,560)" />
    <text
       id="text60"
       xml:space="preserve"
       transform="matrix(1.3333333,0,0,1.3333333,431.85707,30.666667)"><tspan
         style="font-variant:normal;font-weight:700;font-size:17.6px;font-family:Helvetica;writing-mode:lr-tb;fill:#000000;fill-opacity:1;fill-rule:nonzero;stroke:none"
         x="0 10.2784 15.1712 21.032"
         y="0"
         sodipodi:role="line"
         id="tspan61">= -6</tspan><tspan
         style="font-variant:normal;font-weight:700;font-size:14.08px;font-family:Courier;writing-mode:lr-tb;fill:#000000;fill-opacity:1;fill-rule:nonzero;stroke:none"
         x="33.107201"
         y="-8"
         id="tspan62">°</tspan></text>
    <path
       id="path62"
       d="m 695.246,1806.76 h 80 v 80 h -80 z"
       style="fill:#0000ff;fill-opacity:1;fill-rule:nonzero;stroke:#0000ff;stroke-width:5;stroke-linecap:butt;stroke-linejoin:miter;stroke-miterlimit:10;stroke-dasharray:none;stroke-opacity:1"
       transform="matrix(0.13333333,0,0,-0.13333333,0,560)" />
    <path
       id="path63"
       d="m 1258.26,1745.25 h 80 v 80 h -80 z"
       style="fill:#0000ff;fill-opacity:1;fill-rule:nonzero;stroke:#0000ff;stroke-width:5;stroke-linecap:butt;stroke-linejoin:miter;stroke-miterlimit:10;stroke-dasharray:none;stroke-opacity:1"
       transform="matrix(0.13333333,0,0,-0.13333333,0,560)" />
    <path
       id="path64"
       d="m 1846.79,1665.49 h 80 v 80 h -80 z"
       style="fill:#0000ff;fill-opacity:1;fill-rule:nonzero;stroke:#0000ff;stroke-width:5;stroke-linecap:butt;stroke-linejoin:miter;stroke-miterlimit:10;stroke-dasharray:none;stroke-opacity:1"
       transform="matrix(0.13333333,0,0,-0.13333333,0,560)" />
    <path
       id="path65"
       d="m 2447.8,1518.92 h 80 v 80 h -80 z"
       style="fill:#0000ff;fill-opacity:1;fill-rule:nonzero;stroke:#0000ff;stroke-width:5;stroke-linecap:butt;stroke-linejoin:miter;stroke-miterlimit:10;stroke-dasharray:none;stroke-opacity:1"
       transform="matrix(0.13333333,0,0,-0.13333333,0,560)" />
    <path
       id="path66"
       d="m 2984.26,1257.07 h 80 v 80 h -80 z"
       style="fill:#0000ff;fill-opacity:1;fill-rule:nonzero;stroke:#0000ff;stroke-width:5;stroke-linecap:butt;stroke-linejoin:miter;stroke-miterlimit:10;stroke-dasharray:none;stroke-opacity:1"
       transform="matrix(0.13333333,0,0,-0.13333333,0,560)" />
    <path
       id="path67"
       d="m 3584.44,934.41 h 80 v 80 h -80 z"
       style="fill:#0000ff;fill-opacity:1;fill-rule:nonzero;stroke:#0000ff;stroke-width:5;stroke-linecap:butt;stroke-linejoin:miter;stroke-miterlimit:10;stroke-dasharray:none;stroke-opacity:1"
       transform="matrix(0.13333333,0,0,-0.13333333,0,560)" />
    <path
       id="path68"
       d="m 3737.61,837.043 h 80 v 80 h -80 z"
       style="fill:#0000ff;fill-opacity:1;fill-rule:nonzero;stroke:#0000ff;stroke-width:5;stroke-linecap:butt;stroke-linejoin:miter;stroke-miterlimit:10;stroke-dasharray:none;stroke-opacity:1"
       transform="matrix(0.13333333,0,0,-0.13333333,0,560)" />
    <path
       id="path69"
       d="m 3890.86,757.891 h 80 v 80 h -80 z"
       style="fill:#0000ff;fill-opacity:1;fill-rule:nonzero;stroke:#0000ff;stroke-width:5;stroke-linecap:butt;stroke-linejoin:miter;stroke-miterlimit:10;stroke-dasharray:none;stroke-opacity:1"
       transform="matrix(0.13333333,0,0,-0.13333333,0,560)" />
    <path
       id="path70"
       d="m 798.598,1962.11 c 0,27.61 -22.391,50 -50,50 -27.61,0 -50,-22.39 -50,-50 0,-27.61 22.39,-50 50,-50 27.609,0 50,22.39 50,50"
       style="fill:#0072bd;fill-opacity:1;fill-rule:nonzero;stroke:none"
       transform="matrix(0.13333333,0,0,-0.13333333,0,560)" />
    <path
       id="path71"
       d="m 748.598,2009.61 c 26.23,0 47.5,-21.27 47.5,-47.5 v 0 c 0,-26.23 -21.27,-47.5 -47.5,-47.5 -26.231,0 -47.5,21.27 -47.5,47.5 0,26.23 21.269,47.5 47.5,47.5 z m 0,5 c -28.989,0 -52.5,-23.51 -52.5,-52.5 0,-28.99 23.511,-52.5 52.5,-52.5 28.992,0 52.5,23.51 52.5,52.5 v 0 c 0,28.99 -23.508,52.5 -52.5,52.5"
       style="fill:#0072bd;fill-opacity:1;fill-rule:nonzero;stroke:none"
       transform="matrix(0.13333333,0,0,-0.13333333,0,560)" />
    <path
       id="path72"
       d="m 1630.46,1900.23 c 0,27.61 -22.39,50 -50,50 -27.61,0 -50,-22.39 -50,-50 0,-27.61 22.39,-50 50,-50 27.61,0 50,22.39 50,50"
       style="fill:#0072bd;fill-opacity:1;fill-rule:nonzero;stroke:none"
       transform="matrix(0.13333333,0,0,-0.13333333,0,560)" />
    <path
       id="path73"
       d="m 1580.46,1947.73 c 26.23,0 47.5,-21.27 47.5,-47.5 v 0 c 0,-26.23 -21.27,-47.5 -47.5,-47.5 -26.23,0 -47.5,21.27 -47.5,47.5 0,26.23 21.27,47.5 47.5,47.5 z m 0,5 c -28.99,0 -52.5,-23.52 -52.5,-52.5 0,-29 23.51,-52.5 52.5,-52.5 28.99,0 52.5,23.5 52.5,52.5 v 0 c 0,28.98 -23.51,52.5 -52.5,52.5"
       style="fill:#0072bd;fill-opacity:1;fill-rule:nonzero;stroke:none"
       transform="matrix(0.13333333,0,0,-0.13333333,0,560)" />
    <path
       id="path74"
       d="m 2244.56,1814.36 c 0,27.61 -22.39,50 -50,50 -27.61,0 -50,-22.39 -50,-50 0,-27.61 22.39,-50 50,-50 27.61,0 50,22.39 50,50"
       style="fill:#0072bd;fill-opacity:1;fill-rule:nonzero;stroke:none"
       transform="matrix(0.13333333,0,0,-0.13333333,0,560)" />
    <path
       id="path75"
       d="m 2194.56,1861.86 c 26.23,0 47.5,-21.27 47.5,-47.5 v 0 c 0,-26.23 -21.27,-47.5 -47.5,-47.5 -26.23,0 -47.5,21.27 -47.5,47.5 0,26.23 21.27,47.5 47.5,47.5 z m 0,5 c -28.99,0 -52.5,-23.51 -52.5,-52.5 0,-28.99 23.51,-52.5 52.5,-52.5 28.99,0 52.5,23.51 52.5,52.5 v 0 c 0,28.99 -23.51,52.5 -52.5,52.5"
       style="fill:#0072bd;fill-opacity:1;fill-rule:nonzero;stroke:none"
       transform="matrix(0.13333333,0,0,-0.13333333,0,560)" />
    <path
       id="path76"
       d="m 3406.75,1217.67 c 0,27.61 -22.39,50 -50,50 -27.62,0 -50,-22.39 -50,-50 0,-27.61 22.38,-50 50,-50 27.61,0 50,22.39 50,50"
       style="fill:#0072bd;fill-opacity:1;fill-rule:nonzero;stroke:none"
       transform="matrix(0.13333333,0,0,-0.13333333,0,560)" />
    <path
       id="path77"
       d="m 3356.75,1265.17 c 26.22,0 47.5,-21.27 47.5,-47.5 v 0 c 0,-26.23 -21.28,-47.5 -47.5,-47.5 -26.23,0 -47.5,21.27 -47.5,47.5 0,26.23 21.27,47.5 47.5,47.5 z m 0,5 c -29,0 -52.5,-23.51 -52.5,-52.5 0,-28.99 23.5,-52.5 52.5,-52.5 28.98,0 52.5,23.51 52.5,52.5 v 0 c 0,28.99 -23.52,52.5 -52.5,52.5"
       style="fill:#0072bd;fill-opacity:1;fill-rule:nonzero;stroke:none"
       transform="matrix(0.13333333,0,0,-0.13333333,0,560)" />
    <path
       id="path78"
       d="m 3534.02,1059.62 c 0,27.61 -22.39,50 -50,50 -27.61,0 -50,-22.39 -50,-50 0,-27.61 22.39,-50 50,-50 27.61,0 50,22.39 50,50"
       style="fill:#0072bd;fill-opacity:1;fill-rule:nonzero;stroke:none"
       transform="matrix(0.13333333,0,0,-0.13333333,0,560)" />
    <path
       id="path79"
       d="m 3484.02,1107.12 c 26.23,0 47.5,-21.27 47.5,-47.5 v 0 c 0,-26.23 -21.27,-47.5 -47.5,-47.5 -26.23,0 -47.5,21.27 -47.5,47.5 0,26.23 21.27,47.5 47.5,47.5 z m 0,5 c -28.99,0 -52.5,-23.51 -52.5,-52.5 0,-28.99 23.51,-52.5 52.5,-52.5 28.99,0 52.5,23.51 52.5,52.5 v 0 c 0,28.99 -23.51,52.5 -52.5,52.5"
       style="fill:#0072bd;fill-opacity:1;fill-rule:nonzero;stroke:none"
       transform="matrix(0.13333333,0,0,-0.13333333,0,560)" />
    <path
       id="path80"
       d="m 3699.61,883.293 c 0,27.609 -22.39,50 -50,50 -27.61,0 -50,-22.391 -50,-50 0,-27.609 22.39,-50 50,-50 27.61,0 50,22.391 50,50"
       style="fill:#0072bd;fill-opacity:1;fill-rule:nonzero;stroke:none"
       transform="matrix(0.13333333,0,0,-0.13333333,0,560)" />
    <path
       id="path81"
       d="m 3649.61,930.793 c 26.23,0 47.5,-21.27 47.5,-47.5 v 0 c 0,-26.23 -21.27,-47.5 -47.5,-47.5 -26.23,0 -47.5,21.27 -47.5,47.5 0,26.23 21.27,47.5 47.5,47.5 z m 0,5 c -28.99,0 -52.5,-23.508 -52.5,-52.5 0,-28.988 23.51,-52.5 52.5,-52.5 28.99,0 52.5,23.512 52.5,52.5 v 0 c 0,28.992 -23.51,52.5 -52.5,52.5"
       style="fill:#0072bd;fill-opacity:1;fill-rule:nonzero;stroke:none"
       transform="matrix(0.13333333,0,0,-0.13333333,0,560)" />
    <path
       id="path82"
       d="m 3750.5,816.43 c 0,27.609 -22.39,50 -50,50 -27.61,0 -50,-22.391 -50,-50 0,-27.61 22.39,-50 50,-50 27.61,0 50,22.39 50,50"
       style="fill:#0072bd;fill-opacity:1;fill-rule:nonzero;stroke:none"
       transform="matrix(0.13333333,0,0,-0.13333333,0,560)" />
    <path
       id="path83"
       d="m 3700.5,863.93 c 26.23,0 47.5,-21.27 47.5,-47.5 v 0 c 0,-26.231 -21.27,-47.5 -47.5,-47.5 -26.23,0 -47.5,21.269 -47.5,47.5 0,26.23 21.27,47.5 47.5,47.5 z m 0,5 c -28.99,0 -52.5,-23.508 -52.5,-52.5 0,-28.989 23.51,-52.5 52.5,-52.5 28.99,0 52.5,23.511 52.5,52.5 v 0 c 0,28.992 -23.51,52.5 -52.5,52.5"
       style="fill:#0072bd;fill-opacity:1;fill-rule:nonzero;stroke:none"
       transform="matrix(0.13333333,0,0,-0.13333333,0,560)" />
    <path
       id="path84"
       d="m 3827.11,773.82 c 0,27.61 -22.38,50 -50,50 -27.61,0 -50,-22.39 -50,-50 0,-27.613 22.39,-50 50,-50 27.62,0 50,22.387 50,50"
       style="fill:#0072bd;fill-opacity:1;fill-rule:nonzero;stroke:none"
       transform="matrix(0.13333333,0,0,-0.13333333,0,560)" />
    <path
       id="path85"
       d="m 3777.11,821.32 c 26.23,0 47.5,-21.273 47.5,-47.5 v 0 c 0,-26.23 -21.27,-47.5 -47.5,-47.5 -26.23,0 -47.5,21.27 -47.5,47.5 0,26.227 21.27,47.5 47.5,47.5 z m 0,5 c -28.98,0 -52.5,-23.511 -52.5,-52.5 0,-28.992 23.52,-52.5 52.5,-52.5 29,0 52.5,23.508 52.5,52.5 v 0 c 0,28.989 -23.5,52.5 -52.5,52.5"
       style="fill:#0072bd;fill-opacity:1;fill-rule:nonzero;stroke:none"
       transform="matrix(0.13333333,0,0,-0.13333333,0,560)" />
    <path
       id="path86"
       d="m 686.316,2071.43 50,-66.5 50,66.5 -50,66.5 z"
       style="fill:#4dbeee;fill-opacity:1;fill-rule:nonzero;stroke:#4dbeee;stroke-width:5;stroke-linecap:butt;stroke-linejoin:miter;stroke-miterlimit:10;stroke-dasharray:none;stroke-opacity:1"
       transform="matrix(0.13333333,0,0,-0.13333333,0,560)" />
    <path
       id="path87"
       d="m 1275.19,2064.53 50,-66.5 50,66.5 -50,66.5 z"
       style="fill:#4dbeee;fill-opacity:1;fill-rule:nonzero;stroke:#4dbeee;stroke-width:5;stroke-linecap:butt;stroke-linejoin:miter;stroke-miterlimit:10;stroke-dasharray:none;stroke-opacity:1"
       transform="matrix(0.13333333,0,0,-0.13333333,0,560)" />
    <path
       id="path88"
       d="m 1864.01,2045.49 50,-66.5 50,66.5 -50,66.5 z"
       style="fill:#4dbeee;fill-opacity:1;fill-rule:nonzero;stroke:#4dbeee;stroke-width:5;stroke-linecap:butt;stroke-linejoin:miter;stroke-miterlimit:10;stroke-dasharray:none;stroke-opacity:1"
       transform="matrix(0.13333333,0,0,-0.13333333,0,560)" />
    <path
       id="path89"
       d="m 2401.41,1984.02 50,-66.5 50,66.5 -50,66.5 z"
       style="fill:#4dbeee;fill-opacity:1;fill-rule:nonzero;stroke:#4dbeee;stroke-width:5;stroke-linecap:butt;stroke-linejoin:miter;stroke-miterlimit:10;stroke-dasharray:none;stroke-opacity:1"
       transform="matrix(0.13333333,0,0,-0.13333333,0,560)" />
    <path
       id="path90"
       d="m 3002.49,1849.59 50,-66.5 50,66.5 -50,66.5 z"
       style="fill:#4dbeee;fill-opacity:1;fill-rule:nonzero;stroke:#4dbeee;stroke-width:5;stroke-linecap:butt;stroke-linejoin:miter;stroke-miterlimit:10;stroke-dasharray:none;stroke-opacity:1"
       transform="matrix(0.13333333,0,0,-0.13333333,0,560)" />
    <path
       id="path91"
       d="m 3282.7,1545.59 50,-66.5 50,66.5 -50,66.5 z"
       style="fill:#4dbeee;fill-opacity:1;fill-rule:nonzero;stroke:#4dbeee;stroke-width:5;stroke-linecap:butt;stroke-linejoin:miter;stroke-miterlimit:10;stroke-dasharray:none;stroke-opacity:1"
       transform="matrix(0.13333333,0,0,-0.13333333,0,560)" />
    <path
       id="path92"
       d="m 3420.73,956.41 50,-66.5 50,66.5 -50,66.5 z"
       style="fill:#4dbeee;fill-opacity:1;fill-rule:nonzero;stroke:#4dbeee;stroke-width:5;stroke-linecap:butt;stroke-linejoin:miter;stroke-miterlimit:10;stroke-dasharray:none;stroke-opacity:1"
       transform="matrix(0.13333333,0,0,-0.13333333,0,560)" />
    <path
       id="path93"
       d="m 3496.67,774.141 50,-66.5 50,66.5 -50,66.5 z"
       style="fill:#4dbeee;fill-opacity:1;fill-rule:nonzero;stroke:#4dbeee;stroke-width:5;stroke-linecap:butt;stroke-linejoin:miter;stroke-miterlimit:10;stroke-dasharray:none;stroke-opacity:1"
       transform="matrix(0.13333333,0,0,-0.13333333,0,560)" />
    <path
       id="path94"
       d="m 1607.56,2149.29 -57.72,99.96 h 115.44"
       style="fill:#edb120;fill-opacity:1;fill-rule:nonzero;stroke:none"
       transform="matrix(0.13333333,0,0,-0.13333333,0,560)" />
    <path
       id="path95"
       d="m 1607.56,2149.29 -57.72,99.96 h 115.44 z"
       style="fill:none;stroke:#edb120;stroke-width:5;stroke-linecap:butt;stroke-linejoin:miter;stroke-miterlimit:10;stroke-dasharray:none;stroke-opacity:1"
       transform="matrix(0.13333333,0,0,-0.13333333,0,560)" />
    <path
       id="path96"
       d="m 2196.52,2160.61 -57.72,99.96 h 115.44"
       style="fill:#edb120;fill-opacity:1;fill-rule:nonzero;stroke:none"
       transform="matrix(0.13333333,0,0,-0.13333333,0,560)" />
    <path
       id="path97"
       d="m 2196.52,2160.61 -57.72,99.96 h 115.44 z"
       style="fill:none;stroke:#edb120;stroke-width:5;stroke-linecap:butt;stroke-linejoin:miter;stroke-miterlimit:10;stroke-dasharray:none;stroke-opacity:1"
       transform="matrix(0.13333333,0,0,-0.13333333,0,560)" />
    <path
       id="path98"
       d="m 3374.82,2262.18 -57.72,99.97 h 115.44"
       style="fill:#edb120;fill-opacity:1;fill-rule:nonzero;stroke:none"
       transform="matrix(0.13333333,0,0,-0.13333333,0,560)" />
    <path
       id="path99"
       d="m 3374.82,2262.18 -57.72,99.97 h 115.44 z"
       style="fill:none;stroke:#edb120;stroke-width:5;stroke-linecap:butt;stroke-linejoin:miter;stroke-miterlimit:10;stroke-dasharray:none;stroke-opacity:1"
       transform="matrix(0.13333333,0,0,-0.13333333,0,560)" />
    <path
       id="path100"
       d="m 3618.5,2352.92 -57.72,99.97 h 115.44"
       style="fill:#edb120;fill-opacity:1;fill-rule:nonzero;stroke:none"
       transform="matrix(0.13333333,0,0,-0.13333333,0,560)" />
    <path
       id="path101"
       d="m 3618.5,2352.92 -57.72,99.97 h 115.44 z"
       style="fill:none;stroke:#edb120;stroke-width:5;stroke-linecap:butt;stroke-linejoin:miter;stroke-miterlimit:10;stroke-dasharray:none;stroke-opacity:1"
       transform="matrix(0.13333333,0,0,-0.13333333,0,560)" />
    <path
       id="path102"
       d="m 3926.85,2583.23 -57.72,99.97 h 115.44"
       style="fill:#edb120;fill-opacity:1;fill-rule:nonzero;stroke:none"
       transform="matrix(0.13333333,0,0,-0.13333333,0,560)" />
    <path
       id="path103"
       d="m 3926.85,2583.23 -57.72,99.97 h 115.44 z"
       style="fill:none;stroke:#edb120;stroke-width:5;stroke-linecap:butt;stroke-linejoin:miter;stroke-miterlimit:10;stroke-dasharray:none;stroke-opacity:1"
       transform="matrix(0.13333333,0,0,-0.13333333,0,560)" />
    <path
       id="path104"
       d="m 4210.57,3020.02 -57.71,99.97 h 115.44"
       style="fill:#edb120;fill-opacity:1;fill-rule:nonzero;stroke:none"
       transform="matrix(0.13333333,0,0,-0.13333333,0,560)" />
    <path
       id="path105"
       d="m 4210.57,3020.02 -57.71,99.97 h 115.44 z"
       style="fill:none;stroke:#edb120;stroke-width:5;stroke-linecap:butt;stroke-linejoin:miter;stroke-miterlimit:10;stroke-dasharray:none;stroke-opacity:1"
       transform="matrix(0.13333333,0,0,-0.13333333,0,560)" />
    <path
       id="path106"
       d="m 4506.82,3396.07 -57.73,99.98 h 115.45"
       style="fill:#edb120;fill-opacity:1;fill-rule:nonzero;stroke:none"
       transform="matrix(0.13333333,0,0,-0.13333333,0,560)" />
    <path
       id="path107"
       d="m 4506.82,3396.07 -57.73,99.98 h 115.45 z"
       style="fill:none;stroke:#edb120;stroke-width:5;stroke-linecap:butt;stroke-linejoin:miter;stroke-miterlimit:10;stroke-dasharray:none;stroke-opacity:1"
       transform="matrix(0.13333333,0,0,-0.13333333,0,560)" />
    <path
       id="path108"
       d="m 4673.85,3523.36 -57.72,99.96 h 115.44"
       style="fill:#edb120;fill-opacity:1;fill-rule:nonzero;stroke:none"
       transform="matrix(0.13333333,0,0,-0.13333333,0,560)" />
    <path
       id="path109"
       d="m 4673.85,3523.36 -57.72,99.96 h 115.44 z"
       style="fill:none;stroke:#edb120;stroke-width:5;stroke-linecap:butt;stroke-linejoin:miter;stroke-miterlimit:10;stroke-dasharray:none;stroke-opacity:1"
       transform="matrix(0.13333333,0,0,-0.13333333,0,560)" />
    <path
       id="path110"
       d="m 737.41,2368.81 -57.719,-99.97 h 115.438"
       style="fill:#d95319;fill-opacity:1;fill-rule:nonzero;stroke:none"
       transform="matrix(0.13333333,0,0,-0.13333333,0,560)" />
    <path
       id="path111"
       d="m 737.41,2368.81 -57.719,-99.97 h 115.438 z"
       style="fill:none;stroke:#d95319;stroke-width:5;stroke-linecap:butt;stroke-linejoin:miter;stroke-miterlimit:10;stroke-dasharray:none;stroke-opacity:1"
       transform="matrix(0.13333333,0,0,-0.13333333,0,560)" />
    <path
       id="path112"
       d="m 1313.66,2398.37 -57.72,-99.98 h 115.44"
       style="fill:#d95319;fill-opacity:1;fill-rule:nonzero;stroke:none"
       transform="matrix(0.13333333,0,0,-0.13333333,0,560)" />
    <path
       id="path113"
       d="m 1313.66,2398.37 -57.72,-99.98 h 115.44 z"
       style="fill:none;stroke:#d95319;stroke-width:5;stroke-linecap:butt;stroke-linejoin:miter;stroke-miterlimit:10;stroke-dasharray:none;stroke-opacity:1"
       transform="matrix(0.13333333,0,0,-0.13333333,0,560)" />
    <path
       id="path114"
       d="m 1889.96,2440.06 -57.72,-99.97 h 115.44"
       style="fill:#d95319;fill-opacity:1;fill-rule:nonzero;stroke:none"
       transform="matrix(0.13333333,0,0,-0.13333333,0,560)" />
    <path
       id="path115"
       d="m 1889.96,2440.06 -57.72,-99.97 h 115.44 z"
       style="fill:none;stroke:#d95319;stroke-width:5;stroke-linecap:butt;stroke-linejoin:miter;stroke-miterlimit:10;stroke-dasharray:none;stroke-opacity:1"
       transform="matrix(0.13333333,0,0,-0.13333333,0,560)" />
    <path
       id="path116"
       d="m 2466.38,2506.05 -57.72,-99.97 h 115.44"
       style="fill:#d95319;fill-opacity:1;fill-rule:nonzero;stroke:none"
       transform="matrix(0.13333333,0,0,-0.13333333,0,560)" />
    <path
       id="path117"
       d="m 2466.38,2506.05 -57.72,-99.97 h 115.44 z"
       style="fill:none;stroke:#d95319;stroke-width:5;stroke-linecap:butt;stroke-linejoin:miter;stroke-miterlimit:10;stroke-dasharray:none;stroke-opacity:1"
       transform="matrix(0.13333333,0,0,-0.13333333,0,560)" />
    <path
       id="path118"
       d="m 3043,2614.54 -57.72,-99.97 h 115.44"
       style="fill:#d95319;fill-opacity:1;fill-rule:nonzero;stroke:none"
       transform="matrix(0.13333333,0,0,-0.13333333,0,560)" />
    <path
       id="path119"
       d="m 3043,2614.54 -57.72,-99.97 h 115.44 z"
       style="fill:none;stroke:#d95319;stroke-width:5;stroke-linecap:butt;stroke-linejoin:miter;stroke-miterlimit:10;stroke-dasharray:none;stroke-opacity:1"
       transform="matrix(0.13333333,0,0,-0.13333333,0,560)" />
    <path
       id="path120"
       d="m 3620.14,2832.33 -57.72,-99.97 h 115.44"
       style="fill:#d95319;fill-opacity:1;fill-rule:nonzero;stroke:none"
       transform="matrix(0.13333333,0,0,-0.13333333,0,560)" />
    <path
       id="path121"
       d="m 3620.14,2832.33 -57.72,-99.97 h 115.44 z"
       style="fill:none;stroke:#d95319;stroke-width:5;stroke-linecap:butt;stroke-linejoin:miter;stroke-miterlimit:10;stroke-dasharray:none;stroke-opacity:1"
       transform="matrix(0.13333333,0,0,-0.13333333,0,560)" />
    <path
       id="path122"
       d="m 4236.5,3220.08 -57.72,-99.97 h 115.44"
       style="fill:#d95319;fill-opacity:1;fill-rule:nonzero;stroke:none"
       transform="matrix(0.13333333,0,0,-0.13333333,0,560)" />
    <path
       id="path123"
       d="m 4236.5,3220.08 -57.72,-99.97 h 115.44 z"
       style="fill:none;stroke:#d95319;stroke-width:5;stroke-linecap:butt;stroke-linejoin:miter;stroke-miterlimit:10;stroke-dasharray:none;stroke-opacity:1"
       transform="matrix(0.13333333,0,0,-0.13333333,0,560)" />
    <path
       id="path124"
       d="m 4519.24,3450.42 -57.72,-99.97 h 115.44"
       style="fill:#d95319;fill-opacity:1;fill-rule:nonzero;stroke:none"
       transform="matrix(0.13333333,0,0,-0.13333333,0,560)" />
    <path
       id="path125"
       d="m 4519.24,3450.42 -57.72,-99.97 h 115.44 z"
       style="fill:none;stroke:#d95319;stroke-width:5;stroke-linecap:butt;stroke-linejoin:miter;stroke-miterlimit:10;stroke-dasharray:none;stroke-opacity:1"
       transform="matrix(0.13333333,0,0,-0.13333333,0,560)" />
    <path
       id="path126"
       d="m 4775.98,3595.79 -57.72,-99.97 h 115.44"
       style="fill:#d95319;fill-opacity:1;fill-rule:nonzero;stroke:none"
       transform="matrix(0.13333333,0,0,-0.13333333,0,560)" />
    <path
       id="path127"
       d="m 4775.98,3595.79 -57.72,-99.97 h 115.44 z"
       style="fill:none;stroke:#d95319;stroke-width:5;stroke-linecap:butt;stroke-linejoin:miter;stroke-miterlimit:10;stroke-dasharray:none;stroke-opacity:1"
       transform="matrix(0.13333333,0,0,-0.13333333,0,560)" />
    <path
       id="path128"
       d="m 4853.02,3644.26 -57.72,-99.97 h 115.45"
       style="fill:#d95319;fill-opacity:1;fill-rule:nonzero;stroke:none"
       transform="matrix(0.13333333,0,0,-0.13333333,0,560)" />
    <path
       id="path129"
       d="m 4853.02,3644.26 -57.72,-99.97 h 115.45 z"
       style="fill:none;stroke:#d95319;stroke-width:5;stroke-linecap:butt;stroke-linejoin:miter;stroke-miterlimit:10;stroke-dasharray:none;stroke-opacity:1"
       transform="matrix(0.13333333,0,0,-0.13333333,0,560)" />
    <path
       id="path130"
       d="m 4904.35,3668.48 -57.72,-99.97 h 115.44"
       style="fill:#d95319;fill-opacity:1;fill-rule:nonzero;stroke:none"
       transform="matrix(0.13333333,0,0,-0.13333333,0,560)" />
    <path
       id="path131"
       d="m 4904.35,3668.48 -57.72,-99.97 h 115.44 z"
       style="fill:none;stroke:#d95319;stroke-width:5;stroke-linecap:butt;stroke-linejoin:miter;stroke-miterlimit:10;stroke-dasharray:none;stroke-opacity:1"
       transform="matrix(0.13333333,0,0,-0.13333333,0,560)" />
    <path
       id="path132"
       d="m 1675.36,2458.82 -99.97,57.72 V 2401.1"
       style="fill:#a2142f;fill-opacity:1;fill-rule:nonzero;stroke:none"
       transform="matrix(0.13333333,0,0,-0.13333333,0,560)" />
    <path
       id="path133"
       d="m 1675.36,2458.82 -99.97,57.72 V 2401.1 Z"
       style="fill:none;stroke:#a2142f;stroke-width:5;stroke-linecap:butt;stroke-linejoin:miter;stroke-miterlimit:10;stroke-dasharray:none;stroke-opacity:1"
       transform="matrix(0.13333333,0,0,-0.13333333,0,560)" />
    <path
       id="path134"
       d="m 2251.84,2536.95 -99.97,57.72 v -115.44"
       style="fill:#a2142f;fill-opacity:1;fill-rule:nonzero;stroke:none"
       transform="matrix(0.13333333,0,0,-0.13333333,0,560)" />
    <path
       id="path135"
       d="m 2251.84,2536.95 -99.97,57.72 v -115.44 z"
       style="fill:none;stroke:#a2142f;stroke-width:5;stroke-linecap:butt;stroke-linejoin:miter;stroke-miterlimit:10;stroke-dasharray:none;stroke-opacity:1"
       transform="matrix(0.13333333,0,0,-0.13333333,0,560)" />
    <path
       id="path136"
       d="m 3405.4,2820.72 -99.97,57.72 V 2763"
       style="fill:#a2142f;fill-opacity:1;fill-rule:nonzero;stroke:none"
       transform="matrix(0.13333333,0,0,-0.13333333,0,560)" />
    <path
       id="path137"
       d="m 3405.4,2820.72 -99.97,57.72 V 2763 Z"
       style="fill:none;stroke:#a2142f;stroke-width:5;stroke-linecap:butt;stroke-linejoin:miter;stroke-miterlimit:10;stroke-dasharray:none;stroke-opacity:1"
       transform="matrix(0.13333333,0,0,-0.13333333,0,560)" />
    <path
       id="path138"
       d="m 4008.2,3050.62 -99.97,57.72 v -115.45"
       style="fill:#a2142f;fill-opacity:1;fill-rule:nonzero;stroke:none"
       transform="matrix(0.13333333,0,0,-0.13333333,0,560)" />
    <path
       id="path139"
       d="m 4008.2,3050.62 -99.97,57.72 v -115.45 z"
       style="fill:none;stroke:#a2142f;stroke-width:5;stroke-linecap:butt;stroke-linejoin:miter;stroke-miterlimit:10;stroke-dasharray:none;stroke-opacity:1"
       transform="matrix(0.13333333,0,0,-0.13333333,0,560)" />
    <path
       id="path140"
       d="M 4572.89,3341.29 4472.92,3399 V 3283.57"
       style="fill:#a2142f;fill-opacity:1;fill-rule:nonzero;stroke:none"
       transform="matrix(0.13333333,0,0,-0.13333333,0,560)" />
    <path
       id="path141"
       d="M 4572.89,3341.29 4472.92,3399 V 3283.57 Z"
       style="fill:none;stroke:#a2142f;stroke-width:5;stroke-linecap:butt;stroke-linejoin:miter;stroke-miterlimit:10;stroke-dasharray:none;stroke-opacity:1"
       transform="matrix(0.13333333,0,0,-0.13333333,0,560)" />
    <path
       id="path142"
       d="m 4855.2,3480.55 -99.97,57.72 v -115.44"
       style="fill:#a2142f;fill-opacity:1;fill-rule:nonzero;stroke:none"
       transform="matrix(0.13333333,0,0,-0.13333333,0,560)" />
    <path
       id="path143"
       d="m 4855.2,3480.55 -99.97,57.72 v -115.44 z"
       style="fill:none;stroke:#a2142f;stroke-width:5;stroke-linecap:butt;stroke-linejoin:miter;stroke-miterlimit:10;stroke-dasharray:none;stroke-opacity:1"
       transform="matrix(0.13333333,0,0,-0.13333333,0,560)" />
    <path
       id="path144"
       d="m 5021.86,3528.89 -99.97,57.72 v -115.44"
       style="fill:#a2142f;fill-opacity:1;fill-rule:nonzero;stroke:none"
       transform="matrix(0.13333333,0,0,-0.13333333,0,560)" />
    <path
       id="path145"
       d="m 5021.86,3528.89 -99.97,57.72 v -115.44 z"
       style="fill:none;stroke:#a2142f;stroke-width:5;stroke-linecap:butt;stroke-linejoin:miter;stroke-miterlimit:10;stroke-dasharray:none;stroke-opacity:1"
       transform="matrix(0.13333333,0,0,-0.13333333,0,560)" />
    <path
       id="path146"
       d="m 730,1870.76 144.672,-13.76 144.658,-14.91 144.67,-16.22 144.67,-17.69 144.66,-19.36 144.67,-21.26 144.67,-23.45 144.66,-25.97 144.67,-28.93 144.67,-32.43 144.66,-36.62 144.67,-41.76 144.67,-48.22 144.66,-56.57 144.67,-67.71 144.67,-81.6 144.66,-130.06"
       style="fill:none;stroke:#0000ff;stroke-width:20;stroke-linecap:butt;stroke-linejoin:round;stroke-miterlimit:10;stroke-dasharray:none;stroke-opacity:1"
       transform="matrix(0.13333333,0,0,-0.13333333,0,560)" />
    <path
       id="path147"
       d="m 730,1966.54 144.672,-10.72 144.658,-11.75 144.67,-12.94 144.67,-14.29 144.66,-15.86 144.67,-17.68 144.67,-19.8 144.66,-22.31 144.67,-25.3 144.67,-28.93 144.66,-33.38 144.67,-39.01 144.67,-46.33 144.66,-56.41 144.67,-71.51 144.67,-97.96 144.66,-152.24"
       style="fill:none;stroke:#0072bd;stroke-width:20;stroke-linecap:butt;stroke-linejoin:round;stroke-miterlimit:10;stroke-dasharray:none;stroke-opacity:1"
       transform="matrix(0.13333333,0,0,-0.13333333,0,560)" />
    <path
       id="path148"
       d="m 730,2073.51 144.672,-6.38 144.658,-7.11 144.67,-7.94 144.67,-8.94 144.66,-10.09 144.67,-11.46 144.67,-13.1 144.66,-15.09 144.67,-17.51 144.67,-20.52 144.66,-24.31 144.67,-29.16 144.67,-35.59 144.66,-44.37 144.67,-57.21 144.67,-78.38 144.66,-126.43 144.67,-261.13"
       style="fill:none;stroke:#4dbeee;stroke-width:20;stroke-linecap:butt;stroke-linejoin:round;stroke-miterlimit:10;stroke-dasharray:none;stroke-opacity:1"
       transform="matrix(0.13333333,0,0,-0.13333333,0,560)" />
    <path
       id="path149"
       d="m 730,2189.11 144.672,-0.85 144.658,-1.04 144.67,-1.27 144.67,-1.54 144.66,-1.86 144.67,-2.25 144.67,-2.72 144.66,-3.33 144.67,-4.08 144.67,-5.07 144.66,-6.38 144.67,-8.15 144.67,-10.66 144.66,-14.33 144.67,-19.99 144.67,-29.23 144.66,-45.56 144.67,-78.08 144.67,-174.3 144.66,-123.63"
       style="fill:none;stroke:#edb120;stroke-width:20;stroke-linecap:butt;stroke-linejoin:round;stroke-miterlimit:10;stroke-dasharray:none;stroke-opacity:1"
       transform="matrix(0.13333333,0,0,-0.13333333,0,560)" />
    <path
       id="path150"
       d="m 730,2307.88 144.672,5.17 144.658,5.63 144.67,6.17 144.67,6.81 144.66,7.57 144.67,8.51 144.67,9.65 144.66,11.09 144.67,12.91 144.67,15.27 144.66,18.36 144.67,22.56 144.67,28.33 144.66,36.41 144.67,47.68 144.67,62.52 144.66,78.9 144.67,91.04 144.67,93.96 144.66,88.76 144.67,79.05 144.67,60.98 144.66,35.75 144.67,25.45 144.67,19.45 144.66,14.37 144.67,13.31 144.67,12.8 144.66,12.28 144.67,11.72"
       style="fill:none;stroke:#d95319;stroke-width:20;stroke-linecap:butt;stroke-linejoin:round;stroke-miterlimit:10;stroke-dasharray:none;stroke-opacity:1"
       transform="matrix(0.13333333,0,0,-0.13333333,0,560)" />
    <path
       id="path151"
       d="m 730,2420.02 144.672,10.34 144.658,11.25 144.67,12.31 144.67,13.53 144.66,14.96 144.67,16.6 144.67,18.55 144.66,20.81 144.67,23.46 144.67,26.55 144.66,30.09 144.67,34.07 144.67,38.4 144.66,42.86 144.67,47.12 144.67,50.73 144.66,53.29 144.67,54.52 144.67,54.28 144.66,52.36 144.67,46.27 144.67,34.16 144.66,25.72 144.67,20.72 144.67,16.46"
       style="fill:none;stroke:#a2142f;stroke-width:20;stroke-linecap:butt;stroke-linejoin:round;stroke-miterlimit:10;stroke-dasharray:none;stroke-opacity:1"
       transform="matrix(0.13333333,0,0,-0.13333333,0,560)" />
    <path
       id="path152"
       d="m 810,3070 h 1760 v 740 H 810 Z"
       style="fill:#ffffff;fill-opacity:1;fill-rule:nonzero;stroke:none"
       transform="matrix(0.13333333,0,0,-0.13333333,0,560)" />
    <path
       id="path153"
       d="m 1208.91,3588.44 c -4.48,0 -8.49,1.04 -12.03,3.12 -3.55,2.19 -6.31,5.1 -8.29,8.75 -1.88,3.65 -2.81,7.82 -2.81,12.5 0,6.46 1.82,12.87 5.47,19.22 3.65,6.46 8.44,11.67 14.38,15.63 6.04,3.95 12.39,5.93 19.06,5.93 4.79,0 9.01,-1.3 12.65,-3.9 3.75,-2.5 6.57,-5.89 8.44,-10.16 1.98,-4.17 2.97,-8.7 2.97,-13.59 l 0.16,-9.53 c 3.33,4.48 6.09,9.17 8.28,14.06 2.29,4.89 4.06,9.99 5.31,15.31 0.21,0.52 0.57,0.78 1.09,0.78 h 1.72 c 0.83,0 1.25,-0.47 1.25,-1.4 0,0 0,-0.11 0,-0.32 -1.15,-4.47 -2.6,-8.74 -4.37,-12.81 -1.67,-3.96 -3.65,-7.87 -5.94,-11.72 -2.19,-3.75 -4.63,-7.18 -7.34,-10.31 0,-11.87 1.41,-17.81 4.22,-17.81 1.77,0 3.22,0.52 4.37,1.56 1.15,1.04 2.14,2.34 2.97,3.91 0.83,1.56 1.41,2.34 1.72,2.34 h 1.72 c 0.73,0 1.09,-0.47 1.09,-1.41 0,-2.39 -1.35,-4.68 -4.06,-6.87 -2.71,-2.18 -5.42,-3.28 -8.13,-3.28 -3.43,0 -6.3,1.1 -8.59,3.28 -2.29,2.29 -3.91,5.21 -4.84,8.75 -4.48,-3.76 -9.33,-6.72 -14.54,-8.91 -5.21,-2.08 -10.52,-3.12 -15.93,-3.12 z m 0.31,3.75 c 10.32,0 20.16,4.22 29.53,12.65 0,0.53 -0.05,1.21 -0.16,2.04 -0.1,0.83 -0.15,1.3 -0.15,1.4 v 15.47 c 0,17.39 -4.69,26.09 -14.06,26.09 -5.63,0 -10.58,-2.39 -14.85,-7.18 -4.17,-4.79 -7.34,-10.52 -9.53,-17.19 -2.08,-6.67 -3.12,-12.76 -3.12,-18.28 0,-4.17 1.04,-7.71 3.12,-10.63 2.19,-2.91 5.26,-4.37 9.22,-4.37"
       style="fill:#000000;fill-opacity:1;fill-rule:nonzero;stroke:none"
       transform="matrix(0.13333333,0,0,-0.13333333,0,560)" />
    <text
       id="text153"
       xml:space="preserve"
       transform="matrix(1.3333333,0,0,1.3333333,176.00427,81.333333)"><tspan
         style="font-variant:normal;font-weight:normal;font-size:14.4px;font-family:Helvetica;writing-mode:lr-tb;fill:#000000;fill-opacity:1;fill-rule:nonzero;stroke:none"
         x="0 8.4096003 12.4128 17.208"
         y="0"
         sodipodi:role="line"
         id="tspan153">= -3</tspan><tspan
         style="font-variant:normal;font-weight:normal;font-size:11.52px;font-family:Courier;writing-mode:lr-tb;fill:#000000;fill-opacity:1;fill-rule:nonzero;stroke:none"
         x="26.996799"
         y="-7"
         id="tspan154">°</tspan></text>
    <path
       id="path154"
       d="m 960,3635 h 80 v 80 h -80 z"
       style="fill:#0000ff;fill-opacity:1;fill-rule:nonzero;stroke:#0000ff;stroke-width:5;stroke-linecap:butt;stroke-linejoin:miter;stroke-miterlimit:10;stroke-dasharray:none;stroke-opacity:1"
       transform="matrix(0.13333333,0,0,-0.13333333,0,560)" />
    <path
       id="path155"
       d="m 1208.91,3358.44 c -4.48,0 -8.49,1.04 -12.03,3.12 -3.55,2.19 -6.31,5.1 -8.29,8.75 -1.88,3.65 -2.81,7.82 -2.81,12.5 0,6.46 1.82,12.87 5.47,19.22 3.65,6.46 8.44,11.67 14.38,15.63 6.04,3.95 12.39,5.93 19.06,5.93 4.79,0 9.01,-1.3 12.65,-3.9 3.75,-2.5 6.57,-5.89 8.44,-10.16 1.98,-4.17 2.97,-8.7 2.97,-13.59 l 0.16,-9.53 c 3.33,4.48 6.09,9.17 8.28,14.06 2.29,4.89 4.06,9.99 5.31,15.31 0.21,0.52 0.57,0.78 1.09,0.78 h 1.72 c 0.83,0 1.25,-0.47 1.25,-1.4 0,0 0,-0.11 0,-0.32 -1.15,-4.47 -2.6,-8.74 -4.37,-12.81 -1.67,-3.96 -3.65,-7.87 -5.94,-11.72 -2.19,-3.75 -4.63,-7.18 -7.34,-10.31 0,-11.87 1.41,-17.81 4.22,-17.81 1.77,0 3.22,0.52 4.37,1.56 1.15,1.04 2.14,2.34 2.97,3.91 0.83,1.56 1.41,2.34 1.72,2.34 h 1.72 c 0.73,0 1.09,-0.47 1.09,-1.41 0,-2.39 -1.35,-4.68 -4.06,-6.87 -2.71,-2.18 -5.42,-3.28 -8.13,-3.28 -3.43,0 -6.3,1.1 -8.59,3.28 -2.29,2.29 -3.91,5.21 -4.84,8.75 -4.48,-3.76 -9.33,-6.72 -14.54,-8.91 -5.21,-2.08 -10.52,-3.12 -15.93,-3.12 z m 0.31,3.75 c 10.32,0 20.16,4.22 29.53,12.65 0,0.53 -0.05,1.21 -0.16,2.04 -0.1,0.83 -0.15,1.3 -0.15,1.4 v 15.47 c 0,17.39 -4.69,26.09 -14.06,26.09 -5.63,0 -10.58,-2.39 -14.85,-7.18 -4.17,-4.79 -7.34,-10.52 -9.53,-17.19 -2.08,-6.67 -3.12,-12.76 -3.12,-18.28 0,-4.17 1.04,-7.71 3.12,-10.63 2.19,-2.91 5.26,-4.37 9.22,-4.37"
       style="fill:#000000;fill-opacity:1;fill-rule:nonzero;stroke:none"
       transform="matrix(0.13333333,0,0,-0.13333333,0,560)" />
    <text
       id="text155"
       xml:space="preserve"
       transform="matrix(1.3333333,0,0,1.3333333,176.00427,112)"><tspan
         style="font-variant:normal;font-weight:normal;font-size:14.4px;font-family:Helvetica;writing-mode:lr-tb;fill:#000000;fill-opacity:1;fill-rule:nonzero;stroke:none"
         x="0 8.4096003 12.4128"
         y="0"
         sodipodi:role="line"
         id="tspan155">= 0</tspan><tspan
         style="font-variant:normal;font-weight:normal;font-size:11.52px;font-family:Courier;writing-mode:lr-tb;fill:#000000;fill-opacity:1;fill-rule:nonzero;stroke:none"
         x="20.996799"
         y="-7"
         id="tspan156">°</tspan></text>
    <path
       id="path156"
       d="m 1050,3440 c 0,27.61 -22.39,50 -50,50 -27.609,0 -50,-22.39 -50,-50 0,-27.61 22.391,-50 50,-50 27.61,0 50,22.39 50,50"
       style="fill:#0072bd;fill-opacity:1;fill-rule:nonzero;stroke:none"
       transform="matrix(0.13333333,0,0,-0.13333333,0,560)" />
    <path
       id="path157"
       d="m 1000,3487.5 c 26.23,0 47.5,-21.27 47.5,-47.5 v 0 c 0,-26.23 -21.27,-47.5 -47.5,-47.5 -26.23,0 -47.5,21.27 -47.5,47.5 0,26.23 21.27,47.5 47.5,47.5 z m 0,5 c -28.988,0 -52.5,-23.51 -52.5,-52.5 0,-28.99 23.512,-52.5 52.5,-52.5 28.99,0 52.5,23.51 52.5,52.5 v 0 c 0,28.99 -23.51,52.5 -52.5,52.5"
       style="fill:#0072bd;fill-opacity:1;fill-rule:nonzero;stroke:none"
       transform="matrix(0.13333333,0,0,-0.13333333,0,560)" />
    <path
       id="path158"
       d="m 1208.91,3118.44 c -4.48,0 -8.49,1.04 -12.03,3.12 -3.55,2.19 -6.31,5.1 -8.29,8.75 -1.88,3.65 -2.81,7.82 -2.81,12.5 0,6.46 1.82,12.87 5.47,19.22 3.65,6.46 8.44,11.67 14.38,15.63 6.04,3.95 12.39,5.93 19.06,5.93 4.79,0 9.01,-1.3 12.65,-3.9 3.75,-2.5 6.57,-5.89 8.44,-10.16 1.98,-4.17 2.97,-8.7 2.97,-13.59 l 0.16,-9.53 c 3.33,4.48 6.09,9.17 8.28,14.06 2.29,4.89 4.06,9.99 5.31,15.31 0.21,0.52 0.57,0.78 1.09,0.78 h 1.72 c 0.83,0 1.25,-0.47 1.25,-1.4 0,0 0,-0.11 0,-0.32 -1.15,-4.47 -2.6,-8.74 -4.37,-12.81 -1.67,-3.96 -3.65,-7.87 -5.94,-11.72 -2.19,-3.75 -4.63,-7.18 -7.34,-10.31 0,-11.87 1.41,-17.81 4.22,-17.81 1.77,0 3.22,0.52 4.37,1.56 1.15,1.04 2.14,2.34 2.97,3.91 0.83,1.56 1.41,2.34 1.72,2.34 h 1.72 c 0.73,0 1.09,-0.47 1.09,-1.41 0,-2.39 -1.35,-4.68 -4.06,-6.87 -2.71,-2.18 -5.42,-3.28 -8.13,-3.28 -3.43,0 -6.3,1.1 -8.59,3.28 -2.29,2.29 -3.91,5.21 -4.84,8.75 -4.48,-3.76 -9.33,-6.72 -14.54,-8.91 -5.21,-2.08 -10.52,-3.12 -15.93,-3.12 z m 0.31,3.75 c 10.32,0 20.16,4.22 29.53,12.65 0,0.53 -0.05,1.21 -0.16,2.04 -0.1,0.83 -0.15,1.3 -0.15,1.4 v 15.47 c 0,17.39 -4.69,26.09 -14.06,26.09 -5.63,0 -10.58,-2.39 -14.85,-7.18 -4.17,-4.79 -7.34,-10.52 -9.53,-17.19 -2.08,-6.67 -3.12,-12.76 -3.12,-18.28 0,-4.17 1.04,-7.71 3.12,-10.63 2.19,-2.91 5.26,-4.37 9.22,-4.37"
       style="fill:#000000;fill-opacity:1;fill-rule:nonzero;stroke:none"
       transform="matrix(0.13333333,0,0,-0.13333333,0,560)" />
    <text
       id="text158"
       xml:space="preserve"
       transform="matrix(1.3333333,0,0,1.3333333,176.00427,144)"><tspan
         style="font-variant:normal;font-weight:normal;font-size:14.4px;font-family:Helvetica;writing-mode:lr-tb;fill:#000000;fill-opacity:1;fill-rule:nonzero;stroke:none"
         x="0 8.4096003 12.4128"
         y="0"
         sodipodi:role="line"
         id="tspan158">= 3</tspan><tspan
         style="font-variant:normal;font-weight:normal;font-size:11.52px;font-family:Courier;writing-mode:lr-tb;fill:#000000;fill-opacity:1;fill-rule:nonzero;stroke:none"
         x="20.996799"
         y="-7"
         id="tspan159">°</tspan></text>
    <path
       id="path159"
       d="m 950,3205 50,-66.5 50,66.5 -50,66.5 z"
       style="fill:#4dbeee;fill-opacity:1;fill-rule:nonzero;stroke:#4dbeee;stroke-width:5;stroke-linecap:butt;stroke-linejoin:miter;stroke-miterlimit:10;stroke-dasharray:none;stroke-opacity:1"
       transform="matrix(0.13333333,0,0,-0.13333333,0,560)" />
    <path
       id="path160"
       d="m 2078.91,3588.44 c -4.48,0 -8.49,1.04 -12.03,3.12 -3.55,2.19 -6.31,5.1 -8.29,8.75 -1.87,3.65 -2.81,7.82 -2.81,12.5 0,6.46 1.82,12.87 5.47,19.22 3.65,6.46 8.44,11.67 14.38,15.63 6.04,3.95 12.39,5.93 19.06,5.93 4.79,0 9.01,-1.3 12.65,-3.9 3.75,-2.5 6.57,-5.89 8.44,-10.16 1.98,-4.17 2.97,-8.7 2.97,-13.59 l 0.16,-9.53 c 3.33,4.48 6.09,9.17 8.28,14.06 2.29,4.89 4.06,9.99 5.31,15.31 0.21,0.52 0.57,0.78 1.09,0.78 h 1.72 c 0.83,0 1.25,-0.47 1.25,-1.4 0,0 0,-0.11 0,-0.32 -1.15,-4.47 -2.6,-8.74 -4.37,-12.81 -1.67,-3.96 -3.65,-7.87 -5.94,-11.72 -2.19,-3.75 -4.63,-7.18 -7.34,-10.31 0,-11.87 1.41,-17.81 4.22,-17.81 1.77,0 3.22,0.52 4.37,1.56 1.15,1.04 2.14,2.34 2.97,3.91 0.83,1.56 1.41,2.34 1.72,2.34 h 1.72 c 0.73,0 1.09,-0.47 1.09,-1.41 0,-2.39 -1.35,-4.68 -4.06,-6.87 -2.71,-2.18 -5.42,-3.28 -8.13,-3.28 -3.43,0 -6.3,1.1 -8.59,3.28 -2.29,2.29 -3.91,5.21 -4.84,8.75 -4.48,-3.76 -9.33,-6.72 -14.54,-8.91 -5.21,-2.08 -10.52,-3.12 -15.93,-3.12 z m 0.31,3.75 c 10.32,0 20.16,4.22 29.53,12.65 0,0.53 -0.05,1.21 -0.16,2.04 -0.1,0.83 -0.15,1.3 -0.15,1.4 v 15.47 c 0,17.39 -4.69,26.09 -14.06,26.09 -5.63,0 -10.58,-2.39 -14.85,-7.18 -4.17,-4.79 -7.34,-10.52 -9.53,-17.19 -2.08,-6.67 -3.12,-12.76 -3.12,-18.28 0,-4.17 1.04,-7.71 3.12,-10.63 2.19,-2.91 5.26,-4.37 9.22,-4.37"
       style="fill:#000000;fill-opacity:1;fill-rule:nonzero;stroke:none"
       transform="matrix(0.13333333,0,0,-0.13333333,0,560)" />
    <text
       id="text160"
       xml:space="preserve"
       transform="matrix(1.3333333,0,0,1.3333333,292.00427,81.333333)"><tspan
         style="font-variant:normal;font-weight:normal;font-size:14.4px;font-family:Helvetica;writing-mode:lr-tb;fill:#000000;fill-opacity:1;fill-rule:nonzero;stroke:none"
         x="0 8.4096003 12.4128"
         y="0"
         sodipodi:role="line"
         id="tspan160">= 6</tspan><tspan
         style="font-variant:normal;font-weight:normal;font-size:11.52px;font-family:Courier;writing-mode:lr-tb;fill:#000000;fill-opacity:1;fill-rule:nonzero;stroke:none"
         x="20.996799"
         y="-7"
         id="tspan161">°</tspan></text>
    <path
       id="path161"
       d="m 1870,3608.35 -57.72,99.97 h 115.44"
       style="fill:#edb120;fill-opacity:1;fill-rule:nonzero;stroke:none"
       transform="matrix(0.13333333,0,0,-0.13333333,0,560)" />
    <path
       id="path162"
       d="m 1870,3608.35 -57.72,99.97 h 115.44 z"
       style="fill:none;stroke:#edb120;stroke-width:5;stroke-linecap:butt;stroke-linejoin:miter;stroke-miterlimit:10;stroke-dasharray:none;stroke-opacity:1"
       transform="matrix(0.13333333,0,0,-0.13333333,0,560)" />
    <path
       id="path163"
       d="m 2078.91,3358.44 c -4.48,0 -8.49,1.04 -12.03,3.12 -3.55,2.19 -6.31,5.1 -8.29,8.75 -1.87,3.65 -2.81,7.82 -2.81,12.5 0,6.46 1.82,12.87 5.47,19.22 3.65,6.46 8.44,11.67 14.38,15.63 6.04,3.95 12.39,5.93 19.06,5.93 4.79,0 9.01,-1.3 12.65,-3.9 3.75,-2.5 6.57,-5.89 8.44,-10.16 1.98,-4.17 2.97,-8.7 2.97,-13.59 l 0.16,-9.53 c 3.33,4.48 6.09,9.17 8.28,14.06 2.29,4.89 4.06,9.99 5.31,15.31 0.21,0.52 0.57,0.78 1.09,0.78 h 1.72 c 0.83,0 1.25,-0.47 1.25,-1.4 0,0 0,-0.11 0,-0.32 -1.15,-4.47 -2.6,-8.74 -4.37,-12.81 -1.67,-3.96 -3.65,-7.87 -5.94,-11.72 -2.19,-3.75 -4.63,-7.18 -7.34,-10.31 0,-11.87 1.41,-17.81 4.22,-17.81 1.77,0 3.22,0.52 4.37,1.56 1.15,1.04 2.14,2.34 2.97,3.91 0.83,1.56 1.41,2.34 1.72,2.34 h 1.72 c 0.73,0 1.09,-0.47 1.09,-1.41 0,-2.39 -1.35,-4.68 -4.06,-6.87 -2.71,-2.18 -5.42,-3.28 -8.13,-3.28 -3.43,0 -6.3,1.1 -8.59,3.28 -2.29,2.29 -3.91,5.21 -4.84,8.75 -4.48,-3.76 -9.33,-6.72 -14.54,-8.91 -5.21,-2.08 -10.52,-3.12 -15.93,-3.12 z m 0.31,3.75 c 10.32,0 20.16,4.22 29.53,12.65 0,0.53 -0.05,1.21 -0.16,2.04 -0.1,0.83 -0.15,1.3 -0.15,1.4 v 15.47 c 0,17.39 -4.69,26.09 -14.06,26.09 -5.63,0 -10.58,-2.39 -14.85,-7.18 -4.17,-4.79 -7.34,-10.52 -9.53,-17.19 -2.08,-6.67 -3.12,-12.76 -3.12,-18.28 0,-4.17 1.04,-7.71 3.12,-10.63 2.19,-2.91 5.26,-4.37 9.22,-4.37"
       style="fill:#000000;fill-opacity:1;fill-rule:nonzero;stroke:none"
       transform="matrix(0.13333333,0,0,-0.13333333,0,560)" />
    <text
       id="text163"
       xml:space="preserve"
       transform="matrix(1.3333333,0,0,1.3333333,292.00427,112)"><tspan
         style="font-variant:normal;font-weight:normal;font-size:14.4px;font-family:Helvetica;writing-mode:lr-tb;fill:#000000;fill-opacity:1;fill-rule:nonzero;stroke:none"
         x="0 8.4096003 12.4128"
         y="0"
         sodipodi:role="line"
         id="tspan163">= 9</tspan><tspan
         style="font-variant:normal;font-weight:normal;font-size:11.52px;font-family:Courier;writing-mode:lr-tb;fill:#000000;fill-opacity:1;fill-rule:nonzero;stroke:none"
         x="20.996799"
         y="-7"
         id="tspan164">°</tspan></text>
    <path
       id="path164"
       d="m 1870,3506.65 -57.72,-99.97 h 115.44"
       style="fill:#d95319;fill-opacity:1;fill-rule:nonzero;stroke:none"
       transform="matrix(0.13333333,0,0,-0.13333333,0,560)" />
    <path
       id="path165"
       d="m 1870,3506.65 -57.72,-99.97 h 115.44 z"
       style="fill:none;stroke:#d95319;stroke-width:5;stroke-linecap:butt;stroke-linejoin:miter;stroke-miterlimit:10;stroke-dasharray:none;stroke-opacity:1"
       transform="matrix(0.13333333,0,0,-0.13333333,0,560)" />
    <path
       id="path166"
       d="m 2078.91,3118.44 c -4.48,0 -8.49,1.04 -12.03,3.12 -3.55,2.19 -6.31,5.1 -8.29,8.75 -1.87,3.65 -2.81,7.82 -2.81,12.5 0,6.46 1.82,12.87 5.47,19.22 3.65,6.46 8.44,11.67 14.38,15.63 6.04,3.95 12.39,5.93 19.06,5.93 4.79,0 9.01,-1.3 12.65,-3.9 3.75,-2.5 6.57,-5.89 8.44,-10.16 1.98,-4.17 2.97,-8.7 2.97,-13.59 l 0.16,-9.53 c 3.33,4.48 6.09,9.17 8.28,14.06 2.29,4.89 4.06,9.99 5.31,15.31 0.21,0.52 0.57,0.78 1.09,0.78 h 1.72 c 0.83,0 1.25,-0.47 1.25,-1.4 0,0 0,-0.11 0,-0.32 -1.15,-4.47 -2.6,-8.74 -4.37,-12.81 -1.67,-3.96 -3.65,-7.87 -5.94,-11.72 -2.19,-3.75 -4.63,-7.18 -7.34,-10.31 0,-11.87 1.41,-17.81 4.22,-17.81 1.77,0 3.22,0.52 4.37,1.56 1.15,1.04 2.14,2.34 2.97,3.91 0.83,1.56 1.41,2.34 1.72,2.34 h 1.72 c 0.73,0 1.09,-0.47 1.09,-1.41 0,-2.39 -1.35,-4.68 -4.06,-6.87 -2.71,-2.18 -5.42,-3.28 -8.13,-3.28 -3.43,0 -6.3,1.1 -8.59,3.28 -2.29,2.29 -3.91,5.21 -4.84,8.75 -4.48,-3.76 -9.33,-6.72 -14.54,-8.91 -5.21,-2.08 -10.52,-3.12 -15.93,-3.12 z m 0.31,3.75 c 10.32,0 20.16,4.22 29.53,12.65 0,0.53 -0.05,1.21 -0.16,2.04 -0.1,0.83 -0.15,1.3 -0.15,1.4 v 15.47 c 0,17.39 -4.69,26.09 -14.06,26.09 -5.63,0 -10.58,-2.39 -14.85,-7.18 -4.17,-4.79 -7.34,-10.52 -9.53,-17.19 -2.08,-6.67 -3.12,-12.76 -3.12,-18.28 0,-4.17 1.04,-7.71 3.12,-10.63 2.19,-2.91 5.26,-4.37 9.22,-4.37"
       style="fill:#000000;fill-opacity:1;fill-rule:nonzero;stroke:none"
       transform="matrix(0.13333333,0,0,-0.13333333,0,560)" />
    <text
       id="text166"
       xml:space="preserve"
       transform="matrix(1.3333333,0,0,1.3333333,292.00427,144)"><tspan
         style="font-variant:normal;font-weight:normal;font-size:14.4px;font-family:Helvetica;writing-mode:lr-tb;fill:#000000;fill-opacity:1;fill-rule:nonzero;stroke:none"
         x="0 8.4096003 12.4128 20.419201"
         y="0"
         sodipodi:role="line"
         id="tspan166">= 12</tspan><tspan
         style="font-variant:normal;font-weight:normal;font-size:11.52px;font-family:Courier;writing-mode:lr-tb;fill:#000000;fill-opacity:1;fill-rule:nonzero;stroke:none"
         x="28.996799"
         y="-7"
         id="tspan167">°</tspan></text>
    <path
       id="path167"
       d="m 1936.65,3205 -99.97,57.72 v -115.44"
       style="fill:#a2142f;fill-opacity:1;fill-rule:nonzero;stroke:none"
       transform="matrix(0.13333333,0,0,-0.13333333,0,560)" />
    <path
       id="path168"
       d="m 1936.65,3205 -99.97,57.72 v -115.44 z"
       style="fill:none;stroke:#a2142f;stroke-width:5;stroke-linecap:butt;stroke-linejoin:miter;stroke-miterlimit:10;stroke-dasharray:none;stroke-opacity:1"
       transform="matrix(0.13333333,0,0,-0.13333333,0,560)" />
    <path
       id="path169"
       d="m 810,3070 h 1760 v 740 H 810 Z"
       style="fill:none;stroke:#262626;stroke-width:5;stroke-linecap:butt;stroke-linejoin:miter;stroke-miterlimit:10;stroke-dasharray:none;stroke-opacity:1"
       transform="matrix(0.13333333,0,0,-0.13333333,0,560)"
       inkscape:export-filename="FFWT_TIP_TWIST_M6.pdf"
       inkscape:export-xdpi="96"
       inkscape:export-ydpi="96" />
  </g>
</svg>
