<?xml version="1.0" encoding="UTF-8" standalone="no"?>
<!-- Created with Inkscape (http://www.inkscape.org/) -->

<svg
   version="1.1"
   id="svg1"
   width="746.66669"
   height="560"
   viewBox="0 0 746.66669 560"
   sodipodi:docname="Specimen_3_4_Bar.svg"
   inkscape:version="1.3.2 (091e20e, 2023-11-25)"
   xmlns:inkscape="http://www.inkscape.org/namespaces/inkscape"
   xmlns:sodipodi="http://sodipodi.sourceforge.net/DTD/sodipodi-0.dtd"
   xmlns="http://www.w3.org/2000/svg"
   xmlns:svg="http://www.w3.org/2000/svg">
  <sodipodi:namedview
     id="namedview1"
     pagecolor="#ffffff"
     bordercolor="#000000"
     borderopacity="0.25"
     inkscape:showpageshadow="2"
     inkscape:pageopacity="0.0"
     inkscape:pagecheckerboard="0"
     inkscape:deskcolor="#d1d1d1"
     inkscape:zoom="1.8398485"
     inkscape:cx="112.50926"
     inkscape:cy="374.75911"
     inkscape:window-width="1600"
     inkscape:window-height="942"
     inkscape:window-x="0"
     inkscape:window-y="25"
     inkscape:window-maximized="0"
     inkscape:current-layer="g1">
    <inkscape:page
       x="0"
       y="0"
       inkscape:label="1"
       id="page1"
       width="746.66669"
       height="560"
       margin="0"
       bleed="0" />
  </sodipodi:namedview>
  <defs
     id="defs1">
    <marker
       style="overflow:visible"
       id="Triangle"
       refX="0"
       refY="0"
       orient="auto-start-reverse"
       inkscape:stockid="Triangle arrow"
       markerWidth="1"
       markerHeight="1"
       viewBox="0 0 1 1"
       inkscape:isstock="true"
       inkscape:collect="always"
       preserveAspectRatio="xMidYMid">
      <path
         transform="scale(0.5)"
         style="fill:context-stroke;fill-rule:evenodd;stroke:context-stroke;stroke-width:1pt"
         d="M 5.77,0 -2.88,5 V -5 Z"
         id="path135" />
    </marker>
    <marker
       style="overflow:visible"
       id="Triangle-0"
       refX="0"
       refY="0"
       orient="auto-start-reverse"
       inkscape:stockid="Triangle arrow"
       markerWidth="1"
       markerHeight="1"
       viewBox="0 0 1 1"
       inkscape:isstock="true"
       inkscape:collect="always"
       preserveAspectRatio="xMidYMid">
      <path
         transform="scale(0.5)"
         style="fill:context-stroke;fill-rule:evenodd;stroke:context-stroke;stroke-width:1pt"
         d="M 5.77,0 -2.88,5 V -5 Z"
         id="path135-4" />
    </marker>
  </defs>
  <g
     id="g1"
     inkscape:groupmode="layer"
     inkscape:label="1">
    <path
       id="path4"
       d="M 730,470 V 3890"
       style="fill:none;stroke:#dfdfdf;stroke-width:5;stroke-linecap:butt;stroke-linejoin:round;stroke-miterlimit:10;stroke-dasharray:none;stroke-opacity:1"
       transform="matrix(0.13333333,0,0,-0.13333333,0,560)" />
    <path
       id="path5"
       d="M 1397.69,470 V 3890"
       style="fill:none;stroke:#dfdfdf;stroke-width:5;stroke-linecap:butt;stroke-linejoin:round;stroke-miterlimit:10;stroke-dasharray:none;stroke-opacity:1"
       transform="matrix(0.13333333,0,0,-0.13333333,0,560)" />
    <path
       id="path6"
       d="M 2065.38,470 V 3890"
       style="fill:none;stroke:#dfdfdf;stroke-width:5;stroke-linecap:butt;stroke-linejoin:round;stroke-miterlimit:10;stroke-dasharray:none;stroke-opacity:1"
       transform="matrix(0.13333333,0,0,-0.13333333,0,560)" />
    <path
       id="path7"
       d="M 2733.08,470 V 3890"
       style="fill:none;stroke:#dfdfdf;stroke-width:5;stroke-linecap:butt;stroke-linejoin:round;stroke-miterlimit:10;stroke-dasharray:none;stroke-opacity:1"
       transform="matrix(0.13333333,0,0,-0.13333333,0,560)" />
    <path
       id="path8"
       d="M 3400.77,470 V 3890"
       style="fill:none;stroke:#dfdfdf;stroke-width:5;stroke-linecap:butt;stroke-linejoin:round;stroke-miterlimit:10;stroke-dasharray:none;stroke-opacity:1"
       transform="matrix(0.13333333,0,0,-0.13333333,0,560)" />
    <path
       id="path9"
       d="M 4068.46,470 V 3890"
       style="fill:none;stroke:#dfdfdf;stroke-width:5;stroke-linecap:butt;stroke-linejoin:round;stroke-miterlimit:10;stroke-dasharray:none;stroke-opacity:1"
       transform="matrix(0.13333333,0,0,-0.13333333,0,560)" />
    <path
       id="path10"
       d="M 4736.15,470 V 3890"
       style="fill:none;stroke:#dfdfdf;stroke-width:5;stroke-linecap:butt;stroke-linejoin:round;stroke-miterlimit:10;stroke-dasharray:none;stroke-opacity:1"
       transform="matrix(0.13333333,0,0,-0.13333333,0,560)" />
    <path
       id="path11"
       d="M 5070,470 H 730"
       style="fill:none;stroke:#dfdfdf;stroke-width:5;stroke-linecap:butt;stroke-linejoin:round;stroke-miterlimit:10;stroke-dasharray:none;stroke-opacity:1"
       transform="matrix(0.13333333,0,0,-0.13333333,0,560)" />
    <path
       id="path12"
       d="M 5070,911.871 H 730"
       style="fill:none;stroke:#dfdfdf;stroke-width:5;stroke-linecap:butt;stroke-linejoin:round;stroke-miterlimit:10;stroke-dasharray:none;stroke-opacity:1"
       transform="matrix(0.13333333,0,0,-0.13333333,0,560)" />
    <path
       id="path13"
       d="M 5070,1353.73 H 730"
       style="fill:none;stroke:#dfdfdf;stroke-width:5;stroke-linecap:butt;stroke-linejoin:round;stroke-miterlimit:10;stroke-dasharray:none;stroke-opacity:1"
       transform="matrix(0.13333333,0,0,-0.13333333,0,560)" />
    <path
       id="path14"
       d="M 5070,1795.6 H 730"
       style="fill:none;stroke:#dfdfdf;stroke-width:5;stroke-linecap:butt;stroke-linejoin:round;stroke-miterlimit:10;stroke-dasharray:none;stroke-opacity:1"
       transform="matrix(0.13333333,0,0,-0.13333333,0,560)" />
    <path
       id="path15"
       d="M 5070,2237.46 H 730"
       style="fill:none;stroke:#dfdfdf;stroke-width:5;stroke-linecap:butt;stroke-linejoin:round;stroke-miterlimit:10;stroke-dasharray:none;stroke-opacity:1"
       transform="matrix(0.13333333,0,0,-0.13333333,0,560)" />
    <path
       id="path16"
       d="M 5070,2679.33 H 730"
       style="fill:none;stroke:#dfdfdf;stroke-width:5;stroke-linecap:butt;stroke-linejoin:round;stroke-miterlimit:10;stroke-dasharray:none;stroke-opacity:1"
       transform="matrix(0.13333333,0,0,-0.13333333,0,560)" />
    <path
       id="path17"
       d="M 5070,3121.2 H 730"
       style="fill:none;stroke:#dfdfdf;stroke-width:5;stroke-linecap:butt;stroke-linejoin:round;stroke-miterlimit:10;stroke-dasharray:none;stroke-opacity:1"
       transform="matrix(0.13333333,0,0,-0.13333333,0,560)" />
    <path
       id="path18"
       d="M 5070,3563.06 H 730"
       style="fill:none;stroke:#dfdfdf;stroke-width:5;stroke-linecap:butt;stroke-linejoin:round;stroke-miterlimit:10;stroke-dasharray:none;stroke-opacity:1"
       transform="matrix(0.13333333,0,0,-0.13333333,0,560)" />
    <path
       id="path19"
       d="M 730,470 H 5070"
       style="fill:none;stroke:#262626;stroke-width:5;stroke-linecap:square;stroke-linejoin:round;stroke-miterlimit:10;stroke-dasharray:none;stroke-opacity:1"
       transform="matrix(0.13333333,0,0,-0.13333333,0,560)" />
    <path
       id="path20"
       d="M 730,3890 H 5070"
       style="fill:none;stroke:#262626;stroke-width:5;stroke-linecap:square;stroke-linejoin:round;stroke-miterlimit:10;stroke-dasharray:none;stroke-opacity:1"
       transform="matrix(0.13333333,0,0,-0.13333333,0,560)" />
    <path
       id="path21"
       d="m 730,470 v 43.398"
       style="fill:none;stroke:#262626;stroke-width:5;stroke-linecap:square;stroke-linejoin:round;stroke-miterlimit:10;stroke-dasharray:none;stroke-opacity:1"
       transform="matrix(0.13333333,0,0,-0.13333333,0,560)" />
    <path
       id="path22"
       d="m 1397.69,470 v 43.398"
       style="fill:none;stroke:#262626;stroke-width:5;stroke-linecap:square;stroke-linejoin:round;stroke-miterlimit:10;stroke-dasharray:none;stroke-opacity:1"
       transform="matrix(0.13333333,0,0,-0.13333333,0,560)" />
    <path
       id="path23"
       d="m 2065.38,470 v 43.398"
       style="fill:none;stroke:#262626;stroke-width:5;stroke-linecap:square;stroke-linejoin:round;stroke-miterlimit:10;stroke-dasharray:none;stroke-opacity:1"
       transform="matrix(0.13333333,0,0,-0.13333333,0,560)" />
    <path
       id="path24"
       d="m 2733.08,470 v 43.398"
       style="fill:none;stroke:#262626;stroke-width:5;stroke-linecap:square;stroke-linejoin:round;stroke-miterlimit:10;stroke-dasharray:none;stroke-opacity:1"
       transform="matrix(0.13333333,0,0,-0.13333333,0,560)" />
    <path
       id="path25"
       d="m 3400.77,470 v 43.398"
       style="fill:none;stroke:#262626;stroke-width:5;stroke-linecap:square;stroke-linejoin:round;stroke-miterlimit:10;stroke-dasharray:none;stroke-opacity:1"
       transform="matrix(0.13333333,0,0,-0.13333333,0,560)" />
    <path
       id="path26"
       d="m 4068.46,470 v 43.398"
       style="fill:none;stroke:#262626;stroke-width:5;stroke-linecap:square;stroke-linejoin:round;stroke-miterlimit:10;stroke-dasharray:none;stroke-opacity:1"
       transform="matrix(0.13333333,0,0,-0.13333333,0,560)" />
    <path
       id="path27"
       d="m 4736.15,470 v 43.398"
       style="fill:none;stroke:#262626;stroke-width:5;stroke-linecap:square;stroke-linejoin:round;stroke-miterlimit:10;stroke-dasharray:none;stroke-opacity:1"
       transform="matrix(0.13333333,0,0,-0.13333333,0,560)" />
    <path
       id="path28"
       d="m 730,3890 v -43.4"
       style="fill:none;stroke:#262626;stroke-width:5;stroke-linecap:square;stroke-linejoin:round;stroke-miterlimit:10;stroke-dasharray:none;stroke-opacity:1"
       transform="matrix(0.13333333,0,0,-0.13333333,0,560)" />
    <path
       id="path29"
       d="m 1397.69,3890 v -43.4"
       style="fill:none;stroke:#262626;stroke-width:5;stroke-linecap:square;stroke-linejoin:round;stroke-miterlimit:10;stroke-dasharray:none;stroke-opacity:1"
       transform="matrix(0.13333333,0,0,-0.13333333,0,560)" />
    <path
       id="path30"
       d="m 2065.38,3890 v -43.4"
       style="fill:none;stroke:#262626;stroke-width:5;stroke-linecap:square;stroke-linejoin:round;stroke-miterlimit:10;stroke-dasharray:none;stroke-opacity:1"
       transform="matrix(0.13333333,0,0,-0.13333333,0,560)" />
    <path
       id="path31"
       d="m 2733.08,3890 v -43.4"
       style="fill:none;stroke:#262626;stroke-width:5;stroke-linecap:square;stroke-linejoin:round;stroke-miterlimit:10;stroke-dasharray:none;stroke-opacity:1"
       transform="matrix(0.13333333,0,0,-0.13333333,0,560)" />
    <path
       id="path32"
       d="m 3400.77,3890 v -43.4"
       style="fill:none;stroke:#262626;stroke-width:5;stroke-linecap:square;stroke-linejoin:round;stroke-miterlimit:10;stroke-dasharray:none;stroke-opacity:1"
       transform="matrix(0.13333333,0,0,-0.13333333,0,560)" />
    <path
       id="path33"
       d="m 4068.46,3890 v -43.4"
       style="fill:none;stroke:#262626;stroke-width:5;stroke-linecap:square;stroke-linejoin:round;stroke-miterlimit:10;stroke-dasharray:none;stroke-opacity:1"
       transform="matrix(0.13333333,0,0,-0.13333333,0,560)" />
    <path
       id="path34"
       d="m 4736.15,3890 v -43.4"
       style="fill:none;stroke:#262626;stroke-width:5;stroke-linecap:square;stroke-linejoin:round;stroke-miterlimit:10;stroke-dasharray:none;stroke-opacity:1"
       transform="matrix(0.13333333,0,0,-0.13333333,0,560)" />
    <text
       id="text34"
       xml:space="preserve"
       transform="matrix(1.3333333,0,0,1.3333333,91.333333,525.6)"><tspan
         style="font-variant:normal;font-weight:normal;font-size:16px;font-family:Helvetica;writing-mode:lr-tb;fill:#262626;fill-opacity:1;fill-rule:nonzero;stroke:none"
         x="0 62.269119 71.165123 129.03873 137.93472 195.80785 204.70384 262.57697 271.47296 324.84607 333.74207 342.63809 391.6152 400.5112 409.4072"
         y="0"
         sodipodi:role="line"
         id="tspan34">020406080100120</tspan><tspan
         style="font-variant:normal;font-weight:normal;font-size:17.6px;font-family:Helvetica;writing-mode:lr-tb;fill:#262626;fill-opacity:1;fill-rule:nonzero;stroke:none"
         x="204.5 216.2392 226.0248 230.9176"
         y="22"
         sodipodi:role="line"
         id="tspan35">KL/r</tspan></text>
    <path
       id="path35"
       d="M 730,470 V 3890"
       style="fill:none;stroke:#262626;stroke-width:5;stroke-linecap:square;stroke-linejoin:round;stroke-miterlimit:10;stroke-dasharray:none;stroke-opacity:1"
       transform="matrix(0.13333333,0,0,-0.13333333,0,560)" />
    <path
       id="path36"
       d="M 5070,470 V 3890"
       style="fill:none;stroke:#262626;stroke-width:5;stroke-linecap:square;stroke-linejoin:round;stroke-miterlimit:10;stroke-dasharray:none;stroke-opacity:1"
       transform="matrix(0.13333333,0,0,-0.13333333,0,560)" />
    <path
       id="path37"
       d="m 730,470 h 43.398"
       style="fill:none;stroke:#262626;stroke-width:5;stroke-linecap:square;stroke-linejoin:round;stroke-miterlimit:10;stroke-dasharray:none;stroke-opacity:1"
       transform="matrix(0.13333333,0,0,-0.13333333,0,560)" />
    <path
       id="path38"
       d="m 730,911.871 h 43.398"
       style="fill:none;stroke:#262626;stroke-width:5;stroke-linecap:square;stroke-linejoin:round;stroke-miterlimit:10;stroke-dasharray:none;stroke-opacity:1"
       transform="matrix(0.13333333,0,0,-0.13333333,0,560)" />
    <path
       id="path39"
       d="m 730,1353.73 h 43.398"
       style="fill:none;stroke:#262626;stroke-width:5;stroke-linecap:square;stroke-linejoin:round;stroke-miterlimit:10;stroke-dasharray:none;stroke-opacity:1"
       transform="matrix(0.13333333,0,0,-0.13333333,0,560)" />
    <path
       id="path40"
       d="m 730,1795.6 h 43.398"
       style="fill:none;stroke:#262626;stroke-width:5;stroke-linecap:square;stroke-linejoin:round;stroke-miterlimit:10;stroke-dasharray:none;stroke-opacity:1"
       transform="matrix(0.13333333,0,0,-0.13333333,0,560)" />
    <path
       id="path41"
       d="m 730,2237.46 h 43.398"
       style="fill:none;stroke:#262626;stroke-width:5;stroke-linecap:square;stroke-linejoin:round;stroke-miterlimit:10;stroke-dasharray:none;stroke-opacity:1"
       transform="matrix(0.13333333,0,0,-0.13333333,0,560)" />
    <path
       id="path42"
       d="m 730,2679.33 h 43.398"
       style="fill:none;stroke:#262626;stroke-width:5;stroke-linecap:square;stroke-linejoin:round;stroke-miterlimit:10;stroke-dasharray:none;stroke-opacity:1"
       transform="matrix(0.13333333,0,0,-0.13333333,0,560)" />
    <path
       id="path43"
       d="m 730,3121.2 h 43.398"
       style="fill:none;stroke:#262626;stroke-width:5;stroke-linecap:square;stroke-linejoin:round;stroke-miterlimit:10;stroke-dasharray:none;stroke-opacity:1"
       transform="matrix(0.13333333,0,0,-0.13333333,0,560)" />
    <path
       id="path44"
       d="m 730,3563.06 h 43.398"
       style="fill:none;stroke:#262626;stroke-width:5;stroke-linecap:square;stroke-linejoin:round;stroke-miterlimit:10;stroke-dasharray:none;stroke-opacity:1"
       transform="matrix(0.13333333,0,0,-0.13333333,0,560)" />
    <path
       id="path45"
       d="m 5070,470 h -43.4"
       style="fill:none;stroke:#262626;stroke-width:5;stroke-linecap:square;stroke-linejoin:round;stroke-miterlimit:10;stroke-dasharray:none;stroke-opacity:1"
       transform="matrix(0.13333333,0,0,-0.13333333,0,560)" />
    <path
       id="path46"
       d="m 5070,911.871 h -43.4"
       style="fill:none;stroke:#262626;stroke-width:5;stroke-linecap:square;stroke-linejoin:round;stroke-miterlimit:10;stroke-dasharray:none;stroke-opacity:1"
       transform="matrix(0.13333333,0,0,-0.13333333,0,560)" />
    <path
       id="path47"
       d="m 5070,1353.73 h -43.4"
       style="fill:none;stroke:#262626;stroke-width:5;stroke-linecap:square;stroke-linejoin:round;stroke-miterlimit:10;stroke-dasharray:none;stroke-opacity:1"
       transform="matrix(0.13333333,0,0,-0.13333333,0,560)" />
    <path
       id="path48"
       d="m 5070,1795.6 h -43.4"
       style="fill:none;stroke:#262626;stroke-width:5;stroke-linecap:square;stroke-linejoin:round;stroke-miterlimit:10;stroke-dasharray:none;stroke-opacity:1"
       transform="matrix(0.13333333,0,0,-0.13333333,0,560)" />
    <path
       id="path49"
       d="m 5070,2237.46 h -43.4"
       style="fill:none;stroke:#262626;stroke-width:5;stroke-linecap:square;stroke-linejoin:round;stroke-miterlimit:10;stroke-dasharray:none;stroke-opacity:1"
       transform="matrix(0.13333333,0,0,-0.13333333,0,560)" />
    <path
       id="path50"
       d="m 5070,2679.33 h -43.4"
       style="fill:none;stroke:#262626;stroke-width:5;stroke-linecap:square;stroke-linejoin:round;stroke-miterlimit:10;stroke-dasharray:none;stroke-opacity:1"
       transform="matrix(0.13333333,0,0,-0.13333333,0,560)" />
    <path
       id="path51"
       d="m 5070,3121.2 h -43.4"
       style="fill:none;stroke:#262626;stroke-width:5;stroke-linecap:square;stroke-linejoin:round;stroke-miterlimit:10;stroke-dasharray:none;stroke-opacity:1"
       transform="matrix(0.13333333,0,0,-0.13333333,0,560)" />
    <path
       id="path52"
       d="m 5070,3563.06 h -43.4"
       style="fill:none;stroke:#262626;stroke-width:5;stroke-linecap:square;stroke-linejoin:round;stroke-miterlimit:10;stroke-dasharray:none;stroke-opacity:1"
       transform="matrix(0.13333333,0,0,-0.13333333,0,560)" />
    <text
       id="text52"
       xml:space="preserve"
       transform="matrix(1.3333333,0,0,1.3333333,78.4,505.33333)"><tspan
         style="font-variant:normal;font-weight:normal;font-size:16px;font-family:Helvetica;writing-mode:lr-tb;fill:#262626;fill-opacity:1;fill-rule:nonzero;stroke:none"
         x="0"
         y="0"
         id="tspan52">0</tspan><tspan
         style="font-variant:normal;font-weight:normal;font-size:16px;font-family:Helvetica;writing-mode:lr-tb;fill:#262626;fill-opacity:1;fill-rule:nonzero;stroke:none"
         x="0"
         y="-44.186699"
         id="tspan53">1</tspan><tspan
         style="font-variant:normal;font-weight:normal;font-size:16px;font-family:Helvetica;writing-mode:lr-tb;fill:#262626;fill-opacity:1;fill-rule:nonzero;stroke:none"
         x="0"
         y="-88.373001"
         id="tspan54">2</tspan><tspan
         style="font-variant:normal;font-weight:normal;font-size:16px;font-family:Helvetica;writing-mode:lr-tb;fill:#262626;fill-opacity:1;fill-rule:nonzero;stroke:none"
         x="0"
         y="-132.55969"
         id="tspan55">3</tspan><tspan
         style="font-variant:normal;font-weight:normal;font-size:16px;font-family:Helvetica;writing-mode:lr-tb;fill:#262626;fill-opacity:1;fill-rule:nonzero;stroke:none"
         x="0"
         y="-176.7464"
         id="tspan56">4</tspan><tspan
         style="font-variant:normal;font-weight:normal;font-size:16px;font-family:Helvetica;writing-mode:lr-tb;fill:#262626;fill-opacity:1;fill-rule:nonzero;stroke:none"
         x="0"
         y="-220.93311"
         id="tspan57">5</tspan><tspan
         style="font-variant:normal;font-weight:normal;font-size:16px;font-family:Helvetica;writing-mode:lr-tb;fill:#262626;fill-opacity:1;fill-rule:nonzero;stroke:none"
         x="0"
         y="-265.11938"
         id="tspan58">6</tspan><tspan
         style="font-variant:normal;font-weight:normal;font-size:16px;font-family:Helvetica;writing-mode:lr-tb;fill:#262626;fill-opacity:1;fill-rule:nonzero;stroke:none"
         x="0"
         y="-309.30609"
         id="tspan59">7</tspan></text>
    <text
       id="text59"
       xml:space="preserve"
       transform="matrix(0,-1.3333333,1.3333333,0,60,378.66667)"><tspan
         style="font-variant:normal;font-weight:normal;font-size:17.6px;font-family:Helvetica;writing-mode:lr-tb;fill:#262626;fill-opacity:1;fill-rule:nonzero;stroke:none"
         x="0"
         y="0"
         id="tspan60">F</tspan><tspan
         style="font-variant:normal;font-weight:normal;font-size:14.08px;font-family:Helvetica;writing-mode:lr-tb;fill:#262626;fill-opacity:1;fill-rule:nonzero;stroke:none"
         x="11 18.040001"
         y="8"
         sodipodi:role="line"
         id="tspan61">cr</tspan><tspan
         style="font-variant:normal;font-weight:normal;font-size:17.6px;font-family:Helvetica;writing-mode:lr-tb;fill:#262626;fill-opacity:1;fill-rule:nonzero;stroke:none"
         x="24 28.892799 33.785599 46.492802 52.3536 56.260799 61.153599 65.060799 73.860802 83.6464 87.553596 92.446404 96.3536 106.1392 115.9248 125.7104 130.6032 134.51041 144.29601 149.1888"
         y="0"
         sodipodi:role="line"
         id="tspan62">: Critical load in N</tspan></text>
    <path
       id="path62"
       d="m 753.59,3934.69 c 0,0.83 0.262,1.56 0.789,2.19 l 33.281,33.12 -33.281,33.28 c -0.527,0.52 -0.789,1.25 -0.789,2.19 0,0.73 0.312,1.41 0.941,2.03 0.625,0.73 1.356,1.09 2.188,1.09 0.726,0 1.562,-0.31 2.5,-0.93 l 33.121,-33.13 32.969,33.13 c 0.836,0.62 1.617,0.93 2.351,0.93 0.832,0 1.559,-0.31 2.18,-0.93 0.625,-0.62 0.941,-1.36 0.941,-2.19 0,-0.94 -0.261,-1.67 -0.781,-2.19 L 796.719,3970 830,3936.88 c 0.52,-0.63 0.781,-1.36 0.781,-2.19 0,-0.94 -0.316,-1.73 -0.941,-2.35 -0.621,-0.62 -1.348,-0.93 -2.18,-0.93 -0.832,0 -1.617,0.42 -2.351,1.25 l -32.969,32.97 -33.121,-32.97 c -0.832,-0.83 -1.664,-1.25 -2.5,-1.25 -0.832,0 -1.563,0.31 -2.188,0.93 -0.629,0.73 -0.941,1.52 -0.941,2.35"
       style="fill:#262626;fill-opacity:1;fill-rule:nonzero;stroke:none"
       transform="matrix(0.13333333,0,0,-0.13333333,0,560)" />
    <text
       id="text62"
       xml:space="preserve"
       transform="matrix(1.3333333,0,0,1.3333333,114.66667,36)"><tspan
         style="font-variant:normal;font-weight:normal;font-size:16px;font-family:Helvetica;writing-mode:lr-tb;fill:#262626;fill-opacity:1;fill-rule:nonzero;stroke:none"
         x="0 8.8959999"
         y="0"
         sodipodi:role="line"
         id="tspan63">10</tspan><tspan
         style="font-variant:normal;font-weight:normal;font-size:12.8px;font-family:Helvetica;writing-mode:lr-tb;fill:#262626;fill-opacity:1;fill-rule:nonzero;stroke:none"
         x="18"
         y="-8"
         id="tspan64">5</tspan></text>
    <text
       id="text64"
       xml:space="preserve"
       transform="matrix(1.3333333,0,0,1.3333333,275.33333,30.133333)"><tspan
         style="font-variant:normal;font-weight:700;font-size:17.6px;font-family:Helvetica;writing-mode:lr-tb;fill:#000000;fill-opacity:1;fill-rule:nonzero;stroke:none"
         x="0 11.7392 22.4928 32.2784 42.063999 46.956799 62.603199 72.388802 83.142403 88.035202 97.820801 110.528 120.3136 125.2064 131.0672 135.96001 148.66721 158.4528"
         y="0"
         sodipodi:role="line"
         id="tspan65">Specimen 3&amp;4 - Bar</tspan></text>
    <path
       id="path65"
       d="m 1037.2,2578.31 h 80 v 80 h -80 z"
       style="fill:#000000;fill-opacity:1;fill-rule:nonzero;stroke:#000000;stroke-width:5;stroke-linecap:butt;stroke-linejoin:miter;stroke-miterlimit:10;stroke-dasharray:none;stroke-opacity:1"
       transform="matrix(0.13333333,0,0,-0.13333333,0,560)" />
    <path
       id="path66"
       d="m 1200.79,2307.07 h 80 v 80 h -80 z"
       style="fill:#000000;fill-opacity:1;fill-rule:nonzero;stroke:#000000;stroke-width:5;stroke-linecap:butt;stroke-linejoin:miter;stroke-miterlimit:10;stroke-dasharray:none;stroke-opacity:1"
       transform="matrix(0.13333333,0,0,-0.13333333,0,560)" />
    <path
       id="path67"
       d="m 1367.71,2228.45 h 80 v 80 h -80 z"
       style="fill:#000000;fill-opacity:1;fill-rule:nonzero;stroke:#000000;stroke-width:5;stroke-linecap:butt;stroke-linejoin:miter;stroke-miterlimit:10;stroke-dasharray:none;stroke-opacity:1"
       transform="matrix(0.13333333,0,0,-0.13333333,0,560)" />
    <path
       id="path68"
       d="m 1534.63,2159.66 h 80 v 80 h -80 z"
       style="fill:#000000;fill-opacity:1;fill-rule:nonzero;stroke:#000000;stroke-width:5;stroke-linecap:butt;stroke-linejoin:miter;stroke-miterlimit:10;stroke-dasharray:none;stroke-opacity:1"
       transform="matrix(0.13333333,0,0,-0.13333333,0,560)" />
    <path
       id="path69"
       d="m 2205.66,1754.76 h 80 v 80 h -80 z"
       style="fill:#000000;fill-opacity:1;fill-rule:nonzero;stroke:#000000;stroke-width:5;stroke-linecap:butt;stroke-linejoin:miter;stroke-miterlimit:10;stroke-dasharray:none;stroke-opacity:1"
       transform="matrix(0.13333333,0,0,-0.13333333,0,560)" />
    <path
       id="path70"
       d="m 2365.91,1599.48 h 80 v 80 h -80 z"
       style="fill:#000000;fill-opacity:1;fill-rule:nonzero;stroke:#000000;stroke-width:5;stroke-linecap:butt;stroke-linejoin:miter;stroke-miterlimit:10;stroke-dasharray:none;stroke-opacity:1"
       transform="matrix(0.13333333,0,0,-0.13333333,0,560)" />
    <path
       id="path71"
       d="m 2706.43,1245.69 h 80 v 80 h -80 z"
       style="fill:#000000;fill-opacity:1;fill-rule:nonzero;stroke:#000000;stroke-width:5;stroke-linecap:butt;stroke-linejoin:miter;stroke-miterlimit:10;stroke-dasharray:none;stroke-opacity:1"
       transform="matrix(0.13333333,0,0,-0.13333333,0,560)" />
    <path
       id="path72"
       d="m 3374.13,889.93 h 80 v 80 h -80 z"
       style="fill:#000000;fill-opacity:1;fill-rule:nonzero;stroke:#000000;stroke-width:5;stroke-linecap:butt;stroke-linejoin:miter;stroke-miterlimit:10;stroke-dasharray:none;stroke-opacity:1"
       transform="matrix(0.13333333,0,0,-0.13333333,0,560)" />
    <path
       id="path73"
       d="m 1710.19,3890.41 25.88,-198.11 111.78,-612.24 111.79,-452.99 111.78,-344.53 111.79,-268.13 111.78,-212.75 111.79,-171.63 111.78,-140.48 111.79,-116.41 111.78,-97.57 111.79,-82.56 111.78,-70.5 111.79,-60.66 111.78,-52.58 111.79,-45.872 111.78,-40.257 111.79,-35.532 111.78,-31.507 111.79,-28.071 111.78,-25.109 111.79,-22.57 111.78,-20.34 111.79,-18.41 111.78,-16.711 111.79,-15.219 111.78,-13.891 111.79,-12.711 111.78,-11.679 111.79,-10.743 111.78,-9.898 92.69,-7.578"
       style="fill:none;stroke:#ff0000;stroke-width:20;stroke-linecap:butt;stroke-linejoin:bevel;stroke-miterlimit:10;stroke-dasharray:80, 80;stroke-dashoffset:0;stroke-opacity:1"
       transform="matrix(0.13333333,0,0,-0.13333333,0,560)" />
    <path
       id="path74"
       d="m 1120.52,3320 c 0,27.61 -22.39,50 -50,50 -27.61,0 -50,-22.39 -50,-50 0,-27.61 22.39,-50 50,-50 27.61,0 50,22.39 50,50"
       style="fill:#000000;fill-opacity:1;fill-rule:nonzero;stroke:none"
       transform="matrix(0.13333333,0,0,-0.13333333,0,560)" />
    <path
       id="path75"
       d="m 1070.52,3367.5 c 26.23,0 47.5,-21.27 47.5,-47.5 v 0 c 0,-26.23 -21.27,-47.5 -47.5,-47.5 -26.23,0 -47.5,21.27 -47.5,47.5 0,26.23 21.27,47.5 47.5,47.5 z m 0,5 c -28.99,0 -52.5,-23.51 -52.5,-52.5 0,-28.99 23.51,-52.5 52.5,-52.5 28.99,0 52.5,23.51 52.5,52.5 v 0 c 0,28.99 -23.51,52.5 -52.5,52.5"
       style="fill:#000000;fill-opacity:1;fill-rule:nonzero;stroke:none"
       transform="matrix(0.13333333,0,0,-0.13333333,0,560)" />
    <path
       id="path76"
       d="m 1287.45,3052.69 c 0,27.61 -22.4,50 -50,50 -27.61,0 -50,-22.39 -50,-50 0,-27.61 22.39,-50 50,-50 27.6,0 50,22.39 50,50"
       style="fill:#000000;fill-opacity:1;fill-rule:nonzero;stroke:none"
       transform="matrix(0.13333333,0,0,-0.13333333,0,560)" />
    <path
       id="path77"
       d="m 1237.45,3100.19 c 26.23,0 47.5,-21.27 47.5,-47.5 v 0 c 0,-26.23 -21.27,-47.5 -47.5,-47.5 -26.24,0 -47.5,21.27 -47.5,47.5 0,26.23 21.26,47.5 47.5,47.5 z m 0,5 c -28.99,0 -52.5,-23.51 -52.5,-52.5 0,-28.99 23.51,-52.5 52.5,-52.5 28.99,0 52.5,23.51 52.5,52.5 v 0 c 0,28.99 -23.51,52.5 -52.5,52.5"
       style="fill:#000000;fill-opacity:1;fill-rule:nonzero;stroke:none"
       transform="matrix(0.13333333,0,0,-0.13333333,0,560)" />
    <path
       id="path78"
       d="m 1454.37,2956.38 c 0,27.61 -22.39,50 -50,50 -27.61,0 -50,-22.39 -50,-50 0,-27.61 22.39,-50 50,-50 27.61,0 50,22.39 50,50"
       style="fill:#000000;fill-opacity:1;fill-rule:nonzero;stroke:none"
       transform="matrix(0.13333333,0,0,-0.13333333,0,560)" />
    <path
       id="path79"
       d="m 1404.37,3003.88 c 26.23,0 47.5,-21.27 47.5,-47.5 v 0 c 0,-26.23 -21.27,-47.5 -47.5,-47.5 -26.23,0 -47.5,21.27 -47.5,47.5 0,26.23 21.27,47.5 47.5,47.5 z m 0,5 c -28.99,0 -52.5,-23.51 -52.5,-52.5 0,-28.99 23.51,-52.5 52.5,-52.5 28.99,0 52.5,23.51 52.5,52.5 v 0 c 0,28.99 -23.51,52.5 -52.5,52.5"
       style="fill:#000000;fill-opacity:1;fill-rule:nonzero;stroke:none"
       transform="matrix(0.13333333,0,0,-0.13333333,0,560)" />
    <path
       id="path80"
       d="m 1617.95,3001.59 c 0,27.61 -22.39,50 -50,50 -27.61,0 -50,-22.39 -50,-50 0,-27.61 22.39,-50 50,-50 27.61,0 50,22.39 50,50"
       style="fill:#000000;fill-opacity:1;fill-rule:nonzero;stroke:none"
       transform="matrix(0.13333333,0,0,-0.13333333,0,560)" />
    <path
       id="path81"
       d="m 1567.95,3049.09 c 26.23,0 47.5,-21.27 47.5,-47.5 v 0 c 0,-26.23 -21.27,-47.5 -47.5,-47.5 -26.23,0 -47.5,21.27 -47.5,47.5 0,26.23 21.27,47.5 47.5,47.5 z m 0,5 c -28.99,0 -52.5,-23.51 -52.5,-52.5 0,-28.99 23.51,-52.5 52.5,-52.5 29,0 52.5,23.51 52.5,52.5 v 0 c 0,28.99 -23.5,52.5 -52.5,52.5"
       style="fill:#000000;fill-opacity:1;fill-rule:nonzero;stroke:none"
       transform="matrix(0.13333333,0,0,-0.13333333,0,560)" />
    <path
       id="path82"
       d="m 1784.88,2691.04 c 0,27.6 -22.39,50 -50,50 -27.61,0 -50,-22.4 -50,-50 0,-27.61 22.39,-50 50,-50 27.61,0 50,22.39 50,50"
       style="fill:#000000;fill-opacity:1;fill-rule:nonzero;stroke:none"
       transform="matrix(0.13333333,0,0,-0.13333333,0,560)" />
    <path
       id="path83"
       d="m 1734.88,2738.54 c 26.23,0 47.5,-21.27 47.5,-47.5 v 0 c 0,-26.24 -21.27,-47.5 -47.5,-47.5 -26.23,0 -47.5,21.26 -47.5,47.5 0,26.23 21.27,47.5 47.5,47.5 z m 0,5 c -28.99,0 -52.5,-23.52 -52.5,-52.5 0,-29 23.51,-52.5 52.5,-52.5 28.99,0 52.5,23.5 52.5,52.5 v 0 c 0,28.98 -23.51,52.5 -52.5,52.5"
       style="fill:#000000;fill-opacity:1;fill-rule:nonzero;stroke:none"
       transform="matrix(0.13333333,0,0,-0.13333333,0,560)" />
    <path
       id="path84"
       d="m 1958.48,2520.04 c 0,27.6 -22.39,50 -50,50 -27.61,0 -50,-22.4 -50,-50 0,-27.61 22.39,-50 50,-50 27.61,0 50,22.39 50,50"
       style="fill:#000000;fill-opacity:1;fill-rule:nonzero;stroke:none"
       transform="matrix(0.13333333,0,0,-0.13333333,0,560)" />
    <path
       id="path85"
       d="m 1908.48,2567.54 c 26.23,0 47.5,-21.27 47.5,-47.5 v 0 c 0,-26.24 -21.27,-47.5 -47.5,-47.5 -26.23,0 -47.5,21.26 -47.5,47.5 0,26.23 21.27,47.5 47.5,47.5 z m 0,5 c -28.99,0 -52.5,-23.52 -52.5,-52.5 0,-29 23.51,-52.5 52.5,-52.5 28.99,0 52.5,23.5 52.5,52.5 v 0 c 0,28.98 -23.51,52.5 -52.5,52.5"
       style="fill:#000000;fill-opacity:1;fill-rule:nonzero;stroke:none"
       transform="matrix(0.13333333,0,0,-0.13333333,0,560)" />
    <path
       id="path86"
       d="m 2138.75,2327.41 c 0,27.61 -22.39,50 -50,50 -27.61,0 -50,-22.39 -50,-50 0,-27.61 22.39,-50 50,-50 27.61,0 50,22.39 50,50"
       style="fill:#000000;fill-opacity:1;fill-rule:nonzero;stroke:none"
       transform="matrix(0.13333333,0,0,-0.13333333,0,560)" />
    <path
       id="path87"
       d="m 2088.75,2374.91 c 26.23,0 47.5,-21.27 47.5,-47.5 v 0 c 0,-26.23 -21.27,-47.5 -47.5,-47.5 -26.23,0 -47.5,21.27 -47.5,47.5 0,26.23 21.27,47.5 47.5,47.5 z m 0,5 c -28.98,0 -52.5,-23.51 -52.5,-52.5 0,-28.98 23.52,-52.5 52.5,-52.5 28.99,0 52.5,23.52 52.5,52.5 v 0 c 0,28.99 -23.51,52.5 -52.5,52.5"
       style="fill:#000000;fill-opacity:1;fill-rule:nonzero;stroke:none"
       transform="matrix(0.13333333,0,0,-0.13333333,0,560)" />
    <path
       id="path88"
       d="m 2288.98,2219.31 c 0,27.61 -22.39,50 -50,50 -27.6,0 -50,-22.39 -50,-50 0,-27.61 22.4,-50 50,-50 27.61,0 50,22.39 50,50"
       style="fill:#000000;fill-opacity:1;fill-rule:nonzero;stroke:none"
       transform="matrix(0.13333333,0,0,-0.13333333,0,560)" />
    <path
       id="path89"
       d="m 2238.98,2266.81 c 26.23,0 47.5,-21.27 47.5,-47.5 v 0 c 0,-26.23 -21.27,-47.5 -47.5,-47.5 -26.23,0 -47.5,21.27 -47.5,47.5 0,26.23 21.27,47.5 47.5,47.5 z m 0,5 c -28.98,0 -52.5,-23.51 -52.5,-52.5 0,-28.99 23.52,-52.5 52.5,-52.5 29,0 52.5,23.51 52.5,52.5 v 0 c 0,28.99 -23.5,52.5 -52.5,52.5"
       style="fill:#000000;fill-opacity:1;fill-rule:nonzero;stroke:none"
       transform="matrix(0.13333333,0,0,-0.13333333,0,560)" />
    <path
       id="path90"
       d="m 2452.57,1971.66 c 0,27.61 -22.39,50 -50,50 -27.61,0 -50,-22.39 -50,-50 0,-27.61 22.39,-50 50,-50 27.61,0 50,22.39 50,50"
       style="fill:#000000;fill-opacity:1;fill-rule:nonzero;stroke:none"
       transform="matrix(0.13333333,0,0,-0.13333333,0,560)" />
    <path
       id="path91"
       d="m 2402.57,2019.16 c 26.23,0 47.5,-21.27 47.5,-47.5 v 0 c 0,-26.23 -21.27,-47.5 -47.5,-47.5 -26.23,0 -47.5,21.27 -47.5,47.5 0,26.23 21.27,47.5 47.5,47.5 z m 0,5 c -28.99,0 -52.5,-23.52 -52.5,-52.5 0,-29 23.51,-52.5 52.5,-52.5 28.99,0 52.5,23.5 52.5,52.5 v 0 c 0,28.98 -23.51,52.5 -52.5,52.5"
       style="fill:#000000;fill-opacity:1;fill-rule:nonzero;stroke:none"
       transform="matrix(0.13333333,0,0,-0.13333333,0,560)" />
    <path
       id="path92"
       d="m 2786.41,1610 c 0,27.61 -22.38,50 -50,50 -27.61,0 -50,-22.39 -50,-50 0,-27.61 22.39,-50 50,-50 27.62,0 50,22.39 50,50"
       style="fill:#000000;fill-opacity:1;fill-rule:nonzero;stroke:none"
       transform="matrix(0.13333333,0,0,-0.13333333,0,560)" />
    <path
       id="path93"
       d="m 2736.41,1657.5 c 26.23,0 47.5,-21.27 47.5,-47.5 v 0 c 0,-26.23 -21.27,-47.5 -47.5,-47.5 -26.22,0 -47.5,21.27 -47.5,47.5 0,26.23 21.28,47.5 47.5,47.5 z m 0,5 c -28.98,0 -52.5,-23.51 -52.5,-52.5 0,-28.99 23.52,-52.5 52.5,-52.5 29,0 52.5,23.51 52.5,52.5 v 0 c 0,28.99 -23.5,52.5 -52.5,52.5"
       style="fill:#000000;fill-opacity:1;fill-rule:nonzero;stroke:none"
       transform="matrix(0.13333333,0,0,-0.13333333,0,560)" />
    <path
       id="path94"
       d="m 3467.46,1098.96 c 0,27.61 -22.39,50 -50,50 -27.61,0 -50,-22.39 -50,-50 0,-27.6 22.39,-50 50,-50 27.61,0 50,22.4 50,50"
       style="fill:#000000;fill-opacity:1;fill-rule:nonzero;stroke:none"
       transform="matrix(0.13333333,0,0,-0.13333333,0,560)" />
    <path
       id="path95"
       d="m 3417.46,1146.46 c 26.23,0 47.5,-21.26 47.5,-47.5 v 0 c 0,-26.23 -21.27,-47.5 -47.5,-47.5 -26.23,0 -47.5,21.27 -47.5,47.5 0,26.24 21.27,47.5 47.5,47.5 z m 0,5 c -28.99,0 -52.5,-23.5 -52.5,-52.5 0,-28.98 23.51,-52.5 52.5,-52.5 28.99,0 52.5,23.52 52.5,52.5 v 0 c 0,29 -23.51,52.5 -52.5,52.5"
       style="fill:#000000;fill-opacity:1;fill-rule:nonzero;stroke:none"
       transform="matrix(0.13333333,0,0,-0.13333333,0,560)" />
    <path
       id="path96"
       d="m 4065.05,876.863 c 0,27.61 -22.39,50 -50,50 -27.61,0 -50,-22.39 -50,-50 0,-27.609 22.39,-50 50,-50 27.61,0 50,22.391 50,50"
       style="fill:#000000;fill-opacity:1;fill-rule:nonzero;stroke:none"
       transform="matrix(0.13333333,0,0,-0.13333333,0,560)" />
    <path
       id="path97"
       d="m 4015.05,924.363 c 26.23,0 47.5,-21.269 47.5,-47.5 v 0 c 0,-26.23 -21.27,-47.5 -47.5,-47.5 -26.23,0 -47.5,21.27 -47.5,47.5 0,26.231 21.27,47.5 47.5,47.5 z m 0,5 c -29,0 -52.5,-23.511 -52.5,-52.5 0,-28.992 23.5,-52.5 52.5,-52.5 28.99,0 52.5,23.508 52.5,52.5 v 0 c 0,28.989 -23.51,52.5 -52.5,52.5"
       style="fill:#000000;fill-opacity:1;fill-rule:nonzero;stroke:none"
       transform="matrix(0.13333333,0,0,-0.13333333,0,560)" />
    <path
       id="path98"
       d="m 1889.91,3890.41 30.27,-180.59 70.01,-349.98 70.01,-296.19 70.01,-252.88 70.02,-217.62 70.01,-188.63 70.01,-164.56 70.01,-144.43 70.01,-127.44 70.01,-113.02 70.01,-100.7 70.01,-90.1 70.01,-80.94 70.01,-72.99 70.01,-66.03 70.01,-59.95 70.01,-54.57 70.01,-49.84 70.02,-45.62 70.01,-41.87 70.01,-38.52 70.01,-35.53 70.01,-32.82 70.01,-30.4 70.01,-28.2 70.01,-26.2 70.01,-24.399 70.01,-22.762 70.01,-21.258 70.01,-19.883 70.01,-18.629 70.01,-17.48 70.02,-16.41 70.01,-15.449 70.01,-14.54 70.01,-13.71 70.01,-12.95 70.01,-12.23 70.01,-11.57 70.01,-10.95 70.01,-10.39 70.01,-9.848 70.01,-9.352 70.01,-8.89 70.01,-8.461 69.87,-8.039"
       style="fill:none;stroke:#ff0000;stroke-width:20;stroke-linecap:butt;stroke-linejoin:bevel;stroke-miterlimit:10;stroke-dasharray:80, 20, 40, 20;stroke-dashoffset:0;stroke-opacity:1"
       transform="matrix(0.13333333,0,0,-0.13333333,0,560)" />
    <path
       id="path99"
       d="m 2510,3030 h 2480 v 780 H 2510 Z"
       style="fill:#ffffff;fill-opacity:1;fill-rule:nonzero;stroke:none"
       transform="matrix(0.13333333,0,0,-0.13333333,0,560)" />
    <text
       id="text99"
       xml:space="preserve"
       transform="matrix(1.3333333,0,0,1.3333333,384,73.428)"><tspan
         style="font-variant:normal;font-weight:normal;font-size:14.4px;font-family:Helvetica;writing-mode:lr-tb;fill:#000000;fill-opacity:1;fill-rule:nonzero;stroke:none"
         x="0 9.6048002 17.6112 22.406401 26.409599 34.416 38.419201 42.422401 52.027199 59.2272 67.233597 75.239998 80.035202 83.232002 95.227203 103.2336 111.24 115.2432 123.2496 126.4464 130.4496 138.45599 146.4624 150.46561"
         y="0"
         sodipodi:role="line"
         id="tspan99">Bar 1: Experimental data</tspan></text>
    <path
       id="path100"
       d="m 2660,3659.29 h 80 v 80 h -80 z"
       style="fill:#000000;fill-opacity:1;fill-rule:nonzero;stroke:#000000;stroke-width:5;stroke-linecap:butt;stroke-linejoin:miter;stroke-miterlimit:10;stroke-dasharray:none;stroke-opacity:1"
       transform="matrix(0.13333333,0,0,-0.13333333,0,560)" />
    <text
       id="text100"
       xml:space="preserve"
       transform="matrix(1.3333333,0,0,1.3333333,384,98.253333)"><tspan
         style="font-variant:normal;font-weight:normal;font-size:14.4px;font-family:Helvetica;writing-mode:lr-tb;fill:#000000;fill-opacity:1;fill-rule:nonzero;stroke:none"
         x="0 9.6048002 17.6112 22.406401 26.409599 34.416 38.419201 42.422401 52.027199 59.2272 69.624001 72.820801 80.827202 88.833603 92.8368 102.4416 110.448 113.6448 121.6512 126.4464 130.4496 140.84641 145.6416 148.83839 152.8416 156.03841 163.2384 171.2448 174.4416 178.44479 181.6416 189.64799 197.6544"
         y="0"
         sodipodi:role="line"
         id="tspan100">Bar 1: Aswing Euler Critical load</tspan></text>
    <path
       id="path101"
       d="m 2550,3513.1 h 300"
       style="fill:none;stroke:#ff0000;stroke-width:20;stroke-linecap:butt;stroke-linejoin:bevel;stroke-miterlimit:10;stroke-dasharray:80, 80;stroke-dashoffset:0;stroke-opacity:1"
       transform="matrix(0.13333333,0,0,-0.13333333,0,560)" />
    <text
       id="text101"
       xml:space="preserve"
       transform="matrix(1.3333333,0,0,1.3333333,384,123.08)"><tspan
         style="font-variant:normal;font-weight:normal;font-size:14.4px;font-family:Helvetica;writing-mode:lr-tb;fill:#000000;fill-opacity:1;fill-rule:nonzero;stroke:none"
         x="0 9.6048002 17.6112 22.406401 26.409599 34.416 38.419201 42.422401 52.027199 59.2272 67.233597 75.239998 80.035202 83.232002 95.227203 103.2336 111.24 115.2432 123.2496 126.4464 130.4496 138.45599 146.4624 150.46561"
         y="0"
         sodipodi:role="line"
         id="tspan101">Bar 2: Experimental data</tspan></text>
    <path
       id="path102"
       d="m 2750,3326.9 c 0,27.61 -22.39,50 -50,50 -27.61,0 -50,-22.39 -50,-50 0,-27.61 22.39,-50 50,-50 27.61,0 50,22.39 50,50"
       style="fill:#000000;fill-opacity:1;fill-rule:nonzero;stroke:none"
       transform="matrix(0.13333333,0,0,-0.13333333,0,560)" />
    <path
       id="path103"
       d="m 2700,3374.4 c 26.23,0 47.5,-21.27 47.5,-47.5 v 0 c 0,-26.23 -21.27,-47.5 -47.5,-47.5 -26.23,0 -47.5,21.27 -47.5,47.5 0,26.23 21.27,47.5 47.5,47.5 z m 0,5 c -28.99,0 -52.5,-23.51 -52.5,-52.5 0,-28.99 23.51,-52.5 52.5,-52.5 28.99,0 52.5,23.51 52.5,52.5 v 0 c 0,28.99 -23.51,52.5 -52.5,52.5"
       style="fill:#000000;fill-opacity:1;fill-rule:nonzero;stroke:none"
       transform="matrix(0.13333333,0,0,-0.13333333,0,560)" />
    <text
       id="text103"
       xml:space="preserve"
       transform="matrix(1.3333333,0,0,1.3333333,384,147.90533)"><tspan
         style="font-variant:normal;font-weight:normal;font-size:14.4px;font-family:Helvetica;writing-mode:lr-tb;fill:#000000;fill-opacity:1;fill-rule:nonzero;stroke:none"
         x="0 9.6048002 17.6112 22.406401 26.409599 34.416 38.419201 42.422401 52.027199 59.2272 69.624001 72.820801 80.827202 88.833603 92.8368 102.4416 110.448 113.6448 121.6512 126.4464 130.4496 140.84641 145.6416 148.83839 152.8416 156.03841 163.2384 171.2448 174.4416 178.44479 181.6416 189.64799 197.6544"
         y="0"
         sodipodi:role="line"
         id="tspan103">Bar 2: Aswing Euler Critical load</tspan></text>
    <path
       id="path104"
       d="m 2550,3140.71 h 300"
       style="fill:none;stroke:#ff0000;stroke-width:20;stroke-linecap:butt;stroke-linejoin:bevel;stroke-miterlimit:10;stroke-dasharray:80, 20, 40, 20;stroke-dashoffset:0;stroke-opacity:1"
       transform="matrix(0.13333333,0,0,-0.13333333,0,560)" />
    <path
       id="path105"
       d="m 2510,3030 h 2480 v 780 H 2510 Z"
       style="fill:none;stroke:#262626;stroke-width:5;stroke-linecap:butt;stroke-linejoin:miter;stroke-miterlimit:10;stroke-dasharray:none;stroke-opacity:1"
       transform="matrix(0.13333333,0,0,-0.13333333,0,560)" />
    <rect
       style="fill:#ff0000;fill-opacity:0.5;stroke:#000000;stroke-width:1.73252"
       id="rect73"
       width="17.517694"
       height="231.09879"
       x="113.85871"
       y="247.64104" />
    <path
       style="fill:none;stroke:#000000;stroke-width:1.73252"
       d="m 123.12288,478.57141 v 10.61168"
       id="path75-4" />
    <path
       style="fill:none;stroke:#000000;stroke-width:1.73252"
       d="m 100.88888,488.67777 h 45.14176"
       id="path76-1" />
    <path
       style="fill:none;stroke:#000000;stroke-width:1.73252"
       d="m 107.71068,488.42511 -5.72694,5.22162"
       id="path77-8" />
    <path
       style="fill:none;stroke:#000000;stroke-width:1.73252"
       d="m 115.20622,488.3409 -5.72694,5.05318"
       id="path78-5" />
    <path
       style="fill:none;stroke:#000000;stroke-width:1.73252"
       d="m 123.6282,488.59355 -5.55851,4.7163"
       id="path79-8" />
    <path
       style="fill:none;stroke:#000000;stroke-width:1.73252"
       d="m 131.96004,488.5479 -5.72694,5.05317"
       id="path78-3" />
    <path
       style="fill:none;stroke:#000000;stroke-width:1.73252"
       d="m 140.04514,488.88477 -5.5585,4.7163"
       id="path79-9" />
    <path
       style="fill:none;stroke:#0000fd;stroke-width:1.73252;stroke-opacity:1;marker-start:url(#Triangle)"
       d="m 122.38076,241.36148 v -43.5923"
       id="path80-9" />
    <path
       style="fill:none;stroke:#000000;stroke-width:0.86626;stroke-dasharray:none;stroke-dashoffset:0;marker-end:url(#Triangle)"
       d="M 122.02384,359.90341 H 197.1478"
       id="path83-9" />
    <path
       style="fill:none;stroke:#000000;stroke-width:1.73252;stroke-dasharray:none;stroke-dashoffset:0;marker-start:url(#Triangle);marker-end:url(#Triangle)"
       d="m 172.21877,453.55569 v 36.71978 h 37.39354"
       id="path84-9" />
    <path
       style="fill:none;stroke:#000000;stroke-width:0.86626;stroke-dasharray:none;stroke-dashoffset:0"
       d="m 121.66613,346.64996 v 27.39405"
       id="path85-3" />
    <path
       style="fill:none;stroke:#000000;stroke-width:1.73252;stroke-dasharray:13.8602, 1.73252;stroke-dashoffset:0"
       d="m 114.6125,248.39655 c 174.55829,118.15107 -0.33688,229.07753 -0.33688,229.07753"
       id="path81-3"
       sodipodi:nodetypes="cc" />
    <path
       style="fill:none;stroke:#000000;stroke-width:1.73252;stroke-dasharray:13.8602, 1.73252;stroke-dashoffset:0"
       d="m 132.46708,247.04904 c 166.07851,115.80864 -0.67375,231.0988 -0.67375,231.0988"
       id="path82-7"
       sodipodi:nodetypes="cc" />
    <g
       inkscape:label=""
       transform="matrix(0.86625955,0,0,0.86625955,217.42646,484.57325)"
       id="g101">
      <g
         fill="#000000"
         fill-opacity="1"
         id="g2"
         transform="matrix(1.33333,0,0,1.33333,-3.42817,-2.3715)">
        <g
           id="use1"
           transform="translate(1.993,10.888)">
          <path
             d="m 9.796875,-8.421875 c -0.671875,0.125 -0.921875,0.609375 -0.921875,1 0,0.5 0.40625,0.671875 0.6875,0.671875 0.625,0 1.0625,-0.546875 1.0625,-1.09375 0,-0.875 -1,-1.265625 -1.859375,-1.265625 -1.265625,0 -1.96875,1.234375 -2.15625,1.625 -0.46875,-1.546875 -1.75,-1.625 -2.125,-1.625 -2.109375,0 -3.21875,2.703125 -3.21875,3.15625 0,0.09375 0.078125,0.1875 0.21875,0.1875 0.171875,0 0.203125,-0.125 0.25,-0.203125 0.703125,-2.296875 2.09375,-2.734375 2.6875,-2.734375 0.921875,0 1.109375,0.875 1.109375,1.375 0,0.453125 -0.125,0.921875 -0.359375,1.921875 L 4.46875,-2.578125 c -0.3125,1.234375 -0.921875,2.375 -2.015625,2.375 -0.09375,0 -0.609375,0 -1.046875,-0.265625 C 2.140625,-0.625 2.3125,-1.234375 2.3125,-1.484375 2.3125,-1.90625 2,-2.140625 1.609375,-2.140625 c -0.5,0 -1.03125,0.421875 -1.03125,1.09375 0,0.859375 0.96875,1.25 1.859375,1.25 0.984375,0 1.6875,-0.78125 2.125,-1.625 0.328125,1.21875 1.359375,1.625 2.125,1.625 2.109375,0 3.234375,-2.703125 3.234375,-3.15625 0,-0.109375 -0.09375,-0.1875 -0.21875,-0.1875 -0.1875,0 -0.203125,0.109375 -0.265625,0.265625 -0.5625,1.828125 -1.75,2.671875 -2.6875,2.671875 -0.71875,0 -1.109375,-0.546875 -1.109375,-1.390625 0,-0.453125 0.078125,-0.78125 0.40625,-2.140625 l 0.734375,-2.8125 c 0.296875,-1.234375 1,-2.15625 1.953125,-2.15625 0.046875,0 0.625,0 1.0625,0.28125 z m 0,0"
             id="path4-7" />
        </g>
      </g>
    </g>
    <g
       inkscape:label=""
       transform="matrix(0.86625955,0,0,0.86625955,181.21867,446.45978)"
       id="g104">
      <g
         fill="#000000"
         fill-opacity="1"
         id="g103"
         transform="matrix(1.33333,0,0,1.33333,-3.40733,-2.37283)">
        <g
           id="g102"
           transform="translate(1.993,10.889)">
          <path
             d="m 5.4375,2.3125 c -0.5625,0.78125 -1.375,1.484375 -2.375,1.484375 -0.25,0 -1.25,-0.03125 -1.546875,-0.984375 C 1.5625,2.828125 1.671875,2.828125 1.71875,2.828125 2.328125,2.828125 2.75,2.296875 2.75,1.8125 2.75,1.34375 2.359375,1.171875 2.046875,1.171875 c -0.328125,0 -1.0625,0.25 -1.0625,1.265625 0,1.046875 0.890625,1.78125 2.078125,1.78125 2.0625,0 4.140625,-1.90625 4.71875,-4.203125 L 9.8125,-8.03125 c 0.015625,-0.109375 0.0625,-0.234375 0.0625,-0.359375 0,-0.3125 -0.25,-0.515625 -0.5625,-0.515625 -0.1875,0 -0.609375,0.09375 -0.78125,0.703125 L 7,-2.125 c -0.09375,0.375 -0.09375,0.40625 -0.265625,0.640625 -0.40625,0.578125 -1.09375,1.28125 -2.09375,1.28125 -1.15625,0 -1.25,-1.140625 -1.25,-1.703125 0,-1.171875 0.5625,-2.765625 1.109375,-4.25 0.234375,-0.59375 0.359375,-0.890625 0.359375,-1.296875 0,-0.875 -0.625,-1.65625 -1.640625,-1.65625 -1.890625,0 -2.65625,3 -2.65625,3.15625 0,0.09375 0.078125,0.1875 0.21875,0.1875 0.1875,0 0.203125,-0.078125 0.296875,-0.375 0.484375,-1.734375 1.28125,-2.5625 2.078125,-2.5625 0.1875,0 0.546875,0 0.546875,0.6875 0,0.53125 -0.234375,1.140625 -0.546875,1.921875 -1.015625,2.703125 -1.015625,3.390625 -1.015625,3.890625 0,1.953125 1.40625,2.40625 2.4375,2.40625 0.609375,0 1.34375,-0.1875 2.078125,-0.953125 l 0.015625,0.03125 C 6.359375,0.5 6.15625,1.296875 5.4375,2.3125 Z m 0,0"
             id="path101-3" />
        </g>
      </g>
    </g>
    <g
       inkscape:label=""
       transform="matrix(0.86625955,0,0,0.86625955,213.99201,404.37158)"
       id="g110">
      <g
         fill="#000000"
         fill-opacity="1"
         id="g8"
         transform="matrix(1.33333,0,0,1.33333,-3.7615,-2.66967)">
        <g
           id="use7"
           transform="translate(1.993,17.471001)">
          <path
             d="m 5.375,-9 c -2.640625,0.640625 -4.546875,3.375 -4.546875,5.796875 0,2.21875 1.484375,3.453125 3.140625,3.453125 2.4375,0 4.09375,-3.34375 4.09375,-6.09375 0,-1.859375 -0.875,-3 -1.390625,-3.671875 -0.765625,-0.984375 -2,-2.5625 -2,-3.5625 0,-0.34375 0.265625,-0.96875 1.171875,-0.96875 0.640625,0 1.03125,0.234375 1.65625,0.578125 0.1875,0.125 0.65625,0.390625 0.921875,0.390625 0.4375,0 0.75,-0.4375 0.75,-0.765625 0,-0.390625 -0.3125,-0.453125 -1.03125,-0.609375 -0.96875,-0.21875 -1.265625,-0.21875 -1.609375,-0.21875 -0.359375,0 -2.375,0 -2.375,2.109375 0,1.015625 0.515625,2.1875 1.21875,3.5625 z m 0.21875,0.390625 c 0.78125,1.625 1.09375,2.25 1.09375,3.59375 0,1.609375 -0.859375,4.84375 -2.703125,4.84375 -0.796875,0 -1.953125,-0.53125 -1.953125,-2.453125 0,-1.34375 0.75,-5.25 3.5625,-5.984375 z m 0,0"
             id="path104-2" />
        </g>
      </g>
      <g
         fill="#000000"
         fill-opacity="1"
         id="g9"
         transform="matrix(1.33333,0,0,1.33333,-3.7615,-2.66967)">
        <g
           id="use8"
           transform="translate(11.718839,17.471001)">
          <path
             d="m 9.796875,-8.421875 c -0.671875,0.125 -0.921875,0.609375 -0.921875,1 0,0.5 0.40625,0.671875 0.6875,0.671875 0.625,0 1.0625,-0.546875 1.0625,-1.09375 0,-0.875 -1,-1.265625 -1.859375,-1.265625 -1.265625,0 -1.96875,1.234375 -2.15625,1.625 -0.46875,-1.546875 -1.75,-1.625 -2.125,-1.625 -2.109375,0 -3.21875,2.703125 -3.21875,3.15625 0,0.09375 0.078125,0.1875 0.21875,0.1875 0.171875,0 0.203125,-0.125 0.25,-0.203125 0.703125,-2.296875 2.09375,-2.734375 2.6875,-2.734375 0.921875,0 1.109375,0.875 1.109375,1.375 0,0.453125 -0.125,0.921875 -0.359375,1.921875 L 4.46875,-2.578125 c -0.3125,1.234375 -0.921875,2.375 -2.015625,2.375 -0.09375,0 -0.609375,0 -1.046875,-0.265625 C 2.140625,-0.625 2.3125,-1.234375 2.3125,-1.484375 2.3125,-1.90625 2,-2.140625 1.609375,-2.140625 c -0.5,0 -1.03125,0.421875 -1.03125,1.09375 0,0.859375 0.96875,1.25 1.859375,1.25 0.984375,0 1.6875,-0.78125 2.125,-1.625 0.328125,1.21875 1.359375,1.625 2.125,1.625 2.109375,0 3.234375,-2.703125 3.234375,-3.15625 0,-0.109375 -0.09375,-0.1875 -0.21875,-0.1875 -0.1875,0 -0.203125,0.109375 -0.265625,0.265625 -0.5625,1.828125 -1.75,2.671875 -2.6875,2.671875 -0.71875,0 -1.109375,-0.546875 -1.109375,-1.390625 0,-0.453125 0.078125,-0.78125 0.40625,-2.140625 l 0.734375,-2.8125 c 0.296875,-1.234375 1,-2.15625 1.953125,-2.15625 0.046875,0 0.625,0 1.0625,0.28125 z m 0,0"
             id="path105-5" />
        </g>
      </g>
      <g
         fill="#000000"
         fill-opacity="1"
         id="g10"
         transform="matrix(1.33333,0,0,1.33333,-3.7615,-2.66967)">
        <g
           id="use9"
           transform="translate(23.225,17.471001)">
          <path
             d="m 6.328125,5.046875 c 0,-0.03125 0,-0.0625 -0.0625,-0.125 -0.953125,-0.96875 -3.5,-3.625 -3.5,-10.0625 0,-6.453125 2.5,-9.078125 3.515625,-10.109375 0,-0.01563 0.046875,-0.0625 0.046875,-0.125 0,-0.0625 -0.0625,-0.09375 -0.15625,-0.09375 -0.21875,0 -1.984375,1.53125 -2.984375,3.796875 -1.046875,2.296875 -1.328125,4.53125 -1.328125,6.5 0,1.5 0.140625,4.015625 1.390625,6.6875 0.984375,2.140625 2.671875,3.65625 2.921875,3.65625 0.109375,0 0.15625,-0.046875 0.15625,-0.125 z m 0,0"
             id="path106" />
        </g>
      </g>
      <g
         fill="#000000"
         fill-opacity="1"
         id="g11"
         transform="matrix(1.33333,0,0,1.33333,-3.7615,-2.66967)">
        <g
           id="use10"
           transform="translate(30.542,17.471001)">
          <path
             d="m 4.15625,-8.296875 h 1.890625 c 0.390625,0 0.609375,0 0.609375,-0.375 0,-0.234375 -0.125,-0.234375 -0.546875,-0.234375 h -1.8125 L 5.0625,-11.921875 c 0.078125,-0.28125 0.078125,-0.328125 0.078125,-0.46875 0,-0.328125 -0.265625,-0.515625 -0.53125,-0.515625 -0.171875,0 -0.640625,0.0625 -0.8125,0.71875 L 3,-8.90625 H 1.046875 c -0.40625,0 -0.59375,0 -0.59375,0.390625 0,0.21875 0.140625,0.21875 0.53125,0.21875 h 1.84375 L 1.46875,-2.84375 c -0.171875,0.71875 -0.234375,0.921875 -0.234375,1.1875 0,0.96875 0.6875,1.859375 1.84375,1.859375 2.09375,0 3.203125,-3.015625 3.203125,-3.15625 0,-0.125 -0.078125,-0.1875 -0.203125,-0.1875 -0.046875,0 -0.125,0 -0.171875,0.078125 -0.015625,0.03125 -0.046875,0.046875 -0.1875,0.375 -0.4375,1.03125 -1.375,2.484375 -2.578125,2.484375 -0.625,0 -0.65625,-0.515625 -0.65625,-0.96875 0,-0.03125 0,-0.421875 0.0625,-0.671875 z m 0,0"
             id="path107" />
        </g>
      </g>
      <g
         fill="#000000"
         fill-opacity="1"
         id="g12"
         transform="matrix(1.33333,0,0,1.33333,-3.7615,-2.66967)">
        <g
           id="use11"
           transform="translate(37.848,17.471001)">
          <path
             d="m 5.4375,-5.140625 c 0,-1.484375 -0.15625,-4.015625 -1.390625,-6.671875 -0.984375,-2.15625 -2.6875,-3.65625 -2.9375,-3.65625 -0.0625,0 -0.140625,0.01563 -0.140625,0.125 0,0.03125 0.015625,0.0625 0.046875,0.09375 C 2,-14.21875 4.53125,-11.59375 4.53125,-5.171875 4.53125,1.28125 2.03125,3.90625 1.015625,4.9375 0.984375,4.984375 0.96875,5 0.96875,5.046875 c 0,0.09375 0.078125,0.125 0.140625,0.125 0.234375,0 1.984375,-1.53125 3,-3.8125 1.03125,-2.28125 1.328125,-4.515625 1.328125,-6.5 z m 0,0"
             id="path108" />
        </g>
      </g>
      <g
         fill="#000000"
         fill-opacity="1"
         id="g13"
         transform="matrix(1.33333,0,0,1.33333,-3.7615,-2.66967)">
        <g
           id="use12"
           transform="translate(50.904999,17.471001)">
          <path
             d="m 17.234375,-4.75 c -1.140625,0.859375 -1.703125,1.71875 -1.859375,1.984375 -0.9375,1.421875 -1.09375,2.71875 -1.09375,2.75 0,0.25 0.234375,0.25 0.40625,0.25 0.34375,0 0.375,-0.046875 0.453125,-0.421875 0.46875,-2.015625 1.6875,-3.765625 4.03125,-4.703125 0.25,-0.09375 0.3125,-0.125 0.3125,-0.28125 0,-0.140625 -0.125,-0.203125 -0.171875,-0.21875 C 18.40625,-5.75 15.90625,-6.78125 15.125,-10.25 c -0.0625,-0.25 -0.09375,-0.3125 -0.4375,-0.3125 -0.171875,0 -0.40625,0 -0.40625,0.25 0,0.04687 0.171875,1.34375 1.046875,2.734375 0.40625,0.609375 1.015625,1.34375 1.90625,2 H 1.875 c -0.359375,0 -0.734375,0 -0.734375,0.40625 0,0.421875 0.375,0.421875 0.734375,0.421875 z m 0,0"
             id="path109" />
        </g>
      </g>
      <g
         fill="#000000"
         fill-opacity="1"
         id="g14"
         transform="matrix(1.33333,0,0,1.33333,-3.7615,-2.66967)">
        <g
           id="use13"
           transform="translate(77.311676,17.471001)">
          <path
             d="M 10.5,-5.59375 C 9.375,-7 9.125,-7.3125 8.484375,-7.828125 7.328125,-8.765625 6.171875,-9.125 5.125,-9.125 c -2.421875,0 -3.984375,2.265625 -3.984375,4.6875 0,2.375 1.53125,4.671875 3.90625,4.671875 2.375,0 4.078125,-1.890625 5.09375,-3.546875 1.109375,1.40625 1.359375,1.71875 2,2.234375 1.15625,0.9375 2.3125,1.3125 3.375,1.3125 2.421875,0 3.984375,-2.28125 3.984375,-4.703125 0,-2.375 -1.53125,-4.65625 -3.90625,-4.65625 -2.375,0 -4.09375,1.875 -5.09375,3.53125 z m 0.53125,0.703125 c 0.84375,-1.484375 2.375,-3.578125 4.703125,-3.578125 2.203125,0 3.3125,2.140625 3.3125,4 0,2.03125 -1.390625,3.703125 -3.203125,3.703125 -1.203125,0 -2.125,-0.859375 -2.5625,-1.296875 -0.515625,-0.5625 -0.984375,-1.203125 -2.25,-2.828125 z M 9.609375,-4 c -0.84375,1.484375 -2.375,3.5625 -4.71875,3.5625 -2.1875,0 -3.296875,-2.140625 -3.296875,-4 0,-2.03125 1.375,-3.703125 3.203125,-3.703125 1.1875,0 2.125,0.875 2.5625,1.296875 0.515625,0.5625 0.984375,1.203125 2.25,2.84375 z m 0,0"
             id="path110" />
        </g>
      </g>
    </g>
    <path
       style="fill:none;fill-opacity:0.5;stroke:#000000;stroke-width:1.73252;stroke-dasharray:none;stroke-dashoffset:0"
       d="m 211.29671,414.81464 c -49.1843,-9.43261 -59.96442,-51.20557 -59.96442,-51.20557"
       id="path112" />
    <g
       inkscape:label=""
       transform="matrix(0.86625955,0,0,0.86625955,110.77132,174.69452)"
       id="g115"
       style="fill:#0000ff;fill-opacity:1"
       inkscape:export-filename="Specimen_3_4.pdf"
       inkscape:export-xdpi="96"
       inkscape:export-ydpi="96">
      <g
         fill="#000000"
         fill-opacity="1"
         id="g5"
         transform="matrix(1.33333,0,0,1.33333,-3.92817,-2.73267)"
         style="fill:#0000ff;fill-opacity:1">
        <g
           id="use3"
           transform="translate(1.993,16.112)"
           style="fill:#0000ff;fill-opacity:1">
          <path
             d="M 6.140625,-6.734375 H 8.125 c 1.5625,0 1.6875,0.359375 1.6875,0.953125 0,0.265625 -0.046875,0.5625 -0.140625,1.015625 -0.046875,0.078125 -0.0625,0.1875 -0.0625,0.21875 0,0.140625 0.078125,0.234375 0.21875,0.234375 0.171875,0 0.1875,-0.09375 0.265625,-0.421875 l 1.203125,-4.8125 c 0,-0.078125 -0.0625,-0.203125 -0.203125,-0.203125 -0.1875,0 -0.203125,0.078125 -0.296875,0.4375 -0.421875,1.546875 -0.84375,1.984375 -2.640625,1.984375 h -1.875 L 7.625,-12.6875 c 0.1875,-0.71875 0.21875,-0.78125 1.078125,-0.78125 h 2.765625 c 2.578125,0 2.953125,0.765625 2.953125,2.234375 0,0.125 0,0.578125 -0.0625,1.109375 -0.03125,0.09375 -0.0625,0.359375 -0.0625,0.4375 0,0.171875 0.09375,0.234375 0.21875,0.234375 0.15625,0 0.234375,-0.09375 0.28125,-0.46875 l 0.421875,-3.609375 c 0,-0.0625 0.04687,-0.265625 0.04687,-0.3125 0,-0.21875 -0.1875,-0.21875 -0.5625,-0.21875 H 4.92187 c -0.390625,0 -0.609375,0 -0.609375,0.375 0,0.21875 0.15625,0.21875 0.5,0.21875 1.28125,0 1.28125,0.140625 1.28125,0.375 0,0.09375 -0.015625,0.1875 -0.078125,0.40625 L 3.21875,-1.53125 C 3.03125,-0.8125 3,-0.59375 1.546875,-0.59375 c -0.390625,0 -0.59375,0 -0.59375,0.359375 C 0.953125,0 1.140625,0 1.265625,0 1.65625,0 2.0625,-0.046875 2.453125,-0.046875 h 2.6875 C 5.59375,-0.046875 6.09375,0 6.546875,0 c 0.1875,0 0.4375,0 0.4375,-0.375 0,-0.21875 -0.125,-0.21875 -0.578125,-0.21875 -1.640625,0 -1.671875,-0.15625 -1.671875,-0.453125 0,-0.109375 0.03125,-0.28125 0.078125,-0.421875 z m 0,0"
             id="path113"
             style="fill:#0000ff;fill-opacity:1" />
        </g>
      </g>
      <g
         fill="#000000"
         fill-opacity="1"
         id="g6"
         transform="matrix(1.33333,0,0,1.33333,-3.92817,-2.73267)"
         style="fill:#0000ff;fill-opacity:1">
        <g
           id="use4"
           transform="translate(15.089,19.211)"
           style="fill:#0000ff;fill-opacity:1">
          <path
             d="m 5.609375,-5.390625 c -0.28125,0 -0.40625,0 -0.609375,0.171875 -0.078125,0.0625 -0.234375,0.28125 -0.234375,0.515625 0,0.28125 0.21875,0.453125 0.484375,0.453125 0.34375,0 0.734375,-0.28125 0.734375,-0.859375 0,-0.6875 -0.65625,-1.21875 -1.65625,-1.21875 -1.875,0 -3.75,2.046875 -3.75,4.09375 0,1.25 0.765625,2.375 2.234375,2.375 C 4.765625,0.140625 6,-1.375 6,-1.5625 6,-1.65625 5.90625,-1.71875 5.859375,-1.71875 c -0.046875,0 -0.0625,0.015625 -0.1875,0.140625 -0.921875,1.21875 -2.28125,1.4375 -2.828125,1.4375 -1,0 -1.3125,-0.859375 -1.3125,-1.578125 0,-0.5 0.25,-1.890625 0.765625,-2.875 0.375,-0.671875 1.140625,-1.4375 2.046875,-1.4375 0.1875,0 0.984375,0.015625 1.265625,0.640625 z m 0,0"
             id="path114"
             style="fill:#0000ff;fill-opacity:1" />
        </g>
        <g
           id="use5"
           transform="translate(21.134489,19.211)"
           style="fill:#0000ff;fill-opacity:1">
          <path
             d="M 5.578125,-5.859375 C 5.140625,-5.78125 4.90625,-5.46875 4.90625,-5.15625 c 0,0.34375 0.265625,0.46875 0.46875,0.46875 0.40625,0 0.734375,-0.34375 0.734375,-0.78125 0,-0.453125 -0.4375,-0.859375 -1.15625,-0.859375 -0.578125,0 -1.234375,0.265625 -1.84375,1.140625 -0.09375,-0.765625 -0.671875,-1.140625 -1.25,-1.140625 -0.546875,0 -0.84375,0.4375 -1.015625,0.75 -0.234375,0.515625 -0.453125,1.375 -0.453125,1.453125 0,0.046875 0.046875,0.125 0.15625,0.125 0.109375,0 0.125,-0.015625 0.21875,-0.34375 0.203125,-0.859375 0.484375,-1.6875 1.0625,-1.6875 0.34375,0 0.4375,0.234375 0.4375,0.65625 0,0.3125 -0.140625,0.875 -0.25,1.3125 L 1.625,-2.515625 c -0.0625,0.28125 -0.21875,0.921875 -0.296875,1.1875 -0.09375,0.359375 -0.25,1.046875 -0.25,1.109375 0,0.203125 0.15625,0.359375 0.375,0.359375 0.15625,0 0.421875,-0.09375 0.515625,-0.390625 0.046875,-0.109375 0.5625,-2.28125 0.65625,-2.609375 0.078125,-0.3125 0.15625,-0.609375 0.234375,-0.921875 0.046875,-0.203125 0.109375,-0.4375 0.15625,-0.625 C 3.0625,-4.53125 3.4375,-5.234375 3.796875,-5.546875 3.96875,-5.703125 4.34375,-6.03125 4.9375,-6.03125 c 0.21875,0 0.453125,0.03125 0.640625,0.171875 z m 0,0"
             id="path115"
             style="fill:#0000ff;fill-opacity:1" />
        </g>
      </g>
    </g>
    <rect
       style="fill:#ff0000;fill-opacity:0.5;stroke:#000000;stroke-width:3.32714;stroke-dasharray:none;stroke-opacity:1"
       id="rect105"
       width="146.70975"
       height="67.045036"
       x="473.01447"
       y="165.14722" />
    <path
       style="fill:#ff0000;fill-opacity:0.5;stroke:#000000;stroke-width:1;stroke-dasharray:none;stroke-opacity:1"
       d="m 473.68693,212.577 v 37.94806"
       id="path111" />
    <path
       style="fill:#ff0000;fill-opacity:0.5;stroke:#000000;stroke-width:1;stroke-dasharray:none;stroke-opacity:1"
       d="m 620.59617,211.03289 v 40.14796"
       id="path116" />
    <path
       style="fill:#ff0000;fill-opacity:0.5;stroke:#000000;stroke-width:1;stroke-dasharray:none;stroke-opacity:1"
       d="M 474.62579,232.08817 H 458.58323"
       id="path117"
       sodipodi:nodetypes="cc" />
    <path
       style="fill:#ff0000;fill-opacity:0.5;stroke:#000000;stroke-width:1;stroke-dasharray:none;stroke-opacity:1"
       d="M 473.25087,165.26657 H 459.44155"
       id="path118"
       sodipodi:nodetypes="cc" />
    <path
       style="fill:#ff0000;fill-opacity:0.5;stroke:#000000;stroke-width:1;stroke-dasharray:none;stroke-opacity:1;marker-start:url(#Triangle);marker-end:url(#Triangle)"
       d="M 477.59939,245.90175 H 617.40495"
       id="path119"
       sodipodi:nodetypes="cc" />
    <path
       style="fill:#ff0000;fill-opacity:0.5;stroke:#000000;stroke-width:1;stroke-dasharray:none;stroke-opacity:1;marker-start:url(#Triangle);marker-end:url(#Triangle)"
       d="m 465.15495,168.7073 v 59.5"
       id="path120"
       sodipodi:nodetypes="cc" />
    <g
       inkscape:label=""
       transform="translate(454.27638,164.71674)"
       id="g129">
      <g
         fill="#000000"
         fill-opacity="1"
         id="g125"
         transform="matrix(1.33333,0,0,1.33333,-78.028544,18.350962)">
        <g
           id="use6"
           transform="translate(1.993,15.311)">
          <path
             d="m 8.609375,-3.203125 h -0.375 c -0.203125,1.46875 -0.359375,1.71875 -0.453125,1.84375 -0.09375,0.15625 -1.578125,0.15625 -1.875,0.15625 H 1.9375 C 2.6875,-2 4.125,-3.46875 5.890625,-5.171875 c 1.25,-1.1875 2.71875,-2.59375 2.71875,-4.640625 0,-2.4375 -1.9375,-3.84375 -4.109375,-3.84375 -2.265625,0 -3.65625,2 -3.65625,3.859375 0,0.8125 0.609375,0.921875 0.84375,0.921875 0.21875,0 0.828125,-0.125 0.828125,-0.859375 0,-0.640625 -0.53125,-0.828125 -0.828125,-0.828125 -0.125,0 -0.234375,0.03125 -0.328125,0.0625 0.390625,-1.75 1.59375,-2.609375 2.859375,-2.609375 1.796875,0 2.96875,1.421875 2.96875,3.296875 0,1.796875 -1.046875,3.34375 -2.234375,4.6875 L 0.84375,-0.46875 V 0 H 8.125 Z m 0,0"
             id="path121" />
        </g>
        <g
           id="g122"
           transform="translate(11.468822,15.311)">
          <path
             d="m 3.421875,-0.84375 c 0,-0.515625 -0.40625,-0.84375 -0.84375,-0.84375 -0.40625,0 -0.84375,0.328125 -0.84375,0.84375 C 1.734375,-0.328125 2.140625,0 2.578125,0 3,0 3.421875,-0.328125 3.421875,-0.84375 Z m 0,0"
             id="path122" />
        </g>
        <g
           id="g123"
           transform="translate(16.626183,15.311)">
          <path
             d="m 2.359375,-12.078125 c 0.203125,0.07813 1.046875,0.34375 1.921875,0.34375 1.921875,0 2.96875,-1.03125 3.5625,-1.625 0,-0.171875 0,-0.28125 -0.125,-0.28125 -0.015625,0 -0.0625,0 -0.21875,0.09375 C 6.78125,-13.234375 5.921875,-13 4.890625,-13 c -0.609375,0 -1.546875,-0.07813 -2.5625,-0.53125 -0.21875,-0.109375 -0.265625,-0.109375 -0.28125,-0.109375 -0.109375,0 -0.125,0.03125 -0.125,0.4375 v 6 c 0,0.359375 0,0.46875 0.203125,0.46875 0.109375,0 0.140625,-0.046875 0.25,-0.1875 0.65625,-0.921875 1.578125,-1.3125 2.609375,-1.3125 0.71875,0 2.265625,0.453125 2.265625,3.984375 0,0.65625 0,1.859375 -0.625,2.796875 -0.515625,0.859375 -1.3125,1.28125 -2.203125,1.28125 -1.359375,0 -2.75,-0.9375 -3.125,-2.53125 0.09375,0.015625 0.25,0.0625 0.328125,0.0625 0.28125,0 0.796875,-0.140625 0.796875,-0.78125 0,-0.5625 -0.390625,-0.796875 -0.796875,-0.796875 -0.46875,0 -0.78125,0.296875 -0.78125,0.875 0,1.796875 1.421875,3.671875 3.625,3.671875 2.125,0 4.140625,-1.84375 4.140625,-4.5 C 8.609375,-6.65625 7,-8.578125 5,-8.578125 c -1.046875,0 -1.9375,0.390625 -2.640625,1.140625 z m 0,0"
             id="path123" />
        </g>
        <g
           id="g124"
           transform="translate(26.102005,15.311)">
          <path
             d="m 6.9375,-13.359375 c 0,-0.4375 -0.015625,-0.453125 -0.390625,-0.453125 L 0.40625,-4.046875 v 0.53125 H 5.75 v 2.03125 C 5.75,-0.75 5.703125,-0.53125 4.25,-0.53125 H 3.859375 V 0 c 0.671875,-0.046875 1.78125,-0.046875 2.484375,-0.046875 0.703125,0 1.8125,0 2.46875,0.046875 V -0.53125 H 8.421875 C 6.984375,-0.53125 6.9375,-0.75 6.9375,-1.484375 v -2.03125 h 2.109375 v -0.53125 H 6.9375 Z M 5.796875,-12 v 7.953125 h -4.96875 z m 0,0"
             id="path124" />
        </g>
      </g>
      <g
         fill="#000000"
         fill-opacity="1"
         id="g128"
         transform="matrix(1.33333,0,0,1.33333,-78.578516,17.80099)">
        <g
           id="g126"
           transform="translate(41.817902,15.311)">
          <path
             d="m 7.203125,-7.234375 c -0.390625,0 -0.96875,0 -0.96875,0.734375 0,0.578125 0.484375,0.734375 0.75,0.734375 0.140625,0 0.734375,-0.0625 0.734375,-0.78125 0,-1.46875 -1.390625,-2.578125 -2.984375,-2.578125 -2.1875,0 -4.046875,2.015625 -4.046875,4.65625 0,2.75 1.9375,4.640625 4.046875,4.640625 2.5625,0 3.203125,-2.375 3.203125,-2.609375 0,-0.078125 -0.03125,-0.140625 -0.171875,-0.140625 -0.140625,0 -0.171875,0.015625 -0.25,0.28125 -0.53125,1.671875 -1.71875,2.09375 -2.59375,2.09375 C 3.59375,-0.203125 2,-1.421875 2,-4.484375 2,-7.625 3.53125,-8.765625 4.75,-8.765625 c 0.8125,0 2,0.40625 2.453125,1.53125 z m 0,0"
             id="path125" />
        </g>
        <g
           id="g127"
           transform="translate(50.215141,15.311)">
          <path
             d="m 13.96875,-6.28125 c 0,-1.03125 -0.1875,-2.765625 -2.65625,-2.765625 -1.390625,0 -2.375,0.953125 -2.734375,2.0625 h -0.03125 c -0.25,-1.6875 -1.46875,-2.0625 -2.625,-2.0625 -1.625,0 -2.46875,1.265625 -2.78125,2.078125 H 3.125 V -9.046875 L 0.6875,-8.8125 v 0.53125 c 1.21875,0 1.40625,0.125 1.40625,1.109375 v 5.75 C 2.09375,-0.640625 2,-0.53125 0.6875,-0.53125 V 0 c 0.484375,-0.046875 1.40625,-0.046875 1.9375,-0.046875 0.53125,0 1.46875,0 1.953125,0.046875 v -0.53125 c -1.3125,0 -1.390625,-0.09375 -1.390625,-0.890625 v -3.96875 c 0,-1.90625 1.15625,-3.328125 2.59375,-3.328125 1.53125,0 1.703125,1.359375 1.703125,2.359375 v 4.9375 c 0,0.78125 -0.09375,0.890625 -1.40625,0.890625 V 0 c 0.484375,-0.046875 1.40625,-0.046875 1.9375,-0.046875 0.53125,0 1.46875,0 1.96875,0.046875 v -0.53125 c -1.328125,0 -1.40625,-0.09375 -1.40625,-0.890625 v -3.96875 c 0,-1.90625 1.15625,-3.328125 2.59375,-3.328125 1.53125,0 1.703125,1.359375 1.703125,2.359375 v 4.9375 c 0,0.78125 -0.09375,0.890625 -1.40625,0.890625 V 0 c 0.484375,-0.046875 1.40625,-0.046875 1.9375,-0.046875 0.53125,0 1.46875,0 1.96875,0.046875 v -0.53125 c -1.328125,0 -1.40625,-0.09375 -1.40625,-0.890625 z m 0,0"
             id="path126" />
        </g>
      </g>
    </g>
    <g
       inkscape:label=""
       transform="translate(505.97374,249.96239)"
       id="g138">
      <g
         fill="#000000"
         fill-opacity="1"
         id="g134"
         transform="matrix(1.33333,0,0,1.33333,-3.78233,-2.20633)">
        <g
           id="g130"
           transform="translate(1.993,15.311)">
          <path
             d="m 2.359375,-12.078125 c 0.203125,0.07813 1.046875,0.34375 1.921875,0.34375 1.921875,0 2.96875,-1.03125 3.5625,-1.625 0,-0.171875 0,-0.28125 -0.125,-0.28125 -0.015625,0 -0.0625,0 -0.21875,0.09375 C 6.78125,-13.234375 5.921875,-13 4.890625,-13 c -0.609375,0 -1.546875,-0.07813 -2.5625,-0.53125 -0.21875,-0.109375 -0.265625,-0.109375 -0.28125,-0.109375 -0.109375,0 -0.125,0.03125 -0.125,0.4375 v 6 c 0,0.359375 0,0.46875 0.203125,0.46875 0.109375,0 0.140625,-0.046875 0.25,-0.1875 0.65625,-0.921875 1.578125,-1.3125 2.609375,-1.3125 0.71875,0 2.265625,0.453125 2.265625,3.984375 0,0.65625 0,1.859375 -0.625,2.796875 -0.515625,0.859375 -1.3125,1.28125 -2.203125,1.28125 -1.359375,0 -2.75,-0.9375 -3.125,-2.53125 0.09375,0.015625 0.25,0.0625 0.328125,0.0625 0.28125,0 0.796875,-0.140625 0.796875,-0.78125 0,-0.5625 -0.390625,-0.796875 -0.796875,-0.796875 -0.46875,0 -0.78125,0.296875 -0.78125,0.875 0,1.796875 1.421875,3.671875 3.625,3.671875 2.125,0 4.140625,-1.84375 4.140625,-4.5 C 8.609375,-6.65625 7,-8.578125 5,-8.578125 c -1.046875,0 -1.9375,0.390625 -2.640625,1.140625 z m 0,0"
             id="path129" />
        </g>
        <g
           id="g131"
           transform="translate(11.468822,15.311)">
          <path
             d="m 3.421875,-0.84375 c 0,-0.515625 -0.40625,-0.84375 -0.84375,-0.84375 -0.40625,0 -0.84375,0.328125 -0.84375,0.84375 C 1.734375,-0.328125 2.140625,0 2.578125,0 3,0 3.421875,-0.328125 3.421875,-0.84375 Z m 0,0"
             id="path130" />
        </g>
        <g
           id="g132"
           transform="translate(16.626183,15.311)">
          <path
             d="m 8.671875,-6.625 c 0,-1.265625 -0.015625,-3.40625 -0.890625,-5.0625 -0.765625,-1.453125 -1.984375,-1.96875 -3.046875,-1.96875 -1,0 -2.25,0.453125 -3.046875,1.9375 -0.8125,1.5625 -0.90625,3.484375 -0.90625,5.09375 0,1.171875 0.03125,2.96875 0.671875,4.53125 0.875,2.140625 2.46875,2.421875 3.28125,2.421875 C 5.6875,0.328125 7.125,-0.0625 7.96875,-2.03125 8.59375,-3.453125 8.671875,-5.125 8.671875,-6.625 Z M 4.734375,0 C 3.40625,0 2.625,-1.140625 2.328125,-2.703125 c -0.21875,-1.21875 -0.21875,-3 -0.21875,-4.15625 0,-1.59375 0,-2.90625 0.265625,-4.171875 0.390625,-1.75 1.546875,-2.296875 2.359375,-2.296875 0.84375,0 1.9375,0.5625 2.328125,2.25 0.265625,1.1875 0.296875,2.5625 0.296875,4.21875 0,1.34375 0,3 -0.25,4.21875 C 6.671875,-0.390625 5.453125,0 4.734375,0 Z m 0,0"
             id="path131" />
        </g>
        <g
           id="g133"
           transform="translate(26.102005,15.311)">
          <path
             d="m 5.625,-7.4375 c 1.296875,-0.65625 2.609375,-1.65625 2.609375,-3.234375 0,-1.890625 -1.8125,-2.984375 -3.484375,-2.984375 -1.875,0 -3.53125,1.359375 -3.53125,3.25 0,0.515625 0.125,1.40625 0.921875,2.1875 C 2.359375,-8.015625 3.21875,-7.390625 3.78125,-7 2.84375,-6.53125 0.6875,-5.390625 0.6875,-3.125 c 0,2.140625 2.015625,3.453125 4.015625,3.453125 2.21875,0 4.078125,-1.59375 4.078125,-3.6875 0,-1.890625 -1.265625,-2.75 -2.09375,-3.3125 z M 2.90625,-9.25 C 2.75,-9.359375 1.921875,-10 1.921875,-10.96875 c 0,-1.265625 1.296875,-2.203125 2.78125,-2.203125 1.640625,0 2.84375,1.15625 2.84375,2.5 0,1.90625 -2.15625,3.015625 -2.265625,3.015625 -0.015625,0 -0.03125,0 -0.203125,-0.125 z m 3.8125,4.234375 c 0.296875,0.21875 1.296875,0.90625 1.296875,2.171875 0,1.515625 -1.53125,2.671875 -3.265625,2.671875 -1.875,0 -3.296875,-1.34375 -3.296875,-2.96875 0,-1.625 1.25,-3 2.671875,-3.640625 z m 0,0"
             id="path132" />
        </g>
      </g>
      <g
         fill="#000000"
         fill-opacity="1"
         id="g137"
         transform="matrix(1.33333,0,0,1.33333,-3.78233,-2.20633)">
        <g
           id="g135"
           transform="translate(41.817902,15.311)">
          <path
             d="m 7.203125,-7.234375 c -0.390625,0 -0.96875,0 -0.96875,0.734375 0,0.578125 0.484375,0.734375 0.75,0.734375 0.140625,0 0.734375,-0.0625 0.734375,-0.78125 0,-1.46875 -1.390625,-2.578125 -2.984375,-2.578125 -2.1875,0 -4.046875,2.015625 -4.046875,4.65625 0,2.75 1.9375,4.640625 4.046875,4.640625 2.5625,0 3.203125,-2.375 3.203125,-2.609375 0,-0.078125 -0.03125,-0.140625 -0.171875,-0.140625 -0.140625,0 -0.171875,0.015625 -0.25,0.28125 -0.53125,1.671875 -1.71875,2.09375 -2.59375,2.09375 C 3.59375,-0.203125 2,-1.421875 2,-4.484375 2,-7.625 3.53125,-8.765625 4.75,-8.765625 c 0.8125,0 2,0.40625 2.453125,1.53125 z m 0,0"
             id="path134" />
        </g>
        <g
           id="g136"
           transform="translate(50.215141,15.311)">
          <path
             d="m 13.96875,-6.28125 c 0,-1.03125 -0.1875,-2.765625 -2.65625,-2.765625 -1.390625,0 -2.375,0.953125 -2.734375,2.0625 h -0.03125 c -0.25,-1.6875 -1.46875,-2.0625 -2.625,-2.0625 -1.625,0 -2.46875,1.265625 -2.78125,2.078125 H 3.125 V -9.046875 L 0.6875,-8.8125 v 0.53125 c 1.21875,0 1.40625,0.125 1.40625,1.109375 v 5.75 C 2.09375,-0.640625 2,-0.53125 0.6875,-0.53125 V 0 c 0.484375,-0.046875 1.40625,-0.046875 1.9375,-0.046875 0.53125,0 1.46875,0 1.953125,0.046875 v -0.53125 c -1.3125,0 -1.390625,-0.09375 -1.390625,-0.890625 v -3.96875 c 0,-1.90625 1.15625,-3.328125 2.59375,-3.328125 1.53125,0 1.703125,1.359375 1.703125,2.359375 v 4.9375 c 0,0.78125 -0.09375,0.890625 -1.40625,0.890625 V 0 c 0.484375,-0.046875 1.40625,-0.046875 1.9375,-0.046875 0.53125,0 1.46875,0 1.96875,0.046875 v -0.53125 c -1.328125,0 -1.40625,-0.09375 -1.40625,-0.890625 v -3.96875 c 0,-1.90625 1.15625,-3.328125 2.59375,-3.328125 1.53125,0 1.703125,1.359375 1.703125,2.359375 v 4.9375 c 0,0.78125 -0.09375,0.890625 -1.40625,0.890625 V 0 c 0.484375,-0.046875 1.40625,-0.046875 1.9375,-0.046875 0.53125,0 1.46875,0 1.96875,0.046875 v -0.53125 c -1.328125,0 -1.40625,-0.09375 -1.40625,-0.890625 z m 0,0"
             id="path136" />
        </g>
      </g>
    </g>
    <g
       inkscape:label=""
       transform="matrix(1.5,0,0,1.5,503.05341,184.15447)"
       id="g144">
      <g
         fill="#000000"
         fill-opacity="1"
         id="g142"
         transform="matrix(1.33333,0,0,1.33333,-4.09483,-2.66617)">
        <g
           id="g139"
           transform="translate(1.993,16.108999)">
          <path
             d="m 1.078125,-14.109375 v 0.53125 c 1.421875,0 1.65625,0 1.65625,0.9375 V -1.46875 c 0,0.9375 -0.234375,0.9375 -1.65625,0.9375 V 0 H 8.1875 c 2.640625,0 4.34375,-1.875 4.34375,-3.765625 0,-1.859375 -1.6875,-3.4375 -3.890625,-3.59375 C 10.625,-7.75 12,-9.0625 12,-10.640625 c 0,-1.71875 -1.6875,-3.46875 -4.359375,-3.46875 z M 4.03125,-7.5 v -5.265625 c 0,-0.703125 0.03125,-0.8125 0.859375,-0.8125 h 2.65625 c 2.03125,0 2.953125,1.65625 2.953125,2.9375 C 10.5,-9.0625 9.234375,-7.5 7,-7.5 Z m 0.859375,6.96875 c -0.828125,0 -0.859375,-0.109375 -0.859375,-0.8125 v -5.828125 h 3.8125 c 2.140625,0 3.171875,1.890625 3.171875,3.390625 0,1.515625 -1.1875,3.25 -3.4375,3.25 z m 0,0"
             id="path138" />
        </g>
        <g
           id="g140"
           transform="translate(15.512474,16.108999)">
          <path
             d="m 7.4375,-5.34375 c 0,-1.375 0,-2.09375 -0.875,-2.890625 C 5.796875,-8.921875 4.921875,-9.125 4.21875,-9.125 c -1.640625,0 -2.8125,1.28125 -2.8125,2.640625 0,0.765625 0.625,0.796875 0.734375,0.796875 0.28125,0 0.75,-0.15625 0.75,-0.734375 0,-0.515625 -0.390625,-0.75 -0.75,-0.75 -0.078125,0 -0.171875,0.03125 -0.234375,0.046875 0.421875,-1.296875 1.546875,-1.671875 2.265625,-1.671875 1.03125,0 2.171875,0.90625 2.171875,2.640625 V -5.25 C 5.125,-5.203125 3.65625,-5.046875 2.5,-4.421875 c -1.296875,0.71875 -1.671875,1.75 -1.671875,2.546875 0,1.578125 1.859375,2.046875 2.953125,2.046875 1.140625,0 2.1875,-0.640625 2.640625,-1.828125 0.046875,0.90625 0.625,1.734375 1.53125,1.734375 0.4375,0 1.53125,-0.28125 1.53125,-1.921875 V -3 h -0.375 v 1.1875 c 0,1.25 -0.5625,1.421875 -0.828125,1.421875 C 7.4375,-0.390625 7.4375,-1.46875 7.4375,-2.375 Z M 6.34375,-2.875 c 0,1.796875 -1.28125,2.703125 -2.421875,2.703125 -1.03125,0 -1.828125,-0.75 -1.828125,-1.703125 0,-0.625 0.265625,-1.71875 1.453125,-2.375 1,-0.5625 2.140625,-0.640625 2.796875,-0.6875 z m 0,0"
             id="path139" />
        </g>
        <g
           id="g141"
           transform="translate(24.988297,16.108999)">
          <path
             d="m 3.09375,-4.875 c 0,-1.984375 0.859375,-3.84375 2.40625,-3.84375 0.140625,0 0.28125,0.015625 0.421875,0.078125 0,0 -0.453125,0.15625 -0.453125,0.6875 0,0.5 0.390625,0.703125 0.703125,0.703125 0.25,0 0.703125,-0.140625 0.703125,-0.71875 0,-0.671875 -0.65625,-1.078125 -1.359375,-1.078125 -1.5625,0 -2.25,1.53125 -2.453125,2.25 H 3.03125 v -2.25 L 0.640625,-8.8125 v 0.53125 c 1.21875,0 1.40625,0.125 1.40625,1.109375 v 5.75 c 0,0.78125 -0.078125,0.890625 -1.40625,0.890625 V 0 c 0.5,-0.046875 1.453125,-0.046875 1.984375,-0.046875 0.59375,0 1.65625,0 2.203125,0.046875 v -0.53125 c -1.484375,0 -1.734375,0 -1.734375,-0.9375 z m 0,0"
             id="path140" />
        </g>
      </g>
      <g
         fill="#000000"
         fill-opacity="1"
         id="g7"
         transform="matrix(1.33333,0,0,1.33333,-4.09483,-2.66617)">
        <g
           id="g143"
           transform="translate(38.544964,16.108999)">
          <path
             d="m 5.5,-13.203125 c 0,-0.4375 -0.03125,-0.453125 -0.3125,-0.453125 C 4.375,-12.6875 3.15625,-12.375 2,-12.328125 c -0.0625,0 -0.15625,0 -0.1875,0.03125 -0.015625,0.04687 -0.015625,0.09375 -0.015625,0.515625 0.640625,0 1.71875,-0.109375 2.546875,-0.609375 v 10.875 c 0,0.734375 -0.046875,0.984375 -1.828125,0.984375 H 1.90625 V 0 C 2.890625,-0.015625 3.921875,-0.046875 4.921875,-0.046875 5.90625,-0.046875 6.9375,-0.015625 7.9375,0 V -0.53125 H 7.3125 C 5.53125,-0.53125 5.5,-0.765625 5.5,-1.515625 Z m 0,0"
             id="path142" />
        </g>
      </g>
    </g>
    <rect
       style="fill:#ff0000;fill-opacity:0.5;stroke:#000000;stroke-width:3.01404;stroke-dasharray:none;stroke-opacity:1"
       id="rect105-3"
       width="163.32854"
       height="49.421875"
       x="474.06354"
       y="273.13553" />
    <path
       style="fill:#ff0000;fill-opacity:0.5;stroke:#000000;stroke-width:1;stroke-dasharray:none;stroke-opacity:1"
       d="m 473.8055,318.54777 0,18.92475"
       id="path111-3"
       sodipodi:nodetypes="cc" />
    <path
       style="fill:#ff0000;fill-opacity:0.5;stroke:#000000;stroke-width:1;stroke-dasharray:none;stroke-opacity:1"
       d="m 637.56395,318.63423 0,19.49408"
       id="path116-7"
       sodipodi:nodetypes="cc" />
    <path
       style="fill:#ff0000;fill-opacity:0.5;stroke:#000000;stroke-width:1;stroke-dasharray:none;stroke-opacity:1"
       d="M 471.75498,323.38382 H 455.71242"
       id="path117-0"
       sodipodi:nodetypes="cc" />
    <path
       style="fill:#ff0000;fill-opacity:0.5;stroke:#000000;stroke-width:1;stroke-dasharray:none;stroke-opacity:1"
       d="M 470.1083,272.86791 H 456.29898"
       id="path118-0"
       sodipodi:nodetypes="cc" />
    <path
       style="fill:#ff0000;fill-opacity:0.5;stroke:#000000;stroke-width:1;stroke-dasharray:none;stroke-opacity:1;marker-start:url(#Triangle-0);marker-end:url(#Triangle-0)"
       d="m 477.71796,334.20802 156.92653,0"
       id="path119-1"
       sodipodi:nodetypes="cc" />
    <path
       style="fill:#ff0000;fill-opacity:0.5;stroke:#000000;stroke-width:1;stroke-dasharray:none;stroke-opacity:1;marker-start:url(#Triangle-0);marker-end:url(#Triangle-0)"
       d="m 462.01238,276.30864 0,44.00959"
       id="path120-0"
       sodipodi:nodetypes="cc" />
    <g
       inkscape:label=""
       transform="translate(522.32566,337.79968)"
       id="g153">
      <g
         fill="#000000"
         fill-opacity="1"
         id="g149"
         transform="matrix(1.33333,0,0,1.33333,-3.78233,-1.76883)">
        <g
           id="g145"
           transform="translate(1.993,15.311)">
          <path
             d="m 2.359375,-12.078125 c 0.203125,0.07813 1.046875,0.34375 1.921875,0.34375 1.921875,0 2.96875,-1.03125 3.5625,-1.625 0,-0.171875 0,-0.28125 -0.125,-0.28125 -0.015625,0 -0.0625,0 -0.21875,0.09375 C 6.78125,-13.234375 5.921875,-13 4.890625,-13 c -0.609375,0 -1.546875,-0.07813 -2.5625,-0.53125 -0.21875,-0.109375 -0.265625,-0.109375 -0.28125,-0.109375 -0.109375,0 -0.125,0.03125 -0.125,0.4375 v 6 c 0,0.359375 0,0.46875 0.203125,0.46875 0.109375,0 0.140625,-0.046875 0.25,-0.1875 0.65625,-0.921875 1.578125,-1.3125 2.609375,-1.3125 0.71875,0 2.265625,0.453125 2.265625,3.984375 0,0.65625 0,1.859375 -0.625,2.796875 -0.515625,0.859375 -1.3125,1.28125 -2.203125,1.28125 -1.359375,0 -2.75,-0.9375 -3.125,-2.53125 0.09375,0.015625 0.25,0.0625 0.328125,0.0625 0.28125,0 0.796875,-0.140625 0.796875,-0.78125 0,-0.5625 -0.390625,-0.796875 -0.796875,-0.796875 -0.46875,0 -0.78125,0.296875 -0.78125,0.875 0,1.796875 1.421875,3.671875 3.625,3.671875 2.125,0 4.140625,-1.84375 4.140625,-4.5 C 8.609375,-6.65625 7,-8.578125 5,-8.578125 c -1.046875,0 -1.9375,0.390625 -2.640625,1.140625 z m 0,0"
             id="path144" />
        </g>
        <g
           id="g146"
           transform="translate(11.468822,15.311)">
          <path
             d="m 3.421875,-0.84375 c 0,-0.515625 -0.40625,-0.84375 -0.84375,-0.84375 -0.40625,0 -0.84375,0.328125 -0.84375,0.84375 C 1.734375,-0.328125 2.140625,0 2.578125,0 3,0 3.421875,-0.328125 3.421875,-0.84375 Z m 0,0"
             id="path145" />
        </g>
        <g
           id="g147"
           transform="translate(16.626183,15.311)">
          <path
             d="m 9.3125,-12.875 v -0.453125 H 4.46875 c -2.421875,0 -2.46875,-0.265625 -2.546875,-0.65625 h -0.375 L 0.953125,-10.125 h 0.375 c 0.0625,-0.390625 0.203125,-1.4375 0.453125,-1.828125 0.125,-0.171875 1.640625,-0.171875 2,-0.171875 H 8.328125 L 6.03125,-8.71875 C 4.5,-6.421875 3.453125,-3.328125 3.453125,-0.625 c 0,0.25 0,0.953125 0.734375,0.953125 0.75,0 0.75,-0.703125 0.75,-0.96875 V -1.59375 c 0,-3.390625 0.578125,-5.609375 1.53125,-7.046875 z m 0,0"
             id="path146" />
        </g>
        <g
           id="g148"
           transform="translate(26.102005,15.311)">
          <path
             d="m 2.359375,-12.078125 c 0.203125,0.07813 1.046875,0.34375 1.921875,0.34375 1.921875,0 2.96875,-1.03125 3.5625,-1.625 0,-0.171875 0,-0.28125 -0.125,-0.28125 -0.015625,0 -0.0625,0 -0.21875,0.09375 C 6.78125,-13.234375 5.921875,-13 4.890625,-13 c -0.609375,0 -1.546875,-0.07813 -2.5625,-0.53125 -0.21875,-0.109375 -0.265625,-0.109375 -0.28125,-0.109375 -0.109375,0 -0.125,0.03125 -0.125,0.4375 v 6 c 0,0.359375 0,0.46875 0.203125,0.46875 0.109375,0 0.140625,-0.046875 0.25,-0.1875 0.65625,-0.921875 1.578125,-1.3125 2.609375,-1.3125 0.71875,0 2.265625,0.453125 2.265625,3.984375 0,0.65625 0,1.859375 -0.625,2.796875 -0.515625,0.859375 -1.3125,1.28125 -2.203125,1.28125 -1.359375,0 -2.75,-0.9375 -3.125,-2.53125 0.09375,0.015625 0.25,0.0625 0.328125,0.0625 0.28125,0 0.796875,-0.140625 0.796875,-0.78125 0,-0.5625 -0.390625,-0.796875 -0.796875,-0.796875 -0.46875,0 -0.78125,0.296875 -0.78125,0.875 0,1.796875 1.421875,3.671875 3.625,3.671875 2.125,0 4.140625,-1.84375 4.140625,-4.5 C 8.609375,-6.65625 7,-8.578125 5,-8.578125 c -1.046875,0 -1.9375,0.390625 -2.640625,1.140625 z m 0,0"
             id="path147" />
        </g>
      </g>
      <g
         fill="#000000"
         fill-opacity="1"
         id="g152"
         transform="matrix(1.33333,0,0,1.33333,-3.78233,-1.76883)">
        <g
           id="g150"
           transform="translate(41.817902,15.311)">
          <path
             d="m 7.203125,-7.234375 c -0.390625,0 -0.96875,0 -0.96875,0.734375 0,0.578125 0.484375,0.734375 0.75,0.734375 0.140625,0 0.734375,-0.0625 0.734375,-0.78125 0,-1.46875 -1.390625,-2.578125 -2.984375,-2.578125 -2.1875,0 -4.046875,2.015625 -4.046875,4.65625 0,2.75 1.9375,4.640625 4.046875,4.640625 2.5625,0 3.203125,-2.375 3.203125,-2.609375 0,-0.078125 -0.03125,-0.140625 -0.171875,-0.140625 -0.140625,0 -0.171875,0.015625 -0.25,0.28125 -0.53125,1.671875 -1.71875,2.09375 -2.59375,2.09375 C 3.59375,-0.203125 2,-1.421875 2,-4.484375 2,-7.625 3.53125,-8.765625 4.75,-8.765625 c 0.8125,0 2,0.40625 2.453125,1.53125 z m 0,0"
             id="path149" />
        </g>
        <g
           id="g151"
           transform="translate(50.215141,15.311)">
          <path
             d="m 13.96875,-6.28125 c 0,-1.03125 -0.1875,-2.765625 -2.65625,-2.765625 -1.390625,0 -2.375,0.953125 -2.734375,2.0625 h -0.03125 c -0.25,-1.6875 -1.46875,-2.0625 -2.625,-2.0625 -1.625,0 -2.46875,1.265625 -2.78125,2.078125 H 3.125 V -9.046875 L 0.6875,-8.8125 v 0.53125 c 1.21875,0 1.40625,0.125 1.40625,1.109375 v 5.75 C 2.09375,-0.640625 2,-0.53125 0.6875,-0.53125 V 0 c 0.484375,-0.046875 1.40625,-0.046875 1.9375,-0.046875 0.53125,0 1.46875,0 1.953125,0.046875 v -0.53125 c -1.3125,0 -1.390625,-0.09375 -1.390625,-0.890625 v -3.96875 c 0,-1.90625 1.15625,-3.328125 2.59375,-3.328125 1.53125,0 1.703125,1.359375 1.703125,2.359375 v 4.9375 c 0,0.78125 -0.09375,0.890625 -1.40625,0.890625 V 0 c 0.484375,-0.046875 1.40625,-0.046875 1.9375,-0.046875 0.53125,0 1.46875,0 1.96875,0.046875 v -0.53125 c -1.328125,0 -1.40625,-0.09375 -1.40625,-0.890625 v -3.96875 c 0,-1.90625 1.15625,-3.328125 2.59375,-3.328125 1.53125,0 1.703125,1.359375 1.703125,2.359375 v 4.9375 c 0,0.78125 -0.09375,0.890625 -1.40625,0.890625 V 0 c 0.484375,-0.046875 1.40625,-0.046875 1.9375,-0.046875 0.53125,0 1.46875,0 1.96875,0.046875 v -0.53125 c -1.328125,0 -1.40625,-0.09375 -1.40625,-0.890625 z m 0,0"
             id="path150" />
        </g>
      </g>
    </g>
    <g
       inkscape:label=""
       transform="translate(370.68274,286.70852)"
       id="g162">
      <g
         fill="#000000"
         fill-opacity="1"
         id="g158"
         transform="matrix(1.33333,0,0,1.33333,-5.05317,-2.20633)">
        <g
           id="g154"
           transform="translate(1.993,15.311)">
          <path
             d="m 5.5,-13.203125 c 0,-0.4375 -0.03125,-0.453125 -0.3125,-0.453125 C 4.375,-12.6875 3.15625,-12.375 2,-12.328125 c -0.0625,0 -0.15625,0 -0.1875,0.03125 -0.015625,0.04687 -0.015625,0.09375 -0.015625,0.515625 0.640625,0 1.71875,-0.109375 2.546875,-0.609375 v 10.875 c 0,0.734375 -0.046875,0.984375 -1.828125,0.984375 H 1.90625 V 0 C 2.890625,-0.015625 3.921875,-0.046875 4.921875,-0.046875 5.90625,-0.046875 6.9375,-0.015625 7.9375,0 V -0.53125 H 7.3125 C 5.53125,-0.53125 5.5,-0.765625 5.5,-1.515625 Z m 0,0"
             id="path153" />
        </g>
        <g
           id="g155"
           transform="translate(11.468822,15.311)">
          <path
             d="m 3.421875,-0.84375 c 0,-0.515625 -0.40625,-0.84375 -0.84375,-0.84375 -0.40625,0 -0.84375,0.328125 -0.84375,0.84375 C 1.734375,-0.328125 2.140625,0 2.578125,0 3,0 3.421875,-0.328125 3.421875,-0.84375 Z m 0,0"
             id="path154" />
        </g>
        <g
           id="g156"
           transform="translate(16.626183,15.311)">
          <path
             d="m 2.359375,-12.078125 c 0.203125,0.07813 1.046875,0.34375 1.921875,0.34375 1.921875,0 2.96875,-1.03125 3.5625,-1.625 0,-0.171875 0,-0.28125 -0.125,-0.28125 -0.015625,0 -0.0625,0 -0.21875,0.09375 C 6.78125,-13.234375 5.921875,-13 4.890625,-13 c -0.609375,0 -1.546875,-0.07813 -2.5625,-0.53125 -0.21875,-0.109375 -0.265625,-0.109375 -0.28125,-0.109375 -0.109375,0 -0.125,0.03125 -0.125,0.4375 v 6 c 0,0.359375 0,0.46875 0.203125,0.46875 0.109375,0 0.140625,-0.046875 0.25,-0.1875 0.65625,-0.921875 1.578125,-1.3125 2.609375,-1.3125 0.71875,0 2.265625,0.453125 2.265625,3.984375 0,0.65625 0,1.859375 -0.625,2.796875 -0.515625,0.859375 -1.3125,1.28125 -2.203125,1.28125 -1.359375,0 -2.75,-0.9375 -3.125,-2.53125 0.09375,0.015625 0.25,0.0625 0.328125,0.0625 0.28125,0 0.796875,-0.140625 0.796875,-0.78125 0,-0.5625 -0.390625,-0.796875 -0.796875,-0.796875 -0.46875,0 -0.78125,0.296875 -0.78125,0.875 0,1.796875 1.421875,3.671875 3.625,3.671875 2.125,0 4.140625,-1.84375 4.140625,-4.5 C 8.609375,-6.65625 7,-8.578125 5,-8.578125 c -1.046875,0 -1.9375,0.390625 -2.640625,1.140625 z m 0,0"
             id="path155" />
        </g>
        <g
           id="g157"
           transform="translate(26.102005,15.311)">
          <path
             d="m 7.265625,-6.109375 c 0,4.546875 -1.875,5.9375 -3.421875,5.9375 -0.484375,0 -1.640625,-0.0625 -2.109375,-0.859375 0.53125,0.078125 0.9375,-0.203125 0.9375,-0.71875 0,-0.5625 -0.46875,-0.75 -0.75,-0.75 -0.1875,0 -0.75,0.078125 -0.75,0.78125 0,1.40625 1.21875,2.046875 2.71875,2.046875 2.375,0 4.78125,-2.59375 4.78125,-7.140625 0,-5.65625 -2.3125,-6.84375 -3.875,-6.84375 -2.046875,0 -4.015625,1.796875 -4.015625,4.5625 0,2.5625 1.671875,4.46875 3.78125,4.46875 1.734375,0 2.5,-1.609375 2.703125,-2.296875 z m -2.65625,1.15625 c -0.5625,0 -1.34375,-0.109375 -1.984375,-1.34375 C 2.1875,-7.109375 2.1875,-8.0625 2.1875,-9.0625 c 0,-1.21875 0,-2.078125 0.578125,-2.984375 0.296875,-0.421875 0.828125,-1.125 2.03125,-1.125 2.4375,0 2.4375,3.734375 2.4375,4.5625 0,1.46875 -0.671875,3.65625 -2.625,3.65625 z m 0,0"
             id="path156" />
        </g>
      </g>
      <g
         fill="#000000"
         fill-opacity="1"
         id="g161"
         transform="matrix(1.33333,0,0,1.33333,-5.05317,-2.20633)">
        <g
           id="g159"
           transform="translate(41.817902,15.311)">
          <path
             d="m 7.203125,-7.234375 c -0.390625,0 -0.96875,0 -0.96875,0.734375 0,0.578125 0.484375,0.734375 0.75,0.734375 0.140625,0 0.734375,-0.0625 0.734375,-0.78125 0,-1.46875 -1.390625,-2.578125 -2.984375,-2.578125 -2.1875,0 -4.046875,2.015625 -4.046875,4.65625 0,2.75 1.9375,4.640625 4.046875,4.640625 2.5625,0 3.203125,-2.375 3.203125,-2.609375 0,-0.078125 -0.03125,-0.140625 -0.171875,-0.140625 -0.140625,0 -0.171875,0.015625 -0.25,0.28125 -0.53125,1.671875 -1.71875,2.09375 -2.59375,2.09375 C 3.59375,-0.203125 2,-1.421875 2,-4.484375 2,-7.625 3.53125,-8.765625 4.75,-8.765625 c 0.8125,0 2,0.40625 2.453125,1.53125 z m 0,0"
             id="path158" />
        </g>
        <g
           id="g160"
           transform="translate(50.215141,15.311)">
          <path
             d="m 13.96875,-6.28125 c 0,-1.03125 -0.1875,-2.765625 -2.65625,-2.765625 -1.390625,0 -2.375,0.953125 -2.734375,2.0625 h -0.03125 c -0.25,-1.6875 -1.46875,-2.0625 -2.625,-2.0625 -1.625,0 -2.46875,1.265625 -2.78125,2.078125 H 3.125 V -9.046875 L 0.6875,-8.8125 v 0.53125 c 1.21875,0 1.40625,0.125 1.40625,1.109375 v 5.75 C 2.09375,-0.640625 2,-0.53125 0.6875,-0.53125 V 0 c 0.484375,-0.046875 1.40625,-0.046875 1.9375,-0.046875 0.53125,0 1.46875,0 1.953125,0.046875 v -0.53125 c -1.3125,0 -1.390625,-0.09375 -1.390625,-0.890625 v -3.96875 c 0,-1.90625 1.15625,-3.328125 2.59375,-3.328125 1.53125,0 1.703125,1.359375 1.703125,2.359375 v 4.9375 c 0,0.78125 -0.09375,0.890625 -1.40625,0.890625 V 0 c 0.484375,-0.046875 1.40625,-0.046875 1.9375,-0.046875 0.53125,0 1.46875,0 1.96875,0.046875 v -0.53125 c -1.328125,0 -1.40625,-0.09375 -1.40625,-0.890625 v -3.96875 c 0,-1.90625 1.15625,-3.328125 2.59375,-3.328125 1.53125,0 1.703125,1.359375 1.703125,2.359375 v 4.9375 c 0,0.78125 -0.09375,0.890625 -1.40625,0.890625 V 0 c 0.484375,-0.046875 1.40625,-0.046875 1.9375,-0.046875 0.53125,0 1.46875,0 1.96875,0.046875 v -0.53125 c -1.328125,0 -1.40625,-0.09375 -1.40625,-0.890625 z m 0,0"
             id="path159" />
        </g>
      </g>
    </g>
    <g
       inkscape:label=""
       transform="matrix(1.5,0,0,1.5,509.26176,282.76278)"
       id="g169"
       inkscape:export-filename="Specimen_3_4.pdf"
       inkscape:export-xdpi="96"
       inkscape:export-ydpi="96">
      <g
         fill="#000000"
         fill-opacity="1"
         id="g166"
         transform="matrix(1.33333,0,0,1.33333,-4.09483,-2.66617)">
        <g
           id="g163"
           transform="translate(1.993,16.108999)">
          <path
             d="m 1.078125,-14.109375 v 0.53125 c 1.421875,0 1.65625,0 1.65625,0.9375 V -1.46875 c 0,0.9375 -0.234375,0.9375 -1.65625,0.9375 V 0 H 8.1875 c 2.640625,0 4.34375,-1.875 4.34375,-3.765625 0,-1.859375 -1.6875,-3.4375 -3.890625,-3.59375 C 10.625,-7.75 12,-9.0625 12,-10.640625 c 0,-1.71875 -1.6875,-3.46875 -4.359375,-3.46875 z M 4.03125,-7.5 v -5.265625 c 0,-0.703125 0.03125,-0.8125 0.859375,-0.8125 h 2.65625 c 2.03125,0 2.953125,1.65625 2.953125,2.9375 C 10.5,-9.0625 9.234375,-7.5 7,-7.5 Z m 0.859375,6.96875 c -0.828125,0 -0.859375,-0.109375 -0.859375,-0.8125 v -5.828125 h 3.8125 c 2.140625,0 3.171875,1.890625 3.171875,3.390625 0,1.515625 -1.1875,3.25 -3.4375,3.25 z m 0,0"
             id="path162" />
        </g>
        <g
           id="g164"
           transform="translate(15.512474,16.108999)">
          <path
             d="m 7.4375,-5.34375 c 0,-1.375 0,-2.09375 -0.875,-2.890625 C 5.796875,-8.921875 4.921875,-9.125 4.21875,-9.125 c -1.640625,0 -2.8125,1.28125 -2.8125,2.640625 0,0.765625 0.625,0.796875 0.734375,0.796875 0.28125,0 0.75,-0.15625 0.75,-0.734375 0,-0.515625 -0.390625,-0.75 -0.75,-0.75 -0.078125,0 -0.171875,0.03125 -0.234375,0.046875 0.421875,-1.296875 1.546875,-1.671875 2.265625,-1.671875 1.03125,0 2.171875,0.90625 2.171875,2.640625 V -5.25 C 5.125,-5.203125 3.65625,-5.046875 2.5,-4.421875 c -1.296875,0.71875 -1.671875,1.75 -1.671875,2.546875 0,1.578125 1.859375,2.046875 2.953125,2.046875 1.140625,0 2.1875,-0.640625 2.640625,-1.828125 0.046875,0.90625 0.625,1.734375 1.53125,1.734375 0.4375,0 1.53125,-0.28125 1.53125,-1.921875 V -3 h -0.375 v 1.1875 c 0,1.25 -0.5625,1.421875 -0.828125,1.421875 C 7.4375,-0.390625 7.4375,-1.46875 7.4375,-2.375 Z M 6.34375,-2.875 c 0,1.796875 -1.28125,2.703125 -2.421875,2.703125 -1.03125,0 -1.828125,-0.75 -1.828125,-1.703125 0,-0.625 0.265625,-1.71875 1.453125,-2.375 1,-0.5625 2.140625,-0.640625 2.796875,-0.6875 z m 0,0"
             id="path163" />
        </g>
        <g
           id="g165"
           transform="translate(24.988297,16.108999)">
          <path
             d="m 3.09375,-4.875 c 0,-1.984375 0.859375,-3.84375 2.40625,-3.84375 0.140625,0 0.28125,0.015625 0.421875,0.078125 0,0 -0.453125,0.15625 -0.453125,0.6875 0,0.5 0.390625,0.703125 0.703125,0.703125 0.25,0 0.703125,-0.140625 0.703125,-0.71875 0,-0.671875 -0.65625,-1.078125 -1.359375,-1.078125 -1.5625,0 -2.25,1.53125 -2.453125,2.25 H 3.03125 v -2.25 L 0.640625,-8.8125 v 0.53125 c 1.21875,0 1.40625,0.125 1.40625,1.109375 v 5.75 c 0,0.78125 -0.078125,0.890625 -1.40625,0.890625 V 0 c 0.5,-0.046875 1.453125,-0.046875 1.984375,-0.046875 0.59375,0 1.65625,0 2.203125,0.046875 v -0.53125 c -1.484375,0 -1.734375,0 -1.734375,-0.9375 z m 0,0"
             id="path164" />
        </g>
      </g>
      <g
         fill="#000000"
         fill-opacity="1"
         id="g168"
         transform="matrix(1.33333,0,0,1.33333,-4.09483,-2.66617)">
        <g
           id="g167"
           transform="translate(38.544964,16.108999)">
          <path
             d="m 8.609375,-3.203125 h -0.375 c -0.203125,1.46875 -0.359375,1.71875 -0.453125,1.84375 -0.09375,0.15625 -1.578125,0.15625 -1.875,0.15625 H 1.9375 C 2.6875,-2 4.125,-3.46875 5.890625,-5.171875 c 1.25,-1.1875 2.71875,-2.59375 2.71875,-4.640625 0,-2.4375 -1.9375,-3.84375 -4.109375,-3.84375 -2.265625,0 -3.65625,2 -3.65625,3.859375 0,0.8125 0.609375,0.921875 0.84375,0.921875 0.21875,0 0.828125,-0.125 0.828125,-0.859375 0,-0.640625 -0.53125,-0.828125 -0.828125,-0.828125 -0.125,0 -0.234375,0.03125 -0.328125,0.0625 0.390625,-1.75 1.59375,-2.609375 2.859375,-2.609375 1.796875,0 2.96875,1.421875 2.96875,3.296875 0,1.796875 -1.046875,3.34375 -2.234375,4.6875 L 0.84375,-0.46875 V 0 H 8.125 Z m 0,0"
             id="path166" />
        </g>
      </g>
    </g>
  </g>
</svg>
