<?xml version="1.0" encoding="UTF-8" standalone="no"?>
<!-- Created with Inkscape (http://www.inkscape.org/) -->

<svg
   version="1.1"
   id="svg1"
   width="746.66669"
   height="560"
   viewBox="0 0 746.66669 560"
   sodipodi:docname="Specimen_5_Rod.svg"
   inkscape:version="1.3.2 (091e20e, 2023-11-25)"
   xmlns:inkscape="http://www.inkscape.org/namespaces/inkscape"
   xmlns:sodipodi="http://sodipodi.sourceforge.net/DTD/sodipodi-0.dtd"
   xmlns="http://www.w3.org/2000/svg"
   xmlns:svg="http://www.w3.org/2000/svg">
  <sodipodi:namedview
     id="namedview1"
     pagecolor="#ffffff"
     bordercolor="#000000"
     borderopacity="0.25"
     inkscape:showpageshadow="2"
     inkscape:pageopacity="0.0"
     inkscape:pagecheckerboard="0"
     inkscape:deskcolor="#d1d1d1"
     inkscape:zoom="0.90913727"
     inkscape:cx="366.28132"
     inkscape:cy="221.6387"
     inkscape:window-width="1600"
     inkscape:window-height="942"
     inkscape:window-x="0"
     inkscape:window-y="25"
     inkscape:window-maximized="0"
     inkscape:current-layer="g1">
    <inkscape:page
       x="0"
       y="0"
       inkscape:label="1"
       id="page1"
       width="746.66669"
       height="560"
       margin="0"
       bleed="0" />
  </sodipodi:namedview>
  <defs
     id="defs1">
    <marker
       style="overflow:visible"
       id="Triangle"
       refX="0"
       refY="0"
       orient="auto-start-reverse"
       inkscape:stockid="Triangle arrow"
       markerWidth="1"
       markerHeight="1"
       viewBox="0 0 1 1"
       inkscape:isstock="true"
       inkscape:collect="always"
       preserveAspectRatio="xMidYMid">
      <path
         transform="scale(0.5)"
         style="fill:context-stroke;fill-rule:evenodd;stroke:context-stroke;stroke-width:1pt"
         d="M 5.77,0 -2.88,5 V -5 Z"
         id="path135" />
    </marker>
  </defs>
  <g
     id="g1"
     inkscape:groupmode="layer"
     inkscape:label="1">
    <path
       id="path3"
       d="M 730,470 H 5070 V 3890 H 730 Z"
       style="fill:#ffffff;fill-opacity:1;fill-rule:nonzero;stroke:none"
       transform="matrix(0.13333333,0,0,-0.13333333,0,560)" />
    <path
       id="path4"
       d="M 730,470 V 3890"
       style="fill:none;stroke:#dfdfdf;stroke-width:5;stroke-linecap:butt;stroke-linejoin:round;stroke-miterlimit:10;stroke-dasharray:none;stroke-opacity:1"
       transform="matrix(0.13333333,0,0,-0.13333333,0,560)" />
    <path
       id="path5"
       d="M 1397.69,470 V 3890"
       style="fill:none;stroke:#dfdfdf;stroke-width:5;stroke-linecap:butt;stroke-linejoin:round;stroke-miterlimit:10;stroke-dasharray:none;stroke-opacity:1"
       transform="matrix(0.13333333,0,0,-0.13333333,0,560)" />
    <path
       id="path6"
       d="M 2065.38,470 V 3890"
       style="fill:none;stroke:#dfdfdf;stroke-width:5;stroke-linecap:butt;stroke-linejoin:round;stroke-miterlimit:10;stroke-dasharray:none;stroke-opacity:1"
       transform="matrix(0.13333333,0,0,-0.13333333,0,560)" />
    <path
       id="path7"
       d="M 2733.08,470 V 3890"
       style="fill:none;stroke:#dfdfdf;stroke-width:5;stroke-linecap:butt;stroke-linejoin:round;stroke-miterlimit:10;stroke-dasharray:none;stroke-opacity:1"
       transform="matrix(0.13333333,0,0,-0.13333333,0,560)" />
    <path
       id="path8"
       d="M 3400.77,470 V 3890"
       style="fill:none;stroke:#dfdfdf;stroke-width:5;stroke-linecap:butt;stroke-linejoin:round;stroke-miterlimit:10;stroke-dasharray:none;stroke-opacity:1"
       transform="matrix(0.13333333,0,0,-0.13333333,0,560)" />
    <path
       id="path9"
       d="M 4068.46,470 V 3890"
       style="fill:none;stroke:#dfdfdf;stroke-width:5;stroke-linecap:butt;stroke-linejoin:round;stroke-miterlimit:10;stroke-dasharray:none;stroke-opacity:1"
       transform="matrix(0.13333333,0,0,-0.13333333,0,560)" />
    <path
       id="path10"
       d="M 4736.15,470 V 3890"
       style="fill:none;stroke:#dfdfdf;stroke-width:5;stroke-linecap:butt;stroke-linejoin:round;stroke-miterlimit:10;stroke-dasharray:none;stroke-opacity:1"
       transform="matrix(0.13333333,0,0,-0.13333333,0,560)" />
    <path
       id="path11"
       d="M 5070,470 H 730"
       style="fill:none;stroke:#dfdfdf;stroke-width:5;stroke-linecap:butt;stroke-linejoin:round;stroke-miterlimit:10;stroke-dasharray:none;stroke-opacity:1"
       transform="matrix(0.13333333,0,0,-0.13333333,0,560)" />
    <path
       id="path12"
       d="M 5070,1055.12 H 730"
       style="fill:none;stroke:#dfdfdf;stroke-width:5;stroke-linecap:butt;stroke-linejoin:round;stroke-miterlimit:10;stroke-dasharray:none;stroke-opacity:1"
       transform="matrix(0.13333333,0,0,-0.13333333,0,560)" />
    <path
       id="path13"
       d="M 5070,1640.24 H 730"
       style="fill:none;stroke:#dfdfdf;stroke-width:5;stroke-linecap:butt;stroke-linejoin:round;stroke-miterlimit:10;stroke-dasharray:none;stroke-opacity:1"
       transform="matrix(0.13333333,0,0,-0.13333333,0,560)" />
    <path
       id="path14"
       d="M 5070,2225.36 H 730"
       style="fill:none;stroke:#dfdfdf;stroke-width:5;stroke-linecap:butt;stroke-linejoin:round;stroke-miterlimit:10;stroke-dasharray:none;stroke-opacity:1"
       transform="matrix(0.13333333,0,0,-0.13333333,0,560)" />
    <path
       id="path15"
       d="M 5070,2810.48 H 730"
       style="fill:none;stroke:#dfdfdf;stroke-width:5;stroke-linecap:butt;stroke-linejoin:round;stroke-miterlimit:10;stroke-dasharray:none;stroke-opacity:1"
       transform="matrix(0.13333333,0,0,-0.13333333,0,560)" />
    <path
       id="path16"
       d="M 5070,3395.6 H 730"
       style="fill:none;stroke:#dfdfdf;stroke-width:5;stroke-linecap:butt;stroke-linejoin:round;stroke-miterlimit:10;stroke-dasharray:none;stroke-opacity:1"
       transform="matrix(0.13333333,0,0,-0.13333333,0,560)" />
    <path
       id="path17"
       d="M 730,470 H 5070"
       style="fill:none;stroke:#262626;stroke-width:5;stroke-linecap:square;stroke-linejoin:round;stroke-miterlimit:10;stroke-dasharray:none;stroke-opacity:1"
       transform="matrix(0.13333333,0,0,-0.13333333,0,560)" />
    <path
       id="path18"
       d="M 730,3890 H 5070"
       style="fill:none;stroke:#262626;stroke-width:5;stroke-linecap:square;stroke-linejoin:round;stroke-miterlimit:10;stroke-dasharray:none;stroke-opacity:1"
       transform="matrix(0.13333333,0,0,-0.13333333,0,560)" />
    <path
       id="path19"
       d="m 730,470 v 43.398"
       style="fill:none;stroke:#262626;stroke-width:5;stroke-linecap:square;stroke-linejoin:round;stroke-miterlimit:10;stroke-dasharray:none;stroke-opacity:1"
       transform="matrix(0.13333333,0,0,-0.13333333,0,560)" />
    <path
       id="path20"
       d="m 1397.69,470 v 43.398"
       style="fill:none;stroke:#262626;stroke-width:5;stroke-linecap:square;stroke-linejoin:round;stroke-miterlimit:10;stroke-dasharray:none;stroke-opacity:1"
       transform="matrix(0.13333333,0,0,-0.13333333,0,560)" />
    <path
       id="path21"
       d="m 2065.38,470 v 43.398"
       style="fill:none;stroke:#262626;stroke-width:5;stroke-linecap:square;stroke-linejoin:round;stroke-miterlimit:10;stroke-dasharray:none;stroke-opacity:1"
       transform="matrix(0.13333333,0,0,-0.13333333,0,560)" />
    <path
       id="path22"
       d="m 2733.08,470 v 43.398"
       style="fill:none;stroke:#262626;stroke-width:5;stroke-linecap:square;stroke-linejoin:round;stroke-miterlimit:10;stroke-dasharray:none;stroke-opacity:1"
       transform="matrix(0.13333333,0,0,-0.13333333,0,560)" />
    <path
       id="path23"
       d="m 3400.77,470 v 43.398"
       style="fill:none;stroke:#262626;stroke-width:5;stroke-linecap:square;stroke-linejoin:round;stroke-miterlimit:10;stroke-dasharray:none;stroke-opacity:1"
       transform="matrix(0.13333333,0,0,-0.13333333,0,560)" />
    <path
       id="path24"
       d="m 4068.46,470 v 43.398"
       style="fill:none;stroke:#262626;stroke-width:5;stroke-linecap:square;stroke-linejoin:round;stroke-miterlimit:10;stroke-dasharray:none;stroke-opacity:1"
       transform="matrix(0.13333333,0,0,-0.13333333,0,560)" />
    <path
       id="path25"
       d="m 4736.15,470 v 43.398"
       style="fill:none;stroke:#262626;stroke-width:5;stroke-linecap:square;stroke-linejoin:round;stroke-miterlimit:10;stroke-dasharray:none;stroke-opacity:1"
       transform="matrix(0.13333333,0,0,-0.13333333,0,560)" />
    <path
       id="path26"
       d="m 730,3890 v -43.4"
       style="fill:none;stroke:#262626;stroke-width:5;stroke-linecap:square;stroke-linejoin:round;stroke-miterlimit:10;stroke-dasharray:none;stroke-opacity:1"
       transform="matrix(0.13333333,0,0,-0.13333333,0,560)" />
    <path
       id="path27"
       d="m 1397.69,3890 v -43.4"
       style="fill:none;stroke:#262626;stroke-width:5;stroke-linecap:square;stroke-linejoin:round;stroke-miterlimit:10;stroke-dasharray:none;stroke-opacity:1"
       transform="matrix(0.13333333,0,0,-0.13333333,0,560)" />
    <path
       id="path28"
       d="m 2065.38,3890 v -43.4"
       style="fill:none;stroke:#262626;stroke-width:5;stroke-linecap:square;stroke-linejoin:round;stroke-miterlimit:10;stroke-dasharray:none;stroke-opacity:1"
       transform="matrix(0.13333333,0,0,-0.13333333,0,560)" />
    <path
       id="path29"
       d="m 2733.08,3890 v -43.4"
       style="fill:none;stroke:#262626;stroke-width:5;stroke-linecap:square;stroke-linejoin:round;stroke-miterlimit:10;stroke-dasharray:none;stroke-opacity:1"
       transform="matrix(0.13333333,0,0,-0.13333333,0,560)" />
    <path
       id="path30"
       d="m 3400.77,3890 v -43.4"
       style="fill:none;stroke:#262626;stroke-width:5;stroke-linecap:square;stroke-linejoin:round;stroke-miterlimit:10;stroke-dasharray:none;stroke-opacity:1"
       transform="matrix(0.13333333,0,0,-0.13333333,0,560)" />
    <path
       id="path31"
       d="m 4068.46,3890 v -43.4"
       style="fill:none;stroke:#262626;stroke-width:5;stroke-linecap:square;stroke-linejoin:round;stroke-miterlimit:10;stroke-dasharray:none;stroke-opacity:1"
       transform="matrix(0.13333333,0,0,-0.13333333,0,560)" />
    <path
       id="path32"
       d="m 4736.15,3890 v -43.4"
       style="fill:none;stroke:#262626;stroke-width:5;stroke-linecap:square;stroke-linejoin:round;stroke-miterlimit:10;stroke-dasharray:none;stroke-opacity:1"
       transform="matrix(0.13333333,0,0,-0.13333333,0,560)" />
    <text
       id="text32"
       xml:space="preserve"
       transform="matrix(1.3333333,0,0,1.3333333,91.333333,525.6)"><tspan
         style="font-variant:normal;font-weight:normal;font-size:16px;font-family:Helvetica;writing-mode:lr-tb;fill:#262626;fill-opacity:1;fill-rule:nonzero;stroke:none"
         x="0 62.269119 71.165123 129.03873 137.93472 195.80785 204.70384 262.57697 271.47296 324.84607 333.74207 342.63809 391.6152 400.5112 409.4072"
         y="0"
         sodipodi:role="line"
         id="tspan32">020406080100120</tspan><tspan
         style="font-variant:normal;font-weight:normal;font-size:17.6px;font-family:Helvetica;writing-mode:lr-tb;fill:#262626;fill-opacity:1;fill-rule:nonzero;stroke:none"
         x="204.5 216.2392 226.0248 230.9176"
         y="22"
         sodipodi:role="line"
         id="tspan33">KL/r</tspan></text>
    <path
       id="path33"
       d="M 730,470 V 3890"
       style="fill:none;stroke:#262626;stroke-width:5;stroke-linecap:square;stroke-linejoin:round;stroke-miterlimit:10;stroke-dasharray:none;stroke-opacity:1"
       transform="matrix(0.13333333,0,0,-0.13333333,0,560)" />
    <path
       id="path34"
       d="M 5070,470 V 3890"
       style="fill:none;stroke:#262626;stroke-width:5;stroke-linecap:square;stroke-linejoin:round;stroke-miterlimit:10;stroke-dasharray:none;stroke-opacity:1"
       transform="matrix(0.13333333,0,0,-0.13333333,0,560)" />
    <path
       id="path35"
       d="m 730,470 h 43.398"
       style="fill:none;stroke:#262626;stroke-width:5;stroke-linecap:square;stroke-linejoin:round;stroke-miterlimit:10;stroke-dasharray:none;stroke-opacity:1"
       transform="matrix(0.13333333,0,0,-0.13333333,0,560)" />
    <path
       id="path36"
       d="m 730,1055.12 h 43.398"
       style="fill:none;stroke:#262626;stroke-width:5;stroke-linecap:square;stroke-linejoin:round;stroke-miterlimit:10;stroke-dasharray:none;stroke-opacity:1"
       transform="matrix(0.13333333,0,0,-0.13333333,0,560)" />
    <path
       id="path37"
       d="m 730,1640.24 h 43.398"
       style="fill:none;stroke:#262626;stroke-width:5;stroke-linecap:square;stroke-linejoin:round;stroke-miterlimit:10;stroke-dasharray:none;stroke-opacity:1"
       transform="matrix(0.13333333,0,0,-0.13333333,0,560)" />
    <path
       id="path38"
       d="m 730,2225.36 h 43.398"
       style="fill:none;stroke:#262626;stroke-width:5;stroke-linecap:square;stroke-linejoin:round;stroke-miterlimit:10;stroke-dasharray:none;stroke-opacity:1"
       transform="matrix(0.13333333,0,0,-0.13333333,0,560)" />
    <path
       id="path39"
       d="m 730,2810.48 h 43.398"
       style="fill:none;stroke:#262626;stroke-width:5;stroke-linecap:square;stroke-linejoin:round;stroke-miterlimit:10;stroke-dasharray:none;stroke-opacity:1"
       transform="matrix(0.13333333,0,0,-0.13333333,0,560)" />
    <path
       id="path40"
       d="m 730,3395.6 h 43.398"
       style="fill:none;stroke:#262626;stroke-width:5;stroke-linecap:square;stroke-linejoin:round;stroke-miterlimit:10;stroke-dasharray:none;stroke-opacity:1"
       transform="matrix(0.13333333,0,0,-0.13333333,0,560)" />
    <path
       id="path41"
       d="m 5070,470 h -43.4"
       style="fill:none;stroke:#262626;stroke-width:5;stroke-linecap:square;stroke-linejoin:round;stroke-miterlimit:10;stroke-dasharray:none;stroke-opacity:1"
       transform="matrix(0.13333333,0,0,-0.13333333,0,560)" />
    <path
       id="path42"
       d="m 5070,1055.12 h -43.4"
       style="fill:none;stroke:#262626;stroke-width:5;stroke-linecap:square;stroke-linejoin:round;stroke-miterlimit:10;stroke-dasharray:none;stroke-opacity:1"
       transform="matrix(0.13333333,0,0,-0.13333333,0,560)" />
    <path
       id="path43"
       d="m 5070,1640.24 h -43.4"
       style="fill:none;stroke:#262626;stroke-width:5;stroke-linecap:square;stroke-linejoin:round;stroke-miterlimit:10;stroke-dasharray:none;stroke-opacity:1"
       transform="matrix(0.13333333,0,0,-0.13333333,0,560)" />
    <path
       id="path44"
       d="m 5070,2225.36 h -43.4"
       style="fill:none;stroke:#262626;stroke-width:5;stroke-linecap:square;stroke-linejoin:round;stroke-miterlimit:10;stroke-dasharray:none;stroke-opacity:1"
       transform="matrix(0.13333333,0,0,-0.13333333,0,560)" />
    <path
       id="path45"
       d="m 5070,2810.48 h -43.4"
       style="fill:none;stroke:#262626;stroke-width:5;stroke-linecap:square;stroke-linejoin:round;stroke-miterlimit:10;stroke-dasharray:none;stroke-opacity:1"
       transform="matrix(0.13333333,0,0,-0.13333333,0,560)" />
    <path
       id="path46"
       d="m 5070,3395.6 h -43.4"
       style="fill:none;stroke:#262626;stroke-width:5;stroke-linecap:square;stroke-linejoin:round;stroke-miterlimit:10;stroke-dasharray:none;stroke-opacity:1"
       transform="matrix(0.13333333,0,0,-0.13333333,0,560)" />
    <text
       id="text46"
       xml:space="preserve"
       transform="matrix(1.3333333,0,0,1.3333333,78.4,505.33333)"><tspan
         style="font-variant:normal;font-weight:normal;font-size:16px;font-family:Helvetica;writing-mode:lr-tb;fill:#262626;fill-opacity:1;fill-rule:nonzero;stroke:none"
         x="0"
         y="0"
         id="tspan46">0</tspan><tspan
         style="font-variant:normal;font-weight:normal;font-size:16px;font-family:Helvetica;writing-mode:lr-tb;fill:#262626;fill-opacity:1;fill-rule:nonzero;stroke:none"
         x="-14 -5.1040001 -0.65600002"
         y="-58.5121"
         sodipodi:role="line"
         id="tspan47">0.5</tspan><tspan
         style="font-variant:normal;font-weight:normal;font-size:16px;font-family:Helvetica;writing-mode:lr-tb;fill:#262626;fill-opacity:1;fill-rule:nonzero;stroke:none"
         x="0"
         y="-117.0238"
         id="tspan48">1</tspan><tspan
         style="font-variant:normal;font-weight:normal;font-size:16px;font-family:Helvetica;writing-mode:lr-tb;fill:#262626;fill-opacity:1;fill-rule:nonzero;stroke:none"
         x="-14 -5.1040001 -0.65600002"
         y="-175.5359"
         sodipodi:role="line"
         id="tspan49">1.5</tspan><tspan
         style="font-variant:normal;font-weight:normal;font-size:16px;font-family:Helvetica;writing-mode:lr-tb;fill:#262626;fill-opacity:1;fill-rule:nonzero;stroke:none"
         x="0"
         y="-234.04761"
         id="tspan50">2</tspan><tspan
         style="font-variant:normal;font-weight:normal;font-size:16px;font-family:Helvetica;writing-mode:lr-tb;fill:#262626;fill-opacity:1;fill-rule:nonzero;stroke:none"
         x="-14 -5.1040001 -0.65600002"
         y="-292.55969"
         sodipodi:role="line"
         id="tspan51">2.5</tspan></text>
    <text
       id="text51"
       xml:space="preserve"
       transform="matrix(0,-1.3333333,1.3333333,0,41.333333,378.66667)"><tspan
         style="font-variant:normal;font-weight:normal;font-size:17.6px;font-family:Helvetica;writing-mode:lr-tb;fill:#262626;fill-opacity:1;fill-rule:nonzero;stroke:none"
         x="0"
         y="0"
         id="tspan52">F</tspan><tspan
         style="font-variant:normal;font-weight:normal;font-size:14.08px;font-family:Helvetica;writing-mode:lr-tb;fill:#262626;fill-opacity:1;fill-rule:nonzero;stroke:none"
         x="11 18.040001"
         y="8"
         sodipodi:role="line"
         id="tspan53">cr</tspan><tspan
         style="font-variant:normal;font-weight:normal;font-size:17.6px;font-family:Helvetica;writing-mode:lr-tb;fill:#262626;fill-opacity:1;fill-rule:nonzero;stroke:none"
         x="24 28.892799 33.785599 46.492802 52.3536 56.260799 61.153599 65.060799 73.860802 83.6464 87.553596 92.446404 96.3536 106.1392 115.9248 125.7104 130.6032 134.51041 144.29601 149.1888"
         y="0"
         sodipodi:role="line"
         id="tspan54">: Critical load in N</tspan></text>
    <path
       id="path54"
       d="m 753.59,3934.69 c 0,0.83 0.262,1.56 0.789,2.19 l 33.281,33.12 -33.281,33.28 c -0.527,0.52 -0.789,1.25 -0.789,2.19 0,0.73 0.312,1.41 0.941,2.03 0.625,0.73 1.356,1.09 2.188,1.09 0.726,0 1.562,-0.31 2.5,-0.93 l 33.121,-33.13 32.969,33.13 c 0.836,0.62 1.617,0.93 2.351,0.93 0.832,0 1.559,-0.31 2.18,-0.93 0.625,-0.62 0.941,-1.36 0.941,-2.19 0,-0.94 -0.261,-1.67 -0.781,-2.19 L 796.719,3970 830,3936.88 c 0.52,-0.63 0.781,-1.36 0.781,-2.19 0,-0.94 -0.316,-1.73 -0.941,-2.35 -0.621,-0.62 -1.348,-0.93 -2.18,-0.93 -0.832,0 -1.617,0.42 -2.351,1.25 l -32.969,32.97 -33.121,-32.97 c -0.832,-0.83 -1.664,-1.25 -2.5,-1.25 -0.832,0 -1.563,0.31 -2.188,0.93 -0.629,0.73 -0.941,1.52 -0.941,2.35"
       style="fill:#262626;fill-opacity:1;fill-rule:nonzero;stroke:none"
       transform="matrix(0.13333333,0,0,-0.13333333,0,560)" />
    <text
       id="text54"
       xml:space="preserve"
       transform="matrix(1.3333333,0,0,1.3333333,114.66667,36)"><tspan
         style="font-variant:normal;font-weight:normal;font-size:16px;font-family:Helvetica;writing-mode:lr-tb;fill:#262626;fill-opacity:1;fill-rule:nonzero;stroke:none"
         x="0 8.8959999"
         y="0"
         sodipodi:role="line"
         id="tspan55">10</tspan><tspan
         style="font-variant:normal;font-weight:normal;font-size:12.8px;font-family:Helvetica;writing-mode:lr-tb;fill:#262626;fill-opacity:1;fill-rule:nonzero;stroke:none"
         x="18"
         y="-8"
         id="tspan56">5</tspan></text>
    <text
       id="text56"
       xml:space="preserve"
       transform="matrix(1.3333333,0,0,1.3333333,286.66667,30.133333)"><tspan
         style="font-variant:normal;font-weight:700;font-size:17.6px;font-family:Helvetica;writing-mode:lr-tb;fill:#000000;fill-opacity:1;fill-rule:nonzero;stroke:none"
         x="0 11.7392 22.4928 32.2784 42.063999 46.956799 62.603199 72.388802 83.142403 88.035202 97.820801 102.7136 108.5744 113.4672 126.1744 136.92799"
         y="0"
         sodipodi:role="line"
         id="tspan57">Specimen 5 - Rod</tspan></text>
    <path
       id="path57"
       d="m 1023.85,3280 h 80 v 80 h -80 z"
       style="fill:#000000;fill-opacity:1;fill-rule:nonzero;stroke:#000000;stroke-width:5;stroke-linecap:butt;stroke-linejoin:miter;stroke-miterlimit:10;stroke-dasharray:none;stroke-opacity:1"
       transform="matrix(0.13333333,0,0,-0.13333333,0,560)" />
    <path
       id="path58"
       d="m 1357.69,2965.07 h 80 v 80 h -80 z"
       style="fill:#000000;fill-opacity:1;fill-rule:nonzero;stroke:#000000;stroke-width:5;stroke-linecap:butt;stroke-linejoin:miter;stroke-miterlimit:10;stroke-dasharray:none;stroke-opacity:1"
       transform="matrix(0.13333333,0,0,-0.13333333,0,560)" />
    <path
       id="path59"
       d="m 1688.2,2793.29 h 80 v 80 h -80 z"
       style="fill:#000000;fill-opacity:1;fill-rule:nonzero;stroke:#000000;stroke-width:5;stroke-linecap:butt;stroke-linejoin:miter;stroke-miterlimit:10;stroke-dasharray:none;stroke-opacity:1"
       transform="matrix(0.13333333,0,0,-0.13333333,0,560)" />
    <path
       id="path60"
       d="m 2022.05,2585.07 h 80 v 80 h -80 z"
       style="fill:#000000;fill-opacity:1;fill-rule:nonzero;stroke:#000000;stroke-width:5;stroke-linecap:butt;stroke-linejoin:miter;stroke-miterlimit:10;stroke-dasharray:none;stroke-opacity:1"
       transform="matrix(0.13333333,0,0,-0.13333333,0,560)" />
    <path
       id="path61"
       d="m 2355.89,2085.34 h 80 v 80 h -80 z"
       style="fill:#000000;fill-opacity:1;fill-rule:nonzero;stroke:#000000;stroke-width:5;stroke-linecap:butt;stroke-linejoin:miter;stroke-miterlimit:10;stroke-dasharray:none;stroke-opacity:1"
       transform="matrix(0.13333333,0,0,-0.13333333,0,560)" />
    <path
       id="path62"
       d="m 2689.74,1619.45 h 80 v 80 h -80 z"
       style="fill:#000000;fill-opacity:1;fill-rule:nonzero;stroke:#000000;stroke-width:5;stroke-linecap:butt;stroke-linejoin:miter;stroke-miterlimit:10;stroke-dasharray:none;stroke-opacity:1"
       transform="matrix(0.13333333,0,0,-0.13333333,0,560)" />
    <path
       id="path63"
       d="m 3357.43,1106.71 h 80 v 80 h -80 z"
       style="fill:#000000;fill-opacity:1;fill-rule:nonzero;stroke:#000000;stroke-width:5;stroke-linecap:butt;stroke-linejoin:miter;stroke-miterlimit:10;stroke-dasharray:none;stroke-opacity:1"
       transform="matrix(0.13333333,0,0,-0.13333333,0,560)" />
    <path
       id="path64"
       d="m 3971.71,877.672 h 80 v 80 h -80 z"
       style="fill:#000000;fill-opacity:1;fill-rule:nonzero;stroke:#000000;stroke-width:5;stroke-linecap:butt;stroke-linejoin:miter;stroke-miterlimit:10;stroke-dasharray:none;stroke-opacity:1"
       transform="matrix(0.13333333,0,0,-0.13333333,0,560)" />
    <path
       id="path65"
       d="m 1917.39,3890.41 26.6,-158.61 80.93,-394.99 80.93,-327.35 80.93,-274.32 80.94,-232.16 80.93,-198.22 80.93,-170.58 80.93,-147.85 80.94,-128.99 80.93,-113.2 80.93,-99.89 80.93,-88.59 80.93,-78.93 80.94,-70.63 80.93,-63.44 80.93,-57.21 80.93,-51.76 80.94,-46.99 80.93,-42.78 80.93,-39.05 80.93,-35.76 80.94,-32.83 80.93,-30.19 80.93,-27.852 80.93,-25.726 80.94,-23.821 80.93,-22.101 80.93,-20.539 80.93,-19.129 80.94,-17.844 80.93,-16.656 80.93,-15.582 80.93,-14.61 80.94,-13.699 80.93,-12.859 80.93,-12.113 80.93,-11.399 80.93,-10.75 80.94,-10.14 51.1,-6.051"
       style="fill:none;stroke:#ff0000;stroke-width:20;stroke-linecap:butt;stroke-linejoin:bevel;stroke-miterlimit:10;stroke-dasharray:80, 80;stroke-dashoffset:0;stroke-opacity:1"
       transform="matrix(0.13333333,0,0,-0.13333333,0,560)" />
    <path
       id="path66"
       d="m 2940,3410 h 2050 v 400 H 2940 Z"
       style="fill:#ffffff;fill-opacity:1;fill-rule:nonzero;stroke:none"
       transform="matrix(0.13333333,0,0,-0.13333333,0,560)" />
    <text
       id="text66"
       xml:space="preserve"
       transform="matrix(1.3333333,0,0,1.3333333,441.33333,73.152)"><tspan
         style="font-variant:normal;font-weight:normal;font-size:14.4px;font-family:Helvetica;writing-mode:lr-tb;fill:#000000;fill-opacity:1;fill-rule:nonzero;stroke:none"
         x="0 9.6048002 16.8048 24.811199 32.8176 37.612801 40.809601 52.804798 60.811199 68.817596 72.820801 80.827202 84.024002 88.027199 96.0336 104.04 108.0432"
         y="0"
         sodipodi:role="line"
         id="tspan66">Experimental data</tspan></text>
    <path
       id="path67"
       d="m 3090,3661.36 h 80 v 80 h -80 z"
       style="fill:#000000;fill-opacity:1;fill-rule:nonzero;stroke:#000000;stroke-width:5;stroke-linecap:butt;stroke-linejoin:miter;stroke-miterlimit:10;stroke-dasharray:none;stroke-opacity:1"
       transform="matrix(0.13333333,0,0,-0.13333333,0,560)" />
    <text
       id="text67"
       xml:space="preserve"
       transform="matrix(1.3333333,0,0,1.3333333,441.33333,97.514667)"><tspan
         style="font-variant:normal;font-weight:normal;font-size:14.4px;font-family:Helvetica;writing-mode:lr-tb;fill:#000000;fill-opacity:1;fill-rule:nonzero;stroke:none"
         x="0 9.6048002 16.8048 27.201599 30.398399 38.4048 46.411201 50.414398 60.019199 68.025597 71.222397 79.228798 84.024002 88.027199 98.424004 103.2192 106.416 110.4192 113.616 120.816 128.8224 132.0192 136.0224 139.21919 147.2256 155.23199"
         y="0"
         sodipodi:role="line"
         id="tspan67">Aswing Euler Critical load</tspan></text>
    <path
       id="path68"
       d="m 2980,3518.64 h 300"
       style="fill:none;stroke:#ff0000;stroke-width:20;stroke-linecap:butt;stroke-linejoin:bevel;stroke-miterlimit:10;stroke-dasharray:80, 80;stroke-dashoffset:0;stroke-opacity:1"
       transform="matrix(0.13333333,0,0,-0.13333333,0,560)" />
    <path
       id="path69"
       d="m 2940,3410 h 2050 v 400 H 2940 Z"
       style="fill:none;stroke:#262626;stroke-width:5;stroke-linecap:butt;stroke-linejoin:miter;stroke-miterlimit:10;stroke-dasharray:none;stroke-opacity:1"
       transform="matrix(0.13333333,0,0,-0.13333333,0,560)" />
    <g
       id="g133"
       transform="translate(-3.3242787,-7.0008032)">
      <rect
         style="fill:#ff0000;fill-opacity:0.5;stroke:#000000;stroke-width:2"
         id="rect73"
         width="20.222223"
         height="266.77777"
         x="135.62982"
         y="205.23897" />
      <path
         style="fill:none;stroke:#000000;stroke-width:2"
         d="m 146.32428,471.82231 v 12.25"
         id="path75" />
      <path
         style="fill:none;stroke:#000000;stroke-width:2"
         d="m 120.65761,483.48898 h 52.11111"
         id="path76" />
      <path
         style="fill:none;stroke:#000000;stroke-width:2"
         d="m 128.53261,483.19731 -6.61111,6.02778"
         id="path77" />
      <path
         style="fill:none;stroke:#000000;stroke-width:2"
         d="m 137.18538,483.1001 -6.61111,5.83333"
         id="path78" />
      <path
         style="fill:none;stroke:#000000;stroke-width:2"
         d="m 146.90761,483.39175 -6.41667,5.44445"
         id="path79" />
      <path
         style="fill:none;stroke:#000000;stroke-width:2"
         d="m 156.52579,483.33905 -6.61111,5.83333"
         id="path78-3" />
      <path
         style="fill:none;stroke:#000000;stroke-width:2"
         d="m 165.85913,483.72793 -6.41667,5.44445"
         id="path79-9" />
      <path
         style="fill:none;stroke:#0000fd;stroke-width:2;stroke-opacity:1;marker-start:url(#Triangle)"
         d="M 145.46758,197.98991 V 147.66747"
         id="path80" />
      <path
         style="fill:none;stroke:#000000;stroke-width:2;stroke-dasharray:16, 2;stroke-dashoffset:0"
         d="m 136.5,206.11112 c 201.50806,136.39222 -0.38889,264.44445 -0.38889,264.44445"
         id="path81"
         sodipodi:nodetypes="cc" />
      <path
         style="fill:none;stroke:#000000;stroke-width:2;stroke-dasharray:16, 2;stroke-dashoffset:0"
         d="m 157.11111,204.55556 c 191.71911,133.68816 -0.77777,266.77778 -0.77777,266.77778"
         id="path82"
         sodipodi:nodetypes="cc" />
      <g
         inkscape:label=""
         transform="translate(255.18724,478.75076)"
         id="g101">
        <g
           fill="#000000"
           fill-opacity="1"
           id="g2"
           transform="matrix(1.33333,0,0,1.33333,-3.42817,-2.3715)">
          <g
             id="use1"
             transform="translate(1.993,10.888)">
            <path
               d="m 9.796875,-8.421875 c -0.671875,0.125 -0.921875,0.609375 -0.921875,1 0,0.5 0.40625,0.671875 0.6875,0.671875 0.625,0 1.0625,-0.546875 1.0625,-1.09375 0,-0.875 -1,-1.265625 -1.859375,-1.265625 -1.265625,0 -1.96875,1.234375 -2.15625,1.625 -0.46875,-1.546875 -1.75,-1.625 -2.125,-1.625 -2.109375,0 -3.21875,2.703125 -3.21875,3.15625 0,0.09375 0.078125,0.1875 0.21875,0.1875 0.171875,0 0.203125,-0.125 0.25,-0.203125 0.703125,-2.296875 2.09375,-2.734375 2.6875,-2.734375 0.921875,0 1.109375,0.875 1.109375,1.375 0,0.453125 -0.125,0.921875 -0.359375,1.921875 L 4.46875,-2.578125 c -0.3125,1.234375 -0.921875,2.375 -2.015625,2.375 -0.09375,0 -0.609375,0 -1.046875,-0.265625 C 2.140625,-0.625 2.3125,-1.234375 2.3125,-1.484375 2.3125,-1.90625 2,-2.140625 1.609375,-2.140625 c -0.5,0 -1.03125,0.421875 -1.03125,1.09375 0,0.859375 0.96875,1.25 1.859375,1.25 0.984375,0 1.6875,-0.78125 2.125,-1.625 0.328125,1.21875 1.359375,1.625 2.125,1.625 2.109375,0 3.234375,-2.703125 3.234375,-3.15625 0,-0.109375 -0.09375,-0.1875 -0.21875,-0.1875 -0.1875,0 -0.203125,0.109375 -0.265625,0.265625 -0.5625,1.828125 -1.75,2.671875 -2.6875,2.671875 -0.71875,0 -1.109375,-0.546875 -1.109375,-1.390625 0,-0.453125 0.078125,-0.78125 0.40625,-2.140625 l 0.734375,-2.8125 c 0.296875,-1.234375 1,-2.15625 1.953125,-2.15625 0.046875,0 0.625,0 1.0625,0.28125 z m 0,0"
               id="path4-0" />
          </g>
        </g>
      </g>
      <g
         inkscape:label=""
         transform="translate(213.38938,434.75301)"
         id="g104">
        <g
           fill="#000000"
           fill-opacity="1"
           id="g103"
           transform="matrix(1.33333,0,0,1.33333,-3.40733,-2.37283)">
          <g
             id="g102"
             transform="translate(1.993,10.889)">
            <path
               d="m 5.4375,2.3125 c -0.5625,0.78125 -1.375,1.484375 -2.375,1.484375 -0.25,0 -1.25,-0.03125 -1.546875,-0.984375 C 1.5625,2.828125 1.671875,2.828125 1.71875,2.828125 2.328125,2.828125 2.75,2.296875 2.75,1.8125 2.75,1.34375 2.359375,1.171875 2.046875,1.171875 c -0.328125,0 -1.0625,0.25 -1.0625,1.265625 0,1.046875 0.890625,1.78125 2.078125,1.78125 2.0625,0 4.140625,-1.90625 4.71875,-4.203125 L 9.8125,-8.03125 c 0.015625,-0.109375 0.0625,-0.234375 0.0625,-0.359375 0,-0.3125 -0.25,-0.515625 -0.5625,-0.515625 -0.1875,0 -0.609375,0.09375 -0.78125,0.703125 L 7,-2.125 c -0.09375,0.375 -0.09375,0.40625 -0.265625,0.640625 -0.40625,0.578125 -1.09375,1.28125 -2.09375,1.28125 -1.15625,0 -1.25,-1.140625 -1.25,-1.703125 0,-1.171875 0.5625,-2.765625 1.109375,-4.25 0.234375,-0.59375 0.359375,-0.890625 0.359375,-1.296875 0,-0.875 -0.625,-1.65625 -1.640625,-1.65625 -1.890625,0 -2.65625,3 -2.65625,3.15625 0,0.09375 0.078125,0.1875 0.21875,0.1875 0.1875,0 0.203125,-0.078125 0.296875,-0.375 0.484375,-1.734375 1.28125,-2.5625 2.078125,-2.5625 0.1875,0 0.546875,0 0.546875,0.6875 0,0.53125 -0.234375,1.140625 -0.546875,1.921875 -1.015625,2.703125 -1.015625,3.390625 -1.015625,3.890625 0,1.953125 1.40625,2.40625 2.4375,2.40625 0.609375,0 1.34375,-0.1875 2.078125,-0.953125 l 0.015625,0.03125 C 6.359375,0.5 6.15625,1.296875 5.4375,2.3125 Z m 0,0"
               id="path101" />
          </g>
        </g>
      </g>
      <g
         inkscape:label=""
         transform="translate(251.22255,386.16689)"
         id="g110">
        <g
           fill="#000000"
           fill-opacity="1"
           id="g8"
           transform="matrix(1.33333,0,0,1.33333,-3.7615,-2.66967)">
          <g
             id="use7"
             transform="translate(1.993,17.471001)">
            <path
               d="m 5.375,-9 c -2.640625,0.640625 -4.546875,3.375 -4.546875,5.796875 0,2.21875 1.484375,3.453125 3.140625,3.453125 2.4375,0 4.09375,-3.34375 4.09375,-6.09375 0,-1.859375 -0.875,-3 -1.390625,-3.671875 -0.765625,-0.984375 -2,-2.5625 -2,-3.5625 0,-0.34375 0.265625,-0.96875 1.171875,-0.96875 0.640625,0 1.03125,0.234375 1.65625,0.578125 0.1875,0.125 0.65625,0.390625 0.921875,0.390625 0.4375,0 0.75,-0.4375 0.75,-0.765625 0,-0.390625 -0.3125,-0.453125 -1.03125,-0.609375 -0.96875,-0.21875 -1.265625,-0.21875 -1.609375,-0.21875 -0.359375,0 -2.375,0 -2.375,2.109375 0,1.015625 0.515625,2.1875 1.21875,3.5625 z m 0.21875,0.390625 c 0.78125,1.625 1.09375,2.25 1.09375,3.59375 0,1.609375 -0.859375,4.84375 -2.703125,4.84375 -0.796875,0 -1.953125,-0.53125 -1.953125,-2.453125 0,-1.34375 0.75,-5.25 3.5625,-5.984375 z m 0,0"
               id="path104" />
          </g>
        </g>
        <g
           fill="#000000"
           fill-opacity="1"
           id="g9"
           transform="matrix(1.33333,0,0,1.33333,-3.7615,-2.66967)">
          <g
             id="use8"
             transform="translate(11.718839,17.471001)">
            <path
               d="m 9.796875,-8.421875 c -0.671875,0.125 -0.921875,0.609375 -0.921875,1 0,0.5 0.40625,0.671875 0.6875,0.671875 0.625,0 1.0625,-0.546875 1.0625,-1.09375 0,-0.875 -1,-1.265625 -1.859375,-1.265625 -1.265625,0 -1.96875,1.234375 -2.15625,1.625 -0.46875,-1.546875 -1.75,-1.625 -2.125,-1.625 -2.109375,0 -3.21875,2.703125 -3.21875,3.15625 0,0.09375 0.078125,0.1875 0.21875,0.1875 0.171875,0 0.203125,-0.125 0.25,-0.203125 0.703125,-2.296875 2.09375,-2.734375 2.6875,-2.734375 0.921875,0 1.109375,0.875 1.109375,1.375 0,0.453125 -0.125,0.921875 -0.359375,1.921875 L 4.46875,-2.578125 c -0.3125,1.234375 -0.921875,2.375 -2.015625,2.375 -0.09375,0 -0.609375,0 -1.046875,-0.265625 C 2.140625,-0.625 2.3125,-1.234375 2.3125,-1.484375 2.3125,-1.90625 2,-2.140625 1.609375,-2.140625 c -0.5,0 -1.03125,0.421875 -1.03125,1.09375 0,0.859375 0.96875,1.25 1.859375,1.25 0.984375,0 1.6875,-0.78125 2.125,-1.625 0.328125,1.21875 1.359375,1.625 2.125,1.625 2.109375,0 3.234375,-2.703125 3.234375,-3.15625 0,-0.109375 -0.09375,-0.1875 -0.21875,-0.1875 -0.1875,0 -0.203125,0.109375 -0.265625,0.265625 -0.5625,1.828125 -1.75,2.671875 -2.6875,2.671875 -0.71875,0 -1.109375,-0.546875 -1.109375,-1.390625 0,-0.453125 0.078125,-0.78125 0.40625,-2.140625 l 0.734375,-2.8125 c 0.296875,-1.234375 1,-2.15625 1.953125,-2.15625 0.046875,0 0.625,0 1.0625,0.28125 z m 0,0"
               id="path105" />
          </g>
        </g>
        <g
           fill="#000000"
           fill-opacity="1"
           id="g10"
           transform="matrix(1.33333,0,0,1.33333,-3.7615,-2.66967)">
          <g
             id="use9"
             transform="translate(23.225,17.471001)">
            <path
               d="m 6.328125,5.046875 c 0,-0.03125 0,-0.0625 -0.0625,-0.125 -0.953125,-0.96875 -3.5,-3.625 -3.5,-10.0625 0,-6.453125 2.5,-9.078125 3.515625,-10.109375 0,-0.01563 0.046875,-0.0625 0.046875,-0.125 0,-0.0625 -0.0625,-0.09375 -0.15625,-0.09375 -0.21875,0 -1.984375,1.53125 -2.984375,3.796875 -1.046875,2.296875 -1.328125,4.53125 -1.328125,6.5 0,1.5 0.140625,4.015625 1.390625,6.6875 0.984375,2.140625 2.671875,3.65625 2.921875,3.65625 0.109375,0 0.15625,-0.046875 0.15625,-0.125 z m 0,0"
               id="path106" />
          </g>
        </g>
        <g
           fill="#000000"
           fill-opacity="1"
           id="g11"
           transform="matrix(1.33333,0,0,1.33333,-3.7615,-2.66967)">
          <g
             id="use10"
             transform="translate(30.542,17.471001)">
            <path
               d="m 4.15625,-8.296875 h 1.890625 c 0.390625,0 0.609375,0 0.609375,-0.375 0,-0.234375 -0.125,-0.234375 -0.546875,-0.234375 h -1.8125 L 5.0625,-11.921875 c 0.078125,-0.28125 0.078125,-0.328125 0.078125,-0.46875 0,-0.328125 -0.265625,-0.515625 -0.53125,-0.515625 -0.171875,0 -0.640625,0.0625 -0.8125,0.71875 L 3,-8.90625 H 1.046875 c -0.40625,0 -0.59375,0 -0.59375,0.390625 0,0.21875 0.140625,0.21875 0.53125,0.21875 h 1.84375 L 1.46875,-2.84375 c -0.171875,0.71875 -0.234375,0.921875 -0.234375,1.1875 0,0.96875 0.6875,1.859375 1.84375,1.859375 2.09375,0 3.203125,-3.015625 3.203125,-3.15625 0,-0.125 -0.078125,-0.1875 -0.203125,-0.1875 -0.046875,0 -0.125,0 -0.171875,0.078125 -0.015625,0.03125 -0.046875,0.046875 -0.1875,0.375 -0.4375,1.03125 -1.375,2.484375 -2.578125,2.484375 -0.625,0 -0.65625,-0.515625 -0.65625,-0.96875 0,-0.03125 0,-0.421875 0.0625,-0.671875 z m 0,0"
               id="path107" />
          </g>
        </g>
        <g
           fill="#000000"
           fill-opacity="1"
           id="g12"
           transform="matrix(1.33333,0,0,1.33333,-3.7615,-2.66967)">
          <g
             id="use11"
             transform="translate(37.848,17.471001)">
            <path
               d="m 5.4375,-5.140625 c 0,-1.484375 -0.15625,-4.015625 -1.390625,-6.671875 -0.984375,-2.15625 -2.6875,-3.65625 -2.9375,-3.65625 -0.0625,0 -0.140625,0.01563 -0.140625,0.125 0,0.03125 0.015625,0.0625 0.046875,0.09375 C 2,-14.21875 4.53125,-11.59375 4.53125,-5.171875 4.53125,1.28125 2.03125,3.90625 1.015625,4.9375 0.984375,4.984375 0.96875,5 0.96875,5.046875 c 0,0.09375 0.078125,0.125 0.140625,0.125 0.234375,0 1.984375,-1.53125 3,-3.8125 1.03125,-2.28125 1.328125,-4.515625 1.328125,-6.5 z m 0,0"
               id="path108" />
          </g>
        </g>
        <g
           fill="#000000"
           fill-opacity="1"
           id="g13"
           transform="matrix(1.33333,0,0,1.33333,-3.7615,-2.66967)">
          <g
             id="use12"
             transform="translate(50.904999,17.471001)">
            <path
               d="m 17.234375,-4.75 c -1.140625,0.859375 -1.703125,1.71875 -1.859375,1.984375 -0.9375,1.421875 -1.09375,2.71875 -1.09375,2.75 0,0.25 0.234375,0.25 0.40625,0.25 0.34375,0 0.375,-0.046875 0.453125,-0.421875 0.46875,-2.015625 1.6875,-3.765625 4.03125,-4.703125 0.25,-0.09375 0.3125,-0.125 0.3125,-0.28125 0,-0.140625 -0.125,-0.203125 -0.171875,-0.21875 C 18.40625,-5.75 15.90625,-6.78125 15.125,-10.25 c -0.0625,-0.25 -0.09375,-0.3125 -0.4375,-0.3125 -0.171875,0 -0.40625,0 -0.40625,0.25 0,0.04687 0.171875,1.34375 1.046875,2.734375 0.40625,0.609375 1.015625,1.34375 1.90625,2 H 1.875 c -0.359375,0 -0.734375,0 -0.734375,0.40625 0,0.421875 0.375,0.421875 0.734375,0.421875 z m 0,0"
               id="path109" />
          </g>
        </g>
        <g
           fill="#000000"
           fill-opacity="1"
           id="g14"
           transform="matrix(1.33333,0,0,1.33333,-3.7615,-2.66967)">
          <g
             id="use13"
             transform="translate(77.311676,17.471001)">
            <path
               d="M 10.5,-5.59375 C 9.375,-7 9.125,-7.3125 8.484375,-7.828125 7.328125,-8.765625 6.171875,-9.125 5.125,-9.125 c -2.421875,0 -3.984375,2.265625 -3.984375,4.6875 0,2.375 1.53125,4.671875 3.90625,4.671875 2.375,0 4.078125,-1.890625 5.09375,-3.546875 1.109375,1.40625 1.359375,1.71875 2,2.234375 1.15625,0.9375 2.3125,1.3125 3.375,1.3125 2.421875,0 3.984375,-2.28125 3.984375,-4.703125 0,-2.375 -1.53125,-4.65625 -3.90625,-4.65625 -2.375,0 -4.09375,1.875 -5.09375,3.53125 z m 0.53125,0.703125 c 0.84375,-1.484375 2.375,-3.578125 4.703125,-3.578125 2.203125,0 3.3125,2.140625 3.3125,4 0,2.03125 -1.390625,3.703125 -3.203125,3.703125 -1.203125,0 -2.125,-0.859375 -2.5625,-1.296875 -0.515625,-0.5625 -0.984375,-1.203125 -2.25,-2.828125 z M 9.609375,-4 c -0.84375,1.484375 -2.375,3.5625 -4.71875,3.5625 -2.1875,0 -3.296875,-2.140625 -3.296875,-4 0,-2.03125 1.375,-3.703125 3.203125,-3.703125 1.1875,0 2.125,0.875 2.5625,1.296875 0.515625,0.5625 0.984375,1.203125 2.25,2.84375 z m 0,0"
               id="path110" />
          </g>
        </g>
      </g>
      <path
         style="fill:none;fill-opacity:0.5;stroke:#000000;stroke-width:2;stroke-dasharray:none;stroke-dashoffset:0"
         d="M 248.11112,398.22223 C 191.33334,387.33334 178.88889,339.11112 178.88889,339.11112"
         id="path112" />
      <g
         inkscape:label=""
         transform="translate(150.88888,166.83322)"
         id="g115"
         style="fill:#0000ff;fill-opacity:1">
        <g
           fill="#000000"
           fill-opacity="1"
           id="g4"
           transform="matrix(1.33333,0,0,1.33333,-3.92817,-2.73267)"
           style="fill:#0000ff;fill-opacity:1">
          <g
             id="use3"
             transform="translate(1.993,16.112)"
             style="fill:#0000ff;fill-opacity:1">
            <path
               d="M 6.140625,-6.734375 H 8.125 c 1.5625,0 1.6875,0.359375 1.6875,0.953125 0,0.265625 -0.046875,0.5625 -0.140625,1.015625 -0.046875,0.078125 -0.0625,0.1875 -0.0625,0.21875 0,0.140625 0.078125,0.234375 0.21875,0.234375 0.171875,0 0.1875,-0.09375 0.265625,-0.421875 l 1.203125,-4.8125 c 0,-0.078125 -0.0625,-0.203125 -0.203125,-0.203125 -0.1875,0 -0.203125,0.078125 -0.296875,0.4375 -0.421875,1.546875 -0.84375,1.984375 -2.640625,1.984375 h -1.875 L 7.625,-12.6875 c 0.1875,-0.71875 0.21875,-0.78125 1.078125,-0.78125 h 2.765625 c 2.578125,0 2.953125,0.765625 2.953125,2.234375 0,0.125 0,0.578125 -0.0625,1.109375 -0.03125,0.09375 -0.0625,0.359375 -0.0625,0.4375 0,0.171875 0.09375,0.234375 0.21875,0.234375 0.15625,0 0.234375,-0.09375 0.28125,-0.46875 l 0.421875,-3.609375 c 0,-0.0625 0.04687,-0.265625 0.04687,-0.3125 0,-0.21875 -0.1875,-0.21875 -0.5625,-0.21875 H 4.92187 c -0.390625,0 -0.609375,0 -0.609375,0.375 0,0.21875 0.15625,0.21875 0.5,0.21875 1.28125,0 1.28125,0.140625 1.28125,0.375 0,0.09375 -0.015625,0.1875 -0.078125,0.40625 L 3.21875,-1.53125 C 3.03125,-0.8125 3,-0.59375 1.546875,-0.59375 c -0.390625,0 -0.59375,0 -0.59375,0.359375 C 0.953125,0 1.140625,0 1.265625,0 1.65625,0 2.0625,-0.046875 2.453125,-0.046875 h 2.6875 C 5.59375,-0.046875 6.09375,0 6.546875,0 c 0.1875,0 0.4375,0 0.4375,-0.375 0,-0.21875 -0.125,-0.21875 -0.578125,-0.21875 -1.640625,0 -1.671875,-0.15625 -1.671875,-0.453125 0,-0.109375 0.03125,-0.28125 0.078125,-0.421875 z m 0,0"
               id="path113"
               style="fill:#0000ff;fill-opacity:1" />
          </g>
        </g>
        <g
           fill="#000000"
           fill-opacity="1"
           id="g5"
           transform="matrix(1.33333,0,0,1.33333,-3.92817,-2.73267)"
           style="fill:#0000ff;fill-opacity:1">
          <g
             id="use4"
             transform="translate(15.089,19.211)"
             style="fill:#0000ff;fill-opacity:1">
            <path
               d="m 5.609375,-5.390625 c -0.28125,0 -0.40625,0 -0.609375,0.171875 -0.078125,0.0625 -0.234375,0.28125 -0.234375,0.515625 0,0.28125 0.21875,0.453125 0.484375,0.453125 0.34375,0 0.734375,-0.28125 0.734375,-0.859375 0,-0.6875 -0.65625,-1.21875 -1.65625,-1.21875 -1.875,0 -3.75,2.046875 -3.75,4.09375 0,1.25 0.765625,2.375 2.234375,2.375 C 4.765625,0.140625 6,-1.375 6,-1.5625 6,-1.65625 5.90625,-1.71875 5.859375,-1.71875 c -0.046875,0 -0.0625,0.015625 -0.1875,0.140625 -0.921875,1.21875 -2.28125,1.4375 -2.828125,1.4375 -1,0 -1.3125,-0.859375 -1.3125,-1.578125 0,-0.5 0.25,-1.890625 0.765625,-2.875 0.375,-0.671875 1.140625,-1.4375 2.046875,-1.4375 0.1875,0 0.984375,0.015625 1.265625,0.640625 z m 0,0"
               id="path114"
               style="fill:#0000ff;fill-opacity:1" />
          </g>
          <g
             id="use5"
             transform="translate(21.134489,19.211)"
             style="fill:#0000ff;fill-opacity:1">
            <path
               d="M 5.578125,-5.859375 C 5.140625,-5.78125 4.90625,-5.46875 4.90625,-5.15625 c 0,0.34375 0.265625,0.46875 0.46875,0.46875 0.40625,0 0.734375,-0.34375 0.734375,-0.78125 0,-0.453125 -0.4375,-0.859375 -1.15625,-0.859375 -0.578125,0 -1.234375,0.265625 -1.84375,1.140625 -0.09375,-0.765625 -0.671875,-1.140625 -1.25,-1.140625 -0.546875,0 -0.84375,0.4375 -1.015625,0.75 -0.234375,0.515625 -0.453125,1.375 -0.453125,1.453125 0,0.046875 0.046875,0.125 0.15625,0.125 0.109375,0 0.125,-0.015625 0.21875,-0.34375 0.203125,-0.859375 0.484375,-1.6875 1.0625,-1.6875 0.34375,0 0.4375,0.234375 0.4375,0.65625 0,0.3125 -0.140625,0.875 -0.25,1.3125 L 1.625,-2.515625 c -0.0625,0.28125 -0.21875,0.921875 -0.296875,1.1875 -0.09375,0.359375 -0.25,1.046875 -0.25,1.109375 0,0.203125 0.15625,0.359375 0.375,0.359375 0.15625,0 0.421875,-0.09375 0.515625,-0.390625 0.046875,-0.109375 0.5625,-2.28125 0.65625,-2.609375 0.078125,-0.3125 0.15625,-0.609375 0.234375,-0.921875 0.046875,-0.203125 0.109375,-0.4375 0.15625,-0.625 C 3.0625,-4.53125 3.4375,-5.234375 3.796875,-5.546875 3.96875,-5.703125 4.34375,-6.03125 4.9375,-6.03125 c 0.21875,0 0.453125,0.03125 0.640625,0.171875 z m 0,0"
               id="path115"
               style="fill:#0000ff;fill-opacity:1" />
          </g>
        </g>
      </g>
      <path
         style="fill:none;stroke:#000000;stroke-width:1;stroke-dasharray:none;stroke-dashoffset:0;marker-end:url(#Triangle)"
         d="m 145.05556,334.83334 h 86.72222"
         id="path83" />
      <path
         style="fill:none;stroke:#000000;stroke-width:2;stroke-dasharray:none;stroke-dashoffset:0;marker-start:url(#Triangle);marker-end:url(#Triangle)"
         d="m 203,442.94445 v 42.38889 h 43.16667"
         id="path84" />
      <path
         style="fill:none;stroke:#000000;stroke-width:1;stroke-dasharray:none;stroke-dashoffset:0"
         d="m 144.64262,319.53371 v 31.62338"
         id="path85" />
    </g>
    <circle
       style="fill:#ff0000;fill-opacity:0.5;stroke:#000000;stroke-width:2;stroke-dasharray:none"
       id="path70"
       cx="542.88892"
       cy="235.66667"
       r="66.888893" />
    <path
       style="fill:#ff0000;fill-opacity:0.5;stroke:#000000;stroke-width:1;stroke-dasharray:none"
       d="m 475.72574,233.73808 0,82.77078"
       id="path71"
       sodipodi:nodetypes="cc" />
    <path
       style="fill:#ff0000;fill-opacity:0.5;stroke:#000000;stroke-width:1;stroke-dasharray:none"
       d="m 610.19792,230.45171 0,82.49579"
       id="path71-5"
       sodipodi:nodetypes="cc" />
    <path
       style="fill:#ff0000;fill-opacity:0.5;stroke:#000000;stroke-width:1;stroke-dasharray:none;marker-start:url(#Triangle);marker-end:url(#Triangle)"
       d="M 479.02557,311.83409 H 607.44402"
       id="path72"
       sodipodi:nodetypes="cc" />
    <g
       inkscape:label=""
       transform="translate(511.4739,319.25916)"
       id="g94"
       inkscape:export-filename="Specimen_5.pdf"
       inkscape:export-xdpi="96"
       inkscape:export-ydpi="96">
      <g
         fill="#000000"
         fill-opacity="1"
         id="g90"
         transform="matrix(1.33333,0,0,1.33333,-3.78233,-1.998)">
        <g
           id="use6"
           transform="translate(1.993,15.311)">
          <path
             d="m 8.609375,-3.203125 h -0.375 c -0.203125,1.46875 -0.359375,1.71875 -0.453125,1.84375 -0.09375,0.15625 -1.578125,0.15625 -1.875,0.15625 H 1.9375 C 2.6875,-2 4.125,-3.46875 5.890625,-5.171875 c 1.25,-1.1875 2.71875,-2.59375 2.71875,-4.640625 0,-2.4375 -1.9375,-3.84375 -4.109375,-3.84375 -2.265625,0 -3.65625,2 -3.65625,3.859375 0,0.8125 0.609375,0.921875 0.84375,0.921875 0.21875,0 0.828125,-0.125 0.828125,-0.859375 0,-0.640625 -0.53125,-0.828125 -0.828125,-0.828125 -0.125,0 -0.234375,0.03125 -0.328125,0.0625 0.390625,-1.75 1.59375,-2.609375 2.859375,-2.609375 1.796875,0 2.96875,1.421875 2.96875,3.296875 0,1.796875 -1.046875,3.34375 -2.234375,4.6875 L 0.84375,-0.46875 V 0 H 8.125 Z m 0,0"
             id="path86" />
        </g>
        <g
           id="g87"
           transform="translate(11.468822,15.311)">
          <path
             d="m 3.421875,-0.84375 c 0,-0.515625 -0.40625,-0.84375 -0.84375,-0.84375 -0.40625,0 -0.84375,0.328125 -0.84375,0.84375 C 1.734375,-0.328125 2.140625,0 2.578125,0 3,0 3.421875,-0.328125 3.421875,-0.84375 Z m 0,0"
             id="path87" />
        </g>
        <g
           id="g88"
           transform="translate(16.626183,15.311)">
          <path
             d="m 2.359375,-12.078125 c 0.203125,0.07813 1.046875,0.34375 1.921875,0.34375 1.921875,0 2.96875,-1.03125 3.5625,-1.625 0,-0.171875 0,-0.28125 -0.125,-0.28125 -0.015625,0 -0.0625,0 -0.21875,0.09375 C 6.78125,-13.234375 5.921875,-13 4.890625,-13 c -0.609375,0 -1.546875,-0.07813 -2.5625,-0.53125 -0.21875,-0.109375 -0.265625,-0.109375 -0.28125,-0.109375 -0.109375,0 -0.125,0.03125 -0.125,0.4375 v 6 c 0,0.359375 0,0.46875 0.203125,0.46875 0.109375,0 0.140625,-0.046875 0.25,-0.1875 0.65625,-0.921875 1.578125,-1.3125 2.609375,-1.3125 0.71875,0 2.265625,0.453125 2.265625,3.984375 0,0.65625 0,1.859375 -0.625,2.796875 -0.515625,0.859375 -1.3125,1.28125 -2.203125,1.28125 -1.359375,0 -2.75,-0.9375 -3.125,-2.53125 0.09375,0.015625 0.25,0.0625 0.328125,0.0625 0.28125,0 0.796875,-0.140625 0.796875,-0.78125 0,-0.5625 -0.390625,-0.796875 -0.796875,-0.796875 -0.46875,0 -0.78125,0.296875 -0.78125,0.875 0,1.796875 1.421875,3.671875 3.625,3.671875 2.125,0 4.140625,-1.84375 4.140625,-4.5 C 8.609375,-6.65625 7,-8.578125 5,-8.578125 c -1.046875,0 -1.9375,0.390625 -2.640625,1.140625 z m 0,0"
             id="path88" />
        </g>
        <g
           id="g89"
           transform="translate(26.102005,15.311)">
          <path
             d="m 6.9375,-13.359375 c 0,-0.4375 -0.015625,-0.453125 -0.390625,-0.453125 L 0.40625,-4.046875 v 0.53125 H 5.75 v 2.03125 C 5.75,-0.75 5.703125,-0.53125 4.25,-0.53125 H 3.859375 V 0 c 0.671875,-0.046875 1.78125,-0.046875 2.484375,-0.046875 0.703125,0 1.8125,0 2.46875,0.046875 V -0.53125 H 8.421875 C 6.984375,-0.53125 6.9375,-0.75 6.9375,-1.484375 v -2.03125 h 2.109375 v -0.53125 H 6.9375 Z M 5.796875,-12 v 7.953125 h -4.96875 z m 0,0"
             id="path89" />
        </g>
      </g>
      <g
         fill="#000000"
         fill-opacity="1"
         id="g93"
         transform="matrix(1.33333,0,0,1.33333,-3.78233,-1.998)">
        <g
           id="g91"
           transform="translate(41.817902,15.311)">
          <path
             d="m 7.203125,-7.234375 c -0.390625,0 -0.96875,0 -0.96875,0.734375 0,0.578125 0.484375,0.734375 0.75,0.734375 0.140625,0 0.734375,-0.0625 0.734375,-0.78125 0,-1.46875 -1.390625,-2.578125 -2.984375,-2.578125 -2.1875,0 -4.046875,2.015625 -4.046875,4.65625 0,2.75 1.9375,4.640625 4.046875,4.640625 2.5625,0 3.203125,-2.375 3.203125,-2.609375 0,-0.078125 -0.03125,-0.140625 -0.171875,-0.140625 -0.140625,0 -0.171875,0.015625 -0.25,0.28125 -0.53125,1.671875 -1.71875,2.09375 -2.59375,2.09375 C 3.59375,-0.203125 2,-1.421875 2,-4.484375 2,-7.625 3.53125,-8.765625 4.75,-8.765625 c 0.8125,0 2,0.40625 2.453125,1.53125 z m 0,0"
             id="path90" />
        </g>
        <g
           id="g92"
           transform="translate(50.215141,15.311)">
          <path
             d="m 13.96875,-6.28125 c 0,-1.03125 -0.1875,-2.765625 -2.65625,-2.765625 -1.390625,0 -2.375,0.953125 -2.734375,2.0625 h -0.03125 c -0.25,-1.6875 -1.46875,-2.0625 -2.625,-2.0625 -1.625,0 -2.46875,1.265625 -2.78125,2.078125 H 3.125 V -9.046875 L 0.6875,-8.8125 v 0.53125 c 1.21875,0 1.40625,0.125 1.40625,1.109375 v 5.75 C 2.09375,-0.640625 2,-0.53125 0.6875,-0.53125 V 0 c 0.484375,-0.046875 1.40625,-0.046875 1.9375,-0.046875 0.53125,0 1.46875,0 1.953125,0.046875 v -0.53125 c -1.3125,0 -1.390625,-0.09375 -1.390625,-0.890625 v -3.96875 c 0,-1.90625 1.15625,-3.328125 2.59375,-3.328125 1.53125,0 1.703125,1.359375 1.703125,2.359375 v 4.9375 c 0,0.78125 -0.09375,0.890625 -1.40625,0.890625 V 0 c 0.484375,-0.046875 1.40625,-0.046875 1.9375,-0.046875 0.53125,0 1.46875,0 1.96875,0.046875 v -0.53125 c -1.328125,0 -1.40625,-0.09375 -1.40625,-0.890625 v -3.96875 c 0,-1.90625 1.15625,-3.328125 2.59375,-3.328125 1.53125,0 1.703125,1.359375 1.703125,2.359375 v 4.9375 c 0,0.78125 -0.09375,0.890625 -1.40625,0.890625 V 0 c 0.484375,-0.046875 1.40625,-0.046875 1.9375,-0.046875 0.53125,0 1.46875,0 1.96875,0.046875 v -0.53125 c -1.328125,0 -1.40625,-0.09375 -1.40625,-0.890625 z m 0,0"
             id="path91" />
        </g>
      </g>
    </g>
  </g>
</svg>
